
<svg height="317" width="870" xmlns="http://www.w3.org/2000/svg"><path d="m468.2 15.2c-8.9-8.9-21-13.6-33.2-13.5-12.2-.1-24.1 4.7-33.1 13.5-9 9-14 21-14.1 33.8l.5 20.7c4.1-16.9 23.2-29.6 46.6-29.5 23.4-.1 42.8 12.6 46.7 29.5l.5-20.7c.1-12.8-4.9-24.8-13.9-33.8zm-33.1 73.4h-.1c-22.2-.3-40.8 4.8-45 11.8l1.9 60.7c6 2.3 22.1 4.2 40.9 4.4h4.3c18.8-.2 34.9-2 40.9-4.4l1.9-60.7c-3.9-7-22.6-12.1-44.8-11.8zm3 128.2h-3v.4h-2.9c-17.4-.3-32.5-7.5-38.4-17.6l.5 20.4c-.3 21.4 16.8 39 37.9 39.2h3.6v-.3c.7 0 1.4.1 2.1.1 21.1-.2 38.1-17.9 37.8-39.3l.6-20.4c-5.8 9.9-20.8 17.3-38.2 17.5z" fill="#7eb4cb"/><path d="m435 35.2c-23.4-.1-42.7 12.6-46.7 29.5l1.7 42.7c4.1-7 22.8-12.1 44.9-11.8h.2c22.1-.3 40.8 4.8 44.9 11.8l1.7-42.7c-3.9-16.9-23.3-29.6-46.7-29.5z" fill="#aacee3"/><path d="m437.9 161.4c-.7.1-1.2.1-2.2.1s-1.4 0-2.2-.1c-18.8-.2-34.8-2-40.8-4.4l1.9 48.6c5.9 10.1 20.8 17.1 38.2 17.3 1 .1 1.9 0 3 0s1.9.1 3 0c17.4-.2 32.5-7.5 38.4-17.6l1.7-48.3c-6.1 2.3-22.2 4.2-41 4.4z" fill="#4b95b5"/><g fill="#7eb4cb"><path d="m512.4 261.7c-21.5-2.1-37.4-21.7-35.4-43.8l6.3-167.2c2.5-27.2 25.9-47.3 52.3-44.8s45.9 26.7 43.4 53.8l-23.5 165.7c-1.9 22-21.6 38.3-43.1 36.3z"/><path d="m586.9 272.6c-21.1-4.4-35.5-25.5-31.3-47.2l23.5-165.7c5.2-26.8 30.6-44.1 56.6-38.7s42.9 31.4 37.6 58.2l-40.1 162c-4.2 21.7-25.2 35.7-46.3 31.4zm208.1-216.4c21.5 2.1 37.4 21.7 35.4 43.8l-6.3 167.2c-2.5 27.2-25.9 47.3-52.3 44.8s-45.9-26.7-43.4-53.8l23.5-165.7c1.9-22.1 21.7-38.4 43.1-36.3z"/><path d="m720.5 45.2c21.1 4.4 35.5 25.5 31.3 47.2l-23.5 165.7c-5.2 26.8-30.6 44.1-56.6 38.7s-42.9-31.4-37.6-58.2l40.1-162c4.2-21.6 25.2-35.7 46.3-31.4z"/></g><path d="m827.3 162.4c.3-3.1-18.9-7.4-42.2-9.7s-42.8-1.5-43.1 1.6l5.4-38.2c1.3-14.5 20.8-24.6 43-22.4 22.2 2.1 39.8 15.5 38.4 30z" fill="#aacee3"/><path d="m742.2 152.8c.6-3.1-18-9.4-41-14.2s-42.4-6.1-43-3l9.2-37.4c2.8-14.3 23.1-22.2 45-17.7s38 19.7 35.2 34zm-167.1-72.4c1.8-19.6-17.7-37.5-43.4-40s-47.9 11.4-49.7 31l-1.4 38.7c.7-8.2 21.2-13 45.7-10.6s44.1 10.9 43.3 19.2z" fill="#aacee3"/><path d="m667.5 98.6c3.8-19.3-13.8-39.2-39.1-44.4s-48.8 6.2-52.5 25.5l-5.3 38.3c1.6-8.1 22.4-10.6 46.6-5.7 24.1 5 42.7 15.6 41.1 23.7z" fill="#aacee3"/><path d="m731.9 241.2c-1.8 19.6 17.7 37.5 43.4 40s47.9-11.4 49.7-31l1.4-38.7c-.7 8.2-21.2 13-45.7 10.6s-44.1-10.9-43.3-19.2zm-92.4-18.3c-3.8 19.3 13.8 39.2 39.1 44.4s48.8-6.2 52.5-25.5l5.3-38.3c-1.6 8.1-22.4 10.6-46.6 5.7s-42.7-15.6-41.1-23.7zm-159.3-68.9c-.3 3.1 18.9 7.4 42.2 9.7s42.8 1.5 43.1-1.6l-5.4 38.2c-1.3 14.5-20.8 24.6-43 22.4-22.2-2.1-39.8-15.5-38.4-30z" fill="#4b95b5"/><path d="m565.3 163.6c-.6 3.1 18 9.4 41 14.2s42.4 6.1 43 3l-9.2 37.4c-2.8 14.3-23.1 22.2-45 17.7s-38-19.7-35.2-34z" fill="#4b95b5"/><path d="m516.2 263.8c-1.3 0-2.6-.1-3.9-.2-22.6-2.2-39.2-22.7-37.2-45.9l6.3-167.3c1.3-14 7.9-26.6 18.5-35.4 10.2-8.5 23-12.4 36-11.2 27.5 2.6 47.8 27.8 45.2 56l-23.5 165.8c-1 11.1-6.4 21.3-15.1 28.6-7.6 6.3-16.8 9.6-26.3 9.6zm-30.9-213-6.3 167.3c-1.9 21 13.2 39.6 33.6 41.6 9.8.9 19.5-2.1 27.3-8.5 7.9-6.6 12.8-15.8 13.7-26l23.5-165.8c2.4-26-16.3-49.1-41.6-51.6-11.9-1.2-23.7 2.5-33 10.3-9.9 8.1-16 19.8-17.2 32.7z" fill="#fff"/><path d="m594.7 275.4c-2.7 0-5.5-.3-8.2-.8-22.5-4.6-37.2-26.8-32.8-49.5l23.5-165.7c2.7-13.7 10.4-25.4 21.8-33 11-7.3 24.2-9.9 37.1-7.3 27 5.6 44.6 32.7 39.2 60.5l-40.1 162.1c-2.1 11-8.5 20.6-17.9 26.9-6.9 4.4-14.7 6.8-22.6 6.8zm-13.7-215.4-23.5 165.7c-4 20.5 9.3 40.7 29.7 44.9 9.6 2 19.5 0 27.8-5.5 8.5-5.7 14.3-14.3 16.2-24.4l40.1-162.1c5-25.6-11.2-50.6-36.1-55.8-11.8-2.4-24-.1-34.1 6.7-10.4 7.1-17.6 17.9-20.1 30.5zm195.3 254.2c-1.6 0-3.1-.1-4.7-.2-27.5-2.6-47.8-27.8-45.2-56l23.5-165.8c1-11.1 6.4-21.3 15.1-28.6 8.6-7.1 19.3-10.5 30.2-9.4 22.6 2.2 39.2 22.7 37.2 45.9l-6.4 167.3c-1.3 14-7.9 26.6-18.5 35.4-8.9 7.4-19.9 11.4-31.2 11.4zm15-256.2c-8.6 0-16.9 3-23.8 8.7-7.9 6.6-12.8 15.8-13.7 26l-23.5 165.8c-2.4 26 16.3 49.1 41.6 51.6 11.9 1.1 23.7-2.5 33-10.3 9.8-8.2 15.9-19.8 17.1-32.7l6.3-167.3c1.9-21-13.2-39.6-33.6-41.6-1.1-.2-2.2-.2-3.4-.2z" fill="#fff"/><path d="m681.3 299.8c-3.3 0-6.6-.3-10-1-27-5.6-44.6-32.7-39.2-60.5l40.1-162.1c2.1-11 8.5-20.6 17.9-26.9 9.2-6.1 20.1-8.3 30.8-6.1 22.5 4.6 37.2 26.8 32.8 49.5l-23.5 165.7c-2.7 13.7-10.4 25.4-21.8 33-8.1 5.6-17.5 8.4-27.1 8.4zm31.5-253.4c-7.2 0-14.2 2.1-20.4 6.2-8.5 5.7-14.3 14.3-16.2 24.4l-40.2 162.1c-5 25.6 11.2 50.6 36.1 55.8 11.8 2.4 24 .1 34.1-6.7 10.5-7 17.7-17.8 20.1-30.4l23.5-165.7c4-20.5-9.3-40.7-29.7-44.9-2.4-.5-4.9-.8-7.3-.8zm-234.5 146.8 1.5-38.5c0 .3-.1.5-.4.8l-1.6 42.1c.4-1.5.6-3 .5-4.4z" fill="#fff"/><path d="m869.4 96.4h.7v-35.1h-.6c-20.7.2-37.4 17.6-37.1 38.6l-.6 13.7c5.8-9.9 20.5-17 37.6-17.2zm.7 129v-69.8c-18.5.2-34.2 2-40.1 4.3l-2.2 54.4c4.5 6.4 22.3 11.1 42.3 11.1zm-43.9 31.3-.3 10.5c.1 12.6 4.9 24.4 13.7 33.2 8.3 8.3 19.5 13 30.5 13.4v-29.2c-21-.4-39.5-12.2-43.9-27.9z" fill="#7eb4cb"/><path d="m870.1 155.6v-59.2h-.8c-17.1.2-31.8 7.4-37.6 17.3l-1.8 46.2c5.9-2.3 21.7-4.1 40.2-4.3z" fill="#aacee3"/><path d="m870.1 284.6v-59.3c-20 0-37.8-4.7-42.3-11.2l-1.7 42.5c4.4 15.8 23 27.6 44 28z" fill="#4b95b5"/><path d="m824.2 267.2 4.1-106.2c-.3.3-.4.5-.4.8l1.5-38.5c0-1.5.2-3 .6-4.5l.7-18.9c-.2-22.2 17.4-40.4 38.9-40.6h.5v-2h-.5c-22.9.3-41.3 19.4-41.1 42.5l-6.3 167.3c.2 13.7 5.3 26.5 14.8 36.1 9 9 21.1 14.1 33.1 14.5v-2c-24.8-.8-45.6-22-45.9-48.5z" fill="#fff"/><path d="m839.8 300.5c-8.8-8.8-13.6-20.6-13.8-33.2l.4-10.8c-.6-2.3-1-4.4-1-6.8l1.5-38.6c0 1.1.4 2.2 1.1 3.2l2.1-54.4c-.9.4-1.6.7-2 1.1l-4.2 106.2c.3 26.5 21.2 47.8 46.2 48.6v-2c-11-.4-22-5.1-30.3-13.3zm-9.4-200.6-.7 18.9c.5-1.8 1.1-3.3 2.1-5l.6-13.9c-.2-21.1 16.5-38.4 37.2-38.6h.5v-2h-.7c-21.6.3-39.3 18.5-39 40.6zm-1.3 23.4-1.5 38.5c0-.3.2-.6.4-.8l1.6-42.2c-.3 1.5-.5 3-.5 4.5z" fill="#fff"/><path d="m830.1 159.9 1.7-46.2c-1 1.7-1.7 3.4-2.2 5.2l-1.6 42.2c.5-.5 1.2-.9 2.1-1.2zm-3.2 51.1-1.5 38.6c0 2.4.4 4.8 1 7.1l1.6-42.5c-.7-1-1.1-2.1-1.1-3.2z" fill="#fff"/><path d="m357.7 261.7c21.5-2.1 37.4-21.7 35.4-43.8l-6.3-167.2c-2.5-27.2-25.9-47.3-52.3-44.8s-45.9 26.7-43.4 53.8l23.5 165.7c1.9 22 21.7 38.3 43.1 36.3z" fill="#7eb4cb"/><path d="m283.2 272.6c21.1-4.4 35.5-25.5 31.3-47.2l-23.4-165.7c-5.2-26.8-30.6-44.1-56.6-38.7s-42.9 31.4-37.6 58.2l40.1 162c4.1 21.7 25.1 35.7 46.2 31.4zm-208.1-216.4c-21.5 2.1-37.4 21.7-35.4 43.8l6.3 167.2c2.5 27.2 25.9 47.3 52.3 44.8s45.9-26.7 43.4-53.8l-23.4-165.7c-2-22.1-21.7-38.4-43.2-36.3z" fill="#7eb4cb"/><path d="m149.6 45.2c-21.1 4.4-35.5 25.5-31.3 47.2l23.5 165.7c5.2 26.8 30.6 44.1 56.6 38.7s42.9-31.4 37.6-58.2l-40-161.9c-4.3-21.7-25.3-35.8-46.4-31.5z" fill="#7eb4cb"/><path d="m42.9 162.4c-.3-3.1 18.9-7.4 42.2-9.7s42.8-1.5 43.1 1.6l-5.4-38.2c-1.3-14.5-20.8-24.6-43-22.4s-39.8 15.5-38.4 30z" fill="#aacee3"/><path d="m127.9 152.8c-.6-3.1 18-9.4 41-14.2s42.4-6.1 43-3l-9.2-37.4c-2.8-14.3-23.1-22.2-45-17.7s-38 19.7-35.2 34zm167.1-72.4c-1.8-19.6 17.7-37.5 43.4-40 25.6-2.5 47.9 11.4 49.7 31l1.4 38.7c-.7-8.2-21.2-13-45.7-10.6s-44.1 10.9-43.3 19.2z" fill="#aacee3"/><path d="m202.6 98.6c-3.8-19.3 13.8-39.2 39.1-44.4s48.8 6.2 52.5 25.5l5.3 38.3c-1.6-8.1-22.4-10.6-46.6-5.7-24.1 5-42.7 15.6-41.1 23.7z" fill="#aacee3"/><path d="m138.3 241.2c1.8 19.6-17.7 37.5-43.4 40s-47.9-11.4-49.7-31l-1.4-38.7c.7 8.2 21.2 13 45.7 10.6s44.1-10.9 43.3-19.2zm92.4-18.3c3.8 19.3-13.8 39.2-39.1 44.4s-48.8-6.2-52.5-25.5l-5.3-38.3c1.6 8.1 22.4 10.6 46.6 5.7s42.7-15.6 41.1-23.7zm159.2-68.9c.3 3.1-18.9 7.4-42.2 9.7s-42.8 1.5-43.1-1.6l5.4 38.2c1.3 14.5 20.8 24.6 43 22.4 22.2-2.1 39.8-15.5 38.4-30z" fill="#4b95b5"/><path d="m304.9 163.6c.6 3.1-18 9.4-41 14.2s-42.4 6.1-43 3l9.2 37.4c2.8 14.3 23.1 22.2 45 17.7s38-19.7 35.2-34z" fill="#4b95b5"/><path d="m327.7 254.2c-8.7-7.2-14.1-17.4-15.1-28.6l-23.5-165.7c-2.6-28.2 17.7-53.3 45.2-56 13-1.2 25.8 2.7 36 11.2 10.7 8.8 17.2 21.4 18.5 35.4l6.3 167.3c2.1 23.1-14.6 43.7-37.2 45.9-1.3.1-2.6.2-3.9.2-9.5-.1-18.7-3.4-26.3-9.7zm40-236.1c-9.4-7.8-21.1-11.4-33-10.3-25.3 2.4-44 25.6-41.6 51.6l23.5 165.8c.9 10.2 5.8 19.4 13.7 26 7.8 6.5 17.5 9.5 27.3 8.5 20.4-2 35.5-20.6 33.6-41.6l-6.3-167.3c-1.3-12.9-7.4-24.6-17.2-32.7z" fill="#fff"/><path d="m252.9 268.5c-9.4-6.3-15.8-15.8-17.9-26.9l-40.1-162.1c-5.4-27.7 12.1-54.9 39.2-60.5 12.9-2.7 26.1-.1 37.1 7.3 11.4 7.6 19.2 19.3 21.8 33l23.5 165.7c4.4 22.6-10.3 44.8-32.8 49.5-2.7.6-5.5.8-8.2.8-8 .1-15.8-2.3-22.6-6.8zm16.1-238.9c-10.1-6.8-22.3-9.1-34.1-6.7-24.9 5.1-41.1 30.2-36.1 55.8l40.1 162.1c2 10.1 7.7 18.7 16.2 24.4 8.3 5.5 18.2 7.5 27.8 5.5 20.4-4.2 33.8-24.4 29.7-44.9l-23.5-165.8c-2.5-12.6-9.6-23.4-20.1-30.4zm-206.4 273.2c-10.7-8.8-17.2-21.4-18.5-35.4l-6.3-167.3c-2.1-23.1 14.6-43.7 37.2-45.9 10.9-1 21.6 2.3 30.2 9.4 8.7 7.2 14.1 17.4 15.1 28.6l23.4 165.8c2.6 28.2-17.7 53.3-45.2 56-1.6.2-3.1.2-4.7.2-11.3 0-22.2-4-31.2-11.4zm12.7-244.7c-20.4 2-35.5 20.6-33.6 41.6l6.3 167.4c1.2 12.9 7.3 24.5 17.1 32.7 9.4 7.8 21.1 11.4 33 10.3 25.3-2.4 44-25.6 41.6-51.6l-23.4-165.9c-.9-10.2-5.8-19.4-13.7-26-6.8-5.6-15.2-8.6-23.8-8.6-1.1 0-2.3 0-3.5.1z" fill="#fff"/><path d="m161.7 291.5c-11.4-7.6-19.2-19.3-21.8-33l-23.5-165.7c-4.4-22.7 10.3-44.8 32.8-49.5 10.7-2.2 21.6 0 30.8 6.1 9.4 6.3 15.8 15.8 17.9 26.9l40.1 162c5.4 27.8-12.2 54.9-39.2 60.5-3.3.7-6.6 1-10 1-9.5 0-18.9-2.8-27.1-8.3zm-11.7-244.3c-20.4 4.2-33.8 24.4-29.7 44.9l23.5 165.7c2.5 12.6 9.6 23.4 20.1 30.4 10.1 6.8 22.3 9.1 34.1 6.7 24.9-5.1 41.1-30.2 36.1-55.8l-40.1-162c-2-10.1-7.7-18.7-16.2-24.4-6.2-4.1-13.2-6.2-20.4-6.2-2.5-.1-4.9.2-7.4.7zm241.8 146-1.5-38.5c0 .3.1.5.4.8l1.6 42.1c-.3-1.5-.5-3-.5-4.4z" fill="#fff"/><path d="m.7 96.4h-.7v-35.1h.6c20.7.2 37.8 17.6 37.5 38.6l.2 13.7c-5.8-9.9-20.4-17-37.6-17.2zm-.7 129v-69.8s-.1 0 0 0c18.5.2 34.2 2 40.1 4.3l2.2 54.4c-4.4 6.4-22.3 11.1-42.3 11.1zm43.9 31.3.3 10.5c-.1 12.6-4.9 24.4-13.7 33.2-8.3 8.3-19.5 13-30.5 13.4v-29.2c20.9-.4 39.5-12.2 43.9-27.9z" fill="#7eb4cb"/><path d="m0 155.6v-59.2h.7c17.1.2 31.8 7.3 37.6 17.2l1.8 46.3c-5.8-2.3-21.6-4.1-40.1-4.3z" fill="#aacee3"/><path d="m0 284.6v-59.3c20 0 37.8-4.7 42.2-11.2l1.7 42.6c-4.3 15.8-22.9 27.5-43.9 27.9z" fill="#4b95b5"/><path d="m46.4 267.2-4.1-106.2c.3.3.4.5.4.8l-1.6-38.5c0-1.5-.2-3-.6-4.5l-.7-18.9c.2-22.2-17.4-40.4-39-40.6h-.8v-2h.7c23 .3 41.4 19.4 41.2 42.6l6.3 167.3c-.2 13.7-5.3 26.5-14.9 36.1-9 9-21.3 14.1-33.3 14.5v-2c25-.9 46.1-22.1 46.4-48.6z" fill="#fff"/><path d="m30.4 300.5c8.8-8.8 13.6-20.6 13.8-33.2l-.4-10.5c.6-2.3 1-4.7 1-7.1l-1.6-38.7c0 1.1-.4 2.2-1.1 3.2l-2.1-54.3c.9.4 1.6.7 2 1.1l4.7 106.2c-.2 26.5-21.7 47.7-46.7 48.6v-2c11-.4 22.1-5.1 30.4-13.3zm9.6-200.6.5 18.9c-.5-1.8-1.2-3.5-2.2-5.2l-.5-13.7c.2-21-16.5-38.4-37.2-38.6h-.6v-2.4h.7c21.6.3 39.5 18.9 39.3 41zm1 23.4 1.5 38.5c0-.3-.2-.6-.4-.8l-1.6-42.2c.3 1.5.5 3 .5 4.5z" fill="#fff"/><path d="m40 159.9-1.7-46.2c1 1.7 1.7 3.4 2.2 5.2l1.6 42.2c-.4-.5-1.1-.9-2.1-1.2zm3.2 51.1 1.5 38.6c0 2.4-.3 4.9-.9 7.2l-1.7-42.6c.7-1 1.1-2.1 1.1-3.2zm427.2-196.4c-9.5-9.6-22.4-14.7-35.4-14.6-13-.1-25.8 5-35.3 14.6-9.5 9.5-14.8 22.3-15.2 36.1l6.4 167.3c-.2 23.1 18.2 42.2 41.1 42.5h.4c.9 0 1.5 0 2.5-.1 1 .1 1.6.1 2.5.1h.4c22.9-.3 41.3-19.4 41.1-42.5l6.3-167.3c.1-13.8-5.2-26.6-14.8-36.1zm10.4 51.3-1.6 41.1-.1 1.7-1.8 47.9-1.7 46.2-.6 15.1c.2 21.1-16.4 38.4-37.1 38.6-1 0-1.9 0-2.9-.1-1 .1-1.9.1-2.9.1-20.8-.2-37.3-17.5-37.1-38.6l-.5-15.1-1.9-46.2-1.7-48.8-1.6-41.9-.7-15.3c.1-12.6 5-24.4 13.8-33.2 8.9-8.8 20.6-13.5 32.6-13.4 12-.1 23.8 4.6 32.6 13.4s13.7 20.6 13.8 33.2z" fill="#fff"/></svg>
