<svg width="439" height="770" xmlns="http://www.w3.org/2000/svg" xmlns:xlink="http://www.w3.org/1999/xlink"><defs><path id="a" d="M.191.492h194.3V614H.191z"/><path id="c" d="M0 779h324V0H0z"/></defs><g transform="rotate(-18 137.176 178.96)" fill="none" fill-rule="evenodd"><path d="M323.966 159.239a10.522 10.522 0 0 0-.153-1.006c-.033-.151-.051-.3-.087-.444a9.522 9.522 0 0 0-.467-1.41c-.002-.013-.002-.016-.002-.027-.027-.051-.064-.098-.081-.148a9.39 9.39 0 0 0-.603-1.132c-.095-.162-.21-.304-.315-.454a11.148 11.148 0 0 0-.553-.719 7.865 7.865 0 0 0-.43-.47c-.09-.091-.165-.19-.258-.278l-20.175-19.018 4.205-27.421a9.543 9.543 0 0 0-3.956-9.263 9.507 9.507 0 0 0-10.046-.55l-24.292 13.337-24.755-12.475c-.117-.053-.237-.09-.353-.145a11.037 11.037 0 0 0-.572-.244 10.75 10.75 0 0 0-.882-.279c-.168-.045-.335-.093-.517-.135-.422-.086-.83-.14-1.254-.177-.062-.004-.128-.02-.179-.025 0 0-.028.005-.028 0-.513-.026-1.023 0-1.525.05-.073.013-.143.027-.215.035-.44.06-.868.148-1.293.263-.075.02-.153.047-.226.072a9.42 9.42 0 0 0-1.238.47 9.175 9.175 0 0 0-1.383.79c-.024.015-.064.034-.081.05-.086.064-.19.112-.276.176a9.63 9.63 0 0 0-1.93 1.971c-.016.011-.016.027-.028.038a9.256 9.256 0 0 0-.734 1.197c-.071.128-.13.26-.188.401a9.223 9.223 0 0 0-.399.984c-.027.08-.069.158-.092.239l-16.784 54.935-22.654 52.191 17.933-88.14 22-67.779c.025-.09.036-.174.061-.266.094-.323.168-.655.23-.99.026-.163.06-.325.08-.487.053-.382.075-.774.075-1.162.003-.101.01-.203.01-.304a9.288 9.288 0 0 0-.15-1.452c-.025-.125-.067-.241-.097-.363-.067-.295-.118-.582-.209-.872-.02-.06-.063-.12-.076-.18-.053-.166-.13-.325-.198-.486a9.07 9.07 0 0 0-.392-.854c-.088-.169-.183-.325-.278-.487a12.24 12.24 0 0 0-.515-.756c-.117-.151-.226-.3-.35-.442a7.436 7.436 0 0 0-.684-.718c-.114-.111-.212-.227-.337-.333a10.435 10.435 0 0 0-1.18-.88c-.013-.004-.02-.016-.027-.02-.045-.03-.11-.05-.168-.08a9.165 9.165 0 0 0-1.128-.582c-.165-.066-.327-.12-.486-.178a9.77 9.77 0 0 0-.908-.288 9.922 9.922 0 0 0-.577-.119c-.13-.026-.258-.069-.392-.087l-35.145-5.118-15.717-31.88A9.51 9.51 0 0 0 161.996 0a9.516 9.516 0 0 0-8.54 5.315l-15.714 31.88-35.147 5.118c-.134.018-.263.06-.39.087a8.74 8.74 0 0 0-1.475.404c-.17.06-.336.115-.496.185-.394.167-.768.36-1.134.571-.052.038-.108.056-.165.088-.005.003-.016.015-.016.02-.424.262-.82.561-1.19.88-.125.105-.232.22-.34.332a9.415 9.415 0 0 0-.691.718c-.119.142-.23.29-.335.442-.187.243-.352.496-.517.756-.097.162-.195.318-.282.487-.147.274-.268.56-.394.854-.063.16-.14.32-.193.485-.025.061-.052.122-.069.181-.098.29-.154.577-.218.872-.027.122-.066.238-.095.363a9.68 9.68 0 0 0-.15 1.452c-.01.101.011.203.011.304 0 .388.019.78.067 1.162.024.162.063.324.084.487.066.335.134.667.23.99.029.092.034.176.071.266l21.99 67.779 17.926 88.125-22.641-52.176-16.784-54.935c-.033-.081-.07-.153-.103-.239a7.889 7.889 0 0 0-.4-1.001c-.06-.125-.114-.254-.178-.378a9.522 9.522 0 0 0-2.696-3.212c-.097-.07-.198-.12-.295-.186a10.243 10.243 0 0 0-1.302-.76 10.214 10.214 0 0 0-1.379-.541c-.082-.024-.157-.05-.238-.07a8.8 8.8 0 0 0-1.27-.257c-.085-.01-.152-.03-.235-.042a9.331 9.331 0 0 0-1.517-.05c-.014.005-.014 0-.023 0-.063.005-.125.02-.184.025-.422.038-.843.09-1.256.177-.174.042-.35.09-.521.135-.295.083-.59.173-.879.28a10.93 10.93 0 0 0-.569.243c-.118.054-.241.092-.352.145l-24.748 12.475-24.305-13.338a9.51 9.51 0 0 0-10.042.55 9.543 9.543 0 0 0-3.957 9.264l4.204 27.421-20.178 19.018c-.105.097-.184.207-.282.309a9.659 9.659 0 0 0-.386.414c-.212.247-.41.506-.594.774-.093.139-.195.268-.282.41a8.837 8.837 0 0 0-.62 1.167c-.022.045-.048.088-.062.127-.011.011-.011.014-.016.02-.19.46-.342.933-.46 1.42-.037.142-.057.29-.088.436-.065.333-.12.674-.15 1.011a5.27 5.27 0 0 0-.032.536c-.01.312 0 .627.015.945.014.177.024.356.047.532.042.323.1.643.171.956.036.165.063.328.11.485.02.066.023.131.045.197.088.293.213.572.331.85.046.11.08.229.123.34.208.442.45.868.71 1.274.065.093.14.182.203.273.221.304.446.6.703.874.117.13.246.251.372.373.227.228.47.45.726.653.068.061.137.135.215.192l45.85 34.581 62.2 59.08a9.463 9.463 0 0 0 6.557 2.62 9.496 9.496 0 0 0 6.915-2.975 9.507 9.507 0 0 0 2.368-4.412c.258-.006.512-.04.775-.067.19-.02.379-.02.577-.052.266-.039.534-.118.802-.182.195-.048.388-.078.575-.14.293-.092.58-.216.866-.337.154-.072.318-.119.48-.198a9.14 9.14 0 0 0 2.594-1.887c.12-.125.231-.26.353-.395.266-.307.51-.625.737-.959.102-.148.204-.29.297-.444.259-.43.477-.878.667-1.343.019-.044.043-.089.065-.142a.055.055 0 0 0 .005-.025 9.466 9.466 0 0 0 4.957-.716c4.828-2.103 7.042-7.724 4.945-12.556l-1.342-3.096c.783.214 1.598.354 2.431.354a9.28 9.28 0 0 0 1.913-.193 9.482 9.482 0 0 0 5.777-3.695c.027.022.047.038.067.063.239.234.499.429.757.636.214.182.418.385.656.546.3.203.626.358.946.527.227.12.445.273.688.374.377.162.792.265 1.19.376.206.058.4.148.61.193a9.727 9.727 0 0 0 3.883 0c.232-.05.442-.14.668-.205.385-.111.776-.208 1.139-.364.243-.107.467-.259.704-.385.314-.168.637-.313.925-.516.227-.151.41-.343.623-.516.27-.219.552-.43.798-.677.021-.02.048-.036.065-.056a9.434 9.434 0 0 0 5.776 3.699 9.352 9.352 0 0 0 1.907.193c.84 0 1.655-.14 2.445-.354l-1.346 3.096c-2.1 4.832.116 10.453 4.94 12.556 1.623.7 3.333.922 4.963.716 0 .013.01.023.014.036.007.03.021.058.04.087.189.487.427.95.698 1.398.086.143.176.274.271.418.229.343.488.673.763.99.11.12.218.254.337.372.4.412.838.8 1.327 1.14a9.7 9.7 0 0 0 1.279.76c.109.054.238.089.361.145.324.14.648.282.975.39.151.045.307.064.461.106.307.08.614.167.924.21.175.028.344.032.525.049.268.023.539.064.807.07a9.528 9.528 0 0 0 2.379 4.412A9.482 9.482 0 0 0 205.62 264c2.35 0 4.71-.864 6.553-2.62l62.196-59.08 45.857-34.58c.077-.062.139-.132.217-.193.247-.202.484-.419.713-.644.131-.13.267-.252.39-.388.232-.262.448-.543.652-.828.09-.11.175-.209.251-.323a9.97 9.97 0 0 0 .698-1.261c.054-.127.096-.258.14-.386.12-.265.23-.528.315-.807.015-.061.03-.125.042-.186.04-.168.08-.34.117-.507.074-.313.13-.625.173-.939a7.13 7.13 0 0 0 .042-.542c.025-.314.03-.629.015-.94a22.055 22.055 0 0 0-.026-.537" fill="#141215"/><path fill="#FDDE66" d="M162 10l-17.917 36.542L104 52.404l29.002 28.446-6.84 40.15L162 102.04 197.85 121l-6.84-40.15L220 52.404l-40.076-5.862z"/><path stroke="#141215" stroke-width=".737" d="M162 10l-17.917 36.542L104 52.404l29.002 28.446-6.84 40.15L162 102.04 197.85 121l-6.84-40.15L220 52.404l-40.076-5.862z"/><path fill="#9CD7F1" d="M147.612 225.369l-21.107-105.047 35.49-18.914v122.987"/><path stroke="#231F20" stroke-width=".737" stroke-linecap="round" stroke-linejoin="round" d="M147.612 225.369l-21.107-105.047 35.49-18.914v122.987"/><path fill="#9CD7F1" d="M176.117 225.369l21.363-105.047-35.924-18.914v122.987"/><path stroke="#231F20" stroke-width=".737" stroke-linecap="round" stroke-linejoin="round" d="M176.117 225.369l21.363-105.047-35.924-18.914v122.987"/><path fill="#8CC3E7" d="M126.16 120L133 80.198 104 52z"/><path stroke="#141215" stroke-width=".737" stroke-linecap="round" stroke-linejoin="round" d="M126.16 120L133 80.198 104 52z"/><path fill="#8CC3E7" d="M220 52l-29 28.198L197.844 120z"/><path stroke="#141215" stroke-width=".737" stroke-linecap="round" stroke-linejoin="round" d="M220 52l-29 28.198L197.844 120z"/><path fill="#FDDE66" d="M28.916 105l4.981 32.477L10 160.002l32.387 5.29L56.402 195l15.034-29.194L104 161.65l-23.097-23.342 6.1-32.284-29.309 14.773z"/><path stroke="#141215" stroke-width=".737" d="M28.916 105l4.981 32.477L10 160.002l32.387 5.29L56.402 195l15.034-29.194L104 161.65l-23.097-23.342 6.1-32.284-29.309 14.773z"/><path fill="#8DC589" d="M118.678 254.317L56.25 195.144l14.945-28.962 56.622 80.78"/><path stroke="#141215" stroke-width=".737" stroke-linecap="round" stroke-linejoin="round" d="M118.678 254.317L56.25 195.144l14.945-28.962 56.622 80.78"/><path fill="#8DC589" d="M137.978 241.604l-34.624-79.442-32.684 4.156 57.168 81.4"/><path stroke="#141215" stroke-width=".737" stroke-linecap="round" stroke-linejoin="round" d="M137.978 241.604l-34.624-79.442-32.684 4.156 57.168 81.4"/><path fill="#5B9540" d="M56 195l-13.893-29.71L10 160z"/><path stroke="#141215" stroke-width=".737" stroke-linecap="round" stroke-linejoin="round" d="M56 195l-13.893-29.71L10 160z"/><path fill="#5B9540" d="M86.074 106L80 137.921 103 161z"/><path stroke="#141215" stroke-width=".737" stroke-linecap="round" stroke-linejoin="round" d="M86.074 106L80 137.921 103 161z"/><path fill="#FDDE66" d="M296.084 105l-4.98 32.477L315 160.002l-32.38 5.29L268.598 195l-15.038-29.194L221 161.65l23.103-23.342-6.107-32.284 29.318 14.773z"/><path stroke="#141215" stroke-width=".737" d="M296.084 105l-4.98 32.477L315 160.002l-32.38 5.29L268.598 195l-15.038-29.194L221 161.65l23.103-23.342-6.107-32.284 29.318 14.773z"/><path fill="#8DC589" d="M205.317 254.317l62.429-59.173-14.95-28.962-56.613 80.78"/><path stroke="#141215" stroke-width=".737" stroke-linecap="round" stroke-linejoin="round" d="M205.317 254.317l62.429-59.173-14.95-28.962-56.613 80.78"/><path fill="#8DC589" d="M186.02 241.604l34.622-79.442 32.68 4.156-57.16 81.4"/><path stroke="#141215" stroke-width=".737" stroke-linecap="round" stroke-linejoin="round" d="M186.02 241.604l34.622-79.442 32.68 4.156-57.16 81.4"/><path fill="#5B9540" d="M268 195l13.902-29.71L314 160z"/><path stroke="#141215" stroke-width=".737" stroke-linecap="round" stroke-linejoin="round" d="M268 195l13.902-29.71L314 160z"/><path fill="#5B9540" d="M237.92 106l6.08 31.921L221 161z"/><path stroke="#141215" stroke-width=".737" stroke-linecap="round" stroke-linejoin="round" d="M237.92 106l6.08 31.921L221 161z"/><g transform="translate(67 166)"><mask id="b" fill="#fff"><use xlink:href="#a"/></mask><path d="M193.743 578.854c-.031-.072-.052-.139-.086-.212a9.302 9.302 0 0 0-.974-1.72 10.06 10.06 0 0 0-.936-1.14c-.11-.115-.24-.221-.36-.332-.268-.25-.506-.523-.794-.737l-12.955-11.318v-45.107c4.418-3.046 7.324-8.147 7.324-13.925 0-5.77-2.906-10.87-7.324-13.922v-16.972c0-5.274-4.259-9.545-9.518-9.545h-25.717c-2.34-3.75-5.922-6.426-9.447-9.028-3.878-2.855-8.661-8.072-5.39-20.326.453-1.696.959-3.56 1.505-5.556 5.099-18.762 12.816-47.124 10.74-64.492-1.829-15.245-2.614-26.737-.514-33.294 2.756-8.588 10.548-38.936 10.274-64.828-.202-19.426-2.095-31.891-3.354-40.142-.516-3.392-1.1-7.241-.987-8.183.104-.432.188-.866.24-1.301.012-.09.007-.177.012-.267.042-.472.046-.938.023-1.408-.014-.16-.023-.32-.042-.482a9.32 9.32 0 0 0-.31-1.643l-.001-.015c4.018-1.329 8.227-3.408 11.233-6.673 6.177-6.701 8.516-18.088 10.06-25.629l.14-.662c1.345-6.548 3.456-20.07 3.936-29.644.36-7.182.921-11.328 1.696-17.061l.445-3.3c1.57-11.911-.73-27.37-11.886-35.035-3.875-2.658-8.683-4.09-13.913-4.909-5.208-2.31-14.966-6.954-23.209-13.97-.63-1.728-1.13-3.816-.994-4.503v-.011c.042-.088.078-.178.12-.265.267-.631 6.581-15.624 6.42-30.985l-.014-1.372C129.089 26.46 128.87.492 96.273.492l-.446.003-.646-.003c-32.606 0-32.816 25.916-32.915 38.375l-.01 1.377c-.165 15.358 6.146 30.352 6.41 30.978.023.037.033.071.052.107.167.843-.264 2.874-.933 4.686-8.189 6.965-17.86 11.59-23.201 13.96-5.232.819-10.038 2.252-13.905 4.908-11.163 7.665-13.46 23.124-11.886 35.035l.452 3.375c.767 5.716 1.33 9.845 1.683 16.992.476 9.545 2.589 23.078 3.939 29.642l.132.655c1.551 7.533 3.89 18.928 10.063 25.629 3.01 3.264 7.212 5.343 11.227 6.67a8.94 8.94 0 0 0-.108 4.94c.154 1.124-.435 4.972-.952 8.365-1.25 8.251-3.15 20.72-3.349 40.142-.275 25.905 7.521 56.244 10.271 64.836 2.099 6.543 1.316 18.038-.507 33.286-2.078 17.368 5.636 45.729 10.74 64.499.543 1.993 1.05 3.86 1.503 5.55 3.263 12.258-1.514 17.468-5.395 20.331-3.551 2.616-7.151 5.304-9.494 9.094H26.507c-5.252 0-9.513 4.27-9.513 9.545v16.972c-4.411 3.051-7.317 8.153-7.317 13.922 0 5.778 2.906 10.88 7.317 13.925v45.107L3.456 575.22c-.104.09-.18.194-.278.284-.139.132-.27.263-.397.406a9.694 9.694 0 0 0-.748.909c-.101.143-.207.276-.297.423-.291.438-.541.9-.753 1.38-.01.03-.033.062-.051.096-.217.522-.37 1.059-.498 1.61-.03.156-.055.318-.08.48-.071.442-.122.88-.136 1.329 0 .095-.027.189-.027.287v22.03c0 5.275 4.26 9.547 9.517 9.547H184.93c5.253 0 9.514-4.272 9.514-9.546v-21.503c.01-.178.048-.347.048-.528 0-1.27-.297-2.455-.748-3.57" fill="#141215" mask="url(#b)"/></g><path d="M145.068 233.352c2.657 5.66-1.788 14.32-1.788 14.32l-5.852 12.876 25.253 9.769 27.217-8.139-6.063-14.438s-4.437-8.657-1.782-14.316" fill="#FDDE66"/><path d="M145.068 233.352c2.657 5.66-1.788 14.32-1.788 14.32l-5.852 12.876 25.253 9.769 27.217-8.139-6.063-14.438s-4.437-8.657-1.782-14.316" stroke="#141215" stroke-width=".737"/><path d="M211.897 265.226c-4.874-2.146-18.404-8.042-29.29-18.083 0 0 2.58 8.575-20.05 8.816-22.63-.241-20.049-8.889-20.049-8.889-10.88 10.044-24.418 15.938-29.285 18.083" fill="#FDDE66"/><path d="M211.897 265.226c-4.874-2.146-18.404-8.042-29.29-18.083 0 0 2.58 8.575-20.05 8.816-22.63-.241-20.049-8.889-20.049-8.889-10.88 10.044-24.418 15.938-29.285 18.083" stroke="#141215" stroke-width=".737"/><path d="M202.523 638.82c-.047-4.064-1.689-5.94-8.236-10.754-6.553-4.804-13.425-13.942-8.99-30.507 4.435-16.57 14.112-49.177 12.031-66.49-2.075-17.315-2.734-29.223-.12-37.379 2.625-8.152 10.116-37.458 9.861-61.848-.342-32.502-5.62-44.905-4.05-50.882 0 0-1.888-4.058-2.755-10.006 0 0 11.639-.932 16.182-5.857 4.554-4.922 6.607-15.507 7.9-21.752 1.288-6.245 3.319-19.267 3.765-28.211.452-8.944 1.212-13.558 2.216-21.15 1.01-7.597.325-20.32-7.857-25.922-8.182-5.601-26.85-3.779-38.504-5.013-11.667-1.229-11.928-1.777-21.408-1.683-9.475-.094-9.743.382-21.403 1.618-11.665 1.23-30.332-.594-38.51 5.008-8.181 5.6-8.858 18.33-7.853 25.922 1 7.596 1.766 12.212 2.217 21.15.444 8.942 2.471 21.967 3.763 28.209 1.294 6.239 3.343 16.826 7.895 21.754 4.552 4.923 16.19 5.856 16.19 5.856-.877 5.948-2.759 10.006-2.759 10.006 1.568 5.977-3.712 18.38-4.053 50.881-.251 24.392 7.242 53.697 9.861 61.85 2.623 8.155 1.957 20.068-.118 37.378-2.076 17.312 7.6 49.92 12.035 66.49 4.428 16.567-2.441 25.702-8.995 30.514-6.542 4.808-8.185 6.686-8.233 10.747" fill="#FDDE66"/><path d="M202.523 638.82c-.047-4.064-1.689-5.94-8.236-10.754-6.553-4.804-13.425-13.942-8.99-30.507 4.435-16.57 14.112-49.177 12.031-66.49-2.075-17.315-2.734-29.223-.12-37.379 2.625-8.152 10.116-37.458 9.861-61.848-.342-32.502-5.62-44.905-4.05-50.882 0 0-1.888-4.058-2.755-10.006 0 0 11.639-.932 16.182-5.857 4.554-4.922 6.607-15.507 7.9-21.752 1.288-6.245 3.319-19.267 3.765-28.211.452-8.944 1.212-13.558 2.216-21.15 1.01-7.597.325-20.32-7.857-25.922-8.182-5.601-26.85-3.779-38.504-5.013-11.667-1.229-11.928-1.777-21.408-1.683-9.475-.094-9.743.382-21.403 1.618-11.665 1.23-30.332-.594-38.51 5.008-8.181 5.6-8.858 18.33-7.853 25.922 1 7.596 1.766 12.212 2.217 21.15.444 8.942 2.471 21.967 3.763 28.209 1.294 6.239 3.343 16.826 7.895 21.754 4.552 4.923 16.19 5.856 16.19 5.856-.877 5.948-2.759 10.006-2.759 10.006 1.568 5.977-3.712 18.38-4.053 50.881-.251 24.392 7.242 53.697 9.861 61.85 2.623 8.155 1.957 20.068-.118 37.378-2.076 17.312 7.6 49.92 12.035 66.49 4.428 16.567-2.441 25.702-8.995 30.514-6.542 4.808-8.185 6.686-8.233 10.747" stroke="#141215" stroke-width=".737"/><path d="M162.997 242c11.02-.118 15.428-2.443 18.342-8.678 0 0 5.799-13.56 5.658-27.045-.14-13.493.591-30.532-24-30.274-24.587-.258-23.862 16.71-23.994 30.202-.145 13.485 5.657 27.045 5.657 27.045 2.91 6.235 7.316 8.632 18.337 8.75" fill="#FDDE66"/><path d="M162.997 242c11.02-.118 15.428-2.443 18.342-8.678 0 0 5.799-13.56 5.658-27.045-.14-13.493.591-30.532-24-30.274-24.587-.258-23.862 16.71-23.994 30.202-.145 13.485 5.657 27.045 5.657 27.045 2.91 6.235 7.316 8.632 18.337 8.75z" stroke="#141215" stroke-width=".737"/><mask id="d" fill="#fff"><use xlink:href="#c"/></mask><path fill="#BBBDBF" mask="url(#d)" d="M94 733h142v-56H94z"/><path stroke="#231F20" stroke-width=".737" stroke-linecap="round" stroke-linejoin="round" mask="url(#d)" d="M94 733h142v-56H94z"/><path d="M234.687 677H93.305c-4.034 0-7.305-3.357-7.305-7.504 0-4.14 3.27-7.496 7.305-7.496h141.382c4.031 0 7.313 3.357 7.313 7.496 0 4.147-3.282 7.504-7.313 7.504" fill="#D4D6D7" mask="url(#d)"/><path d="M234.687 677H93.305c-4.034 0-7.305-3.357-7.305-7.504 0-4.14 3.27-7.496 7.305-7.496h141.382c4.031 0 7.313 3.357 7.313 7.496 0 4.147-3.282 7.504-7.313 7.504z" stroke="#231F20" stroke-width=".737" stroke-linecap="round" stroke-linejoin="round" mask="url(#d)"/><path fill="#D4D6D7" mask="url(#d)" d="M252 748H77l16.777-15h141.435z"/><path stroke="#231F20" stroke-width=".737" stroke-linecap="round" stroke-linejoin="round" mask="url(#d)" d="M252 748H77l16.777-15h141.435z"/><path fill="#D4D6D7" mask="url(#d)" d="M77 770h175v-22H77z"/><path stroke="#231F20" stroke-width=".737" stroke-linecap="round" stroke-linejoin="round" mask="url(#d)" d="M77 770h175v-22H77z"/><g mask="url(#d)"><path d="M156.06 639.832c.08-7.316 1.574-23.019-.768-37.135-2.346-14.107-2.356-39.04-2.202-53.67.158-14.628-.582-23.306.58-27.902 1.156-4.589 1.169-5.675.663-10.017-.51-4.339-.733-9.487.14-13.275.871-3.783 2.339-11.084.505-21.398-1.829-10.319-2.822-20.894-2.752-28.211l.502-46.327c.152-14.362-3.596-26.864-3.596-26.864l13.902-8.201v272.497" fill="#FDDE66"/><path d="M156.06 639.832c.08-7.316 1.574-23.019-.768-37.135-2.346-14.107-2.356-39.04-2.202-53.67.158-14.628-.582-23.306.58-27.902 1.156-4.589 1.169-5.675.663-10.017-.51-4.339-.733-9.487.14-13.275.871-3.783 2.339-11.084.505-21.398-1.829-10.319-2.822-20.894-2.752-28.211l.502-46.327c.152-14.362-3.596-26.864-3.596-26.864l13.902-8.201v272.497" stroke="#141215" stroke-width=".737"/></g><g mask="url(#d)"><path d="M169.074 639.913c.073-7.314-1.085-23.041 1.56-37.108 2.644-14.06.539-38.986.69-53.611.156-14.631 1.08-23.29.026-27.906-1.062-4.616-1.05-5.699-.45-10.03.607-4.327.93-9.475.14-13.275-.79-3.805-2.091-11.133-.046-21.408 2.052-10.278 3.278-20.834 3.358-28.15.08-7.308.342-31.967.493-46.325.157-14.364 2.771-26.786 2.771-26.786l-14.98-8.481v272.495" fill="#FDDE66"/><path d="M169.074 639.913c.073-7.314-1.085-23.041 1.56-37.108 2.644-14.06.539-38.986.69-53.611.156-14.631 1.08-23.29.026-27.906-1.062-4.616-1.05-5.699-.45-10.03.607-4.327.93-9.475.14-13.275-.79-3.805-2.091-11.133-.046-21.408 2.052-10.278 3.278-20.834 3.358-28.15.08-7.308.342-31.967.493-46.325.157-14.364 2.771-26.786 2.771-26.786l-14.98-8.481v272.495" stroke="#141215" stroke-width=".737"/></g><path d="M122 381s16.257 4.762 19.373 17.717c3.118 12.959 3.318 19.208 10.627 19.283m-20-62l2.044 11.027s10.202 6.013 15.427 7.973L163 366.875m0-.509l14.775 8.342s-.033.12-.088.292c10.74-3.198 17.313-11 17.313-11m-63-8.408L144.552 352s4.748 4.213 18.039 7.008C175.878 361.804 195 364 195 364m-46-156l6.54.074s4.433 1.714 3.263 13.926m-.803 8l10 .19M123.614 331c.741-19.815-6.614-37-6.614-37s5.227 14.715 15.722 14.559c10.49-.157 21.278.106 21.278.106" stroke="#020303" stroke-width=".737" stroke-linecap="round" stroke-linejoin="round" mask="url(#d)"/><path d="M105 343.04c3.01-3.787 7.362-6.47 15.512-10.204 8.154-3.734 14.17-10.487 19.902-15.608 5.731-5.12 9.018-8.145 16.853-8.062 7.847.085 20.578-2.243 23.446 8.16 2.862 10.39.057 19.147.057 19.147s-1.919 2.432-7.067 3.197c-5.14.766-21.087.053-23.819 3.297-2.744 3.244-3.882 8.691-5.784 10.033m9.9-44c.295-2.804-.87-9.105 9-8.999m-.018-.001c.11-9.9-.19-19.103-3.396-22.616-7.53-8.259-18.13-5.121-24.013-2.93-4.88 1.828-14.127 7.355-18.573 19.084M204 381s-16.429 4.762-19.571 17.715c-3.146 12.96-2.035 19.209-9.429 19.285m-50-47l8-4m61-3l6 7m-25.782-143c5.33-4.422 6.661-17.538 6.777-20.537.206-5.728-6.294-10.571-12.145-4.779-5.846 5.788-2.207 19.939-2.207 19.939l-4.145.006-4.143-.079s3.64-14.144-2.207-19.938c-5.85-5.791-12.357-.947-12.143 4.785.105 2.993 1.444 16.11 6.773 20.53" stroke="#020303" stroke-width=".737" stroke-linecap="round" stroke-linejoin="round" mask="url(#d)"/><path d="M177 208l-6.544.074s-4.432 1.714-3.258 13.926M172 308.498s10.851-.266 21.42-.11c10.573.16 15.84-14.388 15.84-14.388s-7.413 16.987-6.66 36.569c0 0 .786 5.9 14.4 9.431" stroke="#020303" stroke-width=".737" stroke-linecap="round" stroke-linejoin="round" mask="url(#d)"/><path d="M217 341c-13.644-3.744-14.431-10-14.431-10s-1.697 17.473-21.569 5.393M172 309c-.295-2.779.864-9.11-9-8.999m.016-.001c-.102-9.901.195-19.1 3.398-22.615 7.533-8.257 18.131-5.126 24.007-2.93 4.884 1.824 14.126 7.35 18.579 19.081" stroke="#020303" stroke-width=".737" stroke-linecap="round" stroke-linejoin="round" mask="url(#d)"/><path fill="#FDDE66" mask="url(#d)" d="M94 663h142v-24H94z"/><path stroke="#141215" stroke-width=".737" mask="url(#d)" d="M94 663h142v-24H94z"/><path d="M137.543 693.077h.924c1.271 0 2.223-.357 2.86-1.074.636-.716.954-1.427.954-2.13 0-.307-.073-.57-.22-.789-.145-.217-.39-.39-.732-.517-.345-.126-1.112-.189-2.304-.189h-.522l-.96 4.699zm-1.554 7.593h1.006c1.82 0 2.999-.276 3.545-.825.544-.548.817-1.187.817-1.917 0-.897-.395-1.557-1.184-1.985-.787-.425-1.659-.639-2.613-.639h-.473l-1.098 5.366zM132 703l3.494-17h4.796c1.645 0 2.821.128 3.53.38.712.253 1.253.628 1.624 1.127a2.77 2.77 0 0 1 .556 1.698 4.05 4.05 0 0 1-.49 1.919c-.329.62-.805 1.185-1.434 1.694-.627.51-1.517.96-2.67 1.35 1.365.451 2.324 1.025 2.877 1.723.554.695.83 1.474.83 2.331 0 .827-.253 1.621-.753 2.378a5.092 5.092 0 0 1-2.02 1.769c-.845.422-2.069.631-3.672.631H132zm15 0l3.365-17H161l-.457 2.344h-7.129l-.935 4.733h5.701l-.432 2.204h-5.707l-1.064 5.376h7.604l-.457 2.343zm14 .374l.562-2.78c1.755.704 3.239 1.056 4.453 1.056 1.119 0 1.962-.24 2.524-.714.564-.475.847-1.077.847-1.802a2.32 2.32 0 0 0-.64-1.63 9.535 9.535 0 0 0-1.392-1.234l-.987-.719c-.947-.688-1.66-1.363-2.137-2.024a3.674 3.674 0 0 1-.716-2.209c0-.948.277-1.84.832-2.67.556-.83 1.313-1.48 2.267-1.948.957-.467 2.134-.7 3.535-.7 1.544 0 3.16.255 4.852.764l-.518 2.583c-1.659-.665-3.111-.997-4.356-.997-.894 0-1.601.199-2.12.598-.521.399-.781.91-.781 1.535 0 .464.15.88.452 1.248.302.366.788.8 1.462 1.304l1.07.8c1.245.918 2.082 1.733 2.512 2.438.431.706.645 1.448.645 2.229 0 .925-.302 1.83-.91 2.713-.605.885-1.463 1.57-2.571 2.057-1.11.484-2.531.728-4.269.728-1.552 0-3.09-.208-4.616-.626m18.373-.374l3.045-14.656H176l.478-2.344H193l-.48 2.344h-6.43L183.058 703zm-59.46 21.853c-2.564.765-4.872 1.147-6.92 1.147-1.414 0-2.67-.269-3.77-.804-1.102-.537-1.912-1.304-2.438-2.305-.523-.998-.785-2.103-.785-3.316 0-1.953.514-3.835 1.544-5.648 1.028-1.815 2.39-3.256 4.09-4.324 1.7-1.07 3.736-1.603 6.113-1.603 1.658 0 3.41.219 5.253.658l-.55 2.78c-1.881-.725-3.557-1.088-5.027-1.088-1.357 0-2.569.368-3.632 1.1-1.064.735-1.957 1.83-2.675 3.284-.718 1.457-1.074 2.9-1.066 4.327 0 .88.182 1.661.542 2.34.363.68.894 1.187 1.597 1.524.704.337 1.483.503 2.34.503 1.39 0 3.363-.397 5.92-1.194l-.536 2.619zm10.628-1.204c1.12 0 2.176-.367 3.174-1.1.997-.735 1.824-1.836 2.485-3.302.659-1.467.99-2.957.99-4.472 0-1.474-.342-2.581-1.025-3.317-.683-.739-1.579-1.107-2.681-1.107-1.084 0-2.131.375-3.146 1.123-1.016.75-1.846 1.856-2.49 3.32-.644 1.462-.967 2.936-.967 4.419 0 1.52.352 2.64 1.058 3.358.707.719 1.574 1.078 2.602 1.078M129.74 726c-2.124 0-3.777-.588-4.963-1.766-1.186-1.177-1.777-2.757-1.777-4.74 0-1.907.494-3.755 1.482-5.545s2.306-3.23 3.95-4.318c1.645-1.086 3.563-1.631 5.758-1.631 2.194 0 3.876.593 5.05 1.776 1.173 1.184 1.76 2.76 1.76 4.729 0 1.906-.487 3.748-1.465 5.527-.977 1.779-2.288 3.218-3.932 4.318-1.646 1.099-3.6 1.65-5.863 1.65m12.26-.626l.562-2.78c1.755.704 3.239 1.056 4.453 1.056 1.119 0 1.962-.24 2.524-.714.564-.475.847-1.077.847-1.802a2.32 2.32 0 0 0-.64-1.63 9.535 9.535 0 0 0-1.392-1.234l-.987-.719c-.947-.688-1.66-1.363-2.137-2.024a3.674 3.674 0 0 1-.716-2.209c0-.948.277-1.84.832-2.67.556-.83 1.313-1.48 2.267-1.948.957-.467 2.134-.7 3.535-.7 1.544 0 3.16.255 4.852.764l-.518 2.583c-1.659-.665-3.111-.997-4.356-.997-.894 0-1.601.199-2.12.598-.521.399-.781.91-.781 1.535 0 .464.15.88.452 1.248.302.366.788.8 1.462 1.304l1.07.8c1.245.918 2.082 1.733 2.512 2.438.431.706.645 1.448.645 2.229 0 .925-.302 1.83-.91 2.713-.605.885-1.463 1.57-2.571 2.057-1.11.484-2.531.728-4.269.728-1.552 0-3.09-.208-4.616-.626m18.373-.374l3.045-14.656H157l.478-2.344H174l-.48 2.344h-6.43L164.058 725zm16.134-17h3.626l-2.317 11.07a7.7 7.7 0 0 0-.186 1.626c0 .87.284 1.556.854 2.059.573.502 1.3.754 2.182.754.938 0 1.75-.306 2.44-.92.691-.613 1.205-1.774 1.543-3.483L186.798 708H190l-2 10.276c-.397 2.04-.922 3.561-1.576 4.562-.654 1.001-1.533 1.777-2.64 2.332-1.105.552-2.347.83-3.725.83-1.721 0-3.16-.452-4.32-1.351-1.159-.904-1.739-2.133-1.739-3.692 0-.719.093-1.51.276-2.373l2.23-10.584zM190 725l3.494-17h4.804l1.694 11.337L206.537 708H211l-3.494 17h-3.435l2.608-12.68-6.546 11.336h-2.79l-1.735-11.705L192.925 725zm21 0l3.365-17H225l-.457 2.344h-7.129l-.935 4.733h5.701l-.432 2.204h-5.707l-1.064 5.376h7.604l-.457 2.343z" fill="#6C6E70" mask="url(#d)"/></g></svg>
