
<svg width="3000" height="1159" xmlns="http://www.w3.org/2000/svg"><path d="M2999.054 475.831v10.342c-169.455 5.938-280.249 9.124-280.774 7.328-.526-1.81 110.53-8.501 280.774-17.67m0 20.857v13.719c-280.55 10.444-486.748 17.266-487.499 14.817-.713-2.463 206.087-14.007 487.5-28.536m0 22.554v8.387c-114.735 3.78-185.407 5.518-185.861 4.084-.41-1.448 70.45-6.011 185.86-12.471m0 15.121v12.575c-241.329 8.834-411.422 14.266-412.098 12.035-.675-2.23 169.906-11.964 412.098-24.61m0-127.581v14.396c-288.769 23.873-504.463 40.835-505.964 38.342-1.502-2.505 215.469-24.493 505.964-52.738m0 15.455v1.52c-3.832.086-5.855.028-6.005-.203-.15-.247 1.914-.694 6.005-1.317m0 10.516v3.244c-17.077 1-26.385 1.304-26.685.797-.338-.521 9.008-1.912 26.685-4.041m-39.445-57.085c.56.608 14.45-.638 39.446-3.419v-4.143c-26.05 4.288-40.046 6.924-39.446 7.562m-264.86 21.77c1.688 1.825 123.137-12.978 304.306-36.197v-11.66c-183.533 27.115-306.033 46.003-304.307 47.857m170.132-37.69c1.088 1.174 51.005-4.446 134.175-14.716v-7.691c-84.971 12.964-135.264 21.22-134.175 22.408m134.174-108.941v18.033c-338.46 61.344-615.782 110.592-619.198 107.898-3.49-2.752 277.581-58.924 619.198-125.931m0 27.231v16.978c-306.108 55.346-546.536 97.83-549.726 95.323-3.228-2.562 240.315-51.464 549.726-112.3m0-101.264v34.967c-367.247 87.284-692.047 163.33-696.7 160.505-3.528-2.142 177.825-49.464 423.132-112.068-173.734 40.587-292.147 67.37-294.924 65.675-4.204-2.551 253.076-68.992 568.492-149.079m0-106.797v57.287c-339.136 101.902-638.714 190.68-644.119 188.072-4.991-2.404 241.592-82.361 540.307-177.744-303.857 91.096-556.824 165.75-561.812 163.36-4.467-2.158 194.414-67.02 451.731-149.41-120.402 35.342-198.467 57.432-201.207 56.113-4.279-2.056 175.798-60.937 415.1-137.678M2914.872.03c-356.1 133.913-706.576 264.335-713.515 261.655-6.718-2.591 308.848-129.088 643.293-261.655h70.222zm72.586 0c-203.872 75.843-355.354 131.016-359.895 129.263-4.35-1.68 126.898-55.477 310.916-129.263h48.979zm-386.84 0c-137.742 63.444-233.406 106.348-237.614 105.046-4.053-1.247 77.053-43.326 199.556-105.046h38.057zm63.73 0c-160.598 74.235-276.237 126.439-280.85 125.005-4.47-1.39 94.918-52.566 239.302-125.005h41.548zm-243.318 0c-234.198 137.737-441.26 257.744-448.504 255.963-4.391-1.072 64.063-46.148 167.992-112.447-99.346 57.288-166.303 94.645-170.398 93.645-6.752-1.666 161.203-108.94 365.375-237.16h85.535zm-276.573 0c-150.536 113.91-269.402 201.905-275.82 200.688-6.268-1.188 96.531-88.053 233.109-200.688h42.711zm61.927 0c-76.264 56.622-127.345 93.08-131.473 92.298-4.05-.753 36.856-36.805 102.724-92.298h28.75zm-209.726 0c-105.39 107.71-186.308 187.942-192.575 187.072-6.156-.853 60.95-80.347 154.183-187.072h38.392zm-185.705 0c-77.019 118.255-137.97 208.22-144.688 207.612-6.677-.608 40.763-90.023 106.177-207.612h38.511zm57.646 0c-73.074 111.926-129.893 195.46-136.39 194.88-6.418-.58 37.382-83.62 99.121-194.88h37.27zm-266.698 0h24.92c-21.058 57.404-36.18 94.007-40.496 93.804-4.316-.188 2.398-36.69 15.576-93.804m69.994 0c-19.513 52.856-33.44 86.127-37.57 85.94-4.09-.19 1.806-33.36 13.775-85.94h23.795zm-238.436 0h21.806c-3.453 45.671-7.094 73.844-10.888 73.844-3.79 0-7.465-28.173-10.918-73.844m66.054 0c-4.24 69.716-8.857 115.705-13.736 115.705-4.88 0-9.496-45.989-13.737-115.705h27.473zm-234.686 0c19.253 79.855 30.404 134.145 25.146 134.378-5.255.23-26.61-54.202-55.06-134.378h29.914zm114.548 225.298c-7.097.319-43.199-98.236-86.735-225.298h38.958c32.202 126.714 54.833 224.98 47.777 225.298M1115.602.031h14.487c9.233 19.164 13.474 30.129 11.147 30.332-2.365.217-11.481-10.806-25.634-30.332m77.577 171.718c-6.042.55-55.584-71.626-121.265-171.718h34.942c54.872 99.44 92.253 171.198 86.323 171.718M874.123.031c81.481 93.63 137.629 160.753 131.962 161.537-5.743.795-74.576-66.935-167.542-161.537h35.58zm34.754 0c66.806 77.35 110.456 130.292 105.426 130.987-5.142.695-60.05-52.71-137.44-130.987h32.014zm217.46 189.81c-6.31.87-88.537-80.723-195.244-189.81h38.658c94.467 108.086 162.816 188.955 156.586 189.81M711.084.031h39.938c121.34 100.352 208.9 174.818 203.08 175.92-5.93 1.114-108.354-74.28-243.018-175.92m313.877 279.066c-7.803 1.477-183.117-129.871-379.029-279.066h50.59c180.79 148.08 336.137 277.618 328.44 279.066M503.12.031c240.015 150.252 457.627 288.307 449.933 290.19-7.848 1.927-249.664-138.765-506.606-290.19h56.673zm513.96 292.653c-7.882 1.94-252.322-140.3-510.844-292.653h56.936c241.591 151.193 461.602 290.755 453.908 292.653M185.267.03C371.01 92.75 508.94 163.017 503.685 164.637c-5.404 1.68-162.774-70.061-366.234-164.606h47.816zm443.475 188.45c-5.859 1.81-189.764-82.407-417.503-188.45h88.95c142.959 71.758 241.179 122.353 236.75 123.73-4.132 1.274-96.268-39.977-229.772-101.438 187.32 93.47 326.825 164.535 321.575 166.157m123.44 129.596c-4.241 1.637-137.366-46.641-321.722-115.082 110.268 44.73 180.228 74.09 177 75.321-6.264 2.421-293.01-103.812-610.94-223.094V11.937c372.313 147.255 763.13 303.257 755.662 306.14M-3.48 128.193V108.87c263.96 84.506 470.122 151.656 465.543 153.86-4.429 2.129-206.274-57.058-465.543-134.536m627.64 233.019c-5.33 2.563-295.333-83.332-627.638-183.12v-22.479C332.914 262.788 629.644 358.576 624.16 361.213m148.25 21.943c-6.076 2.94-386.576-110.432-775.888-227.716v-25.045c392.052 124.541 782.16 249.748 775.888 252.761m-403.165-55.158c-3.19 1.94-157.442-33.344-372.727-83.924v-15.267c219.339 56.113 375.992 97.192 372.727 99.19M-3.48 306.576v-5.794c43.65 9.199 67.932 14.76 66.881 15.585-.976.783-24.996-2.81-66.881-9.791M514.083 424.96c-3.078 2.419-226.917-37.025-517.562-89.517V318.99c293.948 57.88 520.673 103.508 517.562 105.97m-364.02-2.144c-1.168 1.245-58.813-5.33-153.543-17.107v-8.256c96.607 14.658 154.706 24.074 153.542 25.363m344.69 29.085c-2.251 2.42-214.947-24.363-498.232-61.256v-15.021c285.879 41.63 500.522 73.83 498.233 76.277m62.789 55.057c-1.577 2.623-243.356-16.542-557.721-42.629 75.363 7.881 119.463 13.009 118.791 14.137-.68 1.13-45.826-1.767-122.09-7.516v-29.042c108.538 11.08 174.706 18.438 173.884 19.828-.638 1.06-40.234-1.418-107.753-6.446 284.94 27.726 496.39 49.191 494.889 51.668m-309.447 54.898c-.529 1.695-98.712-1.028-251.574-6.3v-9.778c153.613 8.358 252.062 14.384 251.574 16.078m162.963-6.46c-.68 2.23-171.936-3.245-414.537-12.138V530.64c243.468 12.718 415.213 22.51 414.537 24.755M27.333 595.389c189.235 1.664 315.304 3.506 315.304 5.432 0 2.026-139.806 3.953-346.118 5.693v-25.568c319.958 2.131 565.002 4.635 565.002 7.331 0 2.593-229.468 5.026-534.188 7.112M-3.48 659.065v-14.79c319.545-12.065 564.814-20.452 565.64-17.772.788 2.694-245.232 16.165-565.64 32.562m623.663 1.288c.864 2.854-275.445 17.802-623.664 35.517V680.3c347.356-13.211 622.805-22.786 623.664-19.947M-3.48 736.95v-8.531c111.882-8.72 180.94-13.515 181.766-12.11.863 1.42-68.533 9.111-181.766 20.641m420.619-20.539c1.347 2.245-173.997 20.264-420.618 44.41v-13.094c244.928-20.076 419.266-33.547 420.618-31.316m-261.674 60.937c1.201 1.304-59.112 11.053-158.947 26.161v-8.374c97.92-12.196 157.75-19.062 158.947-17.787M-3.48 883.087V858.81c282.989-51.074 498.908-89.068 501.907-86.69 2.143 1.664-101.294 23.16-259.565 54.838 66.093-11.326 105.314-17.513 106.59-16.512 2.477 1.97-141.382 31.417-348.932 72.64M746.1 759.43c3.904 3.086-352.197 73.785-749.582 151.467v-19.9C391.169 819.208 742.273 756.401 746.1 759.43M93.5 962.507c108.091-24.898 176.211-39.891 178.313-38.6 2.777 1.68-108.5 31.242-275.295 74.19v-45.512c286.63-67.775 511.557-119.89 515.423-117.545 2.74 1.666-105.99 30.565-269.553 72.7 256.38-60.46 449.705-105.028 453.308-102.856 4.353 2.635-271.655 73.77-602.196 157.623m-96.98 107.594v-21.365c306.596-91.935 562.975-167.619 567.967-165.214 5.142 2.476-256.98 87.343-567.967 186.58m0 29.447v-21.67c313.765-94.122 579.151-172.543 584.218-170.095 5.254 2.52-266.175 90.313-584.218 191.765m616.007-131.058c5.48 2.115-204.285 86.996-463.742 190.33h-123.4c402.035-151.6 862.361-323.765 870.318-320.694 6.193 2.403-262.346 110.431-566.878 231.338 164.35-60.853 279.76-102.497 283.702-100.974m160.712 26.231c5.217 1.622-132.19 71.642-317.406 164.1H294.41c280.887-131.35 533.775-248.098 540.677-245.969 5.22 1.608-131.811 71.44-316.613 163.694 101.744-46.525 168.63-76.075 172.158-75.003 2.289.725-23.311 14.833-68.608 38.342 167.691-77.625 289.894-132.899 294.66-131.421 4.805 1.477-110.155 60.388-271.916 141.372 76.827-34.88 125.506-56.028 128.47-55.115m-46.84 126.236c2.405.594-17.19 14.47-52.62 37.864h-20.004c43.461-24.407 70.109-38.488 72.623-37.864m-114.695 37.863h-40.834c153.016-89.169 266.625-153.858 271.954-152.54 5.217 1.275-92.816 64.937-231.12 152.54m244.143 0H809.68c170.469-129.393 312.188-234.887 319.207-233.569 6.868 1.304-117.137 105.421-273.043 233.57m223.951-48.323c2.894.406-10.509 18.31-35.242 48.322H1025.3c31.527-30.692 51.494-48.74 54.496-48.322m-78.552 48.322h-28.937c65.192-65.558 110.039-108.636 114.622-108 4.5.624-30.217 43.327-85.685 108m172.268 0h-32.202c57.31-86.808 99.2-147.065 104.713-146.57 5.446.49-25.296 60.416-72.511 146.57m36.22 0h-31.865c56.148-84.952 96.982-143.632 102.424-143.14 5.405.495-24.47 58.824-70.56 143.14m162.288 0h-9.495c4.316-9.154 7.39-14.092 8.966-14.021 1.576.072 1.693 4.998.53 14.021m53.068 0h-35.768c38.17-110.172 68.57-191.519 75.026-191.244 6.418.29-11.71 81.405-39.258 191.244m100.771 0h-6.793c1.126-4.765 2.293-7.3 3.419-7.3 1.122 0 2.29 2.535 3.374 7.3m93.492 0h-35.693c5.217-111.519 11.338-194.04 17.828-194.04 6.496 0 12.614 82.521 17.865 194.04m114.548 0h-53.257c-22.069-90.125-35.471-153.134-29.8-153.38 5.404-.246 27.62 56.795 57.085 140.054-9.082-41.528-13.136-66.935-9.57-67.094 4.016-.174 17.114 30.78 35.542 80.42m27.398 0h-18.353c-6.68-32.229-9.346-51.39-6.23-51.537 3.152-.145 11.972 19.062 24.583 51.537m109.516 0h-40.305c-70.822-126.887-123.855-226.123-116.84-226.746 7.097-.636 74.35 99.192 157.145 226.746m70.522 0h-29.124c-39.108-72.12-63.354-120.384-58.475-120.818 4.954-.45 39.22 48.075 87.6 120.818m130.312 0h-14.754c-14.333-18.005-21.464-28.318-19.254-28.622 2.256-.317 14.412 10.081 34.008 28.622m58.921 0h-44.996c-122.658-139.214-221.4-254.179-214.01-255.207 7.544-1.045 122.88 115.066 259.006 255.207m146.638 0h-35.317c-97.17-80.84-162.888-137.403-157.821-138.36 5.18-.968 83.77 56.274 193.138 138.36m91.238 0h-78.854c-164.539-135.086-298.865-247.56-291.693-248.908 4.504-.855 64.743 42.499 152.488 107.941-77.011-64.53-126.37-107.579-121.94-108.419 7.318-1.376 160.41 112.897 339.999 249.386m164.802 0h-68.604c-142.62-90.255-244.594-156.406-239.306-157.711 5.142-1.26 111.507 59.156 256.833 143.735-62.531-40.444-99.909-65.836-96.644-66.63 3.754-.93 60.948 30.75 147.721 80.606m42.861 0h-29.387c-75.064-48.321-121.378-79.391-117.775-80.275 3.754-.913 60.73 30.606 147.162 80.275m268.015 0h-101.711c-163.676-81.897-280.4-141.676-275.558-143.168 4.057-1.26 93.195 38.603 223.05 98.366C2429.36 984.8 2204.1 871.543 2210.776 869.471c7.657-2.36 317.931 141.517 633.348 289.35m154.931-35.198v24.407c-298.152-118.443-557.72-222.922-551.64-225.269 5.892-2.274 258.18 90.936 551.64 200.862m0-117.053v21.105c-305.024-97.366-559.485-179.801-554.418-182.25 4.917-2.375 253.827 71.05 554.418 161.145m0 28.464v20.713c-296.35-94.644-539.968-173.674-535.014-176.064 4.8-2.317 243.168 67.934 535.014 155.35m0-129.001v41.498c-212.73-54.462-363.42-94.022-360.191-95.976 2.064-1.26 67.557 13.108 171.97 37.138-297.589-75.653-534.076-136.866-530.06-139.314 2.364-1.449 88.387 17.715 220.874 48.437-68.87-18.222-108.955-29.447-107.303-30.461 4.24-2.593 276.833 60.937 604.71 138.678m0-93.14v14.833c-246.47-48.725-425.534-85.084-422.757-87.271 2.74-2.158 179.59 28.724 422.757 72.439m0 16.977v8.807c-95.818-19.497-153.617-31.896-152.04-33.157 1.538-1.216 58.699 8.127 152.04 24.35m0 17.236v15.557c-268.051-52.87-468.057-93.311-465.13-95.628 2.89-2.26 200.42 32.373 465.13 80.071m0-92.427v14.253c-260.732-38.095-450.83-66.76-448.691-69.064 2.102-2.274 190.473 21.293 448.691 54.811m0-78.132v24.262c-170.656-17.004-282.313-28.854-281.225-30.65.826-1.361 66.619 3.16 173.697 11.488-276.871-26.972-480.518-47.7-479.055-50.12 1.614-2.706 258.256 17.716 586.583 45.02m0 27.825v13.819c-270.979-26.419-468.92-46.598-467.495-48.986 1.427-2.377 198.243 12.978 467.495 35.167m0-102.755v12.89c-252.813-13.165-432.928-23.377-432.215-25.68.676-2.288 180.265 3.506 432.215 12.79m0 29.49v14.313c-302.993-15.571-531.152-28.16-530.36-30.753.788-2.578 228.23 5.1 530.36 16.44" fill="rgba(255,255,255, .25)" fill-rule="evenodd"/></svg>
