
<svg id="Layer_1" data-name="Layer 1" xmlns="http://www.w3.org/2000/svg" viewBox="0 0 1214.23 487.67"><defs><style>.cls-1{fill:#231f20}.cls-2{fill:#0071bb}.cls-3{fill:#e6262b}</style></defs><path class="cls-1" d="M1214.19 360.34a94.17 94.17 0 0 0-7.41-35.43 81.11 81.11 0 0 0-20-28.09 82.93 82.93 0 0 0-29.35-17.07 98.77 98.77 0 0 0-34.09-5 199.66 199.66 0 0 0-24.72 2.17 142.33 142.33 0 0 0-14.2 3 34.37 34.37 0 0 0-21.24-6.73l-45.15 1.08a34.24 34.24 0 0 0 3.56-14.3l2.52-89.52 81.07-116.44a31.53 31.53 0 0 0-24.31-50l-69.39-4a37.67 37.67 0 0 0-34.23 18.59l-.71 1.25a34.34 34.34 0 0 0-35.29-18.44l-74.18 10.31a32.89 32.89 0 0 0-20.41 11A35.59 35.59 0 0 0 814.5 6.09l-81.76 5.21a36.52 36.52 0 0 0-32.34 26.08l-34.61 121.7a33.82 33.82 0 0 0-19.33-5.69c-.32 0-7.6.14-13.67.33-5.56.18-11.37.31-17.26.39.68-13.51 1.58-29.59 2.52-40.91 2-23.62 5.79-66.63 5.83-67.06a33.44 33.44 0 0 0-33.83-36.51l-75.88 1a33.57 33.57 0 0 0-13.26 2.94 33.87 33.87 0 0 0-16.55-4.1l-142 1.89a34.3 34.3 0 0 0-33.64 33.8l-.13 14c-1.43-1.43-2.89-2.84-4.4-4.2A127.07 127.07 0 0 0 259.72 29a156.92 156.92 0 0 0-53.21-8.07 338 338 0 0 0-41.66 3.16c-14.33 2-34.21 7.52-36.43 8.15a35.77 35.77 0 0 0-25.93 34l-1.6 211.18a34.17 34.17 0 0 0 1.9 11.47c-2.26-.06-4.46-.06-6.55 0a93.78 93.78 0 0 0-52.49 17.17 96.59 96.59 0 0 0-19.41 18.22 107 107 0 0 0-13.73 22.08 114.87 114.87 0 0 0-8.16 24.74A116.16 116.16 0 0 0 0 397.65 96 96 0 0 0 7.48 433a91 91 0 0 0 19.27 28.91 87.18 87.18 0 0 0 29.18 19.32 89.14 89.14 0 0 0 33.74 6.42h2.37a111.67 111.67 0 0 0 19.47-2.27 113.31 113.31 0 0 0 19.72-5.9 99.18 99.18 0 0 0 18.93-10.1c1.54-1.06 3-2.12 4.23-3.15.21.22.42.45.63.66a70.2 70.2 0 0 0 23 15.47 72.62 72.62 0 0 0 28.24 5.33h2.16a70.73 70.73 0 0 0 27.58-6.06 75.8 75.8 0 0 0 18.71-12 33.91 33.91 0 0 0 16.84 6l35.8 2.72c.9.06 1.8.1 2.7.1a35.11 35.11 0 0 0 20.82-6.84 35.27 35.27 0 0 0 24.69 5.32l30.53-4.76a34.76 34.76 0 0 0 18 5.1h.8l28.37-.67a34.82 34.82 0 0 0 18.41-5.76 35.31 35.31 0 0 0 24.93 3.66l29.24-6.56a33.92 33.92 0 0 0 8.94 1.9l35.8 2.72c.9.07 1.8.11 2.7.11a35.11 35.11 0 0 0 20.82-6.84 35.21 35.21 0 0 0 24.69 5.31l30.38-4.73a34.73 34.73 0 0 0 18 5.08h.8l30.19-.72a34.67 34.67 0 0 0 20.87-7.57 36.17 36.17 0 0 0 22.09 4.62l36.89-4.33a35.34 35.34 0 0 0 22.33-11.75 33.83 33.83 0 0 0 5.25 6 34.42 34.42 0 0 0 23 8.85c.87 0 1.74 0 2.61-.1l27.62-2.12a35.36 35.36 0 0 0 24.83-13.17 34.07 34.07 0 0 0 6 7.58 34.45 34.45 0 0 0 23.69 9.45h1.61l67.68-3.21a34.56 34.56 0 0 0 10.93-2.33 34.59 34.59 0 0 0 17.12 4.56h1.61l67.69-3.22a34.52 34.52 0 0 0 12.28-2.89 34.64 34.64 0 0 0 13.87 4s.38.05 4.13.17c1.86.06 3.77.09 5.69.09 1.44 0 2.89 0 4.35-.05a165.14 165.14 0 0 0 27.09-2.86 132.71 132.71 0 0 0 26.17-7.79 109 109 0 0 0 23.93-13.71 91 91 0 0 0 20.05-21 93.55 93.55 0 0 0 12.71-27.24 107.8 107.8 0 0 0 3.94-32.41z"/><path class="cls-2" d="M315.88 152.31q.3 23-5.37 41.62a113 113 0 0 1-16.1 33.13 110.57 110.57 0 0 1-24.93 25.1 144.83 144.83 0 0 1-31.85 17.46 189.32 189.32 0 0 1-37 10.36 251.55 251.55 0 0 1-40.35 3.75c-5.15.06-10.2 0-15.14-.21s-10.33-.65-10.33-.65a5.3 5.3 0 0 1-4.79-5.23l1.6-211.18a6.83 6.83 0 0 1 4.7-6.15s19.74-5.57 32.5-7.33a306.56 306.56 0 0 1 38-2.89 127.48 127.48 0 0 1 43.37 6.5 97.55 97.55 0 0 1 34.33 20 91.82 91.82 0 0 1 22.73 32.28q8.31 19.13 8.63 43.44zm-67.31 12.58c0-.63-.14-3.33-.29-6a74.14 74.14 0 0 0-1.84-12.26 41 41 0 0 0-6.94-14.47 35.24 35.24 0 0 0-12.06-10c-4.87-2.51-12.53-3.41-12.53-3.41a4.49 4.49 0 0 0-5 4.28l-4.73 92.43a3.32 3.32 0 0 0 4.43 3.59s7.84-2.08 13.17-5.5A54.38 54.38 0 0 0 236.47 201a56.53 56.53 0 0 0 8.83-16.41 72 72 0 0 0 2.82-13.74c.26-2.64.46-5.33.45-5.96zM484.75 38.63a4.52 4.52 0 0 1 4.61 4.78s-.76 15.69-1.17 25.79-1.42 25.8-1.42 25.8a5.67 5.67 0 0 1-5.14 5.14l-60.06 3.92a5.71 5.71 0 0 0-5.15 5.15l-.73 11.09a4.42 4.42 0 0 0 4.52 4.77l39.35-.53a4.46 4.46 0 0 1 4.57 4.77l-2.39 41.39a5.51 5.51 0 0 1-5.11 5.06L417 177.61a5.48 5.48 0 0 0-5.1 5.06l-.83 14.33a4.46 4.46 0 0 0 4.57 4.77l31.12-.41 9.68-.13 19.28-.26a4.55 4.55 0 0 1 4.64 4.78s-.82 19.25-1.36 31.18-1.24 31-1.24 31a5.29 5.29 0 0 1-5 5l-132.11 4.83a4.59 4.59 0 0 1-4.79-4.67l2-227.64a5 5 0 0 1 4.88-4.91zM647 182.54a4.3 4.3 0 0 1 4.45 4.74l-5.15 63.49a6 6 0 0 1-5.22 5.27l-128.77 11.82a4.32 4.32 0 0 1-4.79-4.4s.36-71.52.67-109.37 1.45-109.39 1.45-109.39a5 5 0 0 1 4.92-4.91l75.88-1a4.29 4.29 0 0 1 4.41 4.75S591 86.8 589 110.8s-3.77 67.71-3.77 67.71a4.72 4.72 0 0 0 4.64 4.92s5.42.11 10.47 0l15.3-.21q9.21-.12 18.1-.4c5.91-.15 13.26-.28 13.26-.28zm239.89 68.31a4 4 0 0 1-3.39 5.32l-71.88 10.25a5.7 5.7 0 0 1-6.1-4l-7.75-27.73a6.67 6.67 0 0 0-6.15-4.6l-27.83.37a6.33 6.33 0 0 0-5.82 4.81l-5.77 27.83a5.6 5.6 0 0 1-5.81 4.33L672 261.14a3.85 3.85 0 0 1-3.5-5.07l59.94-210.71a7.37 7.37 0 0 1 6.15-5l81.76-5.21a6.43 6.43 0 0 1 6.24 4.33zM785 179.84a3.73 3.73 0 0 0 3.74-4.78L777.7 127.4c-.6-2.59-1.52-2.58-2 0l-9.53 47.92A3.76 3.76 0 0 0 770 180zm294.23-146.69c2.66.15 3.59 2.07 2.07 4.25L998 157a19.1 19.1 0 0 0-2.9 8.81l-2.64 93.38a5.09 5.09 0 0 1-5 4.9l-68.26.91a4.73 4.73 0 0 1-4.81-4.77l.55-92.69a29.44 29.44 0 0 0-1.77-9.33L868.09 45.76a3.62 3.62 0 0 1 3-5.16l74.18-10.32a5.22 5.22 0 0 1 5.73 4.08l12.22 61.41c.52 2.61 2 2.86 3.34.54l36-63.22a8.58 8.58 0 0 1 7.23-3.93z"/><path class="cls-3" d="M143.8 430.08a15.43 15.43 0 0 1-3.36 9.44 40.51 40.51 0 0 1-6.75 5.78 69.58 69.58 0 0 1-13.32 7.1 84.37 84.37 0 0 1-14.66 4.39 82.19 82.19 0 0 1-14.36 1.69 60.45 60.45 0 0 1-24.44-4.25 57.82 57.82 0 0 1-19.49-12.87 61.82 61.82 0 0 1-13.1-19.71A67.05 67.05 0 0 1 29.18 397 86.84 86.84 0 0 1 31 377.07a85.5 85.5 0 0 1 6.08-18.45 77.19 77.19 0 0 1 10-16 67.87 67.87 0 0 1 13.56-12.73 65 65 0 0 1 16.75-8.48A65.77 65.77 0 0 1 96.93 318c2.62-.06 5.41 0 8.39.13a86.17 86.17 0 0 1 8.91.9 62.54 62.54 0 0 1 8.66 2c2.82.86 2.88.89 2.88.89a8.91 8.91 0 0 1 4.6 7.76l-1.19 24.75a4.08 4.08 0 0 1-5.45 3.89 34.87 34.87 0 0 0-5.4-.89 83.25 83.25 0 0 0-10.62-.45 40.32 40.32 0 0 0-13.57 2.6 32.64 32.64 0 0 0-10.87 6.81A31 31 0 0 0 76.1 377a33.46 33.46 0 0 0-2.4 13.91 33.87 33.87 0 0 0 1.49 9.3 24.44 24.44 0 0 0 4.06 7.9 20 20 0 0 0 6.61 5.46 18.29 18.29 0 0 0 9 1.92 29 29 0 0 0 7.13-1.1l2.44-.67c2.1-1.45 3.86-4.27 3.91-6.26s-2.34-3.61-5.31-3.59l-11.03.04a5.26 5.26 0 0 1-5.32-5.36l.26-17.09a5.91 5.91 0 0 1 5.48-5.7s12.69-.7 21.73-1.13 21.92-1.21 21.92-1.21a5.29 5.29 0 0 1 5.61 5.07zm122.08-80.58q.17 6.87-.28 15.15t-1.69 17.14q-1.25 8.86-3.35 18a130.51 130.51 0 0 1-5.37 17.55 104.25 104.25 0 0 1-7.69 15.85 61.32 61.32 0 0 1-10.27 13 46.67 46.67 0 0 1-13.14 8.81 42 42 0 0 1-16.32 3.5 44.6 44.6 0 0 1-18.44-3.05 41.31 41.31 0 0 1-13.57-9.06 49.58 49.58 0 0 1-9.43-13.53 87.29 87.29 0 0 1-6-16.49 130.31 130.31 0 0 1-3.2-17.86q-1-9.13-1.19-17.59-.31-13 .65-26c.65-8.65 2.29-20.6 2.29-20.6a6.29 6.29 0 0 1 6.14-5.27l31.87.49a4.71 4.71 0 0 1 4.69 5.44s-1.88 14.21-2.83 24.05a248.18 248.18 0 0 0-1.07 29.63c0 1.05.11 2.61.25 4.68s.36 4.39.67 7 .71 5.18 1.23 7.87a43.6 43.6 0 0 0 2 7.34 19 19 0 0 0 3 5.41 4.91 4.91 0 0 0 4 2 6 6 0 0 0 4.67-2.67 23.67 23.67 0 0 0 3.53-6.91 70.36 70.36 0 0 0 2.55-9.91q1-5.61 1.72-11.66t1-12.11c.23-4 .42-7.78.55-11.25s.19-6.54.19-9.21 0-4.65-.05-5.95q-.18-7.24-.57-14.43c-.27-4.8-.6-8.95-.6-8.95a5.07 5.07 0 0 1 5-5.51l31.83-.76a5.84 5.84 0 0 1 5.87 5.25s1.15 11.82 1.36 20.61zm123.34 87.21a4.53 4.53 0 0 1-3.74 6l-34.36 5.36a6.29 6.29 0 0 1-6.82-4.36l-3-10.48a7.38 7.38 0 0 0-6.88-5.06l-10 .24a7 7 0 0 0-6.42 5.43l-2 10.49a6.22 6.22 0 0 1-6.4 4.9l-35.8-2.72a4.33 4.33 0 0 1-4-5.63l30.52-114.14a8.19 8.19 0 0 1 6.78-5.63l39.81-3a7.11 7.11 0 0 1 7 4.75zm-58.76-36.89a4.2 4.2 0 0 0 4.14-5.39l-5.18-21.65c-.69-2.88-1.69-2.86-2.23.06l-4 21.86a4.22 4.22 0 0 0 4.43 5.18zm173.81-42.24a63.93 63.93 0 0 1-.92 13.17 39.88 39.88 0 0 1-3.61 10.91 38.74 38.74 0 0 1-6.61 9.26 50.45 50.45 0 0 1-5.6 5 6.23 6.23 0 0 0-1.61 7.9l17.18 29.53a3.73 3.73 0 0 1-2.55 5.85L470.3 446a6.43 6.43 0 0 1-7.2-3.86L452 413a7.89 7.89 0 0 0-7.32-4.74h-.5a5.93 5.93 0 0 0-5.49 5.71l-.52 27.87a5.71 5.71 0 0 1-5.5 5.53l-28.37.68a5.29 5.29 0 0 1-5.42-5.28s-.08-22.77-.14-36.77-.08-28.07-.05-42.19l-.14-21.19c0-7 .12-15.79.12-15.79a8.61 8.61 0 0 1 5.16-7.3s3.32-1.24 7.42-2.39a114.81 114.81 0 0 1 12.38-2.76q6.21-1 12.63-1.51t13.16-.64a69.21 69.21 0 0 1 20.15 2.45 51.46 51.46 0 0 1 17.43 8.37 42.63 42.63 0 0 1 17.32 34.53zm-40.74 3.94a23.19 23.19 0 0 0-1.22-7.13 15.78 15.78 0 0 0-3.23-5.54 14.15 14.15 0 0 0-5.19-3.6 17.65 17.65 0 0 0-7.18-1.17 27.4 27.4 0 0 0-3.55.31l-1.15.19c-1.21.32-2.24 3-2.3 6l-.44 23.79c0 3 .4 5.38 1 5.37s3.46-.23 6.35-.49l2.69-.75a23.35 23.35 0 0 0 7.21-3.33 17.27 17.27 0 0 0 5.15-5.6 14.9 14.9 0 0 0 1.86-8.05zm168.95 69.4a4.54 4.54 0 0 1-3.74 6l-34.36 5.36a6.29 6.29 0 0 1-6.82-4.37l-3-10.47a7.38 7.38 0 0 0-6.88-5.06l-10 .23a7 7 0 0 0-6.42 5.44l-2 10.49a6.21 6.21 0 0 1-6.4 4.89l-35.8-2.72a4.32 4.32 0 0 1-4-5.62l30.54-114.16a8.16 8.16 0 0 1 6.78-5.62l39.81-3a7.14 7.14 0 0 1 7 4.76zM573.72 394a4.19 4.19 0 0 0 4.14-5.38L572.68 367c-.69-2.89-1.69-2.86-2.23.06l-4 21.86a4.23 4.23 0 0 0 4.43 5.18zm184.5-86a4.87 4.87 0 0 1 5.24 5.08l-3.25 115.3a6.46 6.46 0 0 1-5.52 6l-36.9 4.34a7.52 7.52 0 0 1-7.39-4.38l-23-56.81c-1.12-2.75-2.12-2.58-2.22.39l-2 58a5.81 5.81 0 0 1-5.58 5.53l-30.19.72A5.26 5.26 0 0 1 642 437l.13-121a5.93 5.93 0 0 1 5.4-5.8l34.71-2.53a8.78 8.78 0 0 1 7.81 4.44l28.27 56.46c1.33 2.66 2.42 2.4 2.42-.57v-52.39a5.8 5.8 0 0 1 5.39-5.71zm110.38-2.4a5.27 5.27 0 0 1 5.41 5.27v28.6a5.86 5.86 0 0 1-5.39 5.75l-16.34 1.06a6.26 6.26 0 0 0-5.68 5.74l-4.24 77.43a6.35 6.35 0 0 1-5.68 5.81l-27.62 2.13a5.07 5.07 0 0 1-5.5-5l-1.68-77.25a5.07 5.07 0 0 0-5.51-5l-16.34 1.29a4.93 4.93 0 0 1-5.38-5v-33.06a5.6 5.6 0 0 1 5.41-5.54zm97.97-2.18a5 5 0 0 1 5.2 5.27s-.22 6.19-.39 11.9-.49 11.91-.49 11.91a6.33 6.33 0 0 1-5.67 5.8l-27.8 2.14a6.35 6.35 0 0 0-5.68 5.81v.93a4.93 4.93 0 0 0 5.11 5.27l16.34-.39a5 5 0 0 1 5.16 5.27l-.83 18.05a6.13 6.13 0 0 1-5.64 5.7l-16.52 1a6.12 6.12 0 0 0-5.62 5.71l-.12 2.79a5 5 0 0 0 5.16 5.26l11.79-.28 10.8-.25 5.24-.13a5.07 5.07 0 0 1 5.23 5.27s-.26 8.2-.49 14.92-.43 14.83-.43 14.83a5.92 5.92 0 0 1-5.53 5.66L893.65 439a5.12 5.12 0 0 1-5.4-5.14L888 310.69a5.57 5.57 0 0 1 5.39-5.53zm97.35-1.02a5 5 0 0 1 5.2 5.27s-.23 6.2-.39 11.9-.49 11.91-.49 11.91a6.34 6.34 0 0 1-5.67 5.81l-27.8 2.13a6.34 6.34 0 0 0-5.68 5.81v.94a4.93 4.93 0 0 0 5.11 5.26l16.34-.39a5 5 0 0 1 5.16 5.27l-.83 18.05a6.14 6.14 0 0 1-5.64 5.71l-16.52.95a6.11 6.11 0 0 0-5.62 5.71l-.12 2.79a5 5 0 0 0 5.16 5.27l11.79-.28 10.8-.26 5.23-.13a5.09 5.09 0 0 1 5.24 5.28s-.26 8.19-.49 14.92-.43 14.82-.43 14.82a5.93 5.93 0 0 1-5.53 5.66L991 438a5.12 5.12 0 0 1-5.41-5.14l-.25-123.2a5.57 5.57 0 0 1 5.39-5.53zM1185 361a78 78 0 0 1-2.72 23.53 64.25 64.25 0 0 1-8.71 18.8 61.85 61.85 0 0 1-13.57 14.34 80 80 0 0 1-17.53 10 103.11 103.11 0 0 1-20.41 6.06 135.91 135.91 0 0 1-22.32 2.34c-2.86.07-5.65.06-8.39 0s-3-.11-3-.11a5.93 5.93 0 0 1-5.4-5.79l-.39-113.9a7.7 7.7 0 0 1 5.16-6.95 135.34 135.34 0 0 1 15.35-3.54 167.32 167.32 0 0 1 21-1.85 69.27 69.27 0 0 1 24.06 3.42 54 54 0 0 1 19.13 11.07 52 52 0 0 1 12.78 18.1A64.84 64.84 0 0 1 1185 361zm-37.19 7.49c0-.36-.18-3.08-.38-6a26.41 26.41 0 0 0-.91-4.25 23.29 23.29 0 0 0-3.93-8.13 19.75 19.75 0 0 0-6.74-5.6 13.91 13.91 0 0 0-4.25-1.56 5 5 0 0 0-5.59 4.82l-1.84 46.87a3.7 3.7 0 0 0 5 3.94 18.73 18.73 0 0 0 4.65-2.44 30.31 30.31 0 0 0 7.53-7.15 32.16 32.16 0 0 0 4.79-9.32 26.34 26.34 0 0 0 1.25-5.11c.27-2.97.47-5.68.46-6.04z"/></svg>
