
<svg id="Layer_1" data-name="Layer 1" xmlns="http://www.w3.org/2000/svg" viewBox="0 0 162.13 128.64"><defs><style>.cls-1,.cls-12,.cls-13,.cls-18,.cls-8{fill:#231f20}.cls-2{fill:#fdc60b}.cls-3{fill:#ffe592}.cls-4{fill:#fff}.cls-10,.cls-11,.cls-12,.cls-16,.cls-4,.cls-6,.cls-9{stroke:#231f20}.cls-10,.cls-11,.cls-12,.cls-15,.cls-16,.cls-17,.cls-18,.cls-4,.cls-6,.cls-9{stroke-linecap:round;stroke-linejoin:round;stroke-width:.56px}.cls-5{fill:#bbbdbf}.cls-6{fill:#96999b}.cls-11,.cls-7{fill:#dfe0e1}.cls-8{opacity:.5}.cls-9{fill:none}.cls-10{fill:#d0d2d3}.cls-13{opacity:.29}.cls-14,.cls-15{fill:#e72129}.cls-15{stroke:#e72129}.cls-16{fill:#c4c5c7}.cls-17{fill:#626366;stroke:#626366}.cls-18{stroke:#fff}.cls-19{fill:#0da57b}</style></defs><circle class="cls-1" cx="71.57" cy="71.64" r="56.99"/><circle class="cls-2" cx="71.57" cy="71.64" r="53.41"/><path class="cls-3" d="M119.37 67.36a50.41 50.41 0 0 1-88.69 29.4 48 48 0 0 0 88.69-29.4zM28.11 55.72a50.41 50.41 0 0 1 80.49-14.61 48 48 0 0 0-85 30.18 50.44 50.44 0 0 1 4.51-15.57z"/><path class="cls-1" d="M73.17 108.05a4.91 4.91 0 0 1-.53 0 7.79 7.79 0 0 1-6.26-5.31 8.56 8.56 0 0 1-.26-5.21c.08-.28.17-.53.27-.79l.13-.31a7.29 7.29 0 0 1 .46-.81l.15-.23a6.85 6.85 0 0 1 .75-.88 13.13 13.13 0 0 1 4.45-3l-6-.64-.59-.08a23 23 0 0 1-3 .15 6.84 6.84 0 0 0-2.89.38c-.35.14-1.28.57-2.58 1.17-7.19 3.29-23.79 10.91-32.1 13a60.83 60.83 0 0 1-14.34 2c-4.91 0-8-1-9.55-3.16-2.12-3-1.5-6.76 1.83-11.27l.58-.75.61-.75c.91-1.09 2-2.24 3.26-3.53 3.44-3.47 11.11-8.21 18.83-11.65a8.08 8.08 0 0 1 .25-2.75 6.91 6.91 0 0 1 .27-.77l.13-.3a7.74 7.74 0 0 1 .44-.8 2.1 2.1 0 0 0 .15-.22 6.39 6.39 0 0 1 .72-.84c2.32-2.63 6.95-4.15 10.45-5 .93-.71 1.73-1.32 2.4-1.81l-7.64-30a9.28 9.28 0 0 1 .44-3.12 4.07 4.07 0 0 1 2.58-1.85l4.16-1a4.66 4.66 0 0 1 4.75 1.88L63 55.9a8.64 8.64 0 0 0 .72.88l3.47 3.53c3.85-1.5 6.19-2.42 7.52-3a152.62 152.62 0 0 1 16.58-5.76l-3.6-12.7a4.08 4.08 0 0 1 2-4.7l4-2a4 4 0 0 1 1.82-.43 4.08 4.08 0 0 1 3.09 1.38l5.83 6.67c3-4.08 13.59-18.47 13.66-18.56a5.22 5.22 0 0 1 2.39-1.86l3.7-1.41a3.94 3.94 0 0 1 1.44-.29 3.4 3.4 0 0 1 2.9 1.58 3.52 3.52 0 0 1 .14 3.48l-5.29 11.23a3.4 3.4 0 0 1 2.08 1.26 3.55 3.55 0 0 1 .58 3.09l-.51 2.21a6.55 6.55 0 0 1 .51 1.25 5 5 0 0 1-2.78 6.32 12.79 12.79 0 0 0-3 1.63 5.52 5.52 0 0 1-2 1.4v.36c6.78.81 21.29 2.66 25.7 3.23h.14a3.46 3.46 0 0 1 1.44 6.46l-3.61 2.3a6.42 6.42 0 0 1-3.1.94c-.23 0-22.71.61-29.58.7A99.54 99.54 0 0 1 95.59 77l2.43.56.41.1c2.08.48 4.22 1 6 1.36 17.62 3.74 54.3 11.33 54.65 11.4a3.56 3.56 0 0 1 1.47 6.45L157.77 99a5.73 5.73 0 0 1-3.86 1.07l-61.15-6.49a5.21 5.21 0 0 1-.19 1.47A4.57 4.57 0 0 1 90.21 98a7.89 7.89 0 0 0-1.54 1.22 6.63 6.63 0 0 1-1.21 2.15c-4.17 4.88-10.7 6.24-12.6 6.54h-.26a10.53 10.53 0 0 1-1.43.14z"/><path class="cls-4" d="M33.5 80.63c1.23 0 7.62-1 11.25-5.29a3.41 3.41 0 0 0 .64-1.26 4.7 4.7 0 0 0-.17-2.83c-.67-1.83-2.23-3-3.72-2.8-.17 0-1 .22-1.89.42-2.33.54-7 1.83-8.84 4"/><path class="cls-4" d="M36.76 75a4.17 4.17 0 0 0-4.25-3 3.41 3.41 0 0 0-1.31.45 3.46 3.46 0 0 0-.92.87l-.09.13a3.61 3.61 0 0 0-.22.39 1.11 1.11 0 0 1-.07.16c0 .13-.1.27-.14.41a5.06 5.06 0 0 0 .18 3.06c.72 2 2.42 3.26 4 3a2.83 2.83 0 0 0 1.12-.26 3.09 3.09 0 0 0 1.85-2.16 5.17 5.17 0 0 0-.15-3.05z"/><path class="cls-5" d="M32.32 73.23a1.5 1.5 0 0 0-.42.09 2 2 0 0 0-1.2 1.44 4.15 4.15 0 0 0 .16 2.47c.54 1.49 1.76 2.5 2.89 2.4a1.5 1.5 0 0 0 .42-.09 2 2 0 0 0 1.2-1.44 4.12 4.12 0 0 0-.16-2.46c-.55-1.5-1.76-2.51-2.89-2.41z"/><path class="cls-1" d="M33.53 73.52l-.09.28a4.29 4.29 0 0 0 1.83 4.58 2.31 2.31 0 0 0 .1-.28 4.12 4.12 0 0 0-.16-2.46 4 4 0 0 0-1.68-2.12z"/><path class="cls-6" d="M48.5 68.44a1.7 1.7 0 0 1-1.09.93c-.68.21-2.75.75-2.75.75a4.91 4.91 0 0 1 .57 1.12 4.72 4.72 0 0 1 .25 2.47 12.7 12.7 0 0 1 2.78-2.3 1.32 1.32 0 0 0 .72-.89 2.34 2.34 0 0 0-.1-1.42 2.89 2.89 0 0 0-.38-.66z"/><path class="cls-4" d="M44.84 65.35c-1.14.63-6.53 4.84-7.2 5.4a.59.59 0 0 0-.19.74c.11.18.33.12.67 0 0 0 3.09-1 6.09-1.91a6.41 6.41 0 0 1 .44.56s2.07-.54 2.75-.75.85-.59 1.21-1.1l1.78-2.46z"/><path class="cls-4" d="M46.53 71.8l19.83-7.7-5-5a13 13 0 0 1-1.1-1.35l-17.43-26.1a1.37 1.37 0 0 0-1.34-.53l-4.16.95a.85.85 0 0 0-.64 1z"/><path class="cls-7" d="M61.79 65.88L42 33.8l-3 .65 10.79 36.08z"/><path class="cls-4" d="M104.7 44.93l-8.47-9.7a.91.91 0 0 0-1-.2l-4 2a.84.84 0 0 0-.41.92l4.67 16.42 9.32 2.09 3.09-8.65zm-31.53 59.89c1.3 0 8-1.11 11.84-5.57a3.58 3.58 0 0 0 .67-1.32 4.9 4.9 0 0 0-.17-3c-.7-1.92-2.35-3.16-3.92-2.94-.18 0-1.1.23-2 .44-2.45.56-7.31 1.92-9.3 4.18"/><path class="cls-4" d="M76.6 98.93a4.41 4.41 0 0 0-4.48-3.12 3.79 3.79 0 0 0-1.37.48 3.39 3.39 0 0 0-1 .92.71.71 0 0 0-.1.14 2.27 2.27 0 0 0-.22.41s0 .11-.08.16a3.12 3.12 0 0 0-.15.43 5.3 5.3 0 0 0 .19 3.23c.76 2.09 2.55 3.43 4.25 3.19a2.83 2.83 0 0 0 1.18-.27 3.23 3.23 0 0 0 1.94-2.27 5.41 5.41 0 0 0-.16-3.3z"/><path class="cls-5" d="M71.93 97a1.71 1.71 0 0 0-.45.09 2.12 2.12 0 0 0-1.25 1.52 4.23 4.23 0 0 0 .16 2.59c.57 1.58 1.85 2.64 3 2.54a2.42 2.42 0 0 0 .45-.1 2.14 2.14 0 0 0 1.25-1.52 4.31 4.31 0 0 0-.09-2.56c-.61-1.56-1.88-2.64-3.07-2.56z"/><path class="cls-1" d="M73.2 97.34c0 .09-.07.19-.1.29a4.58 4.58 0 0 0 1.9 4.82c0-.1.07-.2.1-.3a4.31 4.31 0 0 0-.1-2.59 4.16 4.16 0 0 0-1.8-2.22z"/><path class="cls-4" d="M89 92a1.8 1.8 0 0 1-1.15 1c-.71.23-2.89.8-2.89.8a5.06 5.06 0 0 1 .61 1.18 5 5 0 0 1 .26 2.6 13.12 13.12 0 0 1 2.93-2.42 1.4 1.4 0 0 0 .76-.94 2.43 2.43 0 0 0-.12-1.49A2.61 2.61 0 0 0 89 92z"/><path class="cls-4" d="M84.71 89c-1.19.66-6.48 4.85-7.18 5.44a.61.61 0 0 0-.2.77c.12.19.35.13.7 0 0 0 3.25-1.09 6.41-2a4.34 4.34 0 0 1 .46.58s2.18-.57 2.89-.8.9-.62 1.28-1.16L91 89.22zM99 53a130.42 130.42 0 0 0-23.1 7.29c-6.74 2.76-39.45 15.25-47 18.46S13.23 86.87 9.8 90.3s-8.27 8.86-5.93 12.14c1.79 2.51 10.77 2.33 20.45-.14s31.93-13.08 34.22-14c2.47-1 4.31-.36 7.15-.81l20.6-8.5c11.92-6.31 21.45-16.73 22.23-17.66s5-6.18 5.94-7 .7-4.07.7-5.31-1.15-.4-1.69-.4z"/><path class="cls-8" d="M46.53 71.8l-1.64-6.44c-.43.24-1.45 1-2.59 1.83l1.45 5.73 2.88-1.13z"/><path class="cls-9" d="M172.92 185.42A.28.28 0 0 1-120.22 6.16a.28.28 0 0 1-.11-.23v-1a.5.5 0 0 1 .39-.56l.68-.2a.29.29 0 0 1 .38.28v1.14a.4.4 0 0 1-.29.39c-.3.09-.52.14-.8.21z"/><path class="cls-6" d="M103.06 52.07zm-.32.4zm-.85.61zm.24-.08zm-.47.18h.06z"/><path class="cls-10" d="M103.59 48.21c-.6-2.09-2.25-3.52-3.92-3.4a2.63 2.63 0 0 0-.56.1 9.52 9.52 0 0 0-1.81.65 2.91 2.91 0 0 0-1 .8l-.1.13a2.92 2.92 0 0 0-.24.37 1.19 1.19 0 0 0-.08.16c-.06.13-.12.27-.17.41a5 5 0 0 0 0 3.07c.58 2 2.19 3.43 3.82 3.32a8.89 8.89 0 0 0 2.11-.43 3.08 3.08 0 0 0 2-2 5.15 5.15 0 0 0-.05-3.18z"/><path class="cls-6" d="M123 42.65c-.32-1.11-1.18-1.78-2-1.6a21.72 21.72 0 0 1-4.6.14 3.63 3.63 0 0 1 .51.28 2.8 2.8 0 0 1 .46.39 4.12 4.12 0 0 1 .28.31l.12.14.12.17a1.74 1.74 0 0 1 .11.18 1.09 1.09 0 0 0 .08.15v.06l.09.18a1.8 1.8 0 0 1 .08.21v.06l.06.16a.14.14 0 0 0 0 .06c0 .07 0 .14.07.22a4 4 0 0 1-.39 3.44 16 16 0 0 1 4-2.25 1.89 1.89 0 0 0 1.01-2.3z"/><path class="cls-4" d="M118.51 43.88c-.57-2-2.1-3.15-3.6-2.83 0 0-9.13 2.06-15.8 3.86a2.63 2.63 0 0 1 .56-.1c1.67-.12 3.32 1.31 3.92 3.4a5.15 5.15 0 0 1 0 3.16 3.08 3.08 0 0 1-2 2c1.65-.46 14-4.72 15.42-5.2s2.07-2.32 1.5-4.29z"/><path class="cls-11" d="M116.64 41.32l-9.5 2.19c-.32.09-.82.2-1 0s0-.43.21-.77 12-16.34 14.39-19.56a2.09 2.09 0 0 1 1-.8l3.69-1.38c.23-.1.61-.13.37.38-1.45 3.08-7.75 16.42-7.82 16.59-.15.34 0 .57.42.43l4.14-1.19c.49-.14.48.08.41.36l-.87 3.76a3.19 3.19 0 0 1-.6.14 21.18 21.18 0 0 1-4.43.18 4.77 4.77 0 0 0-.41-.33z"/><path class="cls-6" d="M98.3 46.34a1.47 1.47 0 0 0-.42.06 2 2 0 0 0-1.3 1.36 4.07 4.07 0 0 0 0 2.47c.44 1.53 1.59 2.63 2.73 2.61a1.52 1.52 0 0 0 .42-.06 2 2 0 0 0 1.3-1.36 4.1 4.1 0 0 0 0-2.48c-.45-1.53-1.59-2.62-2.73-2.6z"/><path class="cls-12" d="M99.5 46.72a1.69 1.69 0 0 0-.12.27 4.31 4.31 0 0 0 1.51 4.7c0-.09.08-.18.12-.27a4.1 4.1 0 0 0 0-2.48 4 4 0 0 0-1.51-2.22z"/><path class="cls-9" d="M66.65 87.57s-2.88-.31-2.88-1.34c0-2.78 9.75-5.79 20.18-7.21a21.34 21.34 0 0 1 6 .1c1.85.21 9 2 13.87 3 18 3.82 54.68 11.41 54.68 11.41.47.1.55.42.16.71l-2.82 2.13a2.59 2.59 0 0 1-1.57.44l-87.6-9.28"/><path class="cls-4" d="M66.65 87.57s-2.88-.31-2.88-1.34c0-2.78 9.75-5.79 20.18-7.21a21.34 21.34 0 0 1 6 .1c1.85.21 9 2 13.87 3 18 3.82 54.68 11.41 54.68 11.41.47.1.55.42.16.71l-2.82 2.13a2.59 2.59 0 0 1-1.57.44l-87.6-9.28"/><path class="cls-7" d="M66.16 83.71L146 94.56l2.32-1.75c-13.67-2.94-55.16-11.25-66.53-13.47-6.51 1.03-12.46 2.66-15.63 4.37z"/><path class="cls-8" d="M30.24 78.25c6.35-2.62 22.08-8.69 33.58-13.16L64 65l.69-.26.35-.14 1.31-.51-1.47-1.5C53 67.25 35.74 73.89 29.65 76.43a5.08 5.08 0 0 0 .29 1.13 5.32 5.32 0 0 0 .3.69z"/><path class="cls-6" d="M103.06 52.07zm-.32.4zm-.85.61zm.24-.08zm-.47.18h.06z"/><path class="cls-4" d="M103.59 48.21c-.6-2.09-2.25-3.52-3.92-3.4a2.63 2.63 0 0 0-.56.1 9.52 9.52 0 0 0-1.81.65 2.91 2.91 0 0 0-1 .8l-.1.13a2.92 2.92 0 0 0-.24.37 1.19 1.19 0 0 0-.08.16c-.06.13-.12.27-.17.41a5 5 0 0 0 0 3.07c.58 2 2.19 3.43 3.82 3.32a8.89 8.89 0 0 0 2.11-.43 3.08 3.08 0 0 0 2-2 5.15 5.15 0 0 0-.05-3.18zM123 42.65c-.32-1.11-1.18-1.78-2-1.6a21.72 21.72 0 0 1-4.6.14 3.63 3.63 0 0 1 .51.28 2.8 2.8 0 0 1 .46.39 4.12 4.12 0 0 1 .28.31l.12.14.12.17a1.74 1.74 0 0 1 .11.18 1.09 1.09 0 0 0 .08.15v.06l.09.18a1.8 1.8 0 0 1 .08.21v.06l.06.16a.14.14 0 0 0 0 .06c0 .07 0 .14.07.22a4 4 0 0 1-.39 3.44 16 16 0 0 1 4-2.25 1.89 1.89 0 0 0 1.01-2.3z"/><path class="cls-4" d="M116.64 41.32l-9.5 2.19c-.32.09-.82.2-1 0s0-.43.21-.77 12-16.34 14.39-19.56a2.09 2.09 0 0 1 1-.8l3.69-1.38c.23-.1.61-.13.37.38-1.45 3.08-7.75 16.42-7.82 16.59-.15.34 0 .57.42.43l4.14-1.19c.49-.14.48.08.41.36l-.87 3.76a3.19 3.19 0 0 1-.6.14 21.18 21.18 0 0 1-4.43.18 4.77 4.77 0 0 0-.41-.33z"/><path class="cls-5" d="M98.3 46.34a1.47 1.47 0 0 0-.42.06 2 2 0 0 0-1.3 1.36 4.07 4.07 0 0 0 0 2.47c.44 1.53 1.59 2.63 2.73 2.61a1.52 1.52 0 0 0 .42-.06 2 2 0 0 0 1.3-1.36 4.1 4.1 0 0 0 0-2.48c-.45-1.53-1.59-2.62-2.73-2.6z"/><path class="cls-1" d="M99.5 46.72a1.69 1.69 0 0 0-.12.27 4.31 4.31 0 0 0 1.51 4.7c0-.09.08-.18.12-.27a4.1 4.1 0 0 0 0-2.48 4 4 0 0 0-1.51-2.22z"/><path class="cls-4" d="M63.77 86.23c0-2.78 9.75-5.79 20.18-7.21a16.64 16.64 0 0 1 2.52-.17C97 73.2 105.71 64.36 108 61.88h-.46c-.91 0-1.06-.67-.7-1.18l.13-.19c-4 3.29-12 7.08-15.89 8.84-2.9 1.31-53.34 22.53-59.36 24.81A64.94 64.94 0 0 1 17 97.66l-2.87.34c-5.54.67-7 .24-7.7-.21A3 3 0 0 1 5.66 95c-2 2.66-3.22 5.47-1.79 7.47 1.79 2.51 10.77 2.33 20.45-.14s31.93-13.08 34.22-14c2.47-1 4.31-.36 7.15-.81h.06c-.85-.28-1.98-.64-1.98-1.29z"/><path class="cls-8" d="M94.77 52.07l.51 1.8 2.34-.54a4.55 4.55 0 0 1-1.48-1.59z"/><path class="cls-7" d="M20.21 89c2.65-3 10.7-7.08 30-14.53a308.43 308.43 0 0 1 32.58-10.85c1.12-.3 2.22-.35.17.57-7.95 3.56-28.51 12.73-39.1 17a424.72 424.72 0 0 1-23.25 8.51c-.61.16-.91-.14-.4-.7z"/><path class="cls-13" d="M40.58 93.6c-17.87 7.63-31.45 9.78-36.9 8.55l.19.29c1.79 2.51 10.77 2.33 20.45-.14s31.93-13.08 34.22-14c2.47-1 4.31-.36 7.15-.81h.06c-.85-.18-2-.54-2-1.19 0-2.78 9.75-5.79 20.18-7.21a16.64 16.64 0 0 1 2.52-.17 87.68 87.68 0 0 0 19.18-14.56C94.36 71.25 72.92 79.78 40.58 93.6z"/><path class="cls-14" d="M113.52 54.76l.19-.18-.4.3a1.13 1.13 0 0 1 .21-.12z"/><path class="cls-15" d="M107 60.5a22.69 22.69 0 0 1 3.68-3.67c.44-.39.87-.73 1.28-1-4.44 2.78-12 6.44-21.55 10.61-3.26 1.38-53.57 22.56-59.3 24.73a64 64 0 0 1-14 3.38L17 97.66a64.94 64.94 0 0 0 14.7-3.51c6-2.28 56.46-23.5 59.36-24.81C95 67.58 103 63.79 107 60.5z"/><path class="cls-16" d="M47.4 83.23a.21.21 0 0 0-.11-.13.23.23 0 0 0-.18 0l-2.48 1a.23.23 0 0 0-.13.27 15.21 15.21 0 0 1 .62 4.33L48 87.46a15 15 0 0 0-.6-4.23z"/><path class="cls-17" d="M11.63 96.62l-4.38-.19-.52-2.82c-.37.45-.73.9-1.07 1.36a3 3 0 0 0 .77 2.85c.68.45 2.16.88 7.7.21z"/><path class="cls-18" d="M6.73 93.61l.52 2.82 4.38.19 2.5 1.38 2.87-.34.07-3.11c-3 .47-6.94.25-8-.52a2.5 2.5 0 0 1-1-2"/><path class="cls-18" d="M9.12 94l-1.87 2.4 4.38.19.16-1.91A6.23 6.23 0 0 1 9.12 94zm4.97.79v3.24l2.91-.37.07-3.11a20.46 20.46 0 0 1-2.98.24z"/><path class="cls-9" d="M9.8 90.3a34.36 34.36 0 0 0-5.32 6.44"/><path class="cls-4" d="M107.52 61.87c-.91 0-1.06-.67-.7-1.18a21.39 21.39 0 0 1 3.81-3.86 14.57 14.57 0 0 1 3.5-2.37 2 2 0 0 1 1-.12c3.9.4 28.7 3.57 28.7 3.57.43.06.48.29.12.52l-3.62 2.3a3.36 3.36 0 0 1-1.45.44s-29.82.79-31.36.7"/><path class="cls-1" d="M109.35 31.63l4.09 5.22-4.16 19.6H65.69l-4.12-5.22h-.21c0-.14.13-.42.24-.83L62 49c.14-.52.28-1 .44-1.56s.28-1 .37-1.28.24-.84.36-1.24.22-.75.32-1l.07-.18a.67.67 0 0 0 0-.17c0-.05.07-.12.14-.22a.23.23 0 0 0 0-.14 20.14 20.14 0 0 1 3.48-6Q71.8 32 82.83 24.85l.45-.27a2.45 2.45 0 0 0 .44-.3h-12l-4.12-5.22h-.21a33.32 33.32 0 0 1 4.55-8.75 25 25 0 0 1 6.24-6.05 29 29 0 0 1 6.75-3.11A26.43 26.43 0 0 1 92.21 0h1.63q7.48 0 12 3.66a11.88 11.88 0 0 1 2.8 3.23l3.2 4.08q3.12 4 1.88 10.08-1.14 5.29-6.21 10.37h1.88z"/><path class="cls-19" d="M106.8 33.55H95.86l-1.1 5.11H83a43 43 0 0 1 5.75-4.15q5.86-3.73 7.6-5 9.69-6.88 11.15-13.77v-.07q1.35-6.54-3.23-10.26-4.05-3.27-10.9-3.27h-1.6A24.53 24.53 0 0 0 79.11 6a20.92 20.92 0 0 0-8.84 11h12.92a9.51 9.51 0 0 1 3.23-4.16 8.29 8.29 0 0 1 4.22-1.7 3.64 3.64 0 0 1 .57 0 3.5 3.5 0 0 1 2.79.97 4.25 4.25 0 0 1 .78 4 9.19 9.19 0 0 1-2.45 4.12c-1.37 1.47-4.22 3.59-8.52 6.36q-10.62 6.84-15 11.85a16.26 16.26 0 0 0-3 5.15c-.21.66-.5 1.58-.85 2.73-.38 1.35-.66 2.29-.82 2.81h39.36z"/></svg>
