<svg width="426" height="604" xmlns="http://www.w3.org/2000/svg" xmlns:xlink="http://www.w3.org/1999/xlink"><defs><path id="a" d="M0 .323h323.278v580.676H0z"/></defs><g transform="rotate(17 87.324 431.632)" fill="none" fill-rule="evenodd"><mask id="b" fill="#fff"><use xlink:href="#a"/></mask><path d="M296.897 331.004c-15.393-23.455-36.47-42.409-61.273-55.177v-15.788c0-8.718-3.716-16.925-9.858-22.745l85.198-220.82a11.87 11.87 0 0 0-1.288-10.993 11.891 11.891 0 0 0-9.801-5.159H215.93a11.888 11.888 0 0 0-11.091 7.606l-42.444 110.01-42.448-110.01a11.881 11.881 0 0 0-11.09-7.606H24.914a11.893 11.893 0 0 0-9.801 5.159 11.87 11.87 0 0 0-1.288 10.992L98.9 236.978c-6.336 5.82-10.17 14.137-10.17 23.061v15.24C34.574 302.656 0 358.423 0 419.472c0 89.067 72.51 161.527 161.64 161.527 89.128 0 161.638-72.46 161.638-161.527 0-31.577-9.121-62.171-26.38-88.468" fill="#231F20" mask="url(#b)"/><path fill="#EC1D24" d="M148 260h-27.87L25 12h27.87z"/><path fill="#FEFEFE" d="M176 260h-27.87L53 12h27.87z"/><path fill="#20419A" d="M204 260h-27.87L81 12h27.87z"/><path d="M111.219 282.754h102.564v-23.28c0-5.089-4.13-9.228-9.202-9.228h-84.158c-5.076 0-9.204 4.14-9.204 9.229v23.279zM224 293H101v-33.525c0-10.738 8.714-19.475 19.423-19.475h84.158c10.707 0 19.419 8.737 19.419 19.475V293z" fill="#FFCB2E"/><path fill="#EC1D24" d="M147.87 260H120l95.13-248H243z"/><path fill="#FEFEFE" d="M175.87 260H148l95.13-248H271z"/><path fill="#20419A" d="M203.87 260H176l95.13-248H299z"/><path d="M290 419.5c0 70.97-57.531 128.5-128.5 128.5C90.53 548 33 490.47 33 419.5 33 348.531 90.53 291 161.5 291c70.969 0 128.5 57.531 128.5 128.5" fill="#FFCB2E"/><path d="M162.897 545.806c-71.058 0-128.662-57.492-128.662-128.412 0-70.922 57.604-128.414 128.662-128.414 71.06 0 128.665 57.492 128.665 128.414 0 70.92-57.605 128.412-128.665 128.412m0-272.806C80.113 273 13 334.768 13 417.394 13 500.018 80.113 567 162.897 567 245.684 567 303 500.018 303 417.394 303 334.768 245.684 273 162.897 273" fill="#FEFEFE"/><path d="M276.643 438.976c5.569-3.032 7.307-10.59 7.307-10.59s-8.597-.876-13.774 3.148c-1.59 1.238-3.057 3.375-4.214 5.409a94.61 94.61 0 0 0 1.892-12.86c2.11-.39 6.515-1.57 10.904-5.074 4.856-3.872 5.242-11.465 5.242-11.465s-8.444.622-12.756 5.38c-1.299 1.44-2.336 3.702-3.103 5.827.114-4.487-.086-8.939-.552-13.325 1.906-.694 6.08-2.58 9.815-6.811 4.023-4.563 3.105-11.955 3.105-11.955s-8.048 2.033-11.392 7.36c-1.115 1.775-1.75 4.454-2.113 6.81a109.437 109.437 0 0 0-3.011-13.838c1.623-.908 5.498-3.443 8.492-8.346 3.11-5.086.968-12.065.968-12.065s-7.421 3.331-9.743 9.043c-.853 2.095-.954 5.147-.857 7.623a111.473 111.473 0 0 0-5.496-13.8c1.42-1.162 4.72-4.267 6.765-9.49 2.131-5.436-1.13-11.81-1.13-11.81s-6.59 4.475-7.86 10.383c-.456 2.123-.062 5.013.44 7.359a103.69 103.69 0 0 0-7.78-12.59c1.22-1.449 3.75-4.957 4.803-10.18 1.131-5.614-3.095-11.21-3.095-11.21s-5.604 5.445-5.825 11.36c-.074 1.98.68 4.474 1.5 6.571-3.08-3.86-6.35-7.299-9.734-10.26.88-1.466 2.892-5.382 3.024-10.849.137-5.611-4.9-10.291-4.9-10.291s-4.479 6.206-3.68 11.955c.317 2.278 1.876 5.068 3.198 7.094a112.546 112.546 0 0 0-12.057-9.15c.558-1.38 1.996-5.649 1.156-11.197-.827-5.434-6.483-9.098-6.483-9.098s-3.264 6.75-1.518 12.163c.765 2.366 3.09 5.064 4.772 6.801a102.58 102.58 0 0 0-13.742-7.227c.285-1.296 1.032-5.747-.77-11.102-1.72-5.11-7.807-7.679-7.807-7.679s-1.996 7.07.61 11.993c1.214 2.3 4.211 4.66 6.137 6.022a87.257 87.257 0 0 0-7.277-2.603c-.874-1.069-3.906-4.46-7.56-5.084-3.099-.526-8.31 1.466-8.31 1.466s2.497 3.399 7.541 5.13c3.647 1.254 7.706-.716 8.454-1.112 2.538.89 5.933 2.185 9.918 4.077-1.868-.35-6.886-1.134-9.922-.143-5.293 1.737-8.77 8.21-8.77 8.21s6.165 2.366 10.951-.12c5.35-2.767 7.903-6.81 8.385-7.638a106.919 106.919 0 0 1 14.126 8.22c-2.203-.77-6.307-2.004-9.127-1.6-5.633.804-10.273 6.696-10.273 6.696s5.78 3.47 11.025 1.82c5.521-1.728 8.75-5.022 9.642-6.033a113.696 113.696 0 0 1 11.865 9.68c.3.264.594.549.893.821-2.096-1.172-5.945-3.092-8.813-3.186-5.806-.19-11.511 4.915-11.511 4.915s5.194 4.51 10.762 3.781c5.909-.77 9.755-3.556 10.784-4.384 3.792 3.64 7.397 7.91 10.713 12.668-1.906-1.552-5.413-4.135-8.255-4.732-5.797-1.218-12.433 2.901-12.433 2.901s4.413 5.449 10.137 5.704c5.94.268 10.24-1.754 11.535-2.448 2.796 4.169 5.363 8.704 7.634 13.515-1.721-1.882-4.276-4.336-6.61-5.273-5.61-2.25-13.01.713-13.01.713s3.468 6.258 9.176 7.527c5.483 1.224 9.898.223 11.653-.306a110.414 110.414 0 0 1 5.074 14.013c-1.39-2.113-3.354-4.688-5.365-5.936-5.238-3.252-13.2-1.584-13.2-1.584s2.376 6.901 7.886 9.185c5.14 2.14 9.647 1.99 11.605 1.78a106.78 106.78 0 0 1 2.635 14.762c-1.022-2.387-2.557-5.38-4.381-7.014-4.685-4.197-12.986-3.928-12.986-3.928s1.164 7.355 6.3 10.628c4.813 3.074 9.398 3.715 11.384 3.843a98.62 98.62 0 0 1-.032 14.812c-.602-2.588-1.621-5.9-3.175-7.876-3.967-5.05-12.35-6.25-12.35-6.25s-.135 7.598 4.444 11.798c4.276 3.926 8.755 5.387 10.738 5.873a92.16 92.16 0 0 1-2.549 13.348c-.185-2.58-.645-5.66-1.74-7.71-3.094-5.774-11.307-8.466-11.307-8.466s-1.482 7.611 2.368 12.638c3.511 4.583 7.618 6.841 9.592 7.73a91.78 91.78 0 0 1-4.699 12.786c.287-2.647.387-5.894-.364-8.187-2.085-6.352-9.858-10.508-9.858-10.508s-2.842 7.386.14 13.119c2.696 5.204 6.4 8.194 8.234 9.448a98.897 98.897 0 0 1-6.59 11.098c.663-2.47 1.195-5.353.874-7.568-.961-6.752-8.036-12.305-8.036-12.305s-4.166 6.918-2.19 13.209c1.718 5.478 4.734 9.074 6.409 10.757a107.141 107.141 0 0 1-8.13 9.494c1.024-2.257 1.944-4.848 2.012-6.98.223-6.953-5.902-13.789-5.902-13.789s-5.413 6.215-4.538 12.887c.739 5.695 3.053 9.798 4.447 11.828a109.185 109.185 0 0 1-9.39 7.87c1.386-2.05 2.708-4.416 3.142-6.493 1.462-6.945-3.483-14.899-3.483-14.899s-6.538 5.29-6.847 12.147c-.265 5.838 1.326 10.363 2.368 12.658a102.566 102.566 0 0 1-10.928 6.361c1.88-1.89 3.82-4.196 4.686-6.347 2.693-6.726-.86-15.593-.86-15.593s-7.514 4.157-9.036 10.994c-1.33 5.95-.468 10.857.178 13.294-3.85 1.65-7.674 2.963-11.408 3.936 2.117-1.522 4.292-3.392 5.473-5.29 3.905-6.279 1.9-15.82 1.9-15.82s-8.285 2.845-11.03 9.446c-2.234 5.368-2.384 10.154-2.218 12.85a98.932 98.932 0 0 0-14.742 3.982 103.89 103.89 0 0 0-8.257 3.321 103.831 103.831 0 0 0-8.255-3.32 98.98 98.98 0 0 0-14.75-3.983c.168-2.696.016-7.484-2.216-12.85-2.747-6.6-11.03-9.446-11.03-9.446s-2.003 9.541 1.9 15.82c1.18 1.896 3.352 3.766 5.467 5.288-3.732-.973-7.552-2.286-11.4-3.936.646-2.44 1.506-7.344.178-13.292-1.526-6.837-9.036-10.994-9.036-10.994s-3.557 8.867-.86 15.593c.862 2.149 2.8 4.453 4.678 6.343a103.006 103.006 0 0 1-10.92-6.361c1.042-2.295 2.63-6.818 2.37-12.654-.313-6.857-6.847-12.147-6.847-12.147s-4.951 7.954-3.487 14.899c.432 2.073 1.748 4.435 3.132 6.483a110.593 110.593 0 0 1-9.378-7.862c1.396-2.032 3.708-6.133 4.45-11.826.868-6.672-4.542-12.887-4.542-12.887s-6.126 6.836-5.903 13.788c.068 2.13.986 4.714 2.008 6.969a106.647 106.647 0 0 1-8.122-9.488c1.675-1.683 4.687-5.28 6.405-10.751 1.978-6.29-2.187-13.21-2.187-13.21s-7.08 5.554-8.043 12.306c-.317 2.209.21 5.084.872 7.548a99.364 99.364 0 0 1-6.58-11.084c1.838-1.256 5.534-4.244 8.23-9.442 2.982-5.733.142-13.12.142-13.12s-7.775 4.157-9.86 10.51c-.749 2.284-.651 5.52-.368 8.162a91.712 91.712 0 0 1-4.689-12.763c1.978-.892 6.08-3.15 9.588-7.73 3.848-5.026 2.364-12.637 2.364-12.637s-8.213 2.692-11.3 8.467c-1.096 2.044-1.558 5.116-1.745 7.689a92.12 92.12 0 0 1-2.543-13.33c1.987-.486 6.462-1.949 10.734-5.87 4.577-4.201 4.442-11.799 4.442-11.799s-8.383 1.2-12.35 6.25c-1.548 1.97-2.565 5.274-3.169 7.859a98.912 98.912 0 0 1-.032-14.795c1.992-.128 6.573-.772 11.378-3.843 5.134-3.273 6.298-10.628 6.298-10.628s-8.3-.269-12.982 3.928c-1.82 1.628-3.351 4.607-4.373 6.99a107.28 107.28 0 0 1 2.63-14.739c1.963.211 6.466.357 11.6-1.779 5.512-2.284 7.886-9.185 7.886-9.185s-7.962-1.668-13.198 1.584c-2.005 1.244-3.965 3.807-5.355 5.92 1.39-4.85 3.103-9.528 5.066-13.993 1.759.527 6.172 1.524 11.65.302 5.707-1.27 9.174-7.527 9.174-7.527s-7.4-2.963-13.01-.713c-2.327.933-4.872 3.373-6.593 5.254a104.23 104.23 0 0 1 7.624-13.496c1.299.7 5.6 2.716 11.527 2.448 5.728-.255 10.14-5.704 10.14-5.704s-6.635-4.119-12.436-2.9c-2.834.594-6.327 3.165-8.235 4.717 3.31-4.752 6.913-9.016 10.697-12.65 1.037.83 4.88 3.612 10.782 4.38 5.572.728 10.764-3.78 10.764-3.78s-5.707-5.107-11.513-4.916c-2.858.092-6.698 2.006-8.797 3.176.295-.268.586-.549.883-.812a113.608 113.608 0 0 1 11.861-9.675c.897 1.011 4.125 4.303 9.638 6.03 5.247 1.65 11.027-1.821 11.027-1.821s-4.64-5.892-10.273-6.696c-2.81-.402-6.904.824-9.111 1.594 5.12-3.518 9.922-6.19 14.112-8.212.486.837 3.041 4.87 8.379 7.637 4.786 2.485 10.955.12 10.955.12s-3.479-6.474-8.768-8.211c-3.028-.99-8.032-.211-9.91.14a100.746 100.746 0 0 1 9.906-4.072c.76.4 4.811 2.36 8.452 1.11 5.044-1.731 7.542-5.13 7.542-5.13s-5.208-1.992-8.31-1.466c-3.661.626-6.69 4.023-7.565 5.086a88.868 88.868 0 0 0-7.283 2.605c1.928-1.36 4.933-3.722 6.148-6.026 2.609-4.923.61-11.993.61-11.993s-6.089 2.569-7.804 7.68c-1.808 5.358-1.06 9.813-.776 11.105a102.74 102.74 0 0 0-13.75 7.233c1.685-1.737 4.017-4.443 4.78-6.811 1.746-5.413-1.518-12.163-1.518-12.163s-5.654 3.664-6.479 9.098c-.842 5.55.6 9.824 1.156 11.2a112.868 112.868 0 0 0-12.067 9.16c1.322-2.027 2.89-4.823 3.206-7.107.799-5.749-3.678-11.955-3.678-11.955s-5.041 4.68-4.902 10.291c.132 5.47 2.145 9.39 3.024 10.851-3.386 2.967-6.658 6.408-9.741 10.274.82-2.1 1.58-4.6 1.505-6.586-.219-5.916-5.825-11.36-5.825-11.36s-4.224 5.595-3.093 11.208c1.054 5.228 3.587 8.738 4.808 10.187a103.1 103.1 0 0 0-7.785 12.596c.502-2.346.896-5.246.44-7.37-1.27-5.909-7.863-10.384-7.863-10.384s-3.256 6.374-1.127 11.81c2.05 5.227 5.351 8.332 6.77 9.492a111.561 111.561 0 0 0-5.501 13.822c.1-2.48 0-5.546-.853-7.647-2.328-5.712-9.75-9.043-9.75-9.043s-2.142 6.979.971 12.065c2.996 4.907 6.877 7.444 8.496 8.35a109.712 109.712 0 0 0-3.01 13.856c-.363-2.36-1-5.053-2.12-6.832-3.344-5.327-11.386-7.36-11.386-7.36s-.922 7.392 3.101 11.955c3.738 4.236 7.917 6.12 9.819 6.813-.466 4.392-.664 8.85-.55 13.343-.765-2.133-1.806-4.402-3.109-5.847-4.312-4.758-12.756-5.38-12.756-5.38s.386 7.593 5.242 11.465c4.393 3.507 8.805 4.687 10.91 5.077a94.08 94.08 0 0 0 1.896 12.87c-1.157-2.035-2.627-4.182-4.22-5.422-5.18-4.024-13.774-3.148-13.774-3.148s1.738 7.558 7.3 10.59c5.105 2.782 9.815 3.164 11.96 3.172 1 4.107 2.27 8.091 3.778 11.946-1.475-1.758-3.24-3.523-4.975-4.44-5.915-3.122-14.397-.722-14.397-.722s3.085 7.289 9.213 9.352c5.489 1.845 10.183 1.463 12.414 1.097a100.161 100.161 0 0 0 6.156 11.292c-1.85-1.572-4.037-3.134-6.023-3.774-6.496-2.092-14.598 1.822-14.598 1.822s4.395 6.776 10.922 7.765c5.968.901 10.696-.39 12.806-1.148a108.74 108.74 0 0 0 8.205 10.212c-2.183-1.293-4.75-2.541-6.93-2.844-6.9-.953-14.344 4.416-14.344 4.416s5.614 6.031 12.352 5.868c6.211-.151 10.756-2.32 12.716-3.448a113.978 113.978 0 0 0 9.669 8.634c-2.408-.903-5.176-1.69-7.399-1.608-7.1.265-13.632 6.977-13.632 6.977s6.711 5.068 13.45 3.71c6.155-1.239 10.315-4.176 12.118-5.668a107.623 107.623 0 0 0 10.216 6.493c-2.368-.394-4.923-.59-6.912-.161-7.088 1.518-12.462 9.422-12.462 9.422s7.648 3.902 14.18 1.345c5.732-2.243 9.337-5.74 10.978-7.623 3.704 1.757 7.405 3.231 11.045 4.39-2.392.033-4.915.298-6.791 1.06-6.855 2.784-10.852 11.675-10.852 11.675s8.374 2.569 14.485-1.156c5.556-3.39 8.58-7.723 9.814-9.833 8.683 1.557 15.919 3.978 21.804 6.637-10.67 5.603-15.023 10.783-15.023 10.783l3.788 3.381s4.971-6.037 15.917-11.87c10.948 5.833 15.919 11.87 15.919 11.87l3.788-3.38s-4.358-5.18-15.023-10.784c5.885-2.657 13.119-5.08 21.796-6.637 1.237 2.112 4.262 6.446 9.814 9.833 6.113 3.725 14.49 1.156 14.49 1.156s-4-8.891-10.857-11.675c-1.872-.762-4.391-1.025-6.783-1.06 3.638-1.157 7.339-2.631 11.041-4.386 1.641 1.88 5.248 5.376 10.98 7.619 6.528 2.557 14.176-1.345 14.176-1.345s-5.374-7.904-12.462-9.422c-1.987-.428-4.538-.233-6.902.159a108.161 108.161 0 0 0 10.212-6.491c1.799 1.494 5.96 4.43 12.11 5.669 6.737 1.357 13.45-3.711 13.45-3.711s-6.528-6.712-13.63-6.977c-2.219-.081-4.987.703-7.39 1.606a113.573 113.573 0 0 0 9.664-8.63c1.962 1.128 6.509 3.295 12.716 3.446 6.732.163 12.35-5.868 12.35-5.868s-7.448-5.369-14.347-4.416c-2.175.3-4.736 1.545-6.915 2.838a109.116 109.116 0 0 0 8.195-10.204c2.113.758 6.84 2.047 12.802 1.146 6.527-.989 10.92-7.765 10.92-7.765s-8.098-3.914-14.596-1.822c-1.982.64-4.16 2.194-6.01 3.763 2.268-3.6 4.335-7.361 6.151-11.281 2.229.366 6.919.748 12.404-1.097 6.128-2.063 9.217-9.352 9.217-9.352s-8.486-2.4-14.401.722c-1.731.915-3.49 2.675-4.963 4.428a93.278 93.278 0 0 0 3.774-11.934c2.147-.01 6.853-.392 11.951-3.172" fill="#FEFEFE"/><path d="M160.376 549.544c-70.927 0-128.425-57.6-128.425-128.654S89.45 292.236 160.376 292.236c70.93 0 128.426 57.6 128.426 128.654 0 71.053-57.496 128.654-128.426 128.654m0-278.544C77.744 271 29 338.078 29 420.858 29 503.642 77.37 562 160.005 562 242.64 562 310 503.67 310 420.89 310 338.108 243.011 271 160.376 271" fill="#995F04"/><path d="M273.643 441.976c5.567-3.032 7.305-10.59 7.305-10.59s-8.597-.876-13.773 3.148c-1.592 1.238-3.057 3.375-4.215 5.409a94.61 94.61 0 0 0 1.892-12.86c2.11-.39 6.515-1.57 10.906-5.074 4.854-3.874 5.242-11.465 5.242-11.465s-8.446.62-12.758 5.38c-1.298 1.44-2.336 3.7-3.1 5.827.11-4.487-.086-8.939-.554-13.325 1.906-.694 6.08-2.58 9.814-6.811 4.023-4.563 3.105-11.955 3.105-11.955s-8.048 2.033-11.392 7.36c-1.115 1.775-1.75 4.454-2.113 6.81a109.438 109.438 0 0 0-3.011-13.838c1.623-.908 5.499-3.443 8.492-8.346 3.11-5.086.968-12.065.968-12.065s-7.42 3.33-9.743 9.04c-.852 2.096-.954 5.15-.856 7.626a111.474 111.474 0 0 0-5.497-13.8c1.422-1.162 4.722-4.267 6.765-9.49 2.131-5.438-1.127-11.81-1.127-11.81s-6.592 4.475-7.863 10.383c-.456 2.123-.061 5.013.44 7.359-2.36-4.5-4.976-8.714-7.78-12.59 1.22-1.449 3.75-4.957 4.803-10.18 1.131-5.614-3.095-11.21-3.095-11.21s-5.604 5.445-5.825 11.36c-.072 1.979.681 4.474 1.5 6.57-3.08-3.86-6.35-7.298-9.733-10.26.882-1.465 2.892-5.381 3.023-10.848.137-5.611-4.9-10.291-4.9-10.291s-4.478 6.206-3.678 11.953c.315 2.28 1.874 5.07 3.197 7.096a112.347 112.347 0 0 0-12.057-9.15c.558-1.38 1.996-5.649 1.155-11.197-.826-5.436-6.48-9.098-6.48-9.098s-3.267 6.75-1.52 12.16c.765 2.367 3.09 5.067 4.772 6.804a102.689 102.689 0 0 0-13.74-7.227c.283-1.296 1.03-5.747-.773-11.102-1.718-5.11-7.807-7.679-7.807-7.679s-1.995 7.07.61 11.993c1.217 2.299 4.212 4.66 6.138 6.022a88.102 88.102 0 0 0-7.277-2.605c-.875-1.067-3.906-4.458-7.56-5.082-3.1-.526-8.311 1.466-8.311 1.466s2.497 3.399 7.542 5.13c3.647 1.254 7.705-.718 8.456-1.112a101.08 101.08 0 0 1 9.916 4.075c-1.866-.348-6.887-1.132-9.922-.141-5.293 1.737-8.77 8.21-8.77 8.21s6.167 2.366 10.95-.12c5.352-2.767 7.903-6.81 8.385-7.638a106.918 106.918 0 0 1 14.126 8.22c-2.202-.77-6.307-2.004-9.127-1.6-5.632.802-10.27 6.696-10.27 6.696s5.777 3.47 11.023 1.82c5.52-1.73 8.75-5.022 9.641-6.033a113.696 113.696 0 0 1 11.866 9.68c.299.264.593.549.892.82-2.095-1.17-5.945-3.091-8.813-3.185-5.805-.19-11.51 4.915-11.51 4.915s5.193 4.508 10.762 3.78c5.908-.769 9.754-3.555 10.786-4.383 3.79 3.64 7.394 7.91 10.71 12.668-1.906-1.552-5.41-4.135-8.253-4.732-5.799-1.218-12.435 2.901-12.435 2.901s4.413 5.449 10.14 5.704c5.938.268 10.238-1.754 11.532-2.448 2.796 4.169 5.363 8.704 7.636 13.515-1.723-1.882-4.278-4.336-6.61-5.273-5.612-2.252-13.011.713-13.011.713s3.467 6.258 9.175 7.525c5.483 1.226 9.9.225 11.653-.304a110.415 110.415 0 0 1 5.074 14.013c-1.39-2.113-3.354-4.688-5.363-5.936-5.24-3.254-13.202-1.584-13.202-1.584s2.376 6.901 7.886 9.185c5.14 2.14 9.648 1.99 11.605 1.78 1.21 4.797 2.1 9.736 2.635 14.762-1.022-2.387-2.557-5.38-4.381-7.014-4.684-4.197-12.983-3.928-12.983-3.928s1.16 7.355 6.297 10.628c4.816 3.074 9.398 3.715 11.384 3.843a98.622 98.622 0 0 1-.032 14.812c-.602-2.588-1.621-5.9-3.175-7.876-3.967-5.05-12.35-6.25-12.35-6.25s-.133 7.598 4.444 11.798c4.276 3.926 8.757 5.387 10.738 5.873a92.16 92.16 0 0 1-2.549 13.348c-.185-2.58-.643-5.66-1.74-7.711-3.093-5.773-11.307-8.465-11.307-8.465s-1.48 7.611 2.368 12.638c3.512 4.583 7.618 6.841 9.592 7.729a91.96 91.96 0 0 1-4.696 12.787c.284-2.647.386-5.896-.367-8.187-2.083-6.352-9.858-10.508-9.858-10.508s-2.842 7.386.14 13.119c2.696 5.204 6.402 8.194 8.237 9.446a99.06 99.06 0 0 1-6.593 11.1c.664-2.47 1.195-5.353.877-7.57-.964-6.75-8.038-12.303-8.038-12.303s-4.166 6.918-2.19 13.209c1.718 5.478 4.733 9.074 6.408 10.757a107.454 107.454 0 0 1-8.128 9.494c1.022-2.257 1.942-4.848 2.01-6.98.223-6.953-5.901-13.789-5.901-13.789s-5.413 6.215-4.539 12.887c.739 5.695 3.053 9.798 4.447 11.828a109.83 109.83 0 0 1-9.388 7.87c1.384-2.05 2.707-4.416 3.143-6.493 1.46-6.945-3.485-14.899-3.485-14.899s-6.539 5.29-6.847 12.147c-.265 5.838 1.326 10.363 2.368 12.658a102.565 102.565 0 0 1-10.928 6.361c1.88-1.89 3.82-4.196 4.686-6.347 2.695-6.726-.86-15.593-.86-15.593s-7.514 4.157-9.036 10.994c-1.33 5.95-.468 10.857.177 13.294-3.85 1.65-7.671 2.963-11.405 3.936 2.115-1.522 4.29-3.392 5.47-5.293 3.906-6.278 1.9-15.82 1.9-15.82s-8.285 2.848-11.029 9.449c-2.232 5.366-2.384 10.154-2.219 12.85a98.93 98.93 0 0 0-14.741 3.982 104.984 104.984 0 0 0-8.257 3.32 104.613 104.613 0 0 0-8.255-3.32 98.738 98.738 0 0 0-14.75-3.982c.168-2.698.018-7.484-2.216-12.85-2.744-6.6-11.03-9.448-11.03-9.448s-2.003 9.541 1.9 15.82c1.18 1.898 3.354 3.768 5.467 5.29a80.866 80.866 0 0 1-11.397-3.936c.643-2.44 1.503-7.344.175-13.292-1.525-6.837-9.036-10.994-9.036-10.994s-3.557 8.867-.86 15.593c.862 2.149 2.8 4.453 4.678 6.343a103.005 103.005 0 0 1-10.92-6.361c1.042-2.295 2.633-6.82 2.37-12.654-.312-6.857-6.847-12.147-6.847-12.147s-4.95 7.954-3.487 14.899c.432 2.073 1.749 4.435 3.133 6.483a110.966 110.966 0 0 1-9.378-7.862c1.396-2.032 3.708-6.135 4.449-11.826.868-6.672-4.54-12.887-4.54-12.887s-6.127 6.836-5.904 13.788c.07 2.13.986 4.714 2.008 6.969a106.647 106.647 0 0 1-8.122-9.488c1.675-1.683 4.686-5.28 6.405-10.751 1.977-6.29-2.187-13.21-2.187-13.21s-7.08 5.554-8.042 12.304c-.318 2.21.21 5.086.87 7.55a99.364 99.364 0 0 1-6.58-11.084c1.839-1.256 5.535-4.244 8.232-9.442 2.98-5.733.141-13.12.141-13.12s-7.775 4.157-9.86 10.51c-.75 2.284-.651 5.52-.369 8.16a91.594 91.594 0 0 1-4.688-12.761c1.978-.892 6.08-3.15 9.588-7.73 3.847-5.026 2.364-12.637 2.364-12.637s-8.214 2.692-11.3 8.465c-1.096 2.046-1.558 5.118-1.745 7.69a92.121 92.121 0 0 1-2.543-13.33c1.987-.487 6.462-1.948 10.734-5.87 4.577-4.2 4.441-11.798 4.441-11.798s-8.382 1.2-12.35 6.25c-1.547 1.97-2.564 5.274-3.168 7.859a98.913 98.913 0 0 1-.032-14.795c1.992-.13 6.572-.772 11.378-3.843 5.136-3.273 6.297-10.628 6.297-10.628s-8.299-.269-12.98 3.928c-1.821 1.628-3.352 4.607-4.374 6.99a107.28 107.28 0 0 1 2.63-14.739c1.962.211 6.467.357 11.6-1.779 5.514-2.284 7.886-9.185 7.886-9.185s-7.962-1.67-13.198 1.584c-2.005 1.244-3.963 3.807-5.355 5.92a110.443 110.443 0 0 1 5.068-13.995c1.757.53 6.17 1.526 11.647.302 5.708-1.267 9.175-7.525 9.175-7.525s-7.399-2.965-13.01-.713c-2.327.933-4.872 3.373-6.593 5.254a104.063 104.063 0 0 1 7.624-13.496c1.298.7 5.6 2.716 11.527 2.448 5.728-.255 10.14-5.704 10.14-5.704s-6.635-4.119-12.436-2.9c-2.834.594-6.328 3.165-8.235 4.717 3.31-4.752 6.912-9.016 10.698-12.65 1.036.83 4.88 3.612 10.78 4.378 5.573.729 10.767-3.779 10.767-3.779s-5.71-5.106-11.515-4.915c-2.858.092-6.698 2.006-8.797 3.176.297-.268.585-.549.882-.812a113.815 113.815 0 0 1 11.862-9.675c.896 1.011 4.124 4.303 9.639 6.03 5.246 1.65 11.025-1.821 11.025-1.821s-4.64-5.894-10.272-6.696c-2.81-.402-6.905.824-9.112 1.594 5.12-3.518 9.922-6.19 14.113-8.214.486.84 3.04 4.873 8.378 7.639 4.788 2.485 10.956.12 10.956.12s-3.478-6.474-8.77-8.211c-3.026-.99-8.031-.211-9.91.14a100.745 100.745 0 0 1 9.907-4.072c.76.4 4.811 2.36 8.452 1.11 5.047-1.731 7.542-5.13 7.542-5.13s-5.208-1.992-8.31-1.466c-3.661.626-6.69 4.023-7.565 5.086a89.132 89.132 0 0 0-7.283 2.605c1.928-1.36 4.933-3.724 6.148-6.026 2.61-4.923.61-11.993.61-11.993s-6.089 2.569-7.803 7.68c-1.809 5.358-1.06 9.813-.777 11.105a102.74 102.74 0 0 0-13.75 7.233c1.685-1.737 4.017-4.443 4.78-6.813 1.747-5.411-1.518-12.16-1.518-12.16s-5.654 3.66-6.478 9.097c-.843 5.55.6 9.824 1.155 11.2a112.867 112.867 0 0 0-12.067 9.16c1.323-2.027 2.89-4.823 3.209-7.11.796-5.746-3.68-11.952-3.68-11.952s-5.041 4.68-4.902 10.291c.131 5.47 2.147 9.389 3.023 10.851-3.386 2.967-6.658 6.408-9.74 10.274.82-2.1 1.579-4.602 1.505-6.586-.217-5.916-5.823-11.36-5.823-11.36s-4.226 5.595-3.095 11.208c1.053 5.228 3.587 8.738 4.807 10.187a103.1 103.1 0 0 0-7.785 12.596c.502-2.348.897-5.246.44-7.37-1.27-5.909-7.862-10.384-7.862-10.384s-3.256 6.372-1.127 11.81c2.049 5.227 5.351 8.332 6.769 9.492a111.66 111.66 0 0 0-5.5 13.822c.1-2.48 0-5.546-.853-7.65-2.328-5.71-9.75-9.04-9.75-9.04s-2.142 6.979.971 12.065c2.997 4.907 6.877 7.444 8.496 8.35A109.713 109.713 0 0 0 56 403.852c-.363-2.36-1-5.053-2.117-6.832-3.346-5.327-11.388-7.36-11.388-7.36s-.922 7.392 3.101 11.955c3.738 4.236 7.916 6.12 9.82 6.813-.466 4.392-.665 8.85-.551 13.343-.765-2.133-1.807-4.402-3.11-5.847-4.31-4.76-12.755-5.38-12.755-5.38s.386 7.591 5.242 11.465c4.393 3.507 8.804 4.687 10.91 5.077.34 4.284.951 8.582 1.895 12.87-1.157-2.035-2.624-4.182-4.22-5.422-5.18-4.024-13.773-3.148-13.773-3.148s1.738 7.558 7.3 10.59c5.105 2.782 9.815 3.164 11.96 3.172 1 4.107 2.27 8.091 3.78 11.946-1.478-1.758-3.242-3.523-4.977-4.44-5.913-3.122-14.397-.722-14.397-.722s3.085 7.287 9.213 9.35c5.489 1.847 10.183 1.465 12.414 1.099a100.162 100.162 0 0 0 6.155 11.292c-1.85-1.572-4.036-3.134-6.022-3.774-6.496-2.092-14.598 1.822-14.598 1.822s4.395 6.776 10.922 7.765c5.968.901 10.696-.39 12.805-1.148 2.547 3.6 5.298 7.002 8.205 10.212-2.182-1.295-4.75-2.541-6.928-2.844-6.9-.953-14.345 4.414-14.345 4.414s5.614 6.033 12.353 5.87c6.21-.151 10.755-2.32 12.714-3.45a113.38 113.38 0 0 0 9.671 8.636c-2.41-.905-5.178-1.69-7.4-1.608-7.1.265-13.632 6.975-13.632 6.975s6.711 5.068 13.45 3.713c6.154-1.24 10.315-4.177 12.117-5.67a107.333 107.333 0 0 0 10.217 6.492c-2.368-.394-4.923-.587-6.913-.16-7.088 1.519-12.461 9.42-12.461 9.42s7.648 3.905 14.18 1.348c5.732-2.243 9.336-5.74 10.977-7.623 3.705 1.757 7.405 3.231 11.046 4.39-2.392.033-4.916.298-6.792 1.06-6.853 2.784-10.85 11.675-10.85 11.675s8.373 2.569 14.483-1.156c5.556-3.39 8.58-7.723 9.816-9.833 8.681 1.557 15.917 3.978 21.802 6.637-10.669 5.603-15.022 10.783-15.022 10.783l3.787 3.381s4.971-6.04 15.917-11.87C170.949 534.96 175.92 541 175.92 541l3.787-3.38s-4.355-5.18-15.022-10.784c5.885-2.657 13.119-5.08 21.798-6.637 1.236 2.112 4.26 6.446 9.814 9.833 6.11 3.725 14.489 1.156 14.489 1.156s-4.001-8.891-10.858-11.675c-1.872-.762-4.392-1.025-6.784-1.06 3.64-1.157 7.34-2.633 11.042-4.386 1.64 1.88 5.247 5.376 10.981 7.619 6.526 2.557 14.174-1.347 14.174-1.347s-5.373-7.902-12.461-9.42c-1.988-.428-4.539-.235-6.903.157a107.483 107.483 0 0 0 10.213-6.49c1.798 1.495 5.959 4.43 12.108 5.67 6.738 1.355 13.451-3.713 13.451-3.713s-6.526-6.71-13.63-6.975c-2.218-.081-4.987.703-7.39 1.606a113.573 113.573 0 0 0 9.665-8.63c1.961 1.128 6.508 3.295 12.716 3.446 6.731.163 12.351-5.87 12.351-5.87s-7.45-5.367-14.349-4.414c-2.175.3-4.736 1.545-6.915 2.838a109.116 109.116 0 0 0 8.196-10.204c2.115.758 6.839 2.047 12.801 1.146 6.527-.989 10.922-7.765 10.922-7.765s-8.1-3.914-14.598-1.822c-1.982.64-4.16 2.194-6.01 3.763 2.268-3.6 4.335-7.361 6.151-11.281 2.229.366 6.92.748 12.404-1.099 6.128-2.063 9.217-9.35 9.217-9.35s-8.486-2.4-14.401.722c-1.729.915-3.487 2.675-4.963 4.428a93.285 93.285 0 0 0 3.776-11.934c2.147-.01 6.85-.392 11.951-3.172" fill="#995F04"/><path d="M162 546.819c-71.108 0-128.748-57.449-128.748-128.32 0-70.87 57.64-128.32 128.748-128.32 71.106 0 128.748 57.45 128.748 128.32 0 70.871-57.642 128.32-128.748 128.32M162 269c-82.842 0-150 66.934-150 149.499C12 501.066 79.158 568 162 568c82.84 0 150-66.934 150-149.501C312 335.934 244.84 269 162 269" fill="#FDDE66"/><path d="M275.641 440.976c5.569-3.032 7.307-10.59 7.307-10.59s-8.597-.876-13.773 3.148c-1.592 1.238-3.057 3.375-4.215 5.409a94.61 94.61 0 0 0 1.892-12.86c2.11-.39 6.515-1.57 10.904-5.074 4.856-3.874 5.244-11.465 5.244-11.465s-8.446.62-12.758 5.38c-1.298 1.44-2.336 3.7-3.103 5.827.114-4.487-.085-8.939-.551-13.325 1.906-.694 6.08-2.58 9.814-6.811 4.023-4.563 3.105-11.955 3.105-11.955s-8.048 2.033-11.392 7.36c-1.115 1.775-1.75 4.454-2.113 6.81a109.438 109.438 0 0 0-3.011-13.838c1.623-.908 5.499-3.443 8.492-8.346 3.11-5.086.968-12.065.968-12.065s-7.42 3.33-9.743 9.04c-.852 2.098-.954 5.15-.856 7.626a111.474 111.474 0 0 0-5.497-13.8c1.422-1.162 4.722-4.267 6.765-9.49 2.131-5.438-1.127-11.81-1.127-11.81s-6.592 4.475-7.863 10.383c-.456 2.123-.061 5.013.44 7.359-2.36-4.5-4.976-8.714-7.78-12.59 1.22-1.449 3.75-4.957 4.803-10.18 1.131-5.614-3.095-11.21-3.095-11.21s-5.604 5.445-5.825 11.36c-.072 1.979.681 4.474 1.5 6.571-3.08-3.86-6.35-7.299-9.733-10.262.882-1.464 2.892-5.38 3.023-10.847.137-5.611-4.9-10.291-4.9-10.291s-4.478 6.206-3.678 11.953c.315 2.28 1.874 5.07 3.197 7.096a112.347 112.347 0 0 0-12.057-9.15c.558-1.38 1.996-5.649 1.155-11.197-.826-5.436-6.48-9.098-6.48-9.098s-3.267 6.75-1.52 12.16c.765 2.369 3.089 5.067 4.772 6.804a102.58 102.58 0 0 0-13.742-7.227c.285-1.296 1.032-5.747-.77-11.102-1.72-5.11-7.808-7.679-7.808-7.679s-1.995 7.07.61 11.993c1.217 2.3 4.212 4.66 6.138 6.022a87.255 87.255 0 0 0-7.277-2.603c-.875-1.069-3.906-4.46-7.56-5.084-3.1-.526-8.311 1.466-8.311 1.466s2.497 3.399 7.542 5.13c3.647 1.254 7.705-.716 8.456-1.112 2.535.89 5.931 2.185 9.916 4.077-1.866-.35-6.887-1.134-9.922-.143-5.293 1.737-8.77 8.21-8.77 8.21s6.167 2.366 10.95-.12c5.35-2.767 7.903-6.81 8.385-7.638a106.918 106.918 0 0 1 14.126 8.22c-2.202-.77-6.307-2.004-9.127-1.6-5.632.804-10.27 6.696-10.27 6.696s5.777 3.47 11.023 1.82c5.52-1.73 8.75-5.022 9.641-6.033a113.696 113.696 0 0 1 11.866 9.68c.299.264.593.549.892.821-2.095-1.172-5.945-3.092-8.813-3.186-5.805-.19-11.51 4.915-11.51 4.915s5.193 4.51 10.762 3.781c5.908-.77 9.754-3.556 10.786-4.384 3.79 3.64 7.394 7.91 10.71 12.668-1.906-1.552-5.413-4.135-8.253-4.732-5.799-1.218-12.435 2.901-12.435 2.901s4.413 5.449 10.137 5.704c5.94.268 10.24-1.754 11.535-2.448 2.796 4.169 5.363 8.704 7.634 13.515-1.72-1.882-4.276-4.336-6.61-5.273-5.61-2.25-13.009.713-13.009.713s3.467 6.258 9.175 7.527c5.483 1.224 9.9.223 11.653-.306a110.415 110.415 0 0 1 5.074 14.013c-1.39-2.113-3.354-4.688-5.365-5.936-5.238-3.252-13.2-1.584-13.2-1.584s2.376 6.901 7.886 9.185c5.14 2.14 9.648 1.99 11.605 1.78 1.21 4.797 2.1 9.736 2.635 14.762-1.022-2.387-2.557-5.38-4.381-7.014-4.684-4.197-12.983-3.928-12.983-3.928s1.16 7.355 6.297 10.628c4.816 3.074 9.398 3.715 11.384 3.843a98.622 98.622 0 0 1-.032 14.812c-.602-2.588-1.621-5.9-3.175-7.876-3.967-5.05-12.35-6.25-12.35-6.25s-.133 7.598 4.444 11.798c4.276 3.926 8.757 5.387 10.738 5.873a92.16 92.16 0 0 1-2.549 13.348c-.185-2.58-.645-5.66-1.74-7.71-3.093-5.774-11.307-8.466-11.307-8.466s-1.48 7.611 2.368 12.638c3.512 4.583 7.618 6.841 9.592 7.73a91.78 91.78 0 0 1-4.698 12.786c.286-2.647.386-5.894-.365-8.187-2.085-6.352-9.858-10.508-9.858-10.508s-2.842 7.386.14 13.119c2.696 5.204 6.402 8.194 8.237 9.448a99.213 99.213 0 0 1-6.593 11.098c.664-2.47 1.195-5.353.875-7.568-.962-6.752-8.036-12.305-8.036-12.305s-4.166 6.918-2.19 13.209c1.718 5.478 4.733 9.074 6.408 10.757a107.14 107.14 0 0 1-8.13 9.494c1.024-2.257 1.944-4.848 2.012-6.98.223-6.953-5.901-13.789-5.901-13.789s-5.413 6.215-4.539 12.887c.739 5.695 3.053 9.798 4.447 11.828a109.548 109.548 0 0 1-9.39 7.87c1.386-2.05 2.709-4.416 3.143-6.493 1.462-6.945-3.483-14.899-3.483-14.899s-6.539 5.29-6.847 12.147c-.265 5.838 1.326 10.363 2.368 12.658a102.565 102.565 0 0 1-10.928 6.361c1.88-1.89 3.82-4.196 4.686-6.347 2.695-6.726-.86-15.593-.86-15.593s-7.514 4.157-9.036 10.994c-1.33 5.95-.468 10.857.177 13.294-3.85 1.65-7.673 2.963-11.407 3.936 2.117-1.522 4.291-3.392 5.472-5.293 3.906-6.278 1.9-15.82 1.9-15.82s-8.285 2.848-11.029 9.449c-2.234 5.368-2.384 10.154-2.219 12.85a98.93 98.93 0 0 0-14.741 3.982 103.89 103.89 0 0 0-8.257 3.321 103.83 103.83 0 0 0-8.255-3.32 98.738 98.738 0 0 0-14.75-3.983c.168-2.696.016-7.484-2.216-12.85-2.746-6.6-11.03-9.448-11.03-9.448s-2.003 9.541 1.9 15.82c1.18 1.898 3.352 3.768 5.467 5.29-3.732-.973-7.552-2.286-11.397-3.936.643-2.44 1.503-7.344.175-13.292-1.525-6.837-9.036-10.994-9.036-10.994s-3.557 8.867-.86 15.593c.862 2.149 2.8 4.453 4.678 6.343a103.005 103.005 0 0 1-10.92-6.361c1.042-2.295 2.633-6.818 2.37-12.654-.312-6.857-6.847-12.147-6.847-12.147s-4.95 7.954-3.487 14.899c.432 2.073 1.749 4.435 3.133 6.483a110.592 110.592 0 0 1-9.378-7.862c1.396-2.032 3.708-6.135 4.449-11.826.868-6.672-4.54-12.887-4.54-12.887s-6.127 6.836-5.904 13.788c.07 2.13.986 4.714 2.008 6.969a106.647 106.647 0 0 1-8.122-9.488c1.675-1.683 4.686-5.28 6.405-10.751 1.977-6.29-2.187-13.21-2.187-13.21s-7.08 5.554-8.044 12.306c-.316 2.209.211 5.084.873 7.548a99.364 99.364 0 0 1-6.58-11.084c1.838-1.256 5.534-4.244 8.23-9.442 2.982-5.733.142-13.12.142-13.12s-7.775 4.157-9.86 10.51c-.75 2.284-.651 5.52-.369 8.16a91.594 91.594 0 0 1-4.688-12.761c1.978-.892 6.08-3.15 9.588-7.73 3.847-5.026 2.364-12.637 2.364-12.637s-8.214 2.692-11.3 8.467c-1.096 2.044-1.558 5.116-1.745 7.689a92.121 92.121 0 0 1-2.543-13.33c1.987-.486 6.462-1.949 10.734-5.87 4.577-4.201 4.441-11.799 4.441-11.799s-8.382 1.2-12.35 6.25c-1.547 1.97-2.564 5.274-3.168 7.859a98.913 98.913 0 0 1-.032-14.795c1.992-.128 6.572-.772 11.378-3.843 5.134-3.273 6.297-10.628 6.297-10.628s-8.299-.269-12.98 3.928c-1.821 1.628-3.352 4.607-4.374 6.99a107.28 107.28 0 0 1 2.63-14.739c1.962.211 6.465.357 11.6-1.779 5.514-2.284 7.886-9.185 7.886-9.185s-7.962-1.668-13.198 1.584c-2.005 1.244-3.965 3.807-5.355 5.92 1.39-4.85 3.103-9.528 5.068-13.993 1.757.527 6.17 1.524 11.647.302 5.708-1.27 9.175-7.527 9.175-7.527s-7.4-2.963-13.01-.713c-2.327.933-4.872 3.373-6.593 5.254a104.063 104.063 0 0 1 7.624-13.496c1.298.7 5.6 2.716 11.527 2.448 5.728-.255 10.139-5.704 10.139-5.704s-6.634-4.119-12.435-2.9c-2.834.594-6.328 3.165-8.235 4.717 3.31-4.752 6.912-9.016 10.698-12.65 1.036.83 4.88 3.612 10.78 4.38 5.573.728 10.765-3.78 10.765-3.78s-5.708-5.107-11.513-4.916c-2.858.092-6.698 2.006-8.797 3.176.297-.268.585-.549.882-.812a113.607 113.607 0 0 1 11.862-9.675c.896 1.011 4.124 4.303 9.637 6.03 5.248 1.65 11.027-1.821 11.027-1.821s-4.64-5.892-10.272-6.696c-2.81-.402-6.905.824-9.112 1.594 5.12-3.518 9.922-6.19 14.113-8.214.486.84 3.04 4.873 8.378 7.639 4.788 2.485 10.956.12 10.956.12s-3.48-6.474-8.77-8.211c-3.026-.99-8.031-.211-9.91.14a100.745 100.745 0 0 1 9.907-4.072c.76.4 4.811 2.36 8.452 1.11 5.045-1.731 7.542-5.13 7.542-5.13s-5.208-1.992-8.31-1.466c-3.661.626-6.69 4.023-7.565 5.086a88.867 88.867 0 0 0-7.283 2.605c1.928-1.36 4.933-3.722 6.148-6.026 2.61-4.923.61-11.993.61-11.993s-6.089 2.569-7.803 7.68c-1.809 5.358-1.06 9.813-.777 11.105a102.74 102.74 0 0 0-13.75 7.233c1.685-1.737 4.017-4.443 4.78-6.813 1.747-5.411-1.518-12.16-1.518-12.16s-5.654 3.66-6.478 9.097c-.843 5.55.6 9.824 1.155 11.2a112.867 112.867 0 0 0-12.067 9.16c1.323-2.027 2.89-4.823 3.207-7.11.798-5.746-3.679-11.952-3.679-11.952s-5.04 4.68-4.901 10.291c.131 5.47 2.147 9.39 3.023 10.851-3.386 2.967-6.658 6.408-9.74 10.274.82-2.1 1.579-4.602 1.505-6.586-.219-5.916-5.823-11.36-5.823-11.36s-4.226 5.595-3.095 11.208c1.053 5.228 3.587 8.738 4.807 10.187a103.1 103.1 0 0 0-7.785 12.596c.502-2.348.897-5.246.44-7.37-1.27-5.909-7.862-10.384-7.862-10.384s-3.256 6.372-1.127 11.81c2.049 5.227 5.351 8.332 6.769 9.492a111.562 111.562 0 0 0-5.5 13.822c.1-2.48 0-5.546-.853-7.65-2.328-5.71-9.75-9.04-9.75-9.04s-2.142 6.979.971 12.065c2.995 4.907 6.877 7.444 8.496 8.35A109.713 109.713 0 0 0 58 402.852c-.363-2.36-1-5.053-2.117-6.832-3.346-5.327-11.388-7.36-11.388-7.36s-.922 7.392 3.101 11.955c3.738 4.236 7.916 6.12 9.82 6.813-.466 4.392-.665 8.85-.551 13.343-.765-2.133-1.807-4.402-3.11-5.847-4.31-4.76-12.755-5.38-12.755-5.38s.386 7.591 5.242 11.465c4.393 3.507 8.804 4.687 10.91 5.077.34 4.284.951 8.582 1.895 12.87-1.157-2.035-2.626-4.182-4.22-5.422-5.18-4.024-13.773-3.148-13.773-3.148s1.738 7.558 7.3 10.59c5.105 2.782 9.815 3.164 11.96 3.172 1 4.107 2.27 8.091 3.778 11.946-1.476-1.758-3.24-3.523-4.975-4.44-5.915-3.122-14.397-.722-14.397-.722s3.085 7.287 9.213 9.352c5.489 1.845 10.183 1.463 12.414 1.097a100.162 100.162 0 0 0 6.155 11.292c-1.85-1.572-4.036-3.134-6.022-3.774-6.496-2.092-14.598 1.822-14.598 1.822s4.395 6.776 10.922 7.765c5.968.901 10.696-.39 12.805-1.148 2.547 3.6 5.298 7.002 8.205 10.212-2.182-1.295-4.75-2.541-6.928-2.844-6.9-.953-14.345 4.416-14.345 4.416s5.614 6.031 12.353 5.868c6.21-.151 10.755-2.32 12.714-3.45 3.097 3.1 6.336 5.985 9.67 8.636-2.408-.905-5.177-1.69-7.4-1.608-7.1.265-13.631 6.977-13.631 6.977s6.711 5.066 13.45 3.71c6.154-1.239 10.315-4.176 12.117-5.668 3.35 2.396 6.767 4.57 10.217 6.49-2.368-.391-4.923-.586-6.913-.158-7.088 1.518-12.461 9.42-12.461 9.42s7.648 3.904 14.18 1.347c5.732-2.243 9.336-5.74 10.977-7.623 3.705 1.757 7.405 3.231 11.046 4.39-2.392.033-4.916.298-6.792 1.06-6.855 2.784-10.85 11.675-10.85 11.675s8.373 2.569 14.483-1.156c5.556-3.39 8.58-7.723 9.816-9.833 8.681 1.557 15.917 3.978 21.802 6.637-10.669 5.603-15.022 10.783-15.022 10.783l3.787 3.381s4.971-6.037 15.917-11.87C172.949 533.963 177.92 540 177.92 540l3.787-3.38s-4.357-5.18-15.022-10.784c5.885-2.657 13.119-5.08 21.798-6.637 1.234 2.112 4.26 6.446 9.814 9.833 6.11 3.725 14.487 1.156 14.487 1.156s-4-8.891-10.856-11.675c-1.872-.762-4.392-1.025-6.784-1.06 3.64-1.157 7.34-2.633 11.042-4.386 1.64 1.88 5.247 5.376 10.98 7.619 6.527 2.557 14.175-1.347 14.175-1.347s-5.373-7.902-12.461-9.42c-1.988-.428-4.539-.233-6.903.157a107.483 107.483 0 0 0 10.213-6.49c1.798 1.495 5.959 4.43 12.108 5.67 6.738 1.355 13.451-3.711 13.451-3.711s-6.526-6.712-13.63-6.977c-2.218-.081-4.987.703-7.39 1.606a113.573 113.573 0 0 0 9.665-8.63c1.961 1.128 6.508 3.295 12.716 3.446 6.731.163 12.35-5.868 12.35-5.868s-7.45-5.369-14.348-4.416c-2.175.3-4.736 1.545-6.915 2.838a109.116 109.116 0 0 0 8.196-10.204c2.113.758 6.839 2.047 12.801 1.146 6.527-.989 10.92-7.765 10.92-7.765s-8.098-3.914-14.596-1.822c-1.982.64-4.16 2.194-6.01 3.763 2.268-3.6 4.335-7.361 6.151-11.281 2.229.366 6.92.748 12.404-1.097 6.128-2.065 9.217-9.352 9.217-9.352s-8.486-2.4-14.401.722c-1.73.915-3.49 2.675-4.963 4.428a93.279 93.279 0 0 0 3.774-11.934c2.147-.01 6.853-.392 11.951-3.172" fill="#FDDE66"/><path d="M119.387 374.474h14.56c0 .197.01.495.027.895.016.4.026.7.026.896 0 6.519-1.202 11.605-3.606 15.257-2.405 3.651-5.723 5.478-9.963 5.478-4.127 0-7.4-1.785-9.813-5.357-2.414-3.572-3.618-8.44-3.618-14.604 0-6.217 1.25-11.11 3.752-14.682 2.504-3.572 5.919-5.357 10.244-5.357 2.93 0 5.422.854 7.467 2.565 2.046 1.71 3.544 4.193 4.493 7.454l-7.027 3.234c-.304-1.942-.881-3.393-1.73-4.358-.848-.96-1.969-1.44-3.365-1.44-2.09 0-3.624 1.01-4.598 3.032-.973 2.022-1.462 5.206-1.462 9.552 0 4.15.513 7.295 1.544 9.432 1.028 2.14 2.532 3.208 4.516 3.208 1.736 0 3.088-.726 4.064-2.179.973-1.453 1.46-3.496 1.46-6.131h-6.971v-6.895zm30.088 15.098c1.963 0 3.433-1.041 4.407-3.127.973-2.083 1.46-5.22 1.46-9.406 0-4.22-.487-7.375-1.46-9.458-.974-2.086-2.444-3.127-4.407-3.127-1.966 0-3.432 1.037-4.397 3.113-.964 2.075-1.446 5.233-1.446 9.472 0 4.222.482 7.367 1.446 9.432.965 2.066 2.43 3.1 4.397 3.1M163 377.575c0 5.95-1.229 10.674-3.685 14.177-2.454 3.5-5.736 5.249-9.84 5.249-4.248 0-7.554-1.76-9.922-5.277-2.37-3.519-3.553-8.412-3.553-14.684 0-6.25 1.196-11.154 3.59-14.708 2.398-3.556 5.69-5.331 9.885-5.331 4.21 0 7.516 1.817 9.92 5.45 2.404 3.634 3.605 8.675 3.605 15.124m17.475 11.998c1.963 0 3.433-1.041 4.407-3.127.973-2.083 1.46-5.22 1.46-9.406 0-4.22-.487-7.375-1.46-9.458-.974-2.086-2.444-3.127-4.407-3.127-1.966 0-3.432 1.037-4.397 3.113-.964 2.075-1.446 5.233-1.446 9.472 0 4.222.482 7.367 1.446 9.432.965 2.066 2.43 3.1 4.397 3.1M194 377.575c0 5.95-1.229 10.674-3.685 14.177-2.454 3.5-5.736 5.249-9.84 5.249-4.248 0-7.554-1.76-9.922-5.277-2.37-3.519-3.553-8.412-3.553-14.684 0-6.25 1.196-11.154 3.59-14.708 2.398-3.556 5.69-5.331 9.885-5.331 4.21 0 7.516 1.817 9.92 5.45 2.404 3.634 3.605 8.675 3.605 15.124m11.817 12.214h.627c2.802 0 4.948-1.036 6.43-3.11 1.486-2.076 2.228-5.092 2.228-9.045 0-4.237-.722-7.386-2.159-9.441-1.44-2.06-3.64-3.088-6.61-3.088h-.516v24.684zM198 397v-39h6.786c6.117 0 10.68 1.611 13.696 4.834 3.012 3.223 4.518 8.12 4.518 14.692 0 3.953-.552 7.265-1.656 9.937-1.103 2.672-2.832 4.88-5.185 6.625-1.393 1.05-2.971 1.798-4.736 2.244-1.765.445-4.257.668-7.48.668H198zm-90 68.644v-10.563c.892.477 1.7.831 2.422 1.055.722.227 1.373.34 1.95.34 1.92 0 3.232-.71 3.942-2.133.708-1.422 1.062-5.083 1.062-10.983V408H129v40.583c0 3.96-.21 6.85-.63 8.671-.42 1.821-1.129 3.395-2.128 4.723a12.443 12.443 0 0 1-4.766 3.746c-1.891.851-4.047 1.277-6.463 1.277a20.45 20.45 0 0 1-3.822-.338c-1.182-.228-2.246-.565-3.191-1.018m49.46-9.786c2.984 0 5.216-1.564 6.694-4.69 1.478-3.126 2.218-7.828 2.218-14.108 0-6.332-.74-11.062-2.218-14.188-1.478-3.127-3.71-4.69-6.694-4.69s-5.208 1.557-6.672 4.67c-1.466 3.114-2.2 7.848-2.2 14.208 0 6.332.734 11.048 2.2 14.148 1.464 3.1 3.688 4.65 6.672 4.65M178 437.862c0 8.922-1.865 16.013-5.595 21.262-3.73 5.25-8.71 7.876-14.945 7.876-6.445 0-11.467-2.639-15.064-7.916-3.597-5.277-5.396-12.62-5.396-22.024 0-9.379 1.82-16.734 5.458-22.065 3.634-5.33 8.636-7.995 15.002-7.995 6.395 0 11.416 2.724 15.066 8.177 3.65 5.45 5.474 13.012 5.474 22.685m19.225 17.81c.186 0 .457.014.817.04.36.026.628.04.816.04 2.972 0 5.128-.598 6.468-1.788 1.338-1.193 2.01-3.086 2.01-5.682 0-2.779-.678-4.767-2.03-5.959-1.353-1.19-3.583-1.788-6.687-1.788h-1.394v15.138zm0-23.599h1.235c2.97 0 5.153-.582 6.548-1.748 1.393-1.163 2.089-2.964 2.089-5.402 0-2.57-.71-4.463-2.129-5.682-1.42-1.217-3.616-1.825-6.589-1.825h-1.154v14.657zM186 466v-58h11.304c7.591 0 12.959 1.185 16.103 3.554 3.144 2.371 4.716 6.338 4.716 11.9 0 3.152-.597 5.745-1.791 7.785-1.196 2.04-3.051 3.67-5.571 4.887 2.81 1.008 4.887 2.588 6.227 4.748 1.342 2.16 2.012 4.998 2.012 8.52 0 2.622-.439 5-1.314 7.133-.876 2.132-2.148 3.938-3.822 5.422-1.672 1.457-3.68 2.495-6.03 3.118-2.348.623-6.043.933-11.085.933H186z" fill="#FEFEFE"/><path d="M116.387 377.474h14.56c0 .197.01.495.027.895.016.4.026.7.026.896 0 6.519-1.202 11.605-3.606 15.257-2.405 3.651-5.723 5.478-9.963 5.478-4.127 0-7.4-1.785-9.813-5.357-2.414-3.572-3.618-8.44-3.618-14.604 0-6.217 1.25-11.11 3.752-14.682 2.504-3.572 5.919-5.357 10.244-5.357 2.93 0 5.422.854 7.467 2.565 2.046 1.71 3.544 4.193 4.493 7.454l-7.027 3.234c-.304-1.942-.881-3.393-1.73-4.358-.848-.96-1.969-1.44-3.365-1.44-2.09 0-3.624 1.01-4.598 3.032-.973 2.022-1.462 5.206-1.462 9.552 0 4.15.513 7.295 1.544 9.432 1.028 2.14 2.532 3.208 4.516 3.208 1.736 0 3.088-.726 4.064-2.179.973-1.453 1.46-3.496 1.46-6.131h-6.971v-6.895zm31.088 15.098c1.963 0 3.433-1.041 4.407-3.127.973-2.083 1.46-5.22 1.46-9.406 0-4.22-.487-7.375-1.46-9.458-.974-2.086-2.444-3.127-4.407-3.127-1.966 0-3.432 1.037-4.397 3.113-.964 2.075-1.446 5.233-1.446 9.472 0 4.222.482 7.367 1.446 9.432.965 2.066 2.43 3.1 4.397 3.1M161 380.575c0 5.95-1.229 10.674-3.685 14.177-2.454 3.5-5.736 5.249-9.84 5.249-4.248 0-7.554-1.76-9.922-5.277-2.37-3.519-3.553-8.412-3.553-14.684 0-6.25 1.196-11.154 3.59-14.708 2.398-3.556 5.69-5.331 9.885-5.331 4.21 0 7.516 1.817 9.92 5.45 2.404 3.634 3.605 8.675 3.605 15.124m16.475 11.998c1.963 0 3.433-1.041 4.407-3.127.973-2.083 1.46-5.22 1.46-9.406 0-4.22-.487-7.375-1.46-9.458-.974-2.086-2.444-3.127-4.407-3.127-1.966 0-3.432 1.037-4.397 3.113-.964 2.075-1.446 5.233-1.446 9.472 0 4.222.482 7.367 1.446 9.432.965 2.066 2.43 3.1 4.397 3.1M191 380.575c0 5.95-1.229 10.674-3.685 14.177-2.454 3.5-5.736 5.249-9.84 5.249-4.248 0-7.554-1.76-9.922-5.277-2.37-3.519-3.553-8.412-3.553-14.684 0-6.25 1.196-11.154 3.59-14.708 2.398-3.556 5.69-5.331 9.885-5.331 4.21 0 7.516 1.817 9.92 5.45 2.404 3.634 3.605 8.675 3.605 15.124m12.817 12.214h.627c2.802 0 4.948-1.036 6.43-3.11 1.486-2.076 2.228-5.092 2.228-9.045 0-4.237-.722-7.386-2.159-9.441-1.44-2.06-3.64-3.088-6.61-3.088h-.516v24.684zM196 400v-39h6.786c6.117 0 10.68 1.611 13.696 4.834 3.012 3.223 4.518 8.12 4.518 14.692 0 3.953-.552 7.265-1.656 9.937-1.103 2.672-2.832 4.88-5.185 6.625-1.393 1.05-2.971 1.798-4.736 2.244-1.765.445-4.257.668-7.48.668H196zm-90 68.644v-10.563c.892.477 1.7.831 2.422 1.055.722.227 1.373.34 1.95.34 1.92 0 3.232-.71 3.942-2.133.708-1.422 1.062-5.083 1.062-10.983V411H127v40.583c0 3.96-.21 6.85-.63 8.671-.42 1.821-1.129 3.395-2.128 4.723a12.443 12.443 0 0 1-4.766 3.746c-1.891.851-4.047 1.277-6.463 1.277a20.45 20.45 0 0 1-3.822-.338c-1.182-.228-2.246-.565-3.191-1.018m49.46-9.786c2.984 0 5.216-1.564 6.694-4.69 1.478-3.126 2.218-7.828 2.218-14.108 0-6.332-.74-11.062-2.218-14.188-1.478-3.127-3.71-4.69-6.694-4.69s-5.208 1.557-6.672 4.67c-1.466 3.114-2.2 7.848-2.2 14.208 0 6.332.734 11.048 2.2 14.148 1.464 3.1 3.688 4.65 6.672 4.65M176 440.862c0 8.922-1.865 16.013-5.595 21.262-3.73 5.25-8.71 7.876-14.945 7.876-6.445 0-11.467-2.639-15.064-7.916-3.597-5.277-5.396-12.62-5.396-22.024 0-9.379 1.82-16.734 5.458-22.065 3.634-5.33 8.636-7.995 15.002-7.995 6.395 0 11.416 2.724 15.066 8.177 3.65 5.45 5.474 13.012 5.474 22.685m19.225 17.81c.186 0 .457.014.817.04.36.026.628.04.816.04 2.972 0 5.128-.598 6.468-1.788 1.338-1.193 2.01-3.086 2.01-5.682 0-2.779-.678-4.767-2.03-5.959-1.353-1.19-3.583-1.788-6.687-1.788h-1.394v15.138zm0-23.599h1.235c2.97 0 5.153-.582 6.548-1.748 1.393-1.163 2.089-2.964 2.089-5.402 0-2.57-.71-4.463-2.129-5.682-1.42-1.217-3.616-1.825-6.589-1.825h-1.154v14.657zM184 469v-58h11.304c7.591 0 12.959 1.185 16.103 3.554 3.144 2.371 4.716 6.338 4.716 11.9 0 3.152-.597 5.745-1.791 7.785-1.196 2.04-3.051 3.67-5.571 4.887 2.81 1.008 4.887 2.588 6.227 4.748 1.342 2.16 2.012 4.998 2.012 8.52 0 2.622-.439 5-1.314 7.133-.876 2.132-2.148 3.938-3.822 5.422-1.672 1.457-3.68 2.495-6.03 3.118-2.348.623-6.043.933-11.085.933H184z" fill="#995F04"/><path d="M117.387 376.474h14.56c0 .197.01.495.027.895.016.4.026.7.026.896 0 6.519-1.202 11.605-3.606 15.257-2.405 3.651-5.723 5.478-9.963 5.478-4.127 0-7.4-1.785-9.813-5.357-2.414-3.572-3.618-8.44-3.618-14.604 0-6.217 1.25-11.11 3.752-14.682 2.504-3.572 5.919-5.357 10.244-5.357 2.93 0 5.422.854 7.467 2.565 2.046 1.71 3.544 4.193 4.493 7.454l-7.027 3.234c-.304-1.942-.881-3.393-1.73-4.358-.848-.96-1.969-1.44-3.365-1.44-2.09 0-3.624 1.01-4.598 3.032-.973 2.022-1.462 5.206-1.462 9.552 0 4.15.513 7.295 1.544 9.432 1.028 2.14 2.532 3.208 4.516 3.208 1.736 0 3.088-.726 4.064-2.179.973-1.453 1.46-3.496 1.46-6.131h-6.971v-6.895zm31.088 15.098c1.963 0 3.433-1.041 4.407-3.127.973-2.083 1.46-5.22 1.46-9.406 0-4.22-.487-7.375-1.46-9.458-.974-2.086-2.444-3.127-4.407-3.127-1.966 0-3.432 1.037-4.397 3.113-.964 2.075-1.446 5.233-1.446 9.472 0 4.222.482 7.367 1.446 9.432.965 2.066 2.43 3.1 4.397 3.1M162 379.575c0 5.95-1.229 10.674-3.685 14.177-2.454 3.5-5.736 5.249-9.84 5.249-4.248 0-7.554-1.76-9.922-5.277-2.37-3.519-3.553-8.412-3.553-14.684 0-6.25 1.196-11.154 3.59-14.708 2.398-3.556 5.69-5.331 9.885-5.331 4.21 0 7.516 1.817 9.92 5.45 2.404 3.634 3.605 8.675 3.605 15.124m16.475 11.998c1.963 0 3.433-1.041 4.407-3.127.973-2.083 1.46-5.22 1.46-9.406 0-4.22-.487-7.375-1.46-9.458-.974-2.086-2.444-3.127-4.407-3.127-1.966 0-3.432 1.037-4.397 3.113-.964 2.075-1.446 5.233-1.446 9.472 0 4.222.482 7.367 1.446 9.432.965 2.066 2.43 3.1 4.397 3.1M192 379.575c0 5.95-1.229 10.674-3.685 14.177-2.454 3.5-5.736 5.249-9.84 5.249-4.248 0-7.554-1.76-9.922-5.277-2.37-3.519-3.553-8.412-3.553-14.684 0-6.25 1.196-11.154 3.59-14.708 2.398-3.556 5.69-5.331 9.885-5.331 4.21 0 7.516 1.817 9.92 5.45 2.404 3.634 3.605 8.675 3.605 15.124m12.817 11.214h.627c2.802 0 4.948-1.036 6.43-3.11 1.486-2.076 2.228-5.092 2.228-9.045 0-4.237-.722-7.386-2.159-9.441-1.44-2.06-3.64-3.088-6.61-3.088h-.516v24.684zM197 398v-39h6.786c6.117 0 10.68 1.611 13.696 4.834 3.012 3.223 4.518 8.12 4.518 14.692 0 3.953-.552 7.265-1.656 9.937-1.103 2.672-2.832 4.88-5.185 6.625-1.393 1.05-2.971 1.798-4.736 2.244-1.765.445-4.257.668-7.48.668H197zm-90 68.644v-10.563c.892.477 1.7.831 2.422 1.055.722.227 1.373.34 1.95.34 1.92 0 3.232-.71 3.942-2.133.708-1.422 1.062-5.083 1.062-10.983V409H128v40.583c0 3.96-.21 6.85-.63 8.671-.42 1.821-1.129 3.395-2.128 4.723a12.443 12.443 0 0 1-4.766 3.746c-1.891.851-4.047 1.277-6.463 1.277a20.45 20.45 0 0 1-3.822-.338c-1.182-.228-2.246-.565-3.191-1.018m49.46-8.786c2.984 0 5.216-1.564 6.694-4.69 1.478-3.126 2.218-7.828 2.218-14.108 0-6.332-.74-11.062-2.218-14.188-1.478-3.127-3.71-4.69-6.694-4.69s-5.208 1.557-6.672 4.67c-1.466 3.114-2.2 7.848-2.2 14.208 0 6.332.734 11.048 2.2 14.148 1.464 3.1 3.688 4.65 6.672 4.65M177 439.862c0 8.922-1.865 16.013-5.595 21.262-3.73 5.25-8.71 7.876-14.945 7.876-6.445 0-11.467-2.639-15.064-7.916-3.597-5.277-5.396-12.62-5.396-22.024 0-9.379 1.82-16.734 5.458-22.065 3.634-5.33 8.636-7.995 15.002-7.995 6.395 0 11.416 2.724 15.066 8.177 3.65 5.45 5.474 13.012 5.474 22.685m19.225 16.81c.186 0 .457.014.817.04.36.026.628.04.816.04 2.972 0 5.128-.598 6.468-1.788 1.338-1.193 2.01-3.086 2.01-5.682 0-2.779-.678-4.767-2.03-5.959-1.353-1.19-3.583-1.788-6.687-1.788h-1.394v15.138zm0-23.599h1.235c2.97 0 5.153-.582 6.548-1.748 1.393-1.163 2.089-2.964 2.089-5.402 0-2.57-.71-4.463-2.129-5.682-1.42-1.217-3.616-1.825-6.589-1.825h-1.154v14.657zM185 467v-58h11.304c7.591 0 12.959 1.185 16.103 3.554 3.144 2.371 4.716 6.338 4.716 11.9 0 3.152-.597 5.745-1.791 7.785-1.196 2.04-3.051 3.67-5.571 4.887 2.81 1.008 4.887 2.588 6.227 4.748 1.342 2.16 2.012 4.998 2.012 8.52 0 2.622-.439 5-1.314 7.133-.876 2.132-2.148 3.938-3.822 5.422-1.672 1.457-3.68 2.495-6.03 3.118-2.348.623-6.043.933-11.085.933H185z" fill="#FDDE66"/></g></svg>
