
<svg id="Layer_1" xmlns="http://www.w3.org/2000/svg" viewBox="0 0 202 199.8"><style>.st0{fill:#a6a8ab}.st1{fill:#d0d2d3}.st2{fill:#dbdcdd}.st3{fill:#c5c7c9}</style><path class="st0" d="M0 0h202v200H0z"/><path class="st1" d="M16.3 32.6V17.3c0-.1-.1-.2-.2-.2H0v15.7h16.1c.1 0 .2-.1.2-.2z"/><path class="st2" d="M16.3 65.9V50.6c0-.1-.1-.2-.2-.2H0V66h16.1c.1.1.2 0 .2-.1z"/><path class="st3" d="M17 82.7h16c.1 0 .2-.1.2-.2V67.3c0-.1-.1-.2-.2-.2H.6c-.1 0-.2.1-.2.2v15.3c0 .1.1.2.2.2l16.4-.1z"/><path class="st2" d="M16.3 99.2V83.9c0-.1-.1-.2-.2-.2H0v15.6h16.1c.1.1.2 0 .2-.1z"/><path class="st1" d="M34.4 16.1h32.3c.1 0 .2-.1.2-.2V.7c0-.1-.1-.2-.2-.2H34.4c-.1 0-.2.1-.2.2V16c0 .1.1.1.2.1z"/><path class="st2" d="M17 16.1h16c.1 0 .2-.1.2-.2V.7c0-.1-.1-.2-.2-.2H.6C.5.5.4.6.4.7V16c0 .1.1.2.2.2l16.4-.1z"/><path class="st3" d="M50 32.6V17.3c0-.1-.1-.2-.2-.2H17.5c-.1 0-.2.1-.2.2v15.3c0 .1.1.2.2.2h32.3c.1 0 .2-.1.2-.2z"/><path class="st2" d="M34.4 49.4h32.3c.1 0 .2-.1.2-.2V34c0-.1-.1-.2-.2-.2H34.4c-.1 0-.2.1-.2.2v15.3c0 .1.1.1.2.1z"/><path class="st1" d="M16.7 49.4H33c.1 0 .2-.1.2-.2V34c0-.1-.1-.2-.2-.2H.7c-.1 0-.2.1-.2.2v15.3c0 .1.1.2.2.2l16-.1zm.7 1.2v15.3c0 .1.1.2.2.2h32.3c.1 0 .2-.1.2-.2V50.6c0-.1-.1-.2-.2-.2H17.5c0 .1-.1.1-.1.2z"/><path class="st3" d="M83.5 66.1c.1 0 .2-.1.2-.2V50.6c0-.1-.1-.2-.2-.2H51.2c-.1 0-.2.1-.2.2v15.3c0 .1.1.2.2.2h32.3z"/><path class="st2" d="M66.8 82.6V67.3c0-.1-.1-.2-.2-.2H34.4c-.1 0-.2.1-.2.2v15.3c0 .1.1.2.2.2h32.3c0-.1.1-.1.1-.2z"/><path class="st1" d="M17.5 83.8c-.1 0-.2.1-.2.2v15.3c0 .1.1.2.2.2h32.3c.1 0 .2-.1.2-.2V83.9c0-.1-.1-.2-.2-.2l-32.3.1z"/><path class="st3" d="M83.5 99.4c.1 0 .2-.1.2-.2V83.9c0-.1-.1-.2-.2-.2H51.2c-.1.1-.2.1-.2.2v15.3c0 .1.1.2.2.2h32.3zM68 16.1h32.3c.1 0 .2-.1.2-.2V.7c0-.1-.1-.2-.2-.2H68c-.1 0-.2.1-.2.2V16c.1.1.2.1.2.1z"/><path class="st2" d="M51 17.3v15.3c0 .1.1.2.2.2h32.4c.1 0 .2-.1.2-.2V17.3c0-.1-.1-.2-.2-.2H51.2c-.1.1-.2.1-.2.2z"/><path class="st1" d="M67.9 34v15.3c0 .1.1.2.2.2h32.3c.1 0 .2-.1.2-.2V34c0-.1-.1-.2-.2-.2H68s-.1.1-.1.2zm0 33.3v15.3c0 .1.1.2.2.2h32.3c.1 0 .2-.1.2-.2V67.3c0-.1-.1-.2-.2-.2H68s-.1.1-.1.2zm117.8-34.7V17.3c0-.1.1-.2.2-.2H202v15.7h-16.1c-.1 0-.2-.1-.2-.2z"/><path class="st2" d="M185.7 65.9V50.6c0-.1.1-.2.2-.2H202V66h-16.1c-.1.1-.2 0-.2-.1z"/><path class="st3" d="M185 82.7h-16c-.1 0-.2-.1-.2-.2V67.3c0-.1.1-.2.2-.2h32.4c.1 0 .2.1.2.2v15.3c0 .1-.1.2-.2.2l-16.4-.1z"/><path class="st2" d="M185.7 99.2V83.9c0-.1.1-.2.2-.2H202v15.6h-16.1c-.1.1-.2 0-.2-.1z"/><path class="st1" d="M167.7 16.1h-32.3c-.1 0-.2-.1-.2-.2V.7c0-.1.1-.2.2-.2h32.3c.1 0 .2.1.2.2V16c-.1.1-.2.1-.2.1z"/><path class="st2" d="M185 16.1h-16c-.1 0-.2-.1-.2-.2V.7c0-.1.1-.2.2-.2h32.4c.1 0 .2.1.2.2V16c0 .1-.1.2-.2.2l-16.4-.1z"/><path class="st3" d="M152 32.6V17.3c0-.1.1-.2.2-.2h32.3c.1 0 .2.1.2.2v15.3c0 .1-.1.2-.2.2h-32.3c-.1 0-.2-.1-.2-.2z"/><path class="st2" d="M167.7 49.4h-32.3c-.1 0-.2-.1-.2-.2V34c0-.1.1-.2.2-.2h32.3c.1 0 .2.1.2.2v15.3c-.1.1-.2.1-.2.1z"/><path class="st1" d="M185.4 49.4H169c-.1 0-.2-.1-.2-.2V34c0-.1.1-.2.2-.2h32.4c.1 0 .2.1.2.2v15.3c0 .1-.1.2-.2.2l-16-.1zm-.8 1.2v15.3c0 .1-.1.2-.2.2h-32.3c-.1 0-.2-.1-.2-.2V50.6c0-.1.1-.2.2-.2h32.3c.2.1.2.1.2.2z"/><path class="st3" d="M118.5 66.1c-.1 0-.2-.1-.2-.2V50.6c0-.1.1-.2.2-.2h32.4c.1 0 .2.1.2.2v15.3c0 .1-.1.2-.2.2h-32.4z"/><path class="st2" d="M135.2 82.6V67.3c0-.1.1-.2.2-.2h32.3c.1 0 .2.1.2.2v15.3c0 .1-.1.2-.2.2h-32.3c-.1-.1-.2-.1-.2-.2z"/><path class="st1" d="M184.5 83.8c.1 0 .2.1.2.2v15.3c0 .1-.1.2-.2.2h-32.3c-.1 0-.2-.1-.2-.2V83.9c0-.1.1-.2.2-.2l32.3.1z"/><path class="st3" d="M118.5 99.4c-.1 0-.2-.1-.2-.2V83.9c0-.1.1-.2.2-.2h32.4c.1 0 .2.1.2.2v15.3c0 .1-.1.2-.2.2h-32.4z"/><path class="st2" d="M134 16.1h-32.3c-.1 0-.2-.1-.2-.2V.7c0-.1.1-.2.2-.2H134c.1 0 .2.1.2.2V16c-.1.1-.1.1-.2.1z"/><path class="st1" d="M117.2 17.2H84.9c-.1 0-.2.1-.2.2v15.3c0 .1.1.2.2.2h32.2c.1 0 .2-.1.2-.2V17.3c0-.1-.1-.1-.1-.1z"/><path class="st2" d="M151 17.3v15.3c0 .1-.1.2-.2.2h-32.4c-.1 0-.2-.1-.2-.2V17.3c0-.1.1-.2.2-.2h32.4c.1.1.2.1.2.2z"/><path class="st3" d="M134.1 34v15.3c0 .1-.1.2-.2.2h-32.3c-.1 0-.2-.1-.2-.2V34c0-.1.1-.2.2-.2H134c.1 0 .1.1.1.2z"/><path class="st2" d="M117.2 50.5H84.9c-.1 0-.2.1-.2.2V66c0 .1.1.2.2.2h32.2c.1 0 .2-.1.2-.2l-.1-15.5c.1 0 0 0 0 0z"/><path class="st1" d="M134.1 67.3v15.3c0 .1-.1.2-.2.2h-32.3c-.1 0-.2-.1-.2-.2V67.3c0-.1.1-.2.2-.2H134c.1 0 .1.1.1.2z"/><path class="st2" d="M117.2 83.8H84.9c-.1 0-.2.1-.2.2v15.3c0 .1.1.2.2.2h32.2c.1 0 .2-.1.2-.2l-.1-15.5c.1 0 0 0 0 0z"/><path class="st3" d="M84 182.6H68c-.1 0-.2-.1-.2-.2v-15.3c0-.1.1-.2.2-.2h32.4c.1 0 .2.1.2.2v15.3c0 .1-.1.2-.2.2H84z"/><path class="st1" d="M66.7 116H34.4c-.1 0-.2-.1-.2-.2v-15.3c0-.1.1-.2.2-.2h32.3c.1 0 .2.1.2.2v15.3c-.1.2-.2.2-.2.2z"/><path class="st2" d="M84 116H68c-.1 0-.2-.1-.2-.2v-15.3c0-.1.1-.2.2-.2h32.4c.1 0 .2.1.2.2v15.3c0 .1-.1.2-.2.2H84z"/><path class="st3" d="M51 132.5v-15.3c0-.1.1-.2.2-.2h32.3c.1 0 .2.1.2.2v15.3c0 .1-.1.2-.2.2H51.2c-.1 0-.2-.1-.2-.2zm15.7 16.8H34.4c-.1 0-.2-.1-.2-.2v-15.3c0-.1.1-.2.2-.2h32.3c.1 0 .2.1.2.2v15.3c-.1.2-.2.2-.2.2z"/><path class="st1" d="M84.3 149.3H68c-.1 0-.2-.1-.2-.2v-15.3c0-.1.1-.2.2-.2h32.4c.1 0 .2.1.2.2v15.3c0 .1-.1.2-.2.2H84.3z"/><path class="st2" d="M83.6 150.5v15.3c0 .1-.1.2-.2.2H51.2c-.1 0-.2-.1-.2-.2v-15.3c0-.1.1-.2.2-.2h32.3c.1.1.1.1.1.2z"/><path class="st3" d="M17.5 166c-.1 0-.2-.1-.2-.2v-15.3c0-.1.1-.2.2-.2h32.4c.1 0 .2.1.2.2v15.3c0 .1-.1.2-.2.2H17.5z"/><path class="st2" d="M34.2 182.5v-15.3c0-.1.1-.2.2-.2h32.3c.1 0 .2.1.2.2v15.3c0 .1-.1.2-.2.2H34.4c-.1-.1-.2-.1-.2-.2z"/><path class="st1" d="M83.5 183.7c.1 0 .2.1.2.2v15.3c0 .1-.1.2-.2.2H51.2c-.1 0-.2-.1-.2-.2v-15.4c0-.1.1-.2.2-.2l32.3.1z"/><path class="st3" d="M17.5 199.3c-.1 0-.2-.1-.2-.2v-15.3c0-.1.1-.2.2-.2h32.4c.1 0 .2.1.2.2v15.3c0 .1-.1.2-.2.2H17.5zM33 116H.7c-.1 0-.2-.1-.2-.2v-15.3c0-.1.1-.2.2-.2H33c.1 0 .2.1.2.2v15.3c-.1.2-.2.2-.2.2z"/><path class="st1" d="M16.3 117.2v15.3c0 .1-.1.2-.2.2H0v-15.6h16.1c.1 0 .2 0 .2.1z"/><path class="st2" d="M50 117.2v15.3c0 .1-.1.2-.2.2H17.5c-.1 0-.2-.1-.2-.2v-15.3c0-.1.1-.2.2-.2h32.4c0 .1.1.1.1.2z"/><path class="st1" d="M33.1 133.9v15.3c0 .1-.1.2-.2.2H.7c-.1 0-.2-.1-.2-.2v-15.3c0-.1.1-.2.2-.2H33s.1.1.1.2z"/><path class="st2" d="M16.3 150.5v15.3c0 .1-.1.2-.2.2H0v-15.6h16.1c.1 0 .2 0 .2.1z"/><path class="st1" d="M33.1 167.2v15.3c0 .1-.1.2-.2.2H.7c-.1 0-.2-.1-.2-.2v-15.3c0-.1.1-.2.2-.2H33s.1.1.1.2z"/><path class="st2" d="M16.3 183.8v15.3c0 .1-.1.2-.2.2H0v-15.6h16.1c.1 0 .2 0 .2.1z"/><path class="st1" d="M117.2 117.1H84.9c-.1 0-.2.1-.2.2v15.3c0 .1.1.2.2.2h32.2c.1 0 .2-.1.2-.2v-15.3c0-.2-.1-.2-.1-.2z"/><path class="st2" d="M117.2 150.4H84.9c-.1 0-.2.1-.2.2v15.2c0 .1.1.2.2.2h32.2c.1 0 .2-.1.2-.2l-.1-15.4c.1 0 0 0 0 0z"/><path class="st3" d="M118 182.6h16c.1 0 .2-.1.2-.2v-15.3c0-.1-.1-.2-.2-.2h-32.4c-.1 0-.2.1-.2.2v15.3c0 .1.1.2.2.2H118z"/><path class="st2" d="M117.2 183.7H84.9c-.1 0-.2.1-.2.2v15.3c0 .1.1.2.2.2h32.2c.1 0 .2-.1.2-.2v-15.4c0-.1-.1-.1-.1-.1z"/><path class="st1" d="M135.4 116h32.3c.1 0 .2-.1.2-.2v-15.3c0-.1-.1-.2-.2-.2h-32.3c-.1 0-.2.1-.2.2v15.3c0 .2.1.2.2.2z"/><path class="st3" d="M118 116h16c.1 0 .2-.1.2-.2v-15.3c0-.1-.1-.2-.2-.2h-32.4c-.1 0-.2.1-.2.2v15.3c0 .1.1.2.2.2H118zm33 16.5v-15.3c0-.1-.1-.2-.2-.2h-32.3c-.1 0-.2.1-.2.2v15.3c0 .1.1.2.2.2h32.3c.1 0 .2-.1.2-.2z"/><path class="st1" d="M135.4 149.3h32.3c.1 0 .2-.1.2-.2v-15.3c0-.1-.1-.2-.2-.2h-32.3c-.1 0-.2.1-.2.2v15.3c0 .2.1.2.2.2z"/><path class="st2" d="M117.7 149.3H134c.1 0 .2-.1.2-.2v-15.3c0-.1-.1-.2-.2-.2h-32.4c-.1 0-.2.1-.2.2v15.3c0 .1.1.2.2.2h16.1z"/><path class="st1" d="M118.4 150.5v15.3c0 .1.1.2.2.2h32.3c.1 0 .2-.1.2-.2v-15.3c0-.1-.1-.2-.2-.2h-32.3c-.1.1-.2.1-.2.2z"/><path class="st3" d="M184.5 166c.1 0 .2-.1.2-.2v-15.3c0-.1-.1-.2-.2-.2h-32.4c-.1 0-.2.1-.2.2v15.3c0 .1.1.2.2.2h32.4z"/><path class="st2" d="M167.8 182.5v-15.3c0-.1-.1-.2-.2-.2h-32.3c-.1 0-.2.1-.2.2v15.3c0 .1.1.2.2.2h32.3c.1-.1.2-.1.2-.2z"/><path class="st1" d="M118.6 183.7c-.1 0-.2.1-.2.2v15.3c0 .1.1.2.2.2h32.3c.1 0 .2-.1.2-.2v-15.4c0-.1-.1-.2-.2-.2l-32.3.1z"/><path class="st3" d="M184.5 199.3c.1 0 .2-.1.2-.2v-15.3c0-.1-.1-.2-.2-.2h-32.4c-.1 0-.2.1-.2.2v15.3c0 .1.1.2.2.2h32.4zM169.1 116h32.3c.1 0 .2-.1.2-.2v-15.3c0-.1-.1-.2-.2-.2h-32.3c-.1 0-.2.1-.2.2v15.3c0 .2.1.2.2.2z"/><path class="st1" d="M185.7 117.2v15.3c0 .1.1.2.2.2H202v-15.6h-16.1c-.1 0-.2 0-.2.1z"/><path class="st2" d="M152 117.2v15.3c0 .1.1.2.2.2h32.4c.1 0 .2-.1.2-.2v-15.3c0-.1-.1-.2-.2-.2h-32.4c-.1.1-.2.1-.2.2zm16.9 16.7v15.3c0 .1.1.2.2.2h32.3c.1 0 .2-.1.2-.2v-15.3c0-.1-.1-.2-.2-.2h-32.3c-.1 0-.2.1-.2.2zm16.8 16.6v15.3c0 .1.1.2.2.2H202v-15.6h-16.1c-.1 0-.2 0-.2.1z"/><path class="st1" d="M168.9 167.2v15.3c0 .1.1.2.2.2h32.3c.1 0 .2-.1.2-.2v-15.3c0-.1-.1-.2-.2-.2h-32.3c-.1 0-.2.1-.2.2z"/><path class="st2" d="M185.7 183.8v15.3c0 .1.1.2.2.2H202v-15.6h-16.1c-.1 0-.2 0-.2.1z"/></svg>
