<svg viewBox="0 0 49 49" xmlns="http://www.w3.org/2000/svg"><path d="m16.542 22.057h15.63v16.977a7.815 7.815 0 0 1 -7.815 7.815 7.815 7.815 0 0 1 -7.815-7.815z" fill="#e8c4b0"/><path d="m30.25 20.839v19.349a5.813 5.813 0 0 1 -11.625 0v-19.349m14.625 0h-17.625v19.349a8.812 8.812 0 0 0 8.812 8.812 8.812 8.812 0 0 0 8.812-8.812v-19.349z"/><path d="m1.975 21.864a6.729 6.729 0 0 1 -1.838-3.409 6.729 6.729 0 0 0 1.838 3.409zm46.888-3.409a6.729 6.729 0 0 1 -1.838 3.409 6.728 6.728 0 0 0 1.838-3.409zm-1.838 3.409a6.729 6.729 0 0 1 -3.408 1.836 6.729 6.729 0 0 0 3.408-1.836zm-41.642 1.836a6.729 6.729 0 0 1 -3.409-1.838 6.729 6.729 0 0 0 3.409 1.838zm36.875-2.861a3.746 3.746 0 0 0 3.742-3.739v-17.1h-43v17.1a3.746 3.746 0 0 0 3.742 3.742h11.883v3h11.625v-3h12.008z" fill="#ec1e27"/><path d="m24.471 15.063a3.446 3.446 0 0 0 3.445-3.446v-11.617h-6.89v11.617a3.446 3.446 0 0 0 3.445 3.446zm11.146 0a3.446 3.446 0 0 0 3.446-3.446v-11.617h-6.892v11.617a3.446 3.446 0 0 0 3.446 3.446zm-22.292 0a3.446 3.446 0 0 0 3.446-3.446v-11.617h-6.891v11.617a3.446 3.446 0 0 0 3.445 3.446z" fill="#cd2027"/><path d="m46 17.1a3.746 3.746 0 0 1 -3.742 3.742h-12.008v3h12.008a6.735 6.735 0 0 0 6.742-6.742v-17.1h-3zm-39.258 3.739a3.746 3.746 0 0 1 -3.742-3.739v-17.1h-3v17.1a6.735 6.735 0 0 0 6.742 6.742h11.883v-3h-11.883z"/><path d="m18.625 20.839h11.625v8.927h-11.625z" fill="#b8826a"/></svg>
