<svg viewBox="0 0 49 48.266" xmlns="http://www.w3.org/2000/svg"><g fill="#b82025"><path d="m24.471 16.933a3.446 3.446 0 0 0 -3.445 3.446v3.479a3.446 3.446 0 0 1 3.445-3.446 3.446 3.446 0 0 1 3.445 3.446v-3.479a3.446 3.446 0 0 0 -3.445-3.446z"/><path d="m35.617 16.933a3.446 3.446 0 0 0 -3.445 3.446v3.479a3.446 3.446 0 0 1 3.445-3.446 3.446 3.446 0 0 1 3.445 3.446v-3.479a3.446 3.446 0 0 0 -3.445-3.446z"/><path d="m13.325 16.933a3.446 3.446 0 0 0 -3.445 3.446v3.479a3.446 3.446 0 0 1 3.445-3.446 3.446 3.446 0 0 1 3.445 3.446v-3.479a3.446 3.446 0 0 0 -3.445-3.446z"/></g><path d="m32.072 3h-15.144a13.944 13.944 0 0 0 -13.928 13.928v31.338h43v-31.338a13.944 13.944 0 0 0 -13.928-13.928z" fill="#ec1e27"/><path d="m24.471 16.933a3.446 3.446 0 0 0 -3.445 3.446v27.887h6.891v-27.887a3.446 3.446 0 0 0 -3.446-3.446zm11.146 0a3.446 3.446 0 0 0 -3.446 3.446v27.887h6.891v-27.887a3.446 3.446 0 0 0 -3.445-3.446zm-22.292 0a3.446 3.446 0 0 0 -3.445 3.446v27.887h6.891v-27.887a3.446 3.446 0 0 0 -3.446-3.446z" fill="#cd2027"/><path d="m3 16.928a13.944 13.944 0 0 1 13.928-13.928h15.144a13.944 13.944 0 0 1 13.928 13.928v31.338h3v-31.338a16.85 16.85 0 0 0 -2.891-9.465q-.456-.675-.975-1.3a17.023 17.023 0 0 0 -3.6-3.269 16.85 16.85 0 0 0 -9.462-2.894h-15.144a16.914 16.914 0 0 0 -16.928 16.928v31.338h3z"/><path d="m16.771 4.682a12.181 12.181 0 0 0 -12.171 12.168v19.082a1.5 1.5 0 0 0 3 0v-19.082a9.177 9.177 0 0 1 9.167-9.167 1.5 1.5 0 0 0 .004-3.001z" fill="#f26268"/></svg>
