
<svg viewBox="0 0 114.01 128.45" xmlns="http://www.w3.org/2000/svg"><linearGradient id="a" gradientUnits="userSpaceOnUse" x1="21.35" x2="39.72" y1="49.93" y2="60.56"><stop offset=".01" stop-color="#874e20"/><stop offset="1" stop-color="#5a2c0e"/></linearGradient><linearGradient id="b" gradientUnits="userSpaceOnUse" x1="58.45" x2="40.23" y1="71.41" y2="60.86"><stop offset=".01" stop-color="#723e19"/><stop offset="1" stop-color="#713817"/></linearGradient><linearGradient id="c" gradientUnits="userSpaceOnUse" x1="48.62" x2="67.02" y1="44.69" y2="55.33"><stop offset="0" stop-color="#3a1e0e"/><stop offset=".99" stop-color="#693d18"/></linearGradient><circle cx="57" cy="71.45" fill="#231f20" r="56.99"/><circle cx="57" cy="71.45" fill="#fdc60b" r="53.41"/><path d="M104.8 67.17a50.41 50.41 0 0 1-88.69 29.4 48 48 0 0 0 88.69-29.4zM13.55 55.53A50.41 50.41 0 0 1 94 40.92 48 48 0 0 0 9 71.1a50.12 50.12 0 0 1 4.55-15.57z" fill="#ffe592"/><path d="M96.61 47.49l-15.77-9.12-.16-.1-20.9-12.09a3.19 3.19 0 0 0-3.19 0L19.83 47.41l-.18.12a3.17 3.17 0 0 0-1.42 2.65v42.51a3.17 3.17 0 0 0 1.59 2.76l36.81 21.26a3.15 3.15 0 0 0 1.6.43 3.28 3.28 0 0 0 1.6-.43L96.5 95.43a3.21 3.21 0 0 0 1.59-2.75l.11-42.42a3.17 3.17 0 0 0-1.59-2.77z" fill="#231f20"/><path d="M21.42 50.18l36.81 21.38v42.39L21.42 92.69z" fill="#c99567"/><path d="M21.42 50.18l36.81 21.38v42.39L21.42 92.69z" fill="#c99567"/><path d="M95.02 50.25l-36.84-21.3-36.76 21.23 36.81 21.38z" fill="#e3b186"/><path d="M58.23 71.56l36.79-21.31-.12 42.42-36.67 21.28z" fill="#ae7f4f"/><path d="M36.9 67.92l5.55 3.17.17-8.56c0-.2 0-.52.17-.62L79.09 41l-5.55-3.18-36.64 21.1z" fill="#b88041"/><path d="M21.42 50.18a.18.18 0 0 1 .16 0l18.18 10.16v.5z" fill="url(#a)"/><path d="M58.23 71.56L40 61v-.51l18.05 10.75a.37.37 0 0 1 .18.31z" fill="url(#b)"/><path d="M39.77 60.34v.5h.22v-.39l36.4-20.96-.28-.17z" fill="url(#c)"/><g fill="#231f20"><path d="M24.78 90.9a.39.39 0 0 1-.19-.32v-7.56a.12.12 0 0 1 .19-.11l6.57 3.8a.41.41 0 0 1 .19.32v7.56c0 .12-.08.17-.19.11zm6.6-4.53l-6.58-3.8c-.27-.15-.48 0-.48.28v7.56a1.06 1.06 0 0 0 .49.83L31.35 95c.27.15.48 0 .49-.28v-7.56a1.08 1.08 0 0 0-.48-.83zM33 95.66a.43.43 0 0 1-.18-.33v-7.56c0-.11.08-.16.19-.1l6.57 3.8a.38.38 0 0 1 .19.32v7.56c0 .11-.09.16-.19.1zm6.6-4.53l-6.6-3.8c-.27-.15-.49 0-.49.27v7.56A1.06 1.06 0 0 0 33 96l6.58 3.8c.26.16.48 0 .48-.27v-7.56a1 1 0 0 0-.48-.83zm1.65 9.28a.42.42 0 0 1-.19-.32v-7.56a.12.12 0 0 1 .19-.11l6.58 3.8a.43.43 0 0 1 .19.32v7.56c0 .12-.08.17-.18.11l-6.58-3.8zm6.6-4.53l-6.58-3.8a.3.3 0 0 0-.48.28v7.56a1.05 1.05 0 0 0 .48.83l6.57 3.8c.27.15.49 0 .49-.28v-7.56a1.08 1.08 0 0 0-.48-.83z"/><path d="M29.32 86.27l-.88 1.87.73.07-.01 4.15-2.18-1.26.01-4.15.72.77-.86-2.88-.88 1.87.72.07-.01 4.15-1.4-.8v.33l5.57 3.22v-.34l-1.4-.81.01-4.15.73.77zm9.11 5.24l-4.21-2.43v.77a4.63 4.63 0 0 0 1.94 3.54v2.52c-.48-.21-.84-.07-.84.35l2 1.14a1.87 1.87 0 0 0-.84-1.32v-2.52c1.09.54 2 0 2-1.28v-.77zm6.27 3.63l-.29-.14v.4c-1.3-.67-2.34 0-2.34 1.49l2.33 1.31v2.6c0 .2-.14.28-.31.18a.68.68 0 0 1-.3-.53l-.3-.17a1.33 1.33 0 0 0 .6 1c.34.19.61 0 .61-.35v-2.6l2.3 1.39a5.45 5.45 0 0 0-2.33-4.19v-.39z"/></g><path d="M80.75 90.41c.11 2.82-1.5 6.09-3.6 7.31s-3.88-.08-4-2.89 1.5-6.09 3.59-7.31 3.9.07 4.01 2.89zm-3.91-.85a5.24 5.24 0 0 0-2.16 4.38c.07 1.69 1.14 2.47 2.39 1.74a5.23 5.23 0 0 0 2.16-4.39c-.06-1.69-1.13-2.46-2.39-1.73zm-12.4 10.35a1.77 1.77 0 0 1 .73-1.47c.41-.24.76 0 .78.59.07 1.69 1.14 2.46 2.4 1.73a5.27 5.27 0 0 0 2.16-4.39l-.31-8.16a1.76 1.76 0 0 1 .72-1.46c.42-.24.78 0 .8.58l.28 8.16c.1 2.82-1.51 6.09-3.6 7.31s-3.88-.08-4-2.89m18.85-15.13a6.71 6.71 0 0 1 2.23-2.34c2.1-1.22 3.88.07 4 2.89s-1.5 6.09-3.6 7.31-3.88-.08-4-2.89l-.33-8.67a1.76 1.76 0 0 1 .72-1.47c.41-.24.77 0 .79.58zm2.31-.3a5.24 5.24 0 0 0-2.16 4.38c.07 1.69 1.14 2.47 2.39 1.74A5.23 5.23 0 0 0 88 86.21c-.11-1.69-1.18-2.46-2.44-1.73zm-7.68-49.72a.24.24 0 0 1 .05.19.27.27 0 0 0 .06.2l2.8 3.58a5.08 5.08 0 0 0 .59.18 2.87 2.87 0 0 0 .69.07h1.45s1-.07 1.64-.14a6.85 6.85 0 0 0 1.35-.43 6.41 6.41 0 0 0 1.13-.64 4.55 4.55 0 0 0 1.14-1.56c-.64 0-1.51.13-2.59.25l-4 .43L78 31.67h-.18l2.77-13.1-6-4.9-3.94-5-.39-.36c1.47-1.16 2.77-2.13 3.89-2.93A28.09 28.09 0 0 1 77 3.59 29.72 29.72 0 0 1 90.73 0h3.2a21.53 21.53 0 0 1 6.17.82 14.41 14.41 0 0 1 4.83 2.41 10.83 10.83 0 0 1 2.24 2.56l3.65 4.61q2.85 3.63 1.67 9.23a12.84 12.84 0 0 1-2 4.72 19.19 19.19 0 0 1-3.71 4l2.1 2.6c.09.12.17.24.25.37a2.35 2.35 0 0 0 .24.37 10.87 10.87 0 0 1 1.14 8.42 19.41 19.41 0 0 1-3 7 22 22 0 0 1-5.63 5.5 27.25 27.25 0 0 1-14 4.65c-.26 0-.76 0-1.49.06h-2.8a21.56 21.56 0 0 1-11.43-2.94 14 14 0 0 1-2.09-1.56 14.93 14.93 0 0 1-2-2.21l-3.2-4c-.54-.61-1.08-1.28-1.61-2s-1.06-1.5-1.58-2.33z"/><path d="M64.85 43a12.82 12.82 0 0 0 4.44 4.3A20 20 0 0 0 79.83 50c2.23 0 3.61 0 4.16-.08a24.41 24.41 0 0 0 12.7-4.18 17.43 17.43 0 0 0 7.57-10.94v-.07a8.92 8.92 0 0 0-.93-7A9.37 9.37 0 0 0 97.65 24q7.32-3.62 8.63-9.65t-3-9.34q-3.61-2.83-9.87-2.84H90.3a28.08 28.08 0 0 0-12.53 3.3 24 24 0 0 0-4.08 2.66l7.6 6.22a5.83 5.83 0 0 1 2.87-2.63 11.73 11.73 0 0 1 3.27-.85 11.88 11.88 0 0 1 1.31-.07 10.4 10.4 0 0 1 1.28.07A4.75 4.75 0 0 1 92.75 12c.76.56 1 1.57.68 3a6.48 6.48 0 0 1-2.49 3.8 6.89 6.89 0 0 1-4.58 1.63 31.1 31.1 0 0 1-4-.14l-1.88 9q4.29-.46 5.79-.46a6.18 6.18 0 0 1 3.37.85q2.45 1.66 1.56 5.82a6.78 6.78 0 0 1-2.31 3.73A8.6 8.6 0 0 1 84.94 41a21 21 0 0 1-3.4.14 5.1 5.1 0 0 1-2.92-.89 4.13 4.13 0 0 1-2.27-2.59z" fill="#eabec9"/></svg>
