
<svg viewBox="0 0 114.01 134.55" xmlns="http://www.w3.org/2000/svg"><circle cx="57" cy="77.55" fill="#231f20" r="56.99"/><circle cx="57" cy="77.55" fill="#fdc60b" r="53.41"/><path d="M104.8 73.27a50.41 50.41 0 0 1-88.69 29.4 48 48 0 0 0 88.69-29.4zM13.55 61.63A50.41 50.41 0 0 1 94 47 48 48 0 0 0 9 77.2a50.19 50.19 0 0 1 4.55-15.57z" fill="#ffe592"/><g stroke="#221f1f" stroke-linecap="round" stroke-linejoin="round"><path d="M15.607 97.186l11.278-50.332 73.976 16.576-11.278 50.332z" fill="#231f20" stroke-width=".84"/><path d="M12.642 92.542L23.92 42.21l73.976 16.576-11.278 50.332z" fill="#fff" stroke-width="1.42"/><path d="M12.65 92.55l44.58-25.6 29.39 42.18z" fill="#fff" stroke-width="1.42"/><path d="M23.92 42.22l30.31 38.09L97.9 58.8z" fill="#fff" stroke-width="1.42"/></g><path d="M56.73 68.52a.16.16 0 0 0 .12.12.16.16 0 0 0 .16-.06 6.42 6.42 0 0 1 11.57 5c-.34 1.52-1.12 2.69-3.08 4.17-.1.07-8.71 6.35-12 9.94-.12.11-.57.6-1 .5-.47-.1-.67-.74-.73-.9-1.44-4.66-6.54-14-6.6-14.11-1.13-2.17-1.34-3.57-1-5.09a6.41 6.41 0 0 1 12.58.45z" fill="#e5262c"/><path d="M59.44 50.87h-.21l3.23-15.19h5l2-9.3-3.94-5a.15.15 0 0 0-.1 0h-.12l2.91-13.5a10.43 10.43 0 0 0 4.05-1.74c1.51-.95 3.33-3 5.47-6.14h13.09v.21l4.08 5.22-6.52 30.64 4 5-3.19 15H63.56z"/><path d="M83.37 48.74l2.31-10.93h-5l7.55-35.68h-9.58a20.11 20.11 0 0 1-5.43 5.68A14.69 14.69 0 0 1 70 9.66l-1.88 8.91a24.47 24.47 0 0 0 5.61-2.13l-4.6 21.37h-5l-2.31 10.93z" fill="#2cbdea"/></svg>
