<svg viewBox="0 0 43 24" xmlns="http://www.w3.org/2000/svg"><path d="m28.7 4.6c1.1.8 1.9 1.5 3.7 1.4s2.5 0 3.2-.8c.6-.8 2.1-.9 2.9-1.6.8-.8 1-2 1.9-2.8.2-.2.4-.5.5-.8h-16.5c.2.9.7 1.6 1.1 2.2.8 1 2 1.7 3.2 2.4zm-13 .8c-1.8-.9-2.1-1.9-3.7-2.1-1.5-.3-2.8.3-4.2.6s-1.7 1.1-2.8 2.3c-1.1 1.1-2.1 1.8-2.4 4-.3 1.6.5 3 1.3 4s2 1.6 3.2 2.4c1.1.8 1.9 1.5 3.7 1.4s2.5 0 3.2-.8c.6-.8 2.1-.9 2.9-1.6.8-.8 1-2 1.9-2.8s.5-2.8.3-3.8c-.5-.9-1.6-2.7-3.4-3.6zm24.9 15.8c-.3-1-1.4-2.8-3.2-3.7s-2.1-1.9-3.7-2.1c-1.5-.3-2.9.4-4.3.6-1.4.3-1.6 1.1-2.8 2.3-1.1 1.1-2.1 1.8-2.4 4-.1.7 0 1.3.1 1.8h16.4c.3-.8.1-2.1-.1-2.9z" fill="#a6daf7"/></svg>
