<svg id="Layer_1" xmlns="http://www.w3.org/2000/svg" viewBox="0 0 41.6 12.6"><style>.st0{fill:#2b2b2b}.st1{fill:#ef2727}.st2{fill:#e9e7db}</style><path class="st0" d="M9.7 5.9H.8C.5 6 .2 6 0 6v.3c.2.1.7 0 .9 0h2.9c1 0 2 0 3.7-.1.5 0 .8 0 1.3.1h.6c.1 0 .3 0 .4-.1 0 0 .1-.1.1-.3h-.2zm.9-1v1c0 .2 0 .3.1.3.1.1.2.1.3.1h.9c.8 0 1 0 1.6-.1.6 0 1.1 0 1.9.1H19c.9 0 1.4 0 2.3-.1h3.3c1 0 2 0 3.7-.1.5 0 .8 0 1.3.1h.6c.1 0 .2 0 .3-.1.1 0 .3-.2.3-.4v-.5c0-.3-.2-.6-.2-1.3V.8c0-.1-.1-.2-.2-.3h-9.5c-.9 0-1.1 0-1.6-.1h-6.4c-.3 0-.2-.1-.5-.1h-1c-.1 0-.2 0-.3.1s-.4.1-.4.5v2.3c-.1.7-.1 1.2-.1 1.7zM6.9 7.1H2.5c-.3 0-.3-.3-.5-.3s-.7-.2-1-.2c-.1 0-.2.1-.3.2-.2.1-.5.3-.5.7v4.7c0 .2 0 .3.1.3.1.1.2.1.3.1h.9c.8 0 1 0 1.6-.1.5 0 1.1 0 1.9.1h3.6c.9 0 1.4 0 2.3-.1h3.3c1 0 2 0 3.7-.1.5 0 .8 0 1.3.1h.6c.1 0 .2 0 .3-.1.1 0 .3-.2.3-.4v-.5c0-.3-.2-.6-.2-1.3V7.1c0-.1 0 0-.2 0-.2-.1-.8 0-1.1 0h-8.4c-.9 0-1.1 0-1.6-.1-.7.1-1.7.1-2 .1zm20.8 0h-4.4c-.3 0-.2-.3-.5-.3h-1c-.1 0-.3 0-.3.1-.2.1-.5.2-.5.6v4.7c0 .2 0 .3.1.3.1.1.2.1.3.1h.9c.8 0 1 0 1.6-.1.6 0 1.1 0 1.9.1h3.6c.9 0 1.4 0 2.3-.1H35c1 0 2 0 3.7-.1.5 0 .8 0 1.3.1h.6c.1 0 .2 0 .3-.1.1 0 .3-.2.3-.4v-.5c0-.3-.2-.6-.2-1.3V7.1c0-.1 0 0-.2 0-.2-.1-.8 0-1.1 0h-8.4c-.9 0-1.1 0-1.6-.1-.7.1-1.8.1-2 .1z"/><path class="st1" d="M11 6c.1.1.2.1.3.1h.9c.8 0 1 0 1.6-.1.6 0 1.1 0 1.9.1h3.6c.9 0 1.4 0 2.3-.1h3.3c1 0 2 0 3.7-.1.5 0 .8 0 1.3.1h.6c.1 0 .2 0 .3-.1.1-.1 0-.2.1-.3V.7c0-.1-.1-.2-.2-.3-.2-.1-.7.1-1 .1-.8 0-1.7-.1-2.2-.1h-6.3c-.9 0-1.1 0-1.6-.1h-8.2c-.1 0-.2 0-.3.1s-.1.2-.1.3v4.7c-.1.5-.1.5 0 .6zm-3.8.6H1c-.1 0-.3 0-.4.1-.2.1-.1.4-.1.5v4.7c0 .2 0 .3.1.3.1.1.2.1.3.1h.9c.8 0 1 0 1.6-.1.6 0 1.1 0 1.9.1h3.5c.9 0 1.4 0 2.3-.1h3.3c1 0 2 0 3.7-.1.5 0 .8 0 1.3.1h.6c.1 0 .2 0 .3-.1.1-.1 0-.2.1-.3V6.9c0-.1-.1-.2-.2-.3-.2-.1-.8 0-1.1 0h-8.4c-.9 0-1.1.1-1.6 0-.7.1-1.6 0-1.9 0zm20.7 0h-6c-.3 0 0 .1-.3.1-.1 0-.3.1-.3.2-.1.1-.1.2-.1.3v4.7c0 .2 0 .3.1.3.1.1.2.1.3.1h.9c.8 0 1 0 1.6-.1.5 0 1.1 0 1.9.1h3.6c.9 0 1.4 0 2.3-.1h3.3c1 0 2 0 3.7-.1.5 0 .8 0 1.3.1h.6c.1 0 .2 0 .3-.1s0-.2.1-.3V6.9c0-.1-.1-.2-.2-.3-.2-.1-.8 0-1.1 0h-8.4c-.9 0-1.1 0-1.6-.1-.6.3-1.7.1-2 .1z"/><path class="st2" d="M11.1.4c.1-.1.3-.1.4-.1h8.2c.6 0 .7 0 1.6.1h8.4c.3 0 .9-.1 1.1 0 .2 0 .2.2.2.3v4.9c0 .2 0 .3-.1.3-.1.1-.2.1-.3.1-.1 0 .1 0 .1-.2.1-.1.2-.2.1-1V2.9c0-.3-.1-1.3 0-1.5 0-.3.1-.7 0-.8s-.4-.1-.5-.1-1.5.1-1.8 0-2.6 0-2.8 0c-.2 0-1.9.1-2.1 0H11.8c-.2.1-.7.1-.8.2 0 0 0-.2.1-.3zM.5 6.9c0-.2 0-.2.1-.3.1-.1.2-.1.3-.1h8.2c.6 0 .7 0 1.6.1h8.4c.3 0 .9-.1 1.1 0s.2.2.2.3v4.9c0 .2 0 .3-.1.3-.1.1-.2.1-.3.1-.1 0 .1 0 .1-.2.1-.1.2-.2.1-1V9.1c0-.3-.1-1.3 0-1.5 0-.3.1-.7 0-.8-.1-.1-.4-.1-.5-.1s-1.5.1-1.8 0-2.6 0-2.8 0-1.9.1-2.1 0H1.2c-.5 0-.7.2-.7.2zm20.8 0c0-.2 0-.2.1-.3.1-.1.2-.1.3-.1H30c.5 0 .7 0 1.6.1H40c.3 0 .9-.1 1.1 0 .2.1.2.2.2.3v4.9c0 .2 0 .3-.1.3-.1.1-.2.1-.3.1s.1 0 .1-.2c.1-.1.1-.2.1-1V6.8c-.1-.1-.4-.1-.5-.1s-1.5.1-1.8 0-2.6 0-2.8 0-1.9.1-2.1 0H22.1c-.2.1-.6.1-.8.2.1-.1.1-.1 0 0z"/><path class="st0" d="M39.9 6.2h-3.5c-.8-.1-1.3-.1-1.9-.1-.6.1-.8.1-1.6.1H32c-.1 0-.2 0-.3-.1-.1 0-.1-.1-.1-.3v-5c0-.1 0-.2.1-.3s-.3.1-.3.4v2.3c-.1.8 0 1.3 0 1.8v1c0 .2 0 .3.1.3.1.1.2.1.3.1h.9c.8 0 1 0 1.6-.1.5 0 1.1 0 1.9.1h3.5c.7 0 1.2 0 1.9-.1v-.2c-.6 0-1 .1-1.7.1z"/><path class="st1" d="M39.7.5h-5.8c-.1 0-1.3-.1-2-.1-.3 0-.3.2-.3.2v5.2c0 .2 0 .3.1.3.1.1.2.1.3.1h.9c.8 0 1 0 1.6-.1.6 0 1.1 0 1.9.1h3.5c.7 0 1.1-.1 1.7-.1V.5h-1.9z"/><path class="st2" d="M33.9.6h7.7V.5c-.7-.1-.8-.1-1.4-.1-.7 0-1.7-.1-2-.1H32c-.1 0-.2 0-.3.1-.1.1-.1.1-.1.2.1-.1.5-.1.7-.1.1.1 1.4.1 1.6.1z"/><path class="st1" d="M9.9 4V.9c0-.1 0-.2-.1-.3-.1 0-.3-.1-.3-.1-.1 0-1.5.1-1.8 0H0v5.6c.3.1.5 0 .8-.1h3.3c1 0 2 0 3.7-.1.5 0 .8 0 1.3.1h.6c.1 0 .2 0 .2-.1v-.6c.1-.3 0-.6 0-1.3z"/><path class="st2" d="M8.8.5H0v.1h1.3c1 0 1.9.1 3.4.1.7 0 1-.1 1.6-.1h3.2l.1.1c.1 0 .2 0 .3.1v2.3c0 .3-.1 1.1 0 1.9v.9c.1-.1 0-.2.1-.3V.7c0-.1 0-.1-.1-.2H8.8z"/></svg>
