<svg width="413" height="581" xmlns="http://www.w3.org/2000/svg" xmlns:xlink="http://www.w3.org/1999/xlink"><defs><path id="a" d="M.001.872h367.756v583.127H0z"/></defs><g transform="rotate(-12 181.228 181.085)" fill="none" fill-rule="evenodd"><mask id="b" fill="#fff"><use xlink:href="#a"/></mask><path d="M103.681 524.086a3 3 0 0 1 2.42 1.223l40.205 54.757a9.687 9.687 0 0 0 9.625 3.755 9.685 9.685 0 0 0 7.504-7.099l17.833-70.39a2.997 2.997 0 0 1 2.906-2.26 3 3 0 0 1 2.906 2.26l17.245 68.065a9.695 9.695 0 0 0 7.504 7.105 9.703 9.703 0 0 0 9.625-3.76l40.205-54.756a3 3 0 0 1 3.695-.937l61.42 28.982a9.695 9.695 0 0 0 10.255-1.28 9.702 9.702 0 0 0 3.215-9.82l-52.643-207.788a3.001 3.001 0 0 1 2.838-3.737l4.867-.11a10.858 10.858 0 0 0 10.443-8.775l1.733-8.67a3.003 3.003 0 0 1 2.351-2.356l8.667-1.735c5.047-1.007 8.653-5.309 8.775-10.457l.201-8.843a3.002 3.002 0 0 1 1.908-2.725l8.235-3.218c4.793-1.866 7.597-6.729 6.823-11.822l-1.334-8.74a3.002 3.002 0 0 1 1.406-3.016l7.546-4.594c4.4-2.674 6.32-7.952 4.672-12.835l-2.832-8.377a2.994 2.994 0 0 1 .861-3.212l6.639-5.838c3.868-3.398 4.841-8.927 2.373-13.443l-4.245-7.76a3.003 3.003 0 0 1 .288-3.317l5.524-6.9a10.86 10.86 0 0 0-.034-13.703l-5.49-6.855a3.003 3.003 0 0 1-.288-3.316l4.247-7.763a10.86 10.86 0 0 0-2.373-13.439l-6.64-5.84a2.998 2.998 0 0 1-.862-3.214l2.851-8.434a11.754 11.754 0 0 0 .476-2.112l.002-.025a11.58 11.58 0 0 0 .068-1.777l-.023-.375a9.475 9.475 0 0 0-.102-.842 9.653 9.653 0 0 0-.192-.967c-.12-.461-.218-.766-.334-1.077a9.115 9.115 0 0 0-.362-.884 11.615 11.615 0 0 0-1.15-1.923 11.042 11.042 0 0 0-.675-.811 9.988 9.988 0 0 0-1.673-1.494 8.345 8.345 0 0 0-.59-.406l-7.682-4.677a3 3 0 0 1-1.406-3.015l1.336-8.754c.772-5.086-2.032-9.942-6.822-11.81l-8.238-3.217a3.002 3.002 0 0 1-1.908-2.725l-.2-8.87a10.177 10.177 0 0 0-.075-.98 11.436 11.436 0 0 0-.133-.865l-.049-.248a12.116 12.116 0 0 0-.615-1.917c-.205-.48-.423-.872-.53-1.064a10.68 10.68 0 0 0-.547-.88 11.587 11.587 0 0 0-1.296-1.539v-.002c-.028-.023-.053-.049-.078-.072a9.3 9.3 0 0 0-.72-.637 10.641 10.641 0 0 0-1.906-1.24 10.714 10.714 0 0 0-2.817-.986l-8.677-1.735a3.003 3.003 0 0 1-2.351-2.355l-1.718-8.601a10.304 10.304 0 0 0-.243-.978 10.95 10.95 0 0 0-.402-1.15 10.956 10.956 0 0 0-2.27-3.43c-.255-.259-.45-.439-.644-.606a9.89 9.89 0 0 0-1.645-1.183 10.77 10.77 0 0 0-1.225-.622c-.034-.015-.172-.074-.205-.09-.106-.039-.343-.128-.593-.21a11.16 11.16 0 0 0-1.207-.337 9.724 9.724 0 0 0-1.013-.163c-.368-.044-.709-.07-1.026-.078l-8.834-.201a2.995 2.995 0 0 1-2.724-1.909l-3.185-8.171c-.155-.394-.275-.66-.406-.923a10.838 10.838 0 0 0-1.166-1.862 9.974 9.974 0 0 0-1.446-1.532 9.564 9.564 0 0 0-.863-.688 11.128 11.128 0 0 0-1.872-1.066 9.72 9.72 0 0 0-.723-.29 10.928 10.928 0 0 0-1.273-.38 9.517 9.517 0 0 0-.739-.14c-.33-.053-.771-.11-1.334-.134a11.854 11.854 0 0 0-.983.017 11.52 11.52 0 0 0-1.041.104l-8.739 1.337a3.001 3.001 0 0 1-3.014-1.407l-4.56-7.499a8.941 8.941 0 0 0-.505-.764 11.545 11.545 0 0 0-.802-.99c-.228-.25-.47-.49-.734-.726a11.298 11.298 0 0 0-.736-.613 10.362 10.362 0 0 0-1.01-.673 11.103 11.103 0 0 0-.861-.468c-.442-.211-.82-.351-1.045-.43a10.98 10.98 0 0 0-.922-.29 11.97 11.97 0 0 0-2.052-.327 11.317 11.317 0 0 0-2.098.07c-.446.057-.882.144-1.33.26a13.05 13.05 0 0 0-.675.195l-8.461 2.862a2.998 2.998 0 0 1-3.211-.86l-5.83-6.638a10.852 10.852 0 0 0-13.446-2.379l-7.755 4.247a2.984 2.984 0 0 1-3.314-.29l-6.905-5.533c-4.013-3.21-9.621-3.21-13.642.004l-6.899 5.53a2.988 2.988 0 0 1-3.314.289l-7.76-4.249c-4.515-2.473-10.037-1.494-13.43 2.372l-5.839 6.646a3.009 3.009 0 0 1-3.212.861l-8.352-2.826c-.3-.1-.554-.174-.808-.235a10.726 10.726 0 0 0-1.339-.263c-.27-.034-.544-.055-.823-.067a10.063 10.063 0 0 0-2.147.104c-.23.031-.672.1-1.167.234a9.51 9.51 0 0 0-.863.269 10.196 10.196 0 0 0-1.937.906 10.343 10.343 0 0 0-1.753 1.29c-.233.214-.466.44-.67.663-.42.444-.72.85-.878 1.074l-.22.314c-.034.057-.267.416-.305.471l-4.53 7.46a3.001 3.001 0 0 1-3.014 1.406l-8.697-1.33a10.109 10.109 0 0 0-1.184-.117 10.12 10.12 0 0 0-2.157.114 12.78 12.78 0 0 0-.806.15 11.923 11.923 0 0 0-1.954.655l-.205.092a9.09 9.09 0 0 0-.717.373 10.453 10.453 0 0 0-1.637 1.121c-.324.271-.633.555-.918.853a11.495 11.495 0 0 0-1.368 1.763 11.143 11.143 0 0 0-.912 1.818l-3.215 8.236a2.995 2.995 0 0 1-2.724 1.909l-8.891.203c-.309.009-.632.034-.958.072a10.493 10.493 0 0 0-2.16.48 10.635 10.635 0 0 0-1.954.863 10.31 10.31 0 0 0-1.713 1.202 10.663 10.663 0 0 0-1.432 1.481c-.203.253-.395.52-.566.773-.335.51-.508.842-.559.944a10.547 10.547 0 0 0-.844 2.093c-.067.236-.12.437-.165.634l-1.783 8.906a3.004 3.004 0 0 1-2.351 2.353l-8.593 1.718c-.738.142-1.458.36-2.098.63a9.931 9.931 0 0 0-.815.38c-.294.15-.676.355-1.09.637a11.214 11.214 0 0 0-1.587 1.294 11.392 11.392 0 0 0-1.347 1.609c-.19.279-.366.565-.533.867a11.19 11.19 0 0 0-.474.95c-.163.39-.269.673-.362.97a10.29 10.29 0 0 0-.277.987l-.05.248c-.08.404-.121.726-.142.914-.038.337-.066.669-.072.98l-.203 8.85a2.996 2.996 0 0 1-1.908 2.726l-8.238 3.216c-4.788 1.869-7.592 6.729-6.82 11.824l1.336 8.741a3 3 0 0 1-1.406 3.015l-7.531 4.581c-.337.216-.53.343-.717.48a10.98 10.98 0 0 0-.93.746 9.768 9.768 0 0 0-.781.782 10.87 10.87 0 0 0-.683.828c-.214.285-.409.58-.599.899-.163.269-.32.56-.457.84-.163.33-.302.669-.431 1.03-.13.348-.22.644-.303.944-.11.434-.169.734-.22 1.052-.059.368-.101.713-.12 1.062a9.66 9.66 0 0 0-.009 1.134 10.63 10.63 0 0 0 .307 2.167c.078.322.16.614.252.88l2.834 8.38a2.998 2.998 0 0 1-.861 3.213l-6.639 5.838a10.865 10.865 0 0 0-2.37 13.447l4.244 7.757a3 3 0 0 1-.29 3.316L2.42 178c-3.223 4.024-3.225 9.638-.006 13.656l5.528 6.906a3 3 0 0 1 .29 3.316l-4.247 7.763a10.859 10.859 0 0 0 2.371 13.439l6.641 5.84c.91.8 1.248 2.065.86 3.212l-2.83 8.373c-1.655 4.881.263 10.158 4.662 12.835l7.557 4.598a3.002 3.002 0 0 1 1.406 3.015l-1.338 8.754a10.859 10.859 0 0 0 6.825 11.81l8.235 3.217a2.996 2.996 0 0 1 1.908 2.725l.203 8.854c.123 5.141 3.726 9.439 8.768 10.446l8.672 1.735a3.004 3.004 0 0 1 2.351 2.353l1.735 8.669c1.004 5.049 5.306 8.656 10.452 8.779l5.442.123a2.994 2.994 0 0 1 2.318 1.185c.554.728.744 1.665.52 2.552l-53.23 210.1a9.7 9.7 0 0 0 3.22 9.82 9.678 9.678 0 0 0 10.249 1.278l61.422-28.982a3.016 3.016 0 0 1 1.277-.286" fill="#231F20" mask="url(#b)"/><path fill="#20419A" d="M214.355 569l45.356-61.849L329 539.888 254.64 246 140 275.112z"/><path stroke="#231F20" stroke-width="1.196" d="M214.355 569l45.356-61.849L329 539.888 254.64 246 140 275.112z"/><path fill="#FDDE66" d="M221.95 558L233 542.876 163.966 269 150 272.56zM316 534l-16.898-7.991L230 252.555 243.978 249z"/><path stroke="#231F20" stroke-width="1.196" d="M214.355 569l45.356-61.849L329 539.888 254.64 246 140 275.112z"/><path fill="#20419A" d="M153.645 572l-45.358-61.849L39 542.888 113.357 249 228 278.112z"/><path stroke="#231F20" stroke-width="1.196" d="M153.645 572l-45.358-61.849L39 542.888 113.357 249 228 278.112z"/><path fill="#FDDE66" d="M145.05 561L134 545.876 203.036 272 217 275.56zM51 536l16.896-7.991L137 254.555 123.022 251z"/><path stroke="#231F20" stroke-width="1.196" d="M153.645 572l-45.358-61.849L39 542.888 113.357 249 228 278.112z"/><path fill="#005BAA" d="M184 185L169.874 23.68 154 15z"/><path fill="#193483" d="M184 185L170 23.327 184 12z"/><path fill="#005BAA" d="M184 185L142.117 27.823 125 22z"/><path fill="#193483" d="M184 185L142 28.582 153.963 15z"/><path fill="#005BAA" d="M183 185L114.811 37.74 97 35z"/><path fill="#193483" d="M184 185L115 37.523 124.473 22z"/><path fill="#005BAA" d="M184 185L91.085 52 73 52.415z"/><path fill="#193483" d="M184 185L91 51.902 97.578 35z"/><path fill="#005BAA" d="M183 185L68.7 70 51 73.562z"/><path fill="#193483" d="M184 186L69 70.833 72.56 53z"/><path fill="#005BAA" d="M184 185L50.9 92 34 98.58z"/><path fill="#193483" d="M184 185L51 92.083 51.415 74z"/><path fill="#005BAA" d="M184 185L36.525 116 21 125.473z"/><path fill="#193483" d="M184 185L36.74 116.811 34 99z"/><path fill="#005BAA" d="M184 185L27.582 143 14 154.96z"/><path fill="#193483" d="M184 185L26.823 143.117 21 126z"/><path fill="#005BAA" d="M184 185L22.327 171 11 185z"/><path fill="#193483" d="M184 185L22.68 170.875 14 155z"/><path fill="#005BAA" d="M184 185L22.68 199.125 14 215z"/><path fill="#193483" d="M184 185L22.327 199 11 185z"/><path fill="#005BAA" d="M184 185L26.823 226.883 21 244z"/><path fill="#193483" d="M184 185L27.582 227 14 215.04z"/><path fill="#005BAA" d="M184 185L36.74 253.189 34 271z"/><path fill="#193483" d="M184 185L36.525 254 21 244.527z"/><path fill="#005BAA" d="M184 185L51 277.917 51.415 296z"/><path fill="#193483" d="M184 185L50.9 278 34 271.42z"/><path fill="#005BAA" d="M184 185L69 300.167 72.56 318z"/><path fill="#193483" d="M183 185L68.7 300 51 296.438z"/><path fill="#005BAA" d="M184 185L91 318.098 97.578 335z"/><path fill="#193483" d="M184 185L91.085 318 73 317.585z"/><path fill="#005BAA" d="M184 185l-69 147.477L124.473 348z"/><path fill="#193483" d="M183 185l-68.189 147.26L97 335z"/><path fill="#005BAA" d="M184 185l-42 156.418L153.963 355z"/><path fill="#193483" d="M184 185l-41.883 157.177L125 348z"/><path fill="#005BAA" d="M184 185l-14 161.673L184 358z"/><path fill="#193483" d="M184 185l-14.126 161.32L154 355z"/><path fill="#005BAA" d="M184 185l14.127 161.32L214 355z"/><path fill="#193483" d="M184 185l14 161.673L184 358z"/><path fill="#005BAA" d="M184 185l41.882 157.177L243 348z"/><path fill="#193483" d="M184 185l42 156.418L214.04 355z"/><path fill="#005BAA" d="M184 185l68.19 147.26L270 335z"/><path fill="#193483" d="M184 185l69 147.477L243.527 348z"/><path fill="#005BAA" d="M184 185l92.917 133 18.083-.415z"/><path fill="#193483" d="M184 185l93 133.098L270.422 335z"/><path fill="#005BAA" d="M184 185l114.3 115 17.7-3.562z"/><path fill="#193483" d="M184 185l115 115.167L295.438 318z"/><path fill="#005BAA" d="M184 185l133.1 93 16.9-6.58z"/><path fill="#193483" d="M184 185l133 92.917-.415 18.083z"/><path fill="#005BAA" d="M184 185l147.475 69L347 244.527z"/><path fill="#193483" d="M184 185l147.26 68.189L334 271z"/><path fill="#005BAA" d="M184 185l156.42 42L354 215.04z"/><path fill="#193483" d="M184 185l157.177 41.883L347 244z"/><path fill="#005BAA" d="M184 185l161.673 14L357 185z"/><path fill="#193483" d="M184 185l161.322 14.125L354 215z"/><path fill="#005BAA" d="M184 185l161.322-14.125L354 155z"/><path fill="#193483" d="M184 185l161.673-14L357 185z"/><path fill="#005BAA" d="M184 185l157.177-41.883L347 126z"/><path fill="#193483" d="M184 185l156.42-42L354 154.96z"/><path fill="#005BAA" d="M184 185l147.26-68.189L334 99z"/><path fill="#193483" d="M184 185l147.475-69L347 125.473z"/><path fill="#005BAA" d="M184 185l133-92.917L316.585 74z"/><path fill="#193483" d="M184 185l133.1-93 16.9 6.58z"/><path fill="#005BAA" d="M184 186L299 70.833 295.438 53z"/><path fill="#193483" d="M184 185L298.3 70l17.7 3.562z"/><path fill="#005BAA" d="M184 185l93-133.098L270.422 35z"/><path fill="#193483" d="M184 185l92.917-133 18.083.415z"/><path fill="#005BAA" d="M184 185l69-147.477L243.527 22z"/><path fill="#193483" d="M184 185l68.19-147.26L270 35z"/><path fill="#005BAA" d="M184 185l42-156.418L214.04 15z"/><path fill="#193483" d="M184 185l41.882-157.177L243 22z"/><path fill="#005BAA" d="M184 185l14-161.673L184 12z"/><path fill="#193483" d="M184 185l14.127-161.32L214 15z"/><path stroke="#231F20" stroke-width="1.196" stroke-linecap="round" stroke-linejoin="round" d="M69 300l3.608 17.59L91 318m33-296l-9.302 15L97 34.348m146-12.07L225.883 28l-11.929-13.411-15.849 8.571L184 12l-14.102 11.16-15.851-8.571L142.119 28 125 22.278M184 185h.002M270 34.348L252.302 37 243 22m52 30l-18.335-.408L270 35m46 39l-17.5-3.5L295 53m51 73l-15.46-9.41 2.733-17.902-16.859-6.582L316 74M184.002 185H184h.002M341 227l13.41-11.941-8.57-15.87L357 185.07l-11.16-14.121 8.57-15.87L341 143.137 346.721 126m-162.719 59H184h.002M331 254l15-9.564L340.373 227m-156.371-42H184h.002M277 318l18.392-.41L299 300m-157 41.785l11.954 13.591 15.886-8.686L183.975 358l14.136-11.31 15.886 8.686 11.954-13.591 17.154 5.798 9.41-15.459 17.904 2.734L277 318m-162 14l9.564 15L142 341.373M36.732 254L34 271.847l16.85 6.562.415 18.052L69 300M21.468 126l5.826 17.199-13.656 11.986 8.728 15.925L11 185.282l11.366 14.172-8.728 15.926 13.656 11.985-5.826 17.2L37 254M51 74l-.414 18.104-16.86 6.582 2.735 17.903L21 126m51-73l-3.5 17.5L51 74m47-39l-6.663 16.592L73 52m226 248l17.735-3.541.416-18.05L334 271.847 331.268 254M91 318l6.45 17 17.55-2.757"/><path d="M308 190c0 68.483-55.517 124-124 124S60 258.483 60 190 115.517 66 184 66s124 55.517 124 124" fill="#FDDE66"/><path d="M296 190c0 61.854-50.144 112-112.002 112C122.144 302 72 251.854 72 190c0-61.856 50.144-112 111.998-112C245.856 78 296 128.144 296 190" fill="#EC1D24"/><path d="M184.502 188a1.502 1.502 0 0 1-1.502-1.499c0-.83.665-1.501 1.49-1.501h.012c.828 0 1.498.671 1.498 1.501 0 .828-.67 1.499-1.498 1.499" fill="#FDDE66"/><path d="M184.501 188a1.502 1.502 0 0 1-1.501-1.499c0-.83.666-1.501 1.492-1.501h.01a1.5 1.5 0 0 1 0 3" fill="#FDDE66"/><path d="M184.501 188a1.502 1.502 0 0 1-1.501-1.499c0-.83.666-1.501 1.492-1.501h.01a1.5 1.5 0 0 1 0 3" fill="#FDDE66"/><path d="M184.501 188a1.502 1.502 0 0 1-1.501-1.499c0-.83.666-1.501 1.492-1.501h.01a1.5 1.5 0 0 1 0 3" fill="#FDDE66"/><path d="M184.501 188a1.502 1.502 0 0 1-1.501-1.499c0-.83.666-1.501 1.492-1.501h.01a1.5 1.5 0 0 1 0 3" fill="#FDDE66"/><path d="M184.502 188a1.502 1.502 0 0 1-1.502-1.499c0-.83.665-1.501 1.49-1.501h.012c.828 0 1.498.671 1.498 1.501 0 .828-.67 1.499-1.498 1.499m-44.186-65.958c2.586 0 4.192-.726 4.192-.726.227.229.492.773.492 1.498 0 2.358-1.516 4.261-5.399 4.261-3.168 0-4.82-.726-7.407-1.54l-4.238 24.706c-.534 3.174-.044 4.306-.044 4.306s-.715.453-2.544.453c-3.303 0-3.927-1.45-3.345-4.94l4.192-24.344c.179-1.089.223-1.77.223-1.77-1.383-.27-2.008-.451-3.7-.451-4.062 0-6.249 2.311-6.249 4.896 0 1.269.669 2.083 1.785 2.083.492 0 .757-.135.757-.135s.044.135.044.41c0 1.085-1.114 2.536-3.39 2.536-2.9 0-4.685-1.812-4.685-4.531 0-4.488 3.927-7.754 11.826-7.754 5.13 0 8.656 1.042 17.49 1.042m27.815 24.203c.577 0 .977.357.843 1.16-.444 2.36-3.683 6.595-7.814 6.595-3.334 0-5.374-2.227-5.374-5.57 0-1.158.31-2.9.663-5.084l.846-4.901c.353-2.14-.088-2.81-1.065-2.81-2.8 0-7.063 6.642-8.396 14.13-.488 2.81-.044 3.836-.044 3.836s-.666.399-2.309.399c-3.421 0-3.819-1.292-3.287-4.413l4.93-28.352c.488-2.809.044-3.832.044-3.832s.666-.403 2.308-.403c3.424 0 3.822 1.292 3.288 4.413l-2.932 16.763c1.733-2.899 5.064-6.463 8.706-6.463 2.8 0 4.574 1.827 4.574 4.592 0 .98-.177 2.272-.4 3.61l-1.067 6.285c-.443 2.496.136 3.922 1.821 3.922 1.735 0 3.378-1.292 4.665-3.877" fill="#FDDE66"/><path d="M181.935 139.174l.407-2.071c-.407-.88-1.267-2.113-2.985-2.113-3.077 0-6.564 4.446-6.564 11.53 0 2.466.996 3.652 2.672 3.652 3.211 0 5.61-6.598 6.47-10.998zm4.48 7.13c-.497 2.637.317 3.868 1.946 3.868 1.54 0 3.574-1.451 4.751-3.827.589 0 .998.352.862 1.144-.455 2.33-3.715 6.511-8.103 6.511-2.987 0-5.066-1.804-5.292-4.97-1.858 3.257-4.346 4.97-6.924 4.97-3.712 0-6.655-2.418-6.655-7.568 0-9.812 5.883-14.432 11.178-14.432 2.264 0 3.846.88 4.887 2.156.725-1.586 1.855-2.156 4.072-2.156 1.54 0 2.265.44 2.265.44s-.586.792-1.04 3.168l-1.947 10.695z" fill="#FDDE66"/><path d="M207.295 138.647c.354-2.115-.088-2.774-1.067-2.774-2.798 0-7.017 6.556-8.394 13.947-.487 2.774-.044 3.786-.044 3.786s-.663.394-2.308.394c-3.421 0-3.82-1.275-3.287-4.356l2.354-13.462c.49-2.772.046-3.786.046-3.786s.663-.396 2.306-.396c3.424 0 3.821 1.277 3.288 4.358l-.354 2.024c1.73-2.862 5.106-6.382 8.703-6.382 2.8 0 4.575 1.806 4.575 4.532 0 .97-.178 2.246-.398 3.566l-1.067 6.204c-.4 2.156-.044 3.87 1.82 3.87 1.865 0 3.508-1.538 4.665-3.827.575 0 .975.353.841 1.145-.356 2.245-3.685 6.51-7.814 6.51-3.333 0-5.376-2.198-5.376-5.498 0-1.143.4-3.567.668-5.018l.843-4.837z" fill="#FDDE66"/><path d="M223.916 149.765c-.492 2.81-.044 3.836-.044 3.836s-.675.399-2.342.399c-3.47 0-3.874-1.292-3.332-4.413l4.999-28.352c.496-2.807.046-3.832.046-3.832s.673-.403 2.34-.403c3.472 0 3.876 1.294 3.334 4.413l-3.695 20.91h1.804c1.216 0 2.16-1.472 2.702-2.541l1.758-3.567c1.802-3.61 3.245-4.503 5.18-4.503 1.846 0 2.928 1.205 2.928 3.03 0 1.963-1.575 3.078-1.575 3.078s-.405-1.605-2.163-1.605c-1.354 0-2.343.937-3.152 2.674l-.768 1.605c-.361.802-.9 1.516-1.575 2.008 1.666.399 2.566 1.47 3.063 2.897l.494 1.56c.633 2.006 1.533 3.164 3.38 3.164 1.936 0 3.827-1.828 4.818-3.878.588 0 .994.357.858 1.16-.406 2.36-3.83 6.595-8.062 6.595-3.02 0-5.184-1.649-6.264-5.213l-.72-2.363c-.407-1.25-.949-1.916-2.165-1.916h-.945l-.902 5.257z" fill="#FDDE66"/><path d="M253.533 144.726c3.348 1.671 4.543 3.475 4.543 5.807 0 3.477-3.075 6.467-9.726 6.467-5.87 0-8.35-2.905-8.35-5.19 0-1.673 1.422-2.64 3.03-2.64 1.557 0 2.199.615 2.199.615s-.227.483-.227 1.275c0 2.158 1.19 3.697 3.806 3.74 2.613 0 3.854-1.318 3.854-2.772 0-1.055-.599-1.936-2.248-2.772l-4.496-2.287c-2.202-1.144-3.99-2.552-3.99-5.5 0-3.566 3.21-6.469 9.724-6.469 5.69 0 8.348 2.903 8.348 5.194 0 1.67-1.422 2.637-3.026 2.637-1.56 0-2.203-.614-2.203-.614s.23-.485.23-1.277c0-2.067-1.332-3.74-3.9-3.74-2.524 0-3.76 1.231-3.76 2.774 0 1.275.734 2.023 2.247 2.772l3.945 1.98zm-92.586 27.96l.78-4.361c1.327-7.52 4.89-10.325 10.102-10.325 4.114 0 6.171 2.361 6.171 5.03 0 2.716-1.646 4.63-4.024 4.63-1.645 0-2.238-1.07-2.238-1.07s1.872-1.824 1.872-4.405c0-1.38-.73-1.96-1.781-1.96-1.415 0-3.108 1.47-3.931 6.231l-1.099 6.23h4.573s.319.356.319.933c0 .757-.55 1.292-1.553 1.292h-3.75l-4.187 23.257c-1.054 5.827-3.615 7.832-7.498 7.832-2.378 0-3.703-1.113-3.703-2.54 0-.932.366-1.243.366-1.243s.593.577 1.6.577c1.691 0 2.833-1.111 3.473-4.672l4.099-23.211h-2.927s-.317-.357-.317-.935c0-.755.547-1.29 1.55-1.29h2.103zm25.11 5.86c-.227-2.202-1.27-3.39-2.947-3.39-2.267 0-4.629 2.246-5.898 8.801-.227 1.145-.408 3.432-.408 4.533 0 2.772 1.09 4.31 2.994 4.31 2.45 0 4.49-2.509 5.669-7.787-1.135-.834-1.722-2.024-1.722-3.477 0-1.495.816-2.685 2.312-2.99m5.85 2.86c0 .967-.091 1.892-.228 2.773 3.404-.487 5.488-3.433 5.488-3.433.591 0 .908.437.818 1.099-.274 1.538-3.13 3.916-6.757 4.356-1.543 5.237-5.716 8.799-11.883 8.799-4.808 0-8.345-2.946-8.345-8.403 0-7.964 4.808-13.597 12.563-13.597 5.304 0 8.345 3.39 8.345 8.405" fill="#FDDE66"/><path d="M202.75 179.295c2.81-4.752 5.757-6.295 7.732-6.295 2.153 0 3.518 1.19 3.518 3.433 0 2.464-1.493 4.224-3.648 4.224a7.238 7.238 0 0 1-1.978-.264s.572-1.011.572-2.2c0-.617-.263-.968-.924-.968-.702 0-1.669.573-3.118 2.598-1.671 2.33-3.12 5.06-4.176 11.263-.437 2.595 0 3.52 0 3.52s-.657.394-2.284.394c-3.386 0-3.78-1.275-3.251-4.356l2.33-13.464c.482-2.77.04-3.784.04-3.784s.66-.396 2.287-.396c3.383 0 3.78 1.41 3.253 4.356l-.352 1.939zm-88.217 39.432c3.348 1.671 4.541 3.475 4.541 5.808 0 3.477-3.073 6.465-9.724 6.465-5.873 0-8.35-2.903-8.35-5.188 0-1.675 1.42-2.644 3.028-2.644 1.556 0 2.2.616 2.2.616s-.226.485-.226 1.277c0 2.157 1.19 3.698 3.804 3.741 2.613 0 3.854-1.319 3.854-2.772 0-1.056-.597-1.937-2.246-2.773l-4.496-2.287c-2.202-1.144-3.992-2.552-3.992-5.5 0-3.567 3.21-6.47 9.726-6.47 5.687 0 8.348 2.903 8.348 5.194 0 1.671-1.422 2.638-3.028 2.638-1.559 0-2.203-.614-2.203-.614s.232-.485.232-1.277c0-2.068-1.334-3.741-3.9-3.741-2.524 0-3.763 1.232-3.763 2.772 0 1.276.735 2.026 2.248 2.773l3.947 1.982zm34.598 4.518c.575 0 .977.357.843 1.16-.446 2.36-3.685 6.595-7.816 6.595-3.332 0-5.374-2.227-5.374-5.569 0-1.16.31-2.9.665-5.085l.846-4.901c.353-2.14-.09-2.808-1.065-2.808-2.8 0-7.063 6.64-8.396 14.128-.49 2.81-.044 3.836-.044 3.836s-.666.399-2.309.399c-3.421 0-3.819-1.292-3.287-4.413l4.93-28.352c.488-2.807.042-3.832.042-3.832s.668-.403 2.31-.403c3.422 0 3.822 1.292 3.288 4.413l-2.932 16.763c1.733-2.897 5.062-6.463 8.706-6.463 2.798 0 4.574 1.827 4.574 4.592 0 .98-.177 2.272-.4 3.61l-1.067 6.285c-.443 2.498.134 3.922 1.821 3.922 1.735 0 3.378-1.292 4.665-3.877" fill="#FDDE66"/><path d="M163.056 214.546c-.224-2.202-1.269-3.39-2.946-3.39-2.265 0-4.627 2.246-5.896 8.801-.226 1.145-.408 3.432-.408 4.533 0 2.774 1.09 4.31 2.991 4.31 2.454 0 4.492-2.509 5.672-7.787-1.135-.834-1.723-2.024-1.723-3.477 0-1.495.815-2.685 2.31-2.99m5.851 2.86c0 .97-.09 1.892-.226 2.773 3.404-.487 5.487-3.433 5.487-3.433.59 0 .908.437.816 1.1-.271 1.537-3.13 3.915-6.754 4.357-1.545 5.237-5.719 8.797-11.883 8.797-4.81 0-8.347-2.946-8.347-8.403 0-7.964 4.808-13.597 12.565-13.597 5.303 0 8.342 3.39 8.342 8.405" fill="#FDDE66"/><path d="M202.726 221.102c-.58 1.715-1.248 3.257-1.96 4.356-2.047 3.257-4.271 5.542-7.831 5.542-3.158 0-5.292-1.89-6.141-4.885-1.736 2.774-4.137 4.885-7.253 4.885-4.449 0-6.541-3.079-6.541-8.138 0-2.156.268-4.663.713-7.482l.356-2.2c.447-2.77.044-3.784.044-3.784s.67-.396 2.313-.396c3.428 0 3.828 1.275 3.294 4.356l-.623 3.566c-.4 2.241-.533 4.09-.533 5.499 0 3.61 1.156 4.752 3.068 4.752 2.18 0 3.872-2.376 4.805-6.027.09-1.806.315-3.871.623-5.766l.356-2.2c.491-2.77.049-3.784.049-3.784s.664-.396 2.312-.396c3.426 0 3.824 1.275 3.294 4.356l-.625 3.566c-.444 2.461-.578 4.18-.578 5.675 0 3.257 1.113 4.576 3.115 4.576 2.625 0 4.806-3.301 5.472-8.404-1.247-1.803-1.958-3.962-1.958-6.512 0-1.89 1.204-3.257 3.028-3.257 1.557 0 2.803.968 2.803 3.299 0 1.98-.357 4.314-.937 6.47.624.836 1.601 1.452 3.027 1.452 3.382 0 4.762-3.475 4.762-3.475.71 0 .889.614.798 1.1-.264 1.537-2.222 4.311-5.872 4.311a5.938 5.938 0 0 1-3.38-1.055" fill="#FDDE66"/><path d="M214.4 199c1.664 0 2.715 1.197 2.715 2.792 0 1.552-1.226 3.056-3.153 3.056-1.578 0-2.629-1.107-2.629-2.657 0-1.817 1.402-3.191 3.067-3.191zm-4.603 14.05c.483-2.835.045-3.814.045-3.814s.657-.397 2.278-.397c3.374 0 3.769 1.284 3.244 4.388l-1.708 10.018c-.44 2.66.306 3.9 1.884 3.9 1.489 0 3.463-1.464 4.599-3.858.574 0 .966.355.836 1.155-.438 2.348-3.595 6.558-7.845 6.558-3.024 0-5.13-1.995-5.13-5.539 0-.887.087-2.437.396-4.21l1.4-8.202z" fill="#FDDE66"/><path d="M235.295 215.647c.354-2.115-.09-2.772-1.067-2.772-2.8 0-7.017 6.554-8.394 13.945-.49 2.774-.044 3.786-.044 3.786s-.665.394-2.31.394c-3.42 0-3.819-1.275-3.285-4.356l2.354-13.462c.488-2.772.044-3.786.044-3.786s.665-.396 2.308-.396c3.422 0 3.82 1.277 3.288 4.358l-.356 2.024c1.733-2.86 5.108-6.382 8.705-6.382 2.798 0 4.573 1.806 4.573 4.532 0 .97-.178 2.246-.398 3.566l-1.067 6.204c-.398 2.156-.042 3.87 1.82 3.87 1.867 0 3.51-1.538 4.665-3.827.575 0 .977.353.843 1.145-.356 2.245-3.687 6.51-7.816 6.51-3.331 0-5.376-2.198-5.376-5.498 0-1.143.402-3.567.668-5.018l.845-4.837z" fill="#FDDE66"/><path d="M259.667 216.289l.4-2.105c-.4-.89-1.244-2.144-2.932-2.144-3.022 0-6.445 4.514-6.445 11.712 0 2.505.977 3.71 2.621 3.71 3.156 0 5.512-6.703 6.356-11.173zm-2.844 16.852c-2.934 1.519-4.978 2.814-6.268 4.112-1.733 1.7-2.623 3.22-2.623 4.784 0 1.163.67 2.012 2.048 2.012 3.11 0 5.51-3.754 6.843-10.908zm6.043-2.281c-1.775 10.328-5.865 16.14-12.442 16.14-3.022 0-4.978-1.923-4.978-4.693 0-2.64 1.554-5.054 3.732-6.93 2.177-1.922 4.49-3.266 8.135-5.05l.532-3.177c-1.778 2.772-4 4.2-6.312 4.2-3.643 0-6.533-2.456-6.533-7.688 0-9.969 5.777-14.662 10.977-14.662 2.224 0 3.778.893 4.8 2.19.711-1.61 1.821-2.19 4-2.19 1.511 0 2.223.447 2.223.447s-.624.804-1.022 3.218l-3.112 18.195zm-88.38 28.145c-.641 1.232-1.324 2.33-2.056 3.257-1.922 2.507-3.93 3.738-6.445 3.738-3.064 0-4.985-2.067-4.985-5.104 0-1.63.14-3.124.55-5.413l1.324-7.304c.506-2.77.047-3.783.047-3.783s.685-.396 2.376-.396c3.52 0 3.936 1.277 3.387 4.356l-1.831 10.164c-.46 2.509.183 3.65 1.507 3.65 1.006 0 2.198-1.185 3.385-2.945 1.966-2.86 3.93-7.569 4.616-11.483.411-2.421 0-3.346 0-3.346s.685-.396 2.378-.396c3.52 0 3.931 1.277 3.382 4.356l-1.782 9.944c-.458 2.642.32 3.87 1.965 3.87 1.555 0 3.612-1.45 4.8-3.826.594 0 1.007.352.87 1.144-.46 2.33-3.749 6.512-8.184 6.512-3.154 0-5.349-1.982-5.349-5.5 0-.396 0-.881.046-1.495" fill="#FDDE66"/><path d="M192.196 259.692l-.317 1.698c.592.94 1.64 1.925 3.47 1.925 3.468 0 6.804-5.365 6.804-12.296 0-2.547-.822-3.575-2.328-3.575-1.371 0-2.695 1.117-4.249 3.53-1.276 2.013-2.556 4.65-3.38 8.718zm1.872-10.461c1.92-3.398 4.478-5.231 7.353-5.231 4.248 0 6.579 2.951 6.579 7.598 0 8.945-5.438 14.755-11.28 14.755-2.194 0-4.02-.847-5.3-2.19l-2.42 13.59c-.504 2.817-.045 3.847-.045 3.847s-.685.4-2.374.4c-3.519 0-3.93-1.296-3.38-4.426l5.205-29.327c.501-2.817.047-3.845.047-3.845s.685-.402 2.374-.402c3.516 0 3.925 1.298 3.38 4.426l-.14.805zm22.65 5.286c-.99 3.597-.812 5.239-.812 5.239s-.404.318-1.125.318c-.989 0-1.576-.593-1.576-2.143 0-1 .046-1.73.227-3.505l1.217-13.687c.136-1.14.18-2.052.18-2.69 0-1.139-.133-1.594-.133-1.594s.722-.455 2.568-.455c2.52 0 3.736.865 3.736 2.822 0 .595-.136 1.325-.36 2.143l-3.922 13.552zm-2.567 7.471c1.712 0 2.792 1.228 2.792 2.868 0 1.594-1.26 3.144-3.242 3.144-1.623 0-2.701-1.14-2.701-2.734 0-1.868 1.439-3.278 3.15-3.278z" fill="#FDDE66"/></g></svg>
