
<svg viewBox="0 0 64.7 19.4" xmlns="http://www.w3.org/2000/svg"><path d="M-.6 2h65.8v17.4H-.6z" opacity=".2"/><path d="M-.6 0h65.8v17.4H-.6z" fill="#ef1100"/><g fill="#fff"><path d="M-.6 14.7h65.8v1H-.6zm0-13.1h65.8v1H-.6zM7 12.8H3.4c-.1 0-.3 0-.3-.1-.1-.1-.1-.2-.1-.3V11c0-.1 0-.2.1-.3s.2-.1.3-.1h3.1c.1 0 .2 0 .2-.1s.1-.1.1-.2 0-.2-.1-.3c0-.1-.1-.1-.2-.1l-1.7-.2c-.5-.1-1-.3-1.3-.5-.3-.3-.5-.8-.5-1.5V6.5c0-.6.2-1.1.6-1.5.4-.3 1-.5 1.7-.5h3.2c.1 0 .3 0 .3.1.2.1.2.2.2.3v1.4c0 .1 0 .2-.1.3s-.2.1-.3.1H5.9c-.1 0-.2 0-.2.1-.1.1-.1.2-.1.3s0 .2.1.3.1.1.2.1l1.7.2c.5.1 1 .3 1.3.5s.5.7.5 1.4v1.2c0 .7-.2 1.2-.6 1.5-.5.3-1 .5-1.8.5zm10.7-2.2c0 .4-.1.7-.2 1s-.3.5-.6.7-.6.4-1.1.5-1.1.2-1.8.2-1.3-.1-1.8-.2-.8-.3-1.1-.5-.4-.4-.6-.7c-.1-.3-.2-.6-.2-1V6.7c0-.4.1-.7.2-1 .3-.2.5-.5.7-.7.3-.2.6-.4 1.1-.5s1.1-.2 1.8-.2 1.3.1 1.8.2c.4.1.8.3 1.1.5s.4.5.6.7c.1.3.2.6.2 1v3.9zm-4.6-.4c0 .2.1.3.2.4s.4.2.8.2.7-.1.8-.2.2-.2.2-.4V7.1c0-.1-.1-.3-.2-.4s-.4-.2-.8-.2-.7.1-.8.2-.2.3-.2.4zm12.3 2.6h-5.8c-.1 0-.3 0-.3-.1-.1-.1-.1-.2-.1-.3V4.9c0-.1 0-.3.1-.3.1-.1.2-.1.3-.1h1.8c.1 0 .3 0 .3.1.1.1.1.2.1.3v5.7h1.6V8.8c0-.1 0-.2.1-.3s.2-.1.3-.1h1.7c.1 0 .3 0 .3.1.1.1.1.2.1.3v3.6c0 .1 0 .3-.1.3-.2.1-.3.1-.4.1zm6 0h-3.9c-.1 0-.3 0-.3-.1-.1-.1-.1-.2-.1-.3V4.9c0-.1 0-.3.1-.3.1-.1.2-.1.3-.1h3.9c1 0 1.7.2 2.1.6.5.4.7 1 .7 1.8v3.6c0 .8-.2 1.4-.7 1.8-.4.3-1.2.5-2.1.5zm-1.7-6.1v3.9h1.4c.2 0 .3 0 .4-.1s.1-.2.1-.4V7.3c0-.2 0-.3-.1-.4s-.2-.1-.4-.1h-1.4zm15.6 3.9c0 .4-.1.7-.2 1s-.3.5-.6.7-.6.4-1.1.5c-.4.1-1 .2-1.7.2s-1.3-.1-1.8-.2-.8-.3-1.1-.5-.4-.4-.6-.7c-.1-.3-.2-.6-.2-1V6.7c0-.4.1-.7.2-1s.3-.5.6-.7.6-.4 1.1-.5 1.1-.2 1.8-.2 1.3.1 1.8.2.8.3 1.1.5.4.5.6.7c.1.3.2.6.2 1v3.9zm-4.6-.4c0 .2.1.3.2.4s.4.2.8.2.7-.1.8-.2.2-.2.2-.4V7.1c0-.1-.1-.3-.2-.4s-.4-.2-.8-.2-.7.1-.8.2-.2.3-.2.4zm13.1.4c0 .4-.1.7-.2 1s-.3.5-.6.7-.6.4-1.1.5-1 .2-1.8.2-1.3-.1-1.8-.2-.8-.3-1.1-.5-.4-.4-.6-.7c-.1-.3-.2-.6-.2-1V4.9c0-.1 0-.3.1-.3.1-.1.2-.1.3-.1h1.8c.1 0 .3 0 .3.1.1.1.1.2.1.3v5.2c0 .2.1.3.2.4s.4.2.8.2.7-.1.8-.2.2-.2.2-.4V4.9c0-.1 0-.3.1-.3.1-.1.2-.1.3-.1h1.7c.1 0 .3 0 .3.1.1.1.1.2.1.3v5.7zm5.4 2.2h-1.9c-.1 0-.3 0-.3-.1-.1-.1-.1-.2-.1-.3V6.7h-1.7c-.1 0-.3 0-.3-.1-.1-.1-.1-.2-.1-.3V4.9c0-.1 0-.3.1-.3.1-.1.2-.1.3-.1h6.1c.1 0 .3 0 .3.1.1.1.1.2.1.3v1.4c0 .1 0 .3-.1.3-.1.1-.2.1-.3.1h-1.7v5.6c0 .1 0 .3-.1.3-.1.2-.2.2-.3.2z"/></g></svg>
