
<svg xmlns="http://www.w3.org/2000/svg" viewBox="0 0 1466 947"><path fill="rgba(0, 0, 0, .14)" d="M703.6 159.4c-9.3 0-16.9-7.6-16.9-16.9 0-9.3 7.6-16.9 16.9-16.9 9.3 0 16.9 7.6 16.9 16.9 0 9.3-7.6 16.9-16.9 16.9m0 440c-9.3 0-16.9-7.6-16.9-16.9 0-9.3 7.6-16.9 16.9-16.9 9.3 0 16.9 7.6 16.9 16.9 0 9.4-7.6 16.9-16.9 16.9M594.5 160.3c-9.3 0-16.9-7.6-16.9-16.9 0-9.3 7.6-16.9 16.9-16.9 9.3 0 16.9 7.6 16.9 16.9 0 9.4-7.5 16.9-16.9 16.9m0 439.1c-9.3 0-16.9-7.6-16.9-16.9 0-9.3 7.6-16.9 16.9-16.9 9.3 0 16.9 7.6 16.9 16.9 0 9.4-7.5 16.9-16.9 16.9m-111-440c-9.3 0-16.9-7.6-16.9-16.9 0-9.3 7.6-16.9 16.9-16.9s16.9 7.6 16.9 16.9c0 9.3-7.5 16.9-16.9 16.9m0 440c-9.3 0-16.9-7.6-16.9-16.9 0-9.3 7.6-16.9 16.9-16.9s16.9 7.6 16.9 16.9c0 9.4-7.5 16.9-16.9 16.9M703.6 50.3c-9.3 0-16.9-7.6-16.9-16.9 0-9.3 7.6-16.9 16.9-16.9 9.3 0 16.9 7.6 16.9 16.9 0 9.4-7.6 16.9-16.9 16.9m0 440.1c-9.3 0-16.9-7.6-16.9-16.9 0-9.3 7.6-16.9 16.9-16.9 9.3 0 16.9 7.6 16.9 16.9 0 9.3-7.6 16.9-16.9 16.9M594.5 50.3c-9.3 0-16.9-7.6-16.9-16.9 0-9.3 7.6-16.9 16.9-16.9 9.3 0 16.9 7.6 16.9 16.9 0 9.4-7.5 16.9-16.9 16.9m0 440.1c-9.3 0-16.9-7.6-16.9-16.9 0-9.3 7.6-16.9 16.9-16.9 9.3 0 16.9 7.6 16.9 16.9 0 9.3-7.5 16.9-16.9 16.9m-111-440.1c-9.3 0-16.9-7.6-16.9-16.9 0-9.3 7.6-16.9 16.9-16.9s16.9 7.6 16.9 16.9c0 9.4-7.5 16.9-16.9 16.9m0 440.1c-9.3 0-16.9-7.6-16.9-16.9 0-9.3 7.6-16.9 16.9-16.9s16.9 7.6 16.9 16.9c0 9.3-7.5 16.9-16.9 16.9m55-276c-9.3 0-16.9-7.6-16.9-16.9 0-9.3 7.6-16.9 16.9-16.9 9.3 0 16.9 7.6 16.9 16.9 0 9.3-7.5 16.9-16.9 16.9m0 441c-9.3 0-16.9-7.6-16.9-16.9 0-9.3 7.6-16.9 16.9-16.9 9.3 0 16.9 7.6 16.9 16.9 0 9.4-7.5 16.9-16.9 16.9m109.1-441c-9.3 0-16.9-7.6-16.9-16.9 0-9.3 7.6-16.9 16.9-16.9 9.3 0 16.9 7.6 16.9 16.9 0 9.3-7.6 16.9-16.9 16.9m0 441c-9.3 0-16.9-7.6-16.9-16.9 0-9.3 7.6-16.9 16.9-16.9 9.3 0 16.9 7.6 16.9 16.9 0 9.4-7.6 16.9-16.9 16.9M538.5 105.3c-9.3 0-16.9-7.6-16.9-16.9 0-9.3 7.6-16.9 16.9-16.9 9.3 0 16.9 7.6 16.9 16.9 0 9.4-7.5 16.9-16.9 16.9m0 439.1c-9.3 0-16.9-7.6-16.9-16.9 0-9.3 7.6-16.9 16.9-16.9 9.3 0 16.9 7.6 16.9 16.9 0 9.4-7.5 16.9-16.9 16.9m109.1-439.1c-9.3 0-16.9-7.6-16.9-16.9 0-9.3 7.6-16.9 16.9-16.9 9.3 0 16.9 7.6 16.9 16.9 0 9.4-7.6 16.9-16.9 16.9m0 439.1c-9.3 0-16.9-7.6-16.9-16.9 0-9.3 7.6-16.9 16.9-16.9 9.3 0 16.9 7.6 16.9 16.9 0 9.4-7.6 16.9-16.9 16.9m56 386c-9.3 0-16.9-7.6-16.9-16.9 0-9.3 7.6-16.9 16.9-16.9 9.3 0 16.9 7.6 16.9 16.9 0 9.4-7.6 16.9-16.9 16.9m-109.1 0c-9.3 0-16.9-7.6-16.9-16.9 0-9.3 7.6-16.9 16.9-16.9 9.3 0 16.9 7.6 16.9 16.9 0 9.4-7.5 16.9-16.9 16.9m-111 0c-9.3 0-16.9-7.6-16.9-16.9 0-9.3 7.6-16.9 16.9-16.9s16.9 7.6 16.9 16.9c0 9.4-7.5 16.9-16.9 16.9m220.1-551c-9.3 0-16.9-7.6-16.9-16.9 0-9.3 7.6-16.9 16.9-16.9 9.3 0 16.9 7.6 16.9 16.9 0 9.3-7.6 16.9-16.9 16.9m0 440.1c-9.3 0-16.9-7.6-16.9-16.9 0-9.3 7.6-16.9 16.9-16.9 9.3 0 16.9 7.6 16.9 16.9 0 9.3-7.6 16.9-16.9 16.9M594.5 380.4c-9.3 0-16.9-7.6-16.9-16.9 0-9.3 7.6-16.9 16.9-16.9 9.3 0 16.9 7.6 16.9 16.9 0 9.3-7.5 16.9-16.9 16.9m0 439.1c-9.3 0-16.9-7.6-16.9-16.9 0-9.3 7.6-16.9 16.9-16.9 9.3 0 16.9 7.6 16.9 16.9 0 9.3-7.5 16.9-16.9 16.9m-111-440.1c-9.3 0-16.9-7.6-16.9-16.9 0-9.3 7.6-16.9 16.9-16.9s16.9 7.6 16.9 16.9c0 9.3-7.5 16.9-16.9 16.9m0 440.1c-9.3 0-16.9-7.6-16.9-16.9 0-9.3 7.6-16.9 16.9-16.9s16.9 7.6 16.9 16.9c0 9.3-7.5 16.9-16.9 16.9m220.1-547.2c-9.3 0-16.9-7.6-16.9-16.9 0-9.3 7.6-16.9 16.9-16.9 9.3 0 16.9 7.6 16.9 16.9 0 9.3-7.6 16.9-16.9 16.9m0 438.1c-9.3 0-16.9-7.6-16.9-16.9 0-9.3 7.6-16.9 16.9-16.9 9.3 0 16.9 7.6 16.9 16.9 0 9.4-7.6 16.9-16.9 16.9m-109.1-440c-9.3 0-16.9-7.6-16.9-16.9 0-9.3 7.6-16.9 16.9-16.9 9.3 0 16.9 7.6 16.9 16.9 0 9.3-7.5 16.9-16.9 16.9m0 438.1c-9.3 0-16.9-7.6-16.9-16.9 0-9.3 7.6-16.9 16.9-16.9 9.3 0 16.9 7.6 16.9 16.9 0 9.3-7.5 16.9-16.9 16.9m-111-436.2c-9.3 0-16.9-7.6-16.9-16.9 0-9.3 7.6-16.9 16.9-16.9s16.9 7.6 16.9 16.9c0 9.3-7.5 16.9-16.9 16.9m0 438.1c-9.3 0-16.9-7.6-16.9-16.9 0-9.3 7.6-16.9 16.9-16.9s16.9 7.6 16.9 16.9c0 9.4-7.5 16.9-16.9 16.9m55-275c-9.3 0-16.9-7.6-16.9-16.9 0-9.3 7.6-16.9 16.9-16.9 9.3 0 16.9 7.6 16.9 16.9 0 9.3-7.5 16.9-16.9 16.9m0 440c-9.3 0-16.9-7.6-16.9-16.9 0-9.3 7.6-16.9 16.9-16.9 9.3 0 16.9 7.6 16.9 16.9 0 9.4-7.5 16.9-16.9 16.9m109.1-440c-9.3 0-16.9-7.6-16.9-16.9 0-9.3 7.6-16.9 16.9-16.9 9.3 0 16.9 7.6 16.9 16.9 0 9.3-7.6 16.9-16.9 16.9m0 440c-9.3 0-16.9-7.6-16.9-16.9 0-9.3 7.6-16.9 16.9-16.9 9.3 0 16.9 7.6 16.9 16.9 0 9.4-7.6 16.9-16.9 16.9m-109.1-551c-9.3 0-16.9-7.6-16.9-16.9 0-9.3 7.6-16.9 16.9-16.9 9.3 0 16.9 7.6 16.9 16.9 0 9.3-7.5 16.9-16.9 16.9m0 440.1c-9.3 0-16.9-7.6-16.9-16.9 0-9.3 7.6-16.9 16.9-16.9 9.3 0 16.9 7.6 16.9 16.9 0 9.3-7.5 16.9-16.9 16.9m109.1-440.1c-9.3 0-16.9-7.6-16.9-16.9 0-9.3 7.6-16.9 16.9-16.9 9.3 0 16.9 7.6 16.9 16.9 0 9.3-7.6 16.9-16.9 16.9m0 440.1c-9.3 0-16.9-7.6-16.9-16.9 0-9.3 7.6-16.9 16.9-16.9 9.3 0 16.9 7.6 16.9 16.9 0 9.3-7.6 16.9-16.9 16.9M262.5 159.4c-9.3 0-16.9-7.6-16.9-16.9 0-9.3 7.6-16.9 16.9-16.9 9.3 0 16.9 7.6 16.9 16.9 0 9.3-7.5 16.9-16.9 16.9m881.1.9c-9.3 0-16.9-7.6-16.9-16.9 0-9.3 7.6-16.9 16.9-16.9 9.3 0 16.9 7.6 16.9 16.9 0 9.4-7.5 16.9-16.9 16.9m222.9 0c-9.3 0-16.9-7.6-16.9-16.9 0-9.3 7.6-16.9 16.9-16.9 9.3 0 16.9 7.6 16.9 16.9 0 9.4-7.5 16.9-16.9 16.9m-1104 439.1c-9.3 0-16.9-7.6-16.9-16.9 0-9.3 7.6-16.9 16.9-16.9 9.3 0 16.9 7.6 16.9 16.9 0 9.4-7.5 16.9-16.9 16.9m881.1 2.9c-9.3 0-16.9-7.6-16.9-16.9 0-9.3 7.6-16.9 16.9-16.9 9.3 0 16.9 7.6 16.9 16.9 0 9.4-7.5 16.9-16.9 16.9m222.9 0c-9.3 0-16.9-7.6-16.9-16.9 0-9.3 7.6-16.9 16.9-16.9 9.3 0 16.9 7.6 16.9 16.9 0 9.4-7.5 16.9-16.9 16.9m-1213-442.9c-9.3 0-16.9-7.6-16.9-16.9 0-9.3 7.6-16.9 16.9-16.9 9.3 0 16.9 7.6 16.9 16.9 0 9.3-7.6 16.9-16.9 16.9m881.1.9c-9.3 0-16.9-7.6-16.9-16.9 0-9.3 7.6-16.9 16.9-16.9s16.9 7.6 16.9 16.9c0 9.4-7.6 16.9-16.9 16.9M153.5 599.4c-9.3 0-16.9-7.6-16.9-16.9 0-9.3 7.6-16.9 16.9-16.9 9.3 0 16.9 7.6 16.9 16.9 0 9.4-7.6 16.9-16.9 16.9m881.1 2.9c-9.3 0-16.9-7.6-16.9-16.9 0-9.3 7.6-16.9 16.9-16.9s16.9 7.6 16.9 16.9c0 9.4-7.6 16.9-16.9 16.9M42.5 159.4c-9.3 0-16.9-7.6-16.9-16.9 0-9.3 7.6-16.9 16.9-16.9s16.9 7.6 16.9 16.9c0 9.3-7.6 16.9-16.9 16.9m882.1.9c-9.3 0-16.9-7.6-16.9-16.9 0-9.3 7.6-16.9 16.9-16.9 9.3 0 16.9 7.6 16.9 16.9-.1 9.4-7.6 16.9-16.9 16.9M42.5 599.4c-9.3 0-16.9-7.6-16.9-16.9 0-9.3 7.6-16.9 16.9-16.9s16.9 7.6 16.9 16.9c0 9.4-7.6 16.9-16.9 16.9m882.1 2.9c-9.3 0-16.9-7.6-16.9-16.9 0-9.3 7.6-16.9 16.9-16.9 9.3 0 16.9 7.6 16.9 16.9-.1 9.4-7.6 16.9-16.9 16.9m-662.1-552c-9.3 0-16.9-7.6-16.9-16.9 0-9.3 7.6-16.9 16.9-16.9 9.3 0 16.9 7.6 16.9 16.9 0 9.4-7.5 16.9-16.9 16.9m881.1 2c-9.3 0-16.9-7.6-16.9-16.9 0-9.3 7.6-16.9 16.9-16.9 9.3 0 16.9 7.6 16.9 16.9 0 9.3-7.5 16.9-16.9 16.9m222.9 0c-9.3 0-16.9-7.6-16.9-16.9 0-9.3 7.6-16.9 16.9-16.9 9.3 0 16.9 7.6 16.9 16.9 0 9.3-7.5 16.9-16.9 16.9m-1104 438.1c-9.3 0-16.9-7.6-16.9-16.9 0-9.3 7.6-16.9 16.9-16.9 9.3 0 16.9 7.6 16.9 16.9 0 9.3-7.5 16.9-16.9 16.9m881.1 0c-9.3 0-16.9-7.6-16.9-16.9 0-9.3 7.6-16.9 16.9-16.9 9.3 0 16.9 7.6 16.9 16.9 0 9.3-7.5 16.9-16.9 16.9m222.9 0c-9.3 0-16.9-7.6-16.9-16.9 0-9.3 7.6-16.9 16.9-16.9 9.3 0 16.9 7.6 16.9 16.9 0 9.3-7.5 16.9-16.9 16.9M153.5 50.3c-9.3 0-16.9-7.6-16.9-16.9 0-9.3 7.6-16.9 16.9-16.9 9.3 0 16.9 7.6 16.9 16.9 0 9.4-7.6 16.9-16.9 16.9m881.1 0c-9.3 0-16.9-7.6-16.9-16.9 0-9.3 7.6-16.9 16.9-16.9s16.9 7.6 16.9 16.9c0 9.4-7.6 16.9-16.9 16.9M153.5 489.4c-9.3 0-16.9-7.6-16.9-16.9 0-9.3 7.6-16.9 16.9-16.9 9.3 0 16.9 7.6 16.9 16.9 0 9.4-7.6 16.9-16.9 16.9m881.1 1c-9.3 0-16.9-7.6-16.9-16.9 0-9.3 7.6-16.9 16.9-16.9s16.9 7.6 16.9 16.9c0 9.3-7.6 16.9-16.9 16.9M42.5 50.3c-9.3 0-16.9-7.6-16.9-16.9 0-9.3 7.6-16.9 16.9-16.9s16.9 7.6 16.9 16.9c0 9.4-7.6 16.9-16.9 16.9m882.1 2c-9.3 0-16.9-7.6-16.9-16.9 0-9.3 7.6-16.9 16.9-16.9 9.3 0 16.9 7.6 16.9 16.9-.1 9.3-7.6 16.9-16.9 16.9M42.5 490.4c-9.3 0-16.9-7.6-16.9-16.9 0-9.3 7.6-16.9 16.9-16.9s16.9 7.6 16.9 16.9c0 9.3-7.6 16.9-16.9 16.9m882.1 0c-9.3 0-16.9-7.6-16.9-16.9 0-9.3 7.6-16.9 16.9-16.9 9.3 0 16.9 7.6 16.9 16.9-.1 9.3-7.6 16.9-16.9 16.9m-828.1-276c-9.3 0-16.9-7.6-16.9-16.9 0-9.3 7.6-16.9 16.9-16.9 9.3 0 16.9 7.6 16.9 16.9 0 9.3-7.5 16.9-16.9 16.9m883.1 1c-9.3 0-16.9-7.6-16.9-16.9 0-9.3 7.6-16.9 16.9-16.9 9.3 0 16.9 7.6 16.9 16.9 0 9.3-7.6 16.9-16.9 16.9m-883.1 440c-9.3 0-16.9-7.6-16.9-16.9 0-9.3 7.6-16.9 16.9-16.9 9.3 0 16.9 7.6 16.9 16.9 0 9.4-7.5 16.9-16.9 16.9m883.1 0c-9.3 0-16.9-7.6-16.9-16.9 0-9.3 7.6-16.9 16.9-16.9 9.3 0 16.9 7.6 16.9 16.9 0 9.4-7.6 16.9-16.9 16.9m-772.1-441c-9.3 0-16.9-7.6-16.9-16.9 0-9.3 7.6-16.9 16.9-16.9 9.3 0 16.9 7.6 16.9 16.9 0 9.3-7.5 16.9-16.9 16.9m882.1 1c-9.3 0-16.9-7.6-16.9-16.9 0-9.3 7.6-16.9 16.9-16.9 9.3 0 16.9 7.6 16.9 16.9 0 9.3-7.6 16.9-16.9 16.9m-882.1 440c-9.3 0-16.9-7.6-16.9-16.9 0-9.3 7.6-16.9 16.9-16.9 9.3 0 16.9 7.6 16.9 16.9 0 9.4-7.5 16.9-16.9 16.9m882.1 0c-9.3 0-16.9-7.6-16.9-16.9 0-9.3 7.6-16.9 16.9-16.9 9.3 0 16.9 7.6 16.9 16.9 0 9.4-7.6 16.9-16.9 16.9m-993.1-552c-9.3 0-16.9-7.6-16.9-16.9 0-9.3 7.6-16.9 16.9-16.9 9.3 0 16.9 7.6 16.9 16.9 0 9.4-7.5 16.9-16.9 16.9m883.1 1.9c-9.3 0-16.9-7.6-16.9-16.9 0-9.3 7.6-16.9 16.9-16.9 9.3 0 16.9 7.6 16.9 16.9 0 9.4-7.6 16.9-16.9 16.9M96.5 544.4c-9.3 0-16.9-7.6-16.9-16.9 0-9.3 7.6-16.9 16.9-16.9 9.3 0 16.9 7.6 16.9 16.9 0 9.4-7.5 16.9-16.9 16.9m883.1 0c-9.3 0-16.9-7.6-16.9-16.9 0-9.3 7.6-16.9 16.9-16.9 9.3 0 16.9 7.6 16.9 16.9 0 9.4-7.6 16.9-16.9 16.9m-772.1-441c-9.3 0-16.9-7.6-16.9-16.9 0-9.3 7.6-16.9 16.9-16.9 9.3 0 16.9 7.6 16.9 16.9 0 9.4-7.5 16.9-16.9 16.9m882.1 1.9c-9.3 0-16.9-7.6-16.9-16.9 0-9.3 7.6-16.9 16.9-16.9 9.3 0 16.9 7.6 16.9 16.9 0 9.4-7.6 16.9-16.9 16.9M207.5 544.4c-9.3 0-16.9-7.6-16.9-16.9 0-9.3 7.6-16.9 16.9-16.9 9.3 0 16.9 7.6 16.9 16.9 0 9.4-7.5 16.9-16.9 16.9m882.1 0c-9.3 0-16.9-7.6-16.9-16.9 0-9.3 7.6-16.9 16.9-16.9 9.3 0 16.9 7.6 16.9 16.9 0 9.4-7.6 16.9-16.9 16.9M262.5 928.5c-9.3 0-16.9-7.6-16.9-16.9 0-9.3 7.6-16.9 16.9-16.9 9.3 0 16.9 7.6 16.9 16.9 0 9.4-7.5 16.9-16.9 16.9m881.1 1.9c-9.3 0-16.9-7.6-16.9-16.9 0-9.3 7.6-16.9 16.9-16.9 9.3 0 16.9 7.6 16.9 16.9 0 9.4-7.5 16.9-16.9 16.9m222.9 0c-9.3 0-16.9-7.6-16.9-16.9 0-9.3 7.6-16.9 16.9-16.9 9.3 0 16.9 7.6 16.9 16.9 0 9.4-7.5 16.9-16.9 16.9m-1214.9-1.9c-9.3 0-16.9-7.6-16.9-16.9 0-9.3 7.6-16.9 16.9-16.9 9.3 0 16.9 7.6 16.9 16.9 0 9.4-7.6 16.9-16.9 16.9m883 1.9c-9.3 0-16.9-7.6-16.9-16.9 0-9.3 7.6-16.9 16.9-16.9s16.9 7.6 16.9 16.9c0 9.4-7.6 16.9-16.9 16.9m-992.1-1.9c-9.3 0-16.9-7.6-16.9-16.9 0-9.3 7.6-16.9 16.9-16.9s16.9 7.6 16.9 16.9c0 9.4-7.6 16.9-16.9 16.9m882.1 1.9c-9.3 0-16.9-7.6-16.9-16.9 0-9.3 7.6-16.9 16.9-16.9 9.3 0 16.9 7.6 16.9 16.9-.1 9.4-7.6 16.9-16.9 16.9m-662.1-551c-9.3 0-16.9-7.6-16.9-16.9 0-9.3 7.6-16.9 16.9-16.9 9.3 0 16.9 7.6 16.9 16.9 0 9.3-7.5 16.9-16.9 16.9m881.1 1c-9.3 0-16.9-7.6-16.9-16.9 0-9.3 7.6-16.9 16.9-16.9 9.3 0 16.9 7.6 16.9 16.9 0 9.3-7.5 16.9-16.9 16.9m222.9 0c-9.3 0-16.9-7.6-16.9-16.9 0-9.3 7.6-16.9 16.9-16.9 9.3 0 16.9 7.6 16.9 16.9 0 9.3-7.5 16.9-16.9 16.9m-1104 439.1c-9.3 0-16.9-7.6-16.9-16.9 0-9.3 7.6-16.9 16.9-16.9 9.3 0 16.9 7.6 16.9 16.9 0 9.3-7.5 16.9-16.9 16.9m881.1 2.9c-9.3 0-16.9-7.6-16.9-16.9 0-9.3 7.6-16.9 16.9-16.9 9.3 0 16.9 7.6 16.9 16.9 0 9.3-7.5 16.9-16.9 16.9m222.9 0c-9.3 0-16.9-7.6-16.9-16.9 0-9.3 7.6-16.9 16.9-16.9 9.3 0 16.9 7.6 16.9 16.9 0 9.3-7.5 16.9-16.9 16.9m-1213-443c-9.3 0-16.9-7.6-16.9-16.9 0-9.3 7.6-16.9 16.9-16.9 9.3 0 16.9 7.6 16.9 16.9 0 9.3-7.6 16.9-16.9 16.9m881.1 1c-9.3 0-16.9-7.6-16.9-16.9 0-9.3 7.6-16.9 16.9-16.9s16.9 7.6 16.9 16.9c0 9.3-7.6 16.9-16.9 16.9M153.5 819.5c-9.3 0-16.9-7.6-16.9-16.9 0-9.3 7.6-16.9 16.9-16.9 9.3 0 16.9 7.6 16.9 16.9 0 9.3-7.6 16.9-16.9 16.9m881.1 2.9c-9.3 0-16.9-7.6-16.9-16.9 0-9.3 7.6-16.9 16.9-16.9s16.9 7.6 16.9 16.9c0 9.3-7.6 16.9-16.9 16.9m-992.1-443c-9.3 0-16.9-7.6-16.9-16.9 0-9.3 7.6-16.9 16.9-16.9s16.9 7.6 16.9 16.9c0 9.3-7.6 16.9-16.9 16.9m882.1 1c-9.3 0-16.9-7.6-16.9-16.9 0-9.3 7.6-16.9 16.9-16.9 9.3 0 16.9 7.6 16.9 16.9-.1 9.3-7.6 16.9-16.9 16.9M42.5 819.5c-9.3 0-16.9-7.6-16.9-16.9 0-9.3 7.6-16.9 16.9-16.9s16.9 7.6 16.9 16.9c0 9.3-7.6 16.9-16.9 16.9m882.1 2.9c-9.3 0-16.9-7.6-16.9-16.9 0-9.3 7.6-16.9 16.9-16.9 9.3 0 16.9 7.6 16.9 16.9-.1 9.3-7.6 16.9-16.9 16.9m-662.1-552c-9.3 0-16.9-7.6-16.9-16.9 0-9.3 7.6-16.9 16.9-16.9 9.3 0 16.9 7.6 16.9 16.9 0 9.3-7.5 16.9-16.9 16.9m881.1 1.9c-9.3 0-16.9-7.6-16.9-16.9 0-9.3 7.6-16.9 16.9-16.9 9.3 0 16.9 7.6 16.9 16.9 0 9.3-7.5 16.9-16.9 16.9m222.9 0c-9.3 0-16.9-7.6-16.9-16.9 0-9.3 7.6-16.9 16.9-16.9 9.3 0 16.9 7.6 16.9 16.9 0 9.3-7.5 16.9-16.9 16.9m-1104 436.2c-9.3 0-16.9-7.6-16.9-16.9 0-9.3 7.6-16.9 16.9-16.9 9.3 0 16.9 7.6 16.9 16.9 0 9.3-7.5 16.9-16.9 16.9m881.1 4.8c-9.3 0-16.9-7.6-16.9-16.9 0-9.3 7.6-16.9 16.9-16.9 9.3 0 16.9 7.6 16.9 16.9 0 9.4-7.5 16.9-16.9 16.9m222.9 0c-9.3 0-16.9-7.6-16.9-16.9 0-9.3 7.6-16.9 16.9-16.9 9.3 0 16.9 7.6 16.9 16.9 0 9.4-7.5 16.9-16.9 16.9m-1213-444.9c-9.3 0-16.9-7.6-16.9-16.9 0-9.3 7.6-16.9 16.9-16.9 9.3 0 16.9 7.6 16.9 16.9 0 9.4-7.6 16.9-16.9 16.9m881.1 3.9c-9.3 0-16.9-7.6-16.9-16.9 0-9.3 7.6-16.9 16.9-16.9s16.9 7.6 16.9 16.9c0 9.3-7.6 16.9-16.9 16.9M153.5 708.5c-9.3 0-16.9-7.6-16.9-16.9 0-9.3 7.6-16.9 16.9-16.9 9.3 0 16.9 7.6 16.9 16.9 0 9.3-7.6 16.9-16.9 16.9m881.1 1.9c-9.3 0-16.9-7.6-16.9-16.9 0-9.3 7.6-16.9 16.9-16.9s16.9 7.6 16.9 16.9c0 9.4-7.6 16.9-16.9 16.9m-992.1-440c-9.3 0-16.9-7.6-16.9-16.9 0-9.3 7.6-16.9 16.9-16.9s16.9 7.6 16.9 16.9c0 9.3-7.6 16.9-16.9 16.9m882.1 1.9c-9.3 0-16.9-7.6-16.9-16.9 0-9.3 7.6-16.9 16.9-16.9 9.3 0 16.9 7.6 16.9 16.9-.1 9.3-7.6 16.9-16.9 16.9M42.5 708.5c-9.3 0-16.9-7.6-16.9-16.9 0-9.3 7.6-16.9 16.9-16.9s16.9 7.6 16.9 16.9c0 9.3-7.6 16.9-16.9 16.9m882.1 4.8c-9.3 0-16.9-7.6-16.9-16.9 0-9.3 7.6-16.9 16.9-16.9 9.3 0 16.9 7.6 16.9 16.9-.1 9.4-7.6 16.9-16.9 16.9M96.5 433.5c-9.3 0-16.9-7.6-16.9-16.9 0-9.3 7.6-16.9 16.9-16.9 9.3 0 16.9 7.6 16.9 16.9 0 9.3-7.5 16.9-16.9 16.9m883.1 1.9c-9.3 0-16.9-7.6-16.9-16.9 0-9.3 7.6-16.9 16.9-16.9 9.3 0 16.9 7.6 16.9 16.9 0 9.3-7.6 16.9-16.9 16.9M96.5 873.5c-9.3 0-16.9-7.6-16.9-16.9 0-9.3 7.6-16.9 16.9-16.9 9.3 0 16.9 7.6 16.9 16.9 0 9.4-7.5 16.9-16.9 16.9m883.1 3.9c-9.3 0-16.9-7.6-16.9-16.9 0-9.3 7.6-16.9 16.9-16.9 9.3 0 16.9 7.6 16.9 16.9 0 9.3-7.6 16.9-16.9 16.9M207.5 433.5c-9.3 0-16.9-7.6-16.9-16.9 0-9.3 7.6-16.9 16.9-16.9 9.3 0 16.9 7.6 16.9 16.9 0 9.3-7.5 16.9-16.9 16.9m882.1 1.9c-9.3 0-16.9-7.6-16.9-16.9 0-9.3 7.6-16.9 16.9-16.9 9.3 0 16.9 7.6 16.9 16.9 0 9.3-7.6 16.9-16.9 16.9M207.5 873.5c-9.3 0-16.9-7.6-16.9-16.9 0-9.3 7.6-16.9 16.9-16.9 9.3 0 16.9 7.6 16.9 16.9 0 9.4-7.5 16.9-16.9 16.9m882.1 3.9c-9.3 0-16.9-7.6-16.9-16.9 0-9.3 7.6-16.9 16.9-16.9 9.3 0 16.9 7.6 16.9 16.9 0 9.3-7.6 16.9-16.9 16.9m-993.1-554c-9.3 0-16.9-7.6-16.9-16.9 0-9.3 7.6-16.9 16.9-16.9 9.3 0 16.9 7.6 16.9 16.9 0 9.4-7.5 16.9-16.9 16.9m883.1 3.9c-9.3 0-16.9-7.6-16.9-16.9 0-9.3 7.6-16.9 16.9-16.9 9.3 0 16.9 7.6 16.9 16.9 0 9.3-7.6 16.9-16.9 16.9M96.5 764.5c-9.3 0-16.9-7.6-16.9-16.9 0-9.3 7.6-16.9 16.9-16.9 9.3 0 16.9 7.6 16.9 16.9 0 9.3-7.5 16.9-16.9 16.9m883.1 2.9c-9.3 0-16.9-7.6-16.9-16.9 0-9.3 7.6-16.9 16.9-16.9 9.3 0 16.9 7.6 16.9 16.9 0 9.3-7.6 16.9-16.9 16.9m-772.1-444c-9.3 0-16.9-7.6-16.9-16.9 0-9.3 7.6-16.9 16.9-16.9 9.3 0 16.9 7.6 16.9 16.9 0 9.4-7.5 16.9-16.9 16.9m882.1 3.9c-9.3 0-16.9-7.6-16.9-16.9 0-9.3 7.6-16.9 16.9-16.9 9.3 0 16.9 7.6 16.9 16.9 0 9.3-7.6 16.9-16.9 16.9M207.5 764.5c-9.3 0-16.9-7.6-16.9-16.9 0-9.3 7.6-16.9 16.9-16.9 9.3 0 16.9 7.6 16.9 16.9 0 9.3-7.5 16.9-16.9 16.9m882.1 2.9c-9.3 0-16.9-7.6-16.9-16.9 0-9.3 7.6-16.9 16.9-16.9 9.3 0 16.9 7.6 16.9 16.9 0 9.3-7.6 16.9-16.9 16.9m-275-607.1c-9.3 0-16.9-7.6-16.9-16.9 0-9.3 7.6-16.9 16.9-16.9 9.3 0 16.9 7.6 16.9 16.9-.1 9.4-7.6 16.9-16.9 16.9m0 439.1c-9.3 0-16.9-7.6-16.9-16.9 0-9.3 7.6-16.9 16.9-16.9 9.3 0 16.9 7.6 16.9 16.9-.1 9.4-7.6 16.9-16.9 16.9m0-549.1c-9.3 0-16.9-7.6-16.9-16.9 0-9.3 7.6-16.9 16.9-16.9 9.3 0 16.9 7.6 16.9 16.9-.1 9.4-7.6 16.9-16.9 16.9m0 440.1c-9.3 0-16.9-7.6-16.9-16.9 0-9.3 7.6-16.9 16.9-16.9 9.3 0 16.9 7.6 16.9 16.9-.1 9.3-7.6 16.9-16.9 16.9m-55.1-276c-9.3 0-16.9-7.6-16.9-16.9 0-9.3 7.6-16.9 16.9-16.9 9.3 0 16.9 7.6 16.9 16.9 0 9.3-7.5 16.9-16.9 16.9m0 441c-9.3 0-16.9-7.6-16.9-16.9 0-9.3 7.6-16.9 16.9-16.9 9.3 0 16.9 7.6 16.9 16.9 0 9.4-7.5 16.9-16.9 16.9m110.1-441c-9.3 0-16.9-7.6-16.9-16.9 0-9.3 7.6-16.9 16.9-16.9 9.3 0 16.9 7.6 16.9 16.9-.1 9.3-7.6 16.9-16.9 16.9m0 441c-9.3 0-16.9-7.6-16.9-16.9 0-9.3 7.6-16.9 16.9-16.9 9.3 0 16.9 7.6 16.9 16.9-.1 9.4-7.6 16.9-16.9 16.9M759.5 105.3c-9.3 0-16.9-7.6-16.9-16.9 0-9.3 7.6-16.9 16.9-16.9 9.3 0 16.9 7.6 16.9 16.9 0 9.4-7.5 16.9-16.9 16.9m0 439.1c-9.3 0-16.9-7.6-16.9-16.9 0-9.3 7.6-16.9 16.9-16.9 9.3 0 16.9 7.6 16.9 16.9 0 9.4-7.5 16.9-16.9 16.9m110.1-439.1c-9.3 0-16.9-7.6-16.9-16.9 0-9.3 7.6-16.9 16.9-16.9 9.3 0 16.9 7.6 16.9 16.9-.1 9.4-7.6 16.9-16.9 16.9m0 439.1c-9.3 0-16.9-7.6-16.9-16.9 0-9.3 7.6-16.9 16.9-16.9 9.3 0 16.9 7.6 16.9 16.9-.1 9.4-7.6 16.9-16.9 16.9m-55 386c-9.3 0-16.9-7.6-16.9-16.9 0-9.3 7.6-16.9 16.9-16.9 9.3 0 16.9 7.6 16.9 16.9-.1 9.4-7.6 16.9-16.9 16.9m0-550c-9.3 0-16.9-7.6-16.9-16.9 0-9.3 7.6-16.9 16.9-16.9 9.3 0 16.9 7.6 16.9 16.9-.1 9.3-7.6 16.9-16.9 16.9m0 439.1c-9.3 0-16.9-7.6-16.9-16.9 0-9.3 7.6-16.9 16.9-16.9 9.3 0 16.9 7.6 16.9 16.9-.1 9.3-7.6 16.9-16.9 16.9m0-549.1c-9.3 0-16.9-7.6-16.9-16.9 0-9.3 7.6-16.9 16.9-16.9 9.3 0 16.9 7.6 16.9 16.9-.1 9.3-7.6 16.9-16.9 16.9m0 438.1c-9.3 0-16.9-7.6-16.9-16.9 0-9.3 7.6-16.9 16.9-16.9 9.3 0 16.9 7.6 16.9 16.9-.1 9.3-7.6 16.9-16.9 16.9m-55.1-273.1c-9.3 0-16.9-7.6-16.9-16.9 0-9.3 7.6-16.9 16.9-16.9 9.3 0 16.9 7.6 16.9 16.9 0 9.3-7.5 16.9-16.9 16.9m0 440c-9.3 0-16.9-7.6-16.9-16.9 0-9.3 7.6-16.9 16.9-16.9 9.3 0 16.9 7.6 16.9 16.9 0 9.4-7.5 16.9-16.9 16.9m110.1-440c-9.3 0-16.9-7.6-16.9-16.9 0-9.3 7.6-16.9 16.9-16.9 9.3 0 16.9 7.6 16.9 16.9-.1 9.3-7.6 16.9-16.9 16.9m0 440c-9.3 0-16.9-7.6-16.9-16.9 0-9.3 7.6-16.9 16.9-16.9 9.3 0 16.9 7.6 16.9 16.9-.1 9.4-7.6 16.9-16.9 16.9m-110.1-551c-9.3 0-16.9-7.6-16.9-16.9 0-9.3 7.6-16.9 16.9-16.9 9.3 0 16.9 7.6 16.9 16.9 0 9.3-7.5 16.9-16.9 16.9m0 440.1c-9.3 0-16.9-7.6-16.9-16.9 0-9.3 7.6-16.9 16.9-16.9 9.3 0 16.9 7.6 16.9 16.9 0 9.3-7.5 16.9-16.9 16.9m110.1-440.1c-9.3 0-16.9-7.6-16.9-16.9 0-9.3 7.6-16.9 16.9-16.9 9.3 0 16.9 7.6 16.9 16.9-.1 9.3-7.6 16.9-16.9 16.9m0 440.1c-9.3 0-16.9-7.6-16.9-16.9 0-9.3 7.6-16.9 16.9-16.9 9.3 0 16.9 7.6 16.9 16.9-.1 9.3-7.6 16.9-16.9 16.9M374.5 159.4c-9.3 0-16.9-7.6-16.9-16.9 0-9.3 7.6-16.9 16.9-16.9 9.3 0 16.9 7.6 16.9 16.9 0 9.3-7.6 16.9-16.9 16.9m882 .9c-9.3 0-16.9-7.6-16.9-16.9 0-9.3 7.6-16.9 16.9-16.9s16.9 7.6 16.9 16.9c0 9.4-7.5 16.9-16.9 16.9m-882 439.1c-9.3 0-16.9-7.6-16.9-16.9 0-9.3 7.6-16.9 16.9-16.9 9.3 0 16.9 7.6 16.9 16.9 0 9.4-7.6 16.9-16.9 16.9m882 2.9c-9.3 0-16.9-7.6-16.9-16.9 0-9.3 7.6-16.9 16.9-16.9s16.9 7.6 16.9 16.9c0 9.4-7.5 16.9-16.9 16.9m-882-552c-9.3 0-16.9-7.6-16.9-16.9 0-9.3 7.6-16.9 16.9-16.9 9.3 0 16.9 7.6 16.9 16.9 0 9.4-7.6 16.9-16.9 16.9m882 0c-9.3 0-16.9-7.6-16.9-16.9 0-9.3 7.6-16.9 16.9-16.9s16.9 7.6 16.9 16.9c0 9.4-7.5 16.9-16.9 16.9m-882 439.1c-9.3 0-16.9-7.6-16.9-16.9 0-9.3 7.6-16.9 16.9-16.9 9.3 0 16.9 7.6 16.9 16.9 0 9.4-7.6 16.9-16.9 16.9m882 1c-9.3 0-16.9-7.6-16.9-16.9 0-9.3 7.6-16.9 16.9-16.9s16.9 7.6 16.9 16.9c0 9.3-7.5 16.9-16.9 16.9m-938-276c-9.3 0-16.9-7.6-16.9-16.9 0-9.3 7.6-16.9 16.9-16.9 9.3 0 16.9 7.6 16.9 16.9 0 9.3-7.6 16.9-16.9 16.9m884 1c-9.3 0-16.9-7.6-16.9-16.9 0-9.3 7.6-16.9 16.9-16.9 9.3 0 16.9 7.6 16.9 16.9 0 9.3-7.6 16.9-16.9 16.9m221 0c-9.3 0-16.9-7.6-16.9-16.9 0-9.3 7.6-16.9 16.9-16.9 9.3 0 16.9 7.6 16.9 16.9 0 9.3-7.6 16.9-16.9 16.9m-1105 440c-9.3 0-16.9-7.6-16.9-16.9 0-9.3 7.6-16.9 16.9-16.9 9.3 0 16.9 7.6 16.9 16.9 0 9.4-7.6 16.9-16.9 16.9m884 0c-9.3 0-16.9-7.6-16.9-16.9 0-9.3 7.6-16.9 16.9-16.9 9.3 0 16.9 7.6 16.9 16.9 0 9.4-7.6 16.9-16.9 16.9m221 0c-9.3 0-16.9-7.6-16.9-16.9 0-9.3 7.6-16.9 16.9-16.9 9.3 0 16.9 7.6 16.9 16.9 0 9.4-7.6 16.9-16.9 16.9m-994-441c-9.3 0-16.9-7.6-16.9-16.9 0-9.3 7.6-16.9 16.9-16.9 9.3 0 16.9 7.6 16.9 16.9 0 9.3-7.6 16.9-16.9 16.9m881.1 1c-9.3 0-16.9-7.6-16.9-16.9 0-9.3 7.6-16.9 16.9-16.9 9.3 0 16.9 7.6 16.9 16.9 0 9.3-7.6 16.9-16.9 16.9m-881.1 440c-9.3 0-16.9-7.6-16.9-16.9 0-9.3 7.6-16.9 16.9-16.9 9.3 0 16.9 7.6 16.9 16.9 0 9.4-7.6 16.9-16.9 16.9m881.1 0c-9.3 0-16.9-7.6-16.9-16.9 0-9.3 7.6-16.9 16.9-16.9 9.3 0 16.9 7.6 16.9 16.9 0 9.4-7.6 16.9-16.9 16.9m-992.1-552c-9.3 0-16.9-7.6-16.9-16.9 0-9.3 7.6-16.9 16.9-16.9 9.3 0 16.9 7.6 16.9 16.9 0 9.4-7.6 16.9-16.9 16.9m884 1.9c-9.3 0-16.9-7.6-16.9-16.9 0-9.3 7.6-16.9 16.9-16.9 9.3 0 16.9 7.6 16.9 16.9 0 9.4-7.6 16.9-16.9 16.9m221 0c-9.3 0-16.9-7.6-16.9-16.9 0-9.3 7.6-16.9 16.9-16.9 9.3 0 16.9 7.6 16.9 16.9 0 9.4-7.6 16.9-16.9 16.9m-1105 439.1c-9.3 0-16.9-7.6-16.9-16.9 0-9.3 7.6-16.9 16.9-16.9 9.3 0 16.9 7.6 16.9 16.9 0 9.4-7.6 16.9-16.9 16.9m884 0c-9.3 0-16.9-7.6-16.9-16.9 0-9.3 7.6-16.9 16.9-16.9 9.3 0 16.9 7.6 16.9 16.9 0 9.4-7.6 16.9-16.9 16.9m221 0c-9.3 0-16.9-7.6-16.9-16.9 0-9.3 7.6-16.9 16.9-16.9 9.3 0 16.9 7.6 16.9 16.9 0 9.4-7.6 16.9-16.9 16.9m-994-441c-9.3 0-16.9-7.6-16.9-16.9 0-9.3 7.6-16.9 16.9-16.9 9.3 0 16.9 7.6 16.9 16.9 0 9.4-7.6 16.9-16.9 16.9m881.1 1.9c-9.3 0-16.9-7.6-16.9-16.9 0-9.3 7.6-16.9 16.9-16.9 9.3 0 16.9 7.6 16.9 16.9 0 9.4-7.6 16.9-16.9 16.9M429.5 544.4c-9.3 0-16.9-7.6-16.9-16.9 0-9.3 7.6-16.9 16.9-16.9 9.3 0 16.9 7.6 16.9 16.9 0 9.4-7.6 16.9-16.9 16.9m881.1 0c-9.3 0-16.9-7.6-16.9-16.9 0-9.3 7.6-16.9 16.9-16.9 9.3 0 16.9 7.6 16.9 16.9 0 9.4-7.6 16.9-16.9 16.9M373.5 928.5c-9.3 0-16.9-7.6-16.9-16.9 0-9.3 7.6-16.9 16.9-16.9 9.3 0 16.9 7.6 16.9 16.9 0 9.4-7.5 16.9-16.9 16.9m882.1 1.9c-9.3 0-16.9-7.6-16.9-16.9 0-9.3 7.6-16.9 16.9-16.9 9.3 0 16.9 7.6 16.9 16.9 0 9.4-7.6 16.9-16.9 16.9m-881.1-551c-9.3 0-16.9-7.6-16.9-16.9 0-9.3 7.6-16.9 16.9-16.9 9.3 0 16.9 7.6 16.9 16.9 0 9.3-7.6 16.9-16.9 16.9m882 1c-9.3 0-16.9-7.6-16.9-16.9 0-9.3 7.6-16.9 16.9-16.9s16.9 7.6 16.9 16.9c0 9.3-7.5 16.9-16.9 16.9m-882 439.1c-9.3 0-16.9-7.6-16.9-16.9 0-9.3 7.6-16.9 16.9-16.9 9.3 0 16.9 7.6 16.9 16.9 0 9.3-7.6 16.9-16.9 16.9m882 2.9c-9.3 0-16.9-7.6-16.9-16.9 0-9.3 7.6-16.9 16.9-16.9s16.9 7.6 16.9 16.9c0 9.3-7.5 16.9-16.9 16.9m-882-554c-9.3 0-16.9-7.6-16.9-16.9 0-9.3 7.6-16.9 16.9-16.9 9.3 0 16.9 7.6 16.9 16.9 0 9.4-7.6 16.9-16.9 16.9m882 3.9c-9.3 0-16.9-7.6-16.9-16.9 0-9.3 7.6-16.9 16.9-16.9s16.9 7.6 16.9 16.9c0 9.3-7.5 16.9-16.9 16.9m-882 436.2c-9.3 0-16.9-7.6-16.9-16.9 0-9.3 7.6-16.9 16.9-16.9 9.3 0 16.9 7.6 16.9 16.9 0 9.3-7.6 16.9-16.9 16.9m882 1.9c-9.3 0-16.9-7.6-16.9-16.9 0-9.3 7.6-16.9 16.9-16.9s16.9 7.6 16.9 16.9c0 9.4-7.5 16.9-16.9 16.9m-938-276.9c-9.3 0-16.9-7.6-16.9-16.9 0-9.3 7.6-16.9 16.9-16.9 9.3 0 16.9 7.6 16.9 16.9 0 9.3-7.6 16.9-16.9 16.9m884 1.9c-9.3 0-16.9-7.6-16.9-16.9 0-9.3 7.6-16.9 16.9-16.9 9.3 0 16.9 7.6 16.9 16.9 0 9.3-7.6 16.9-16.9 16.9m221 0c-9.3 0-16.9-7.6-16.9-16.9 0-9.3 7.6-16.9 16.9-16.9 9.3 0 16.9 7.6 16.9 16.9 0 9.3-7.6 16.9-16.9 16.9m-1105 438.1c-9.3 0-16.9-7.6-16.9-16.9 0-9.3 7.6-16.9 16.9-16.9 9.3 0 16.9 7.6 16.9 16.9 0 9.4-7.6 16.9-16.9 16.9m884 3.9c-9.3 0-16.9-7.6-16.9-16.9 0-9.3 7.6-16.9 16.9-16.9 9.3 0 16.9 7.6 16.9 16.9 0 9.3-7.6 16.9-16.9 16.9m221 0c-9.3 0-16.9-7.6-16.9-16.9 0-9.3 7.6-16.9 16.9-16.9 9.3 0 16.9 7.6 16.9 16.9 0 9.3-7.6 16.9-16.9 16.9m-994-443.9c-9.3 0-16.9-7.6-16.9-16.9 0-9.3 7.6-16.9 16.9-16.9 9.3 0 16.9 7.6 16.9 16.9 0 9.3-7.6 16.9-16.9 16.9m881.1 1.9c-9.3 0-16.9-7.6-16.9-16.9 0-9.3 7.6-16.9 16.9-16.9 9.3 0 16.9 7.6 16.9 16.9 0 9.3-7.6 16.9-16.9 16.9M429.5 873.5c-9.3 0-16.9-7.6-16.9-16.9 0-9.3 7.6-16.9 16.9-16.9 9.3 0 16.9 7.6 16.9 16.9 0 9.4-7.6 16.9-16.9 16.9m881.1 3.9c-9.3 0-16.9-7.6-16.9-16.9 0-9.3 7.6-16.9 16.9-16.9 9.3 0 16.9 7.6 16.9 16.9 0 9.3-7.6 16.9-16.9 16.9m-992.1-554c-9.3 0-16.9-7.6-16.9-16.9 0-9.3 7.6-16.9 16.9-16.9 9.3 0 16.9 7.6 16.9 16.9 0 9.4-7.6 16.9-16.9 16.9m884 3.9c-9.3 0-16.9-7.6-16.9-16.9 0-9.3 7.6-16.9 16.9-16.9 9.3 0 16.9 7.6 16.9 16.9 0 9.3-7.6 16.9-16.9 16.9m221 0c-9.3 0-16.9-7.6-16.9-16.9 0-9.3 7.6-16.9 16.9-16.9 9.3 0 16.9 7.6 16.9 16.9 0 9.3-7.6 16.9-16.9 16.9m-1105 437.2c-9.3 0-16.9-7.6-16.9-16.9 0-9.3 7.6-16.9 16.9-16.9 9.3 0 16.9 7.6 16.9 16.9 0 9.3-7.6 16.9-16.9 16.9m884 2.9c-9.3 0-16.9-7.6-16.9-16.9 0-9.3 7.6-16.9 16.9-16.9 9.3 0 16.9 7.6 16.9 16.9 0 9.3-7.6 16.9-16.9 16.9m221 0c-9.3 0-16.9-7.6-16.9-16.9 0-9.3 7.6-16.9 16.9-16.9 9.3 0 16.9 7.6 16.9 16.9 0 9.3-7.6 16.9-16.9 16.9m-994-444c-9.3 0-16.9-7.6-16.9-16.9 0-9.3 7.6-16.9 16.9-16.9 9.3 0 16.9 7.6 16.9 16.9 0 9.4-7.6 16.9-16.9 16.9m881.1 3.9c-9.3 0-16.9-7.6-16.9-16.9 0-9.3 7.6-16.9 16.9-16.9 9.3 0 16.9 7.6 16.9 16.9 0 9.3-7.6 16.9-16.9 16.9M429.5 764.5c-9.3 0-16.9-7.6-16.9-16.9 0-9.3 7.6-16.9 16.9-16.9 9.3 0 16.9 7.6 16.9 16.9 0 9.3-7.6 16.9-16.9 16.9m881.1 2.9c-9.3 0-16.9-7.6-16.9-16.9 0-9.3 7.6-16.9 16.9-16.9 9.3 0 16.9 7.6 16.9 16.9 0 9.3-7.6 16.9-16.9 16.9"/></svg>
