<svg width="375" height="562" xmlns="http://www.w3.org/2000/svg" xmlns:xlink="http://www.w3.org/1999/xlink"><defs><path id="a" d="M0 .275h302.325V543H0z"/></defs><g transform="rotate(13 68.954 405.376)" fill="none" fill-rule="evenodd"><mask id="b" fill="#fff"><use xlink:href="#a"/></mask><path d="M277.654 309.343c-14.395-21.922-34.107-39.635-57.302-51.57v-14.756c0-8.148-3.475-15.82-9.219-21.26L290.81 15.37a11.088 11.088 0 0 0-1.204-10.274A11.123 11.123 0 0 0 280.44.275h-78.503a11.117 11.117 0 0 0-10.373 7.108l-39.693 102.82-39.697-102.82a11.111 11.111 0 0 0-10.37-7.108H23.298a11.125 11.125 0 0 0-9.166 4.821A11.088 11.088 0 0 0 12.93 15.37l79.56 206.093c-5.926 5.44-9.512 13.214-9.512 21.554v14.243C32.334 282.847 0 334.97 0 392.03 0 475.275 67.81 543 151.164 543c83.35 0 151.161-67.725 151.161-150.97 0-29.513-8.53-58.106-24.671-82.686" fill="#231F20" mask="url(#b)"/><path fill="#EC1D24" d="M139 242h-26.284L23 11h26.284z"/><path fill="#FEFEFE" d="M166 242h-26.284L50 11h26.284z"/><path fill="#20419A" d="M192 242h-26.284L76 11h26.284z"/><path d="M104.637 265.334h96.728V243.37c0-4.799-3.896-8.706-8.679-8.706h-79.369c-4.786 0-8.68 3.907-8.68 8.706v21.964zM211 275H95v-31.63c0-10.128 8.218-18.37 18.317-18.37h79.37c10.097 0 18.313 8.242 18.313 18.37V275z" fill="#FFCB2E"/><path fill="#EC1D24" d="M138.284 242H112l89.716-231H228z"/><path fill="#FEFEFE" d="M165.284 242H139l89.716-231H255z"/><path fill="#20419A" d="M190.284 242H164l89.716-231H280z"/><path d="M271 392c0 66.273-53.726 120-120 120-66.276 0-120-53.727-120-120 0-66.275 53.724-120 120-120 66.274 0 120 53.725 120 120" fill="#FFCB2E"/><path d="M152.077 511.175c-66.403 0-120.233-53.777-120.233-120.116 0-66.335 53.83-120.114 120.233-120.114 66.404 0 120.234 53.779 120.234 120.114 0 66.34-53.83 120.116-120.234 120.116m0-255.175C74.716 256 12 313.774 12 391.06S74.716 531 152.077 531C229.44 531 283 468.346 283 391.06S229.44 256 152.077 256" fill="#FEFEFE"/><path d="M259.13 410.662c5.2-2.827 6.824-9.877 6.824-9.877s-8.03-.814-12.864 2.936c-1.486 1.154-2.855 3.149-3.935 5.045.88-3.995 1.45-8 1.767-11.99 1.97-.364 6.084-1.467 10.183-4.732 4.534-3.613 4.895-10.69 4.895-10.69s-7.886.577-11.913 5.017c-1.212 1.34-2.181 3.448-2.897 5.43a94.766 94.766 0 0 0-.516-12.426c1.78-.645 5.679-2.404 9.166-6.35 3.757-4.254 2.9-11.15 2.9-11.15s-7.516 1.899-10.639 6.866c-1.042 1.655-1.635 4.153-1.973 6.35a101.99 101.99 0 0 0-2.813-12.904c1.516-.846 5.136-3.21 7.931-7.782 2.905-4.745.904-11.25.904-11.25s-6.93 3.104-9.099 8.431c-.796 1.952-.89 4.8-.8 7.109a103.742 103.742 0 0 0-5.133-12.868c1.326-1.084 4.408-3.977 6.318-8.85 1.99-5.071-1.054-11.013-1.054-11.013s-6.155 4.175-7.341 9.683c-.426 1.978-.058 4.674.41 6.862a96.483 96.483 0 0 0-7.266-11.74c1.14-1.353 3.502-4.623 4.486-9.494 1.057-5.234-2.89-10.452-2.89-10.452s-5.234 5.077-5.44 10.595c-.069 1.845.636 4.17 1.4 6.125-2.875-3.601-5.93-6.806-9.089-9.569.822-1.366 2.7-5.02 2.823-10.115.129-5.232-4.575-9.597-4.575-9.597s-4.183 5.788-3.437 11.147c.296 2.126 1.752 4.728 2.987 6.617a105.09 105.09 0 0 0-11.26-8.532c.52-1.288 1.864-5.268 1.079-10.442-.772-5.069-6.054-8.483-6.054-8.483s-3.049 6.294-1.417 11.341c.714 2.205 2.884 4.724 4.456 6.342a95.849 95.849 0 0 0-12.833-6.739c.266-1.208.963-5.359-.72-10.352-1.605-4.764-7.291-7.161-7.291-7.161s-1.864 6.591.57 11.184c1.134 2.143 3.933 4.345 5.731 5.615a81.567 81.567 0 0 0-6.796-2.428c-.816-.996-3.647-4.156-7.06-4.74-2.894-.49-7.761 1.367-7.761 1.367s2.332 3.17 7.043 4.784c3.406 1.169 7.196-.67 7.895-1.038 2.37.83 5.541 2.04 9.263 3.803-1.745-.327-6.432-1.058-9.266-.134-4.944 1.62-8.191 7.656-8.191 7.656s5.758 2.208 10.227-.111c4.996-2.583 7.38-6.352 7.83-7.124a99.711 99.711 0 0 1 13.193 7.667c-2.057-.72-5.89-1.87-8.524-1.493-5.26.748-9.594 6.244-9.594 6.244s5.398 3.236 10.297 1.696c5.155-1.613 8.17-4.684 9.004-5.625a106.387 106.387 0 0 1 11.08 9.026c.28.247.555.512.834.766-1.956-1.093-5.552-2.883-8.23-2.97-5.422-.179-10.75 4.583-10.75 4.583s4.85 4.203 10.05 3.524c5.52-.717 9.11-3.314 10.072-4.086 3.541 3.394 6.908 7.376 10.004 11.812-1.78-1.447-5.055-3.856-7.709-4.412-5.414-1.136-11.611 2.705-11.611 2.705s4.121 5.08 9.467 5.318c5.548.25 9.563-1.635 10.772-2.284a97.218 97.218 0 0 1 7.13 12.603c-1.608-1.753-3.994-4.041-6.174-4.913-5.24-2.101-12.149.662-12.149.662s3.238 5.836 8.569 7.018c5.12 1.143 9.244.21 10.882-.282 1.838 4.17 3.44 8.54 4.74 13.065-1.299-1.97-3.133-4.372-5.011-5.535-4.892-3.032-12.328-1.477-12.328-1.477s2.22 6.433 7.365 8.565c4.8 1.995 9.01 1.856 10.838 1.657a99.538 99.538 0 0 1 2.46 13.767c-.953-2.225-2.387-5.018-4.091-6.54-4.375-3.913-12.127-3.664-12.127-3.664s1.087 6.86 5.883 9.912c4.496 2.865 8.777 3.465 10.631 3.583a91.828 91.828 0 0 1-.03 13.813c-.561-2.414-1.513-5.501-2.964-7.344-3.705-4.71-11.533-5.828-11.533-5.828s-.127 7.084 4.15 11.001c3.992 3.663 8.175 5.023 10.028 5.476a85.705 85.705 0 0 1-2.38 12.446c-.174-2.403-.603-5.276-1.626-7.189-2.889-5.383-10.56-7.894-10.56-7.894s-1.383 7.098 2.212 11.785c3.28 4.274 7.114 6.38 8.958 7.21a85.503 85.503 0 0 1-4.388 11.921c.268-2.468.361-5.496-.34-7.634-1.948-5.923-9.207-9.799-9.207-9.799s-2.654 6.886.13 12.234c2.519 4.852 5.978 7.641 7.691 8.81a92 92 0 0 1-6.154 10.347c.62-2.299 1.116-4.99.816-7.057-.898-6.292-7.504-11.473-7.504-11.473s-3.891 6.45-2.046 12.318c1.605 5.106 4.42 8.461 5.985 10.03a99.95 99.95 0 0 1-7.592 8.854c.956-2.106 1.815-4.52 1.878-6.51.209-6.483-5.51-12.855-5.51-12.855s-5.056 5.795-4.24 12.015c.69 5.31 2.852 9.137 4.154 11.03a102.294 102.294 0 0 1-8.77 7.34c1.295-1.915 2.53-4.12 2.935-6.057 1.365-6.475-3.253-13.892-3.253-13.892s-6.106 4.932-6.394 11.326c-.247 5.446 1.239 9.664 2.211 11.804a95.504 95.504 0 0 1-10.205 5.932c1.756-1.761 3.567-3.914 4.376-5.92 2.515-6.271-.803-14.54-.803-14.54s-7.017 3.877-8.438 10.252c-1.243 5.549-.437 10.124.165 12.397-3.595 1.539-7.166 2.765-10.653 3.67 1.977-1.419 4.008-3.163 5.11-4.933 3.648-5.855 1.775-14.752 1.775-14.752s-7.737 2.652-10.3 8.808c-2.087 5.007-2.226 9.47-2.072 11.984a92.725 92.725 0 0 0-13.767 3.713c-2.827 1-5.39 2.045-7.711 3.097a97.05 97.05 0 0 0-7.71-3.097 92.545 92.545 0 0 0-13.774-3.713c.156-2.516.015-6.98-2.07-11.984-2.565-6.156-10.3-8.808-10.3-8.808s-1.871 8.897 1.774 14.752c1.101 1.77 3.13 3.512 5.106 4.932-3.486-.907-7.053-2.132-10.646-3.67.602-2.273 1.406-6.85.165-12.396-1.424-6.375-8.438-10.252-8.438-10.252s-3.322 8.269-.804 14.54c.806 2.005 2.615 4.153 4.37 5.916a96.23 96.23 0 0 1-10.199-5.932c.973-2.14 2.457-6.357 2.214-11.8-.292-6.394-6.395-11.326-6.395-11.326s-4.623 7.417-3.256 13.892c.403 1.934 1.633 4.137 2.925 6.046a103.594 103.594 0 0 1-8.758-7.331c1.304-1.895 3.463-5.72 4.155-11.028.811-6.22-4.24-12.015-4.24-12.015s-5.722 6.372-5.513 12.855c.063 1.986.92 4.396 1.875 6.499a99.488 99.488 0 0 1-7.585-8.848c1.564-1.57 4.376-4.923 5.981-10.025 1.847-5.868-2.042-12.318-2.042-12.318s-6.612 5.181-7.512 11.473c-.296 2.062.197 4.743.815 7.04a92.627 92.627 0 0 1-6.145-10.335c1.716-1.171 5.168-3.958 7.687-8.805 2.784-5.348.132-12.234.132-12.234s-7.261 3.876-9.209 9.8c-.7 2.132-.608 5.149-.344 7.611a85.44 85.44 0 0 1-4.378-11.902c1.847-.83 5.678-2.935 8.953-7.207 3.594-4.687 2.208-11.785 2.208-11.785s-7.67 2.511-10.553 7.894c-1.023 1.908-1.454 4.773-1.63 7.172a85.788 85.788 0 0 1-2.374-12.43c1.856-.455 6.035-1.817 10.025-5.475 4.274-3.917 4.147-11.001 4.147-11.001s-7.828 1.119-11.533 5.828c-1.445 1.837-2.396 4.917-2.96 7.328a92.098 92.098 0 0 1-.029-13.797c1.86-.12 6.138-.72 10.626-3.583 4.795-3.052 5.88-9.912 5.88-9.912s-7.75-.249-12.122 3.665c-1.7 1.517-3.13 4.295-4.084 6.52a99.749 99.749 0 0 1 2.456-13.746c1.832.197 6.038.332 10.833-1.659 5.148-2.132 7.365-8.565 7.365-8.565s-7.436-1.555-12.326 1.477c-1.873 1.16-3.703 3.55-5.001 5.52a102.75 102.75 0 0 1 4.731-13.048c1.643.491 5.764 1.421 10.879.28 5.33-1.182 8.569-7.018 8.569-7.018s-6.912-2.763-12.151-.662c-2.172.868-4.55 3.143-6.156 4.896a97.155 97.155 0 0 1 7.12-12.584c1.212.653 5.23 2.533 10.764 2.282 5.35-.237 9.47-5.318 9.47-5.318s-6.196-3.84-11.614-2.705c-2.647.555-5.909 2.952-7.69 4.4 3.09-4.432 6.455-8.408 9.989-11.797.969.774 4.558 3.368 10.07 4.083 5.203.679 10.052-3.524 10.052-3.524s-5.33-4.762-10.752-4.583c-2.669.085-6.255 1.87-8.215 2.961.275-.25.547-.512.824-.757a106.305 106.305 0 0 1 11.077-9.022c.837.945 3.852 4.012 9 5.62 4.901 1.54 10.299-1.695 10.299-1.695s-4.334-5.497-9.594-6.244c-2.624-.375-6.448.768-8.509 1.488a99.81 99.81 0 0 1 13.18-7.66c.453.781 2.84 4.542 7.824 7.122 4.47 2.32 10.231.111 10.231.111s-3.249-6.036-8.189-7.656c-2.827-.922-7.5-.197-9.255.13a94.631 94.631 0 0 1 9.251-3.797c.71.373 4.494 2.201 7.894 1.036 4.711-1.615 7.043-4.784 7.043-4.784s-4.863-1.857-7.761-1.368c-3.419.585-6.247 3.752-7.064 4.745a82.27 82.27 0 0 0-6.802 2.427c1.8-1.267 4.607-3.471 5.742-5.618 2.436-4.593.569-11.184.569-11.184s-5.686 2.397-7.287 7.16c-1.689 4.998-.99 9.152-.725 10.357a95.998 95.998 0 0 0-12.841 6.745c1.573-1.618 3.751-4.144 4.464-6.352 1.63-5.047-1.418-11.341-1.418-11.341s-5.28 3.414-6.05 8.483c-.787 5.178.56 9.162 1.079 10.446a105.33 105.33 0 0 0-11.27 8.539c1.236-1.887 2.7-4.496 2.995-6.628.746-5.36-3.435-11.147-3.435-11.147s-4.707 4.365-4.577 9.597c.122 5.101 2.003 8.757 2.823 10.119-3.162 2.767-6.218 5.977-9.097 9.58.767-1.955 1.475-4.29 1.406-6.14-.204-5.518-5.44-10.595-5.44-10.595s-3.945 5.218-2.888 10.452c.984 4.875 3.35 8.148 4.49 9.499a95.975 95.975 0 0 0-7.27 11.746c.468-2.19.836-4.891.41-6.873-1.186-5.508-7.343-9.683-7.343-9.683s-3.04 5.942-1.052 11.013c1.913 4.875 4.997 7.77 6.321 8.851a103.94 103.94 0 0 0-5.137 12.89c.093-2.313 0-5.172-.796-7.132-2.174-5.327-9.106-8.432-9.106-8.432s-2 6.506.908 11.25c2.797 4.577 6.422 6.943 7.934 7.785a102.2 102.2 0 0 0-2.812 12.922c-.338-2.199-.934-4.711-1.979-6.37-3.123-4.967-10.633-6.866-10.633-6.866s-.861 6.896 2.896 11.15c3.491 3.95 7.393 5.707 9.17 6.352a95.037 95.037 0 0 0-.514 12.444c-.714-1.987-1.687-4.105-2.903-5.45-4.027-4.44-11.913-5.017-11.913-5.017s.36 7.077 4.895 10.69c4.103 3.27 8.223 4.371 10.189 4.733a87.608 87.608 0 0 0 1.77 12.002c-1.08-1.9-2.453-3.902-3.94-5.058-4.838-3.75-12.864-2.936-12.864-2.936s1.624 7.05 6.819 9.877c4.767 2.596 9.165 2.95 11.168 2.956a86.876 86.876 0 0 0 3.529 11.14c-1.379-1.637-3.027-3.281-4.647-4.137-5.523-2.913-13.445-.675-13.445-.675s2.881 6.797 8.604 8.721c5.126 1.72 9.51 1.364 11.593 1.02a92.876 92.876 0 0 0 5.749 10.531c-1.728-1.464-3.77-2.919-5.624-3.516-6.067-1.952-13.634 1.698-13.634 1.698s4.105 6.318 10.2 7.238c5.574.843 9.99-.361 11.96-1.068a101.667 101.667 0 0 0 7.662 9.522c-2.038-1.208-4.436-2.371-6.472-2.651-6.443-.89-13.395 4.117-13.395 4.117s5.243 5.625 11.535 5.472c5.8-.14 10.045-2.163 11.875-3.215a106.39 106.39 0 0 0 9.03 8.051c-2.249-.844-4.834-1.575-6.91-1.497-6.63.245-12.73 6.503-12.73 6.503s6.267 4.727 12.561 3.461c5.747-1.156 9.633-3.895 11.316-5.288a99.79 99.79 0 0 0 9.541 6.054c-2.211-.365-4.598-.547-6.456-.148-6.619 1.416-11.637 8.784-11.637 8.784s7.142 3.641 13.243 1.257c5.352-2.092 8.719-5.354 10.251-7.11 3.46 1.64 6.915 3.014 10.315 4.094-2.233.034-4.59.279-6.342.99-6.402 2.595-10.135 10.886-10.135 10.886s7.821 2.397 13.527-1.078c5.19-3.16 8.013-7.202 9.166-9.169 8.11 1.452 14.866 3.71 20.362 6.189-9.963 5.225-14.029 10.055-14.029 10.055l3.538 3.151s4.642-5.63 14.864-11.067C163.226 497.37 167.868 503 167.868 503l3.538-3.15s-4.07-4.83-14.03-10.056c5.496-2.477 12.251-4.737 20.355-6.189 1.155 1.97 3.98 6.01 9.166 9.169 5.708 3.475 13.53 1.078 13.53 1.078s-3.734-8.29-10.138-10.887c-1.748-.71-4.101-.955-6.335-.989 3.398-1.08 6.854-2.453 10.312-4.091 1.532 1.755 4.9 5.015 10.253 7.107 6.097 2.384 13.239-1.257 13.239-1.257s-5.018-7.368-11.637-8.784c-1.857-.399-4.24-.217-6.447.147a100.634 100.634 0 0 0 9.538-6.051c1.68 1.393 5.565 4.13 11.308 5.286 6.292 1.266 12.562-3.46 12.562-3.46s-6.097-6.26-12.73-6.504c-2.071-.078-4.657.653-6.902 1.495a106.13 106.13 0 0 0 9.027-8.047c1.832 1.052 6.078 3.072 11.875 3.213 6.286.153 11.533-5.472 11.533-5.472s-6.956-5.006-13.399-4.117c-2.03.28-4.422 1.44-6.457 2.646 2.71-2.99 5.278-6.163 7.653-9.516 1.974.707 6.387 1.91 11.956 1.067 6.095-.92 10.198-7.238 10.198-7.238s-7.563-3.65-13.632-1.698c-1.85.595-3.885 2.045-5.613 3.507a93.31 93.31 0 0 0 5.746-10.52c2.08.342 6.46.698 11.583-1.022 5.723-1.924 8.608-8.721 8.608-8.721s-7.925-2.238-13.45.675c-1.616.854-3.258 2.49-4.634 4.125a86.702 86.702 0 0 0 3.524-11.128c2.005-.007 6.4-.363 11.162-2.956" fill="#FEFEFE"/><path d="M148.493 513.359c-66.131 0-119.741-53.84-119.741-120.255 0-66.414 53.61-120.256 119.741-120.256 66.134 0 119.742 53.842 119.742 120.256 0 66.415-53.608 120.255-119.742 120.255m0-260.359C71.448 253 26 315.7 26 393.076 26 470.453 71.1 525 148.147 525S288 470.481 288 393.104C288 315.727 225.54 253 148.493 253" fill="#995F04"/><path d="M255.13 412.662c5.198-2.827 6.822-9.877 6.822-9.877s-8.03-.814-12.863 2.936c-1.486 1.154-2.855 3.149-3.936 5.045.88-3.997 1.45-8 1.767-11.99 1.97-.364 6.084-1.467 10.185-4.732 4.532-3.613 4.895-10.692 4.895-10.692s-7.888.579-11.914 5.019c-1.213 1.34-2.182 3.448-2.896 5.43a94.766 94.766 0 0 0-.517-12.426c1.78-.645 5.678-2.404 9.165-6.35 3.757-4.254 2.9-11.15 2.9-11.15s-7.516 1.899-10.639 6.866c-1.041 1.653-1.635 4.153-1.973 6.35a101.99 101.99 0 0 0-2.812-12.904c1.516-.846 5.135-3.21 7.93-7.782 2.905-4.745.904-11.25.904-11.25s-6.93 3.104-9.098 8.431c-.796 1.952-.891 4.8-.8 7.109a103.743 103.743 0 0 0-5.133-12.868c1.328-1.084 4.41-3.977 6.318-8.85 1.99-5.071-1.053-11.013-1.053-11.013s-6.156 4.175-7.343 9.683c-.426 1.978-.058 4.674.411 6.862a96.484 96.484 0 0 0-7.266-11.74c1.14-1.353 3.502-4.623 4.486-9.494 1.056-5.234-2.89-10.452-2.89-10.452s-5.234 5.077-5.44 10.595c-.068 1.845.635 4.17 1.4 6.125-2.876-3.601-5.93-6.806-9.09-9.569.824-1.366 2.701-5.02 2.824-10.115.128-5.232-4.576-9.597-4.576-9.597s-4.182 5.786-3.435 11.147c.294 2.126 1.75 4.728 2.985 6.617a104.904 104.904 0 0 0-11.26-8.532c.521-1.288 1.864-5.27 1.08-10.442-.772-5.069-6.053-8.483-6.053-8.483s-3.05 6.294-1.419 11.341c.714 2.205 2.887 4.724 4.456 6.342a95.95 95.95 0 0 0-12.83-6.739c.263-1.208.96-5.359-.722-10.352-1.606-4.765-7.291-7.161-7.291-7.161s-1.864 6.591.569 11.184c1.136 2.143 3.934 4.345 5.732 5.613a82.14 82.14 0 0 0-6.796-2.426c-.816-.996-3.647-4.156-7.06-4.74-2.894-.49-7.761 1.367-7.761 1.367s2.332 3.17 7.043 4.784c3.405 1.169 7.196-.67 7.897-1.038a94.35 94.35 0 0 1 9.26 3.803c-1.742-.327-6.431-1.058-9.265-.134-4.944 1.62-8.191 7.656-8.191 7.656s5.76 2.208 10.227-.111c4.998-2.583 7.38-6.352 7.83-7.124a99.885 99.885 0 0 1 13.192 7.666c-2.057-.719-5.89-1.869-8.524-1.492-5.26.748-9.59 6.244-9.59 6.244s5.395 3.236 10.294 1.696c5.155-1.613 8.172-4.684 9.003-5.625a106.148 106.148 0 0 1 11.081 9.026c.28.247.555.512.834.766-1.957-1.093-5.552-2.883-8.23-2.97-5.422-.179-10.75 4.583-10.75 4.583s4.85 4.203 10.05 3.524c5.519-.717 9.11-3.314 10.073-4.086 3.54 3.394 6.906 7.376 10.003 11.812-1.78-1.447-5.053-3.856-7.707-4.412-5.416-1.136-11.614 2.705-11.614 2.705s4.122 5.08 9.47 5.318c5.545.25 9.56-1.635 10.77-2.284a97.444 97.444 0 0 1 7.13 12.603c-1.608-1.753-3.995-4.043-6.172-4.913-5.242-2.101-12.151.662-12.151.662s3.238 5.836 8.568 7.018c5.12 1.143 9.246.21 10.883-.284a102.862 102.862 0 0 1 4.739 13.067c-1.299-1.97-3.132-4.372-5.01-5.535-4.892-3.032-12.328-1.477-12.328-1.477s2.219 6.433 7.365 8.565c4.8 1.993 9.01 1.856 10.837 1.657a99.539 99.539 0 0 1 2.461 13.767c-.954-2.225-2.388-5.018-4.092-6.54-4.374-3.913-12.124-3.664-12.124-3.664s1.084 6.86 5.88 9.912c4.498 2.865 8.777 3.465 10.632 3.583a91.829 91.829 0 0 1-.03 13.813c-.562-2.414-1.514-5.501-2.965-7.344-3.705-4.71-11.533-5.828-11.533-5.828s-.124 7.084 4.15 11.001c3.993 3.661 8.178 5.023 10.028 5.476a85.705 85.705 0 0 1-2.38 12.446c-.174-2.403-.601-5.276-1.626-7.189-2.888-5.385-10.559-7.894-10.559-7.894s-1.382 7.098 2.212 11.785c3.279 4.274 7.114 6.38 8.957 7.21a85.733 85.733 0 0 1-4.386 11.921c.266-2.468.361-5.496-.342-7.635-1.945-5.922-9.206-9.798-9.206-9.798s-2.654 6.886.13 12.234c2.518 4.85 5.98 7.64 7.692 8.81a92.46 92.46 0 0 1-6.156 10.347c.62-2.3 1.116-4.99.819-7.057-.9-6.294-7.507-11.473-7.507-11.473s-3.89 6.45-2.046 12.318c1.605 5.106 4.421 8.461 5.985 10.03a100.241 100.241 0 0 1-7.59 8.854c.954-2.106 1.813-4.52 1.877-6.511.208-6.482-5.511-12.856-5.511-12.856s-5.055 5.797-4.239 12.017c.69 5.31 2.851 9.137 4.153 11.03a102.191 102.191 0 0 1-8.767 7.338c1.292-1.913 2.527-4.117 2.935-6.055 1.363-6.475-3.255-13.892-3.255-13.892s-6.106 4.932-6.394 11.326c-.248 5.445 1.238 9.664 2.211 11.804a95.503 95.503 0 0 1-10.205 5.932c1.756-1.763 3.567-3.914 4.376-5.92 2.517-6.271-.803-14.54-.803-14.54s-7.018 3.877-8.439 10.252c-1.242 5.549-.437 10.124.166 12.397-3.595 1.539-7.164 2.763-10.652 3.67 1.976-1.419 4.007-3.163 5.11-4.933 3.647-5.855 1.774-14.752 1.774-14.752s-7.737 2.652-10.3 8.808c-2.085 5.007-2.227 9.47-2.072 11.984a92.724 92.724 0 0 0-13.767 3.713 97.391 97.391 0 0 0-7.711 3.097 97.05 97.05 0 0 0-7.71-3.097 92.543 92.543 0 0 0-13.774-3.713c.157-2.516.017-6.98-2.07-11.984-2.563-6.156-10.3-8.808-10.3-8.808s-1.87 8.897 1.775 14.752c1.1 1.768 3.132 3.512 5.105 4.932a75.36 75.36 0 0 1-10.644-3.67c.6-2.275 1.404-6.85.164-12.396-1.425-6.375-8.439-10.252-8.439-10.252s-3.321 8.269-.803 14.54c.805 2.005 2.615 4.153 4.369 5.916a96.23 96.23 0 0 1-10.198-5.932c.973-2.14 2.459-6.357 2.213-11.8-.292-6.394-6.394-11.326-6.394-11.326s-4.624 7.417-3.257 13.892c.404 1.934 1.633 4.137 2.926 6.046a103.593 103.593 0 0 1-8.758-7.331c1.303-1.895 3.463-5.72 4.155-11.028.81-6.22-4.24-12.017-4.24-12.017s-5.722 6.374-5.514 12.856c.066 1.987.921 4.397 1.875 6.5a99.487 99.487 0 0 1-7.584-8.848c1.564-1.57 4.376-4.923 5.981-10.025 1.847-5.868-2.042-12.318-2.042-12.318s-6.612 5.18-7.51 11.473c-.298 2.062.195 4.743.812 7.04a92.627 92.627 0 0 1-6.145-10.335c1.717-1.171 5.169-3.96 7.687-8.805 2.784-5.348.132-12.234.132-12.234s-7.26 3.876-9.208 9.798c-.7 2.134-.608 5.149-.344 7.613a85.44 85.44 0 0 1-4.378-11.902c1.847-.83 5.678-2.935 8.953-7.207 3.594-4.687 2.208-11.785 2.208-11.785s-7.67 2.51-10.553 7.894c-1.023 1.908-1.454 4.773-1.63 7.172a85.789 85.789 0 0 1-2.374-12.43c1.856-.455 6.035-1.817 10.024-5.475 4.274-3.917 4.148-11.001 4.148-11.001s-7.828 1.119-11.533 5.828c-1.445 1.837-2.396 4.917-2.96 7.328a92.1 92.1 0 0 1-.029-13.797c1.86-.12 6.138-.72 10.625-3.583 4.797-3.052 5.881-9.912 5.881-9.912s-7.75-.249-12.122 3.665c-1.7 1.517-3.13 4.295-4.085 6.52a99.7 99.7 0 0 1 2.457-13.746c1.832.197 6.04.332 10.832-1.659 5.15-2.132 7.365-8.565 7.365-8.565s-7.435-1.555-12.325 1.477c-1.873 1.16-3.701 3.55-5.001 5.52 1.3-4.522 2.897-8.884 4.733-13.048 1.64.491 5.762 1.421 10.877.28 5.33-1.182 8.568-7.018 8.568-7.018s-6.91-2.763-12.15-.662c-2.173.868-4.55 3.143-6.157 4.895a97.255 97.255 0 0 1 7.12-12.583c1.213.653 5.23 2.533 10.765 2.282 5.35-.237 9.47-5.318 9.47-5.318s-6.197-3.84-11.614-2.705c-2.647.555-5.91 2.952-7.691 4.4 3.091-4.432 6.456-8.408 9.991-11.797.967.774 4.557 3.368 10.068 4.083 5.204.679 10.054-3.524 10.054-3.524s-5.332-4.762-10.754-4.583c-2.668.085-6.254 1.87-8.215 2.961.278-.25.547-.512.824-.757a106.259 106.259 0 0 1 11.078-9.022c.837.945 3.852 4.012 9.002 5.62 4.899 1.54 10.296-1.695 10.296-1.695s-4.334-5.497-9.593-6.244c-2.625-.375-6.449.768-8.51 1.488a99.81 99.81 0 0 1 13.18-7.66c.454.781 2.84 4.542 7.824 7.122 4.472 2.32 10.232.111 10.232.111s-3.248-6.036-8.19-7.656c-2.827-.922-7.5-.197-9.254.13a94.164 94.164 0 0 1 9.25-3.797c.711.371 4.494 2.201 7.894 1.036 4.713-1.615 7.043-4.784 7.043-4.784s-4.863-1.857-7.76-1.368c-3.42.585-6.248 3.752-7.065 4.743a82.622 82.622 0 0 0-6.801 2.43c1.8-1.268 4.607-3.472 5.741-5.62 2.437-4.592.57-11.183.57-11.183s-5.686 2.396-7.288 7.16c-1.688 4.998-.99 9.152-.725 10.357a95.997 95.997 0 0 0-12.84 6.745c1.573-1.618 3.75-4.144 4.463-6.352 1.631-5.047-1.417-11.341-1.417-11.341s-5.28 3.414-6.05 8.483c-.787 5.176.56 9.162 1.078 10.446a105.084 105.084 0 0 0-11.269 8.539c1.235-1.889 2.699-4.496 2.997-6.628.744-5.361-3.437-11.147-3.437-11.147s-4.708 4.365-4.578 9.597c.123 5.101 2.005 8.757 2.824 10.119-3.162 2.767-6.218 5.977-9.097 9.58.766-1.955 1.475-4.29 1.406-6.14-.203-5.518-5.438-10.595-5.438-10.595s-3.947 5.218-2.89 10.452c.983 4.875 3.35 8.148 4.49 9.499a95.975 95.975 0 0 0-7.271 11.746c.469-2.19.837-4.891.411-6.873-1.187-5.508-7.343-9.683-7.343-9.683s-3.04 5.942-1.053 11.013c1.914 4.875 4.998 7.77 6.322 8.851a104.23 104.23 0 0 0-5.137 12.89c.095-2.313 0-5.172-.796-7.132-2.174-5.327-9.106-8.432-9.106-8.432s-2 6.506.908 11.25c2.799 4.577 6.422 6.943 7.934 7.785a102.2 102.2 0 0 0-2.812 12.922c-.339-2.199-.934-4.711-1.977-6.37-3.125-4.967-10.635-6.866-10.635-6.866s-.861 6.896 2.896 11.15c3.49 3.95 7.393 5.707 9.171 6.352a95.037 95.037 0 0 0-.515 12.444c-.714-1.987-1.687-4.105-2.903-5.45-4.027-4.44-11.913-5.02-11.913-5.02s.36 7.08 4.895 10.693c4.103 3.27 8.223 4.371 10.189 4.733a88.23 88.23 0 0 0 1.77 12.002c-1.08-1.9-2.451-3.902-3.94-5.058-4.838-3.75-12.864-2.936-12.864-2.936s1.624 7.05 6.819 9.877c4.766 2.596 9.165 2.95 11.168 2.956a86.591 86.591 0 0 0 3.53 11.14c-1.38-1.637-3.028-3.281-4.648-4.137-5.522-2.913-13.445-.675-13.445-.675s2.881 6.797 8.604 8.721c5.126 1.72 9.51 1.364 11.593 1.02a93.036 93.036 0 0 0 5.749 10.531c-1.728-1.464-3.77-2.919-5.625-3.518-6.067-1.95-13.633 1.7-13.633 1.7s4.105 6.318 10.2 7.238c5.574.843 9.99-.361 11.96-1.068a101.667 101.667 0 0 0 7.662 9.522c-2.039-1.208-4.436-2.371-6.47-2.651-6.445-.89-13.398 4.117-13.398 4.117s5.244 5.625 11.537 5.472c5.8-.14 10.044-2.163 11.874-3.215a106.058 106.058 0 0 0 9.031 8.051c-2.25-.844-4.835-1.575-6.91-1.5-6.631.248-12.732 6.506-12.732 6.506s6.268 4.727 12.562 3.461c5.747-1.156 9.632-3.895 11.315-5.288a100.023 100.023 0 0 0 9.542 6.054c-2.212-.365-4.598-.547-6.456-.15-6.62 1.418-11.637 8.786-11.637 8.786s7.142 3.641 13.242 1.257c5.353-2.092 8.72-5.354 10.252-7.11 3.46 1.64 6.915 3.014 10.315 4.094-2.234.032-4.59.279-6.343.99-6.4 2.595-10.132 10.886-10.132 10.886s7.819 2.397 13.525-1.078c5.189-3.16 8.012-7.202 9.167-9.169 8.107 1.45 14.864 3.71 20.36 6.187-9.963 5.227-14.029 10.057-14.029 10.057l3.538 3.151s4.642-5.63 14.864-11.067C159.225 499.37 163.867 505 163.867 505l3.537-3.15s-4.067-4.83-14.029-10.058c5.496-2.475 12.251-4.737 20.357-6.187 1.155 1.97 3.978 6.009 9.165 9.169 5.706 3.475 13.531 1.078 13.531 1.078s-3.737-8.29-10.14-10.887c-1.748-.71-4.101-.955-6.335-.989 3.398-1.08 6.854-2.453 10.311-4.091 1.533 1.755 4.901 5.015 10.256 7.107 6.095 2.384 13.236-1.257 13.236-1.257s-5.017-7.368-11.637-8.786c-1.856-.397-4.238-.215-6.446.149a100.397 100.397 0 0 0 9.537-6.051c1.68 1.393 5.565 4.13 11.308 5.286 6.292 1.266 12.562-3.46 12.562-3.46s-6.095-6.26-12.729-6.506c-2.072-.076-4.657.653-6.902 1.497 3.113-2.47 6.136-5.16 9.026-8.047 1.832 1.052 6.078 3.072 11.875 3.213 6.287.153 11.535-5.472 11.535-5.472s-6.957-5.006-13.4-4.117c-2.031.28-4.423 1.438-6.458 2.646 2.71-2.99 5.279-6.163 7.654-9.516 1.975.707 6.387 1.91 11.955 1.067 6.095-.92 10.2-7.238 10.2-7.238s-7.564-3.65-13.633-1.7c-1.85.597-3.886 2.047-5.613 3.509a93.472 93.472 0 0 0 5.745-10.52c2.081.342 6.461.698 11.583-1.022 5.723-1.924 8.608-8.721 8.608-8.721s-7.925-2.238-13.45.675c-1.613.854-3.256 2.49-4.634 4.125a86.71 86.71 0 0 0 3.526-11.128c2.005-.007 6.398-.363 11.162-2.956" fill="#995F04"/><path d="M151 512.167c-66.367 0-120.165-53.8-120.165-120.168 0-66.364 53.798-120.166 120.165-120.166 66.365 0 120.165 53.802 120.165 120.166 0 66.368-53.8 120.168-120.165 120.168M151 252c-77.32 0-140 62.68-140 140s62.68 140 140 140c77.318 0 140-62.68 140-140s-62.682-140-140-140" fill="#FDDE66"/><path d="M258.128 411.662c5.2-2.827 6.824-9.877 6.824-9.877s-8.03-.814-12.863 2.936c-1.486 1.154-2.855 3.149-3.936 5.045.88-3.995 1.45-8 1.767-11.99 1.97-.364 6.084-1.467 10.183-4.732 4.534-3.613 4.897-10.69 4.897-10.69s-7.888.577-11.914 5.017c-1.213 1.34-2.182 3.448-2.898 5.43a94.767 94.767 0 0 0-.515-12.426c1.78-.645 5.678-2.404 9.165-6.35 3.757-4.254 2.9-11.15 2.9-11.15s-7.516 1.899-10.639 6.866c-1.041 1.653-1.635 4.153-1.973 6.35a101.99 101.99 0 0 0-2.812-12.904c1.516-.846 5.135-3.21 7.93-7.782 2.905-4.745.904-11.25.904-11.25s-6.93 3.104-9.098 8.431c-.796 1.952-.891 4.8-.8 7.109a103.743 103.743 0 0 0-5.133-12.868c1.328-1.084 4.41-3.977 6.318-8.85 1.99-5.071-1.053-11.013-1.053-11.013s-6.156 4.175-7.343 9.683c-.426 1.978-.058 4.674.411 6.862a96.484 96.484 0 0 0-7.266-11.74c1.14-1.353 3.502-4.623 4.486-9.494 1.056-5.234-2.89-10.452-2.89-10.452s-5.234 5.077-5.44 10.595c-.068 1.845.635 4.17 1.4 6.125-2.876-3.601-5.93-6.806-9.09-9.569.824-1.366 2.701-5.02 2.824-10.115.128-5.232-4.576-9.597-4.576-9.597s-4.182 5.786-3.435 11.147c.294 2.126 1.75 4.728 2.985 6.617a104.904 104.904 0 0 0-11.26-8.532c.521-1.288 1.864-5.27 1.08-10.442-.772-5.069-6.053-8.483-6.053-8.483s-3.05 6.294-1.419 11.341c.714 2.205 2.885 4.724 4.456 6.342a95.848 95.848 0 0 0-12.833-6.739c.266-1.208.964-5.359-.72-10.352-1.605-4.764-7.29-7.161-7.29-7.161s-1.864 6.591.569 11.184c1.136 2.143 3.934 4.345 5.732 5.613a82.14 82.14 0 0 0-6.796-2.426c-.816-.996-3.647-4.156-7.06-4.74-2.894-.49-7.761 1.367-7.761 1.367s2.332 3.17 7.043 4.784c3.405 1.169 7.196-.67 7.897-1.038a94.35 94.35 0 0 1 9.26 3.803c-1.742-.327-6.431-1.058-9.265-.134-4.944 1.62-8.191 7.656-8.191 7.656s5.76 2.208 10.227-.111c4.996-2.583 7.38-6.352 7.83-7.124a99.71 99.71 0 0 1 13.192 7.667c-2.057-.72-5.89-1.87-8.524-1.493-5.26.748-9.59 6.244-9.59 6.244s5.395 3.236 10.294 1.696c5.155-1.613 8.172-4.684 9.003-5.625a106.386 106.386 0 0 1 11.081 9.026c.28.247.555.512.834.766-1.957-1.093-5.552-2.883-8.23-2.97-5.422-.179-10.75 4.583-10.75 4.583s4.85 4.203 10.05 3.524c5.519-.717 9.11-3.314 10.073-4.086 3.54 3.394 6.906 7.376 10.003 11.812-1.78-1.447-5.055-3.856-7.707-4.412-5.416-1.136-11.614 2.705-11.614 2.705s4.122 5.08 9.467 5.318c5.548.25 9.564-1.635 10.773-2.284a97.218 97.218 0 0 1 7.129 12.603c-1.607-1.753-3.994-4.043-6.173-4.913-5.24-2.101-12.15.662-12.15.662s3.239 5.836 8.57 7.018c5.12 1.143 9.245.21 10.882-.282a102.732 102.732 0 0 1 4.739 13.065c-1.299-1.97-3.132-4.372-5.011-5.535-4.891-3.032-12.327-1.477-12.327-1.477s2.219 6.433 7.365 8.565c4.8 1.993 9.01 1.856 10.837 1.657a99.539 99.539 0 0 1 2.461 13.767c-.954-2.225-2.388-5.018-4.092-6.54-4.374-3.913-12.124-3.664-12.124-3.664s1.084 6.86 5.88 9.912c4.498 2.865 8.777 3.465 10.632 3.583a91.829 91.829 0 0 1-.03 13.813c-.562-2.414-1.514-5.501-2.965-7.344-3.705-4.71-11.533-5.828-11.533-5.828s-.124 7.084 4.15 11.001c3.993 3.661 8.178 5.023 10.028 5.476a85.705 85.705 0 0 1-2.38 12.446c-.174-2.403-.603-5.276-1.626-7.189-2.888-5.385-10.559-7.894-10.559-7.894s-1.382 7.098 2.212 11.785c3.279 4.274 7.114 6.38 8.957 7.21a85.503 85.503 0 0 1-4.388 11.921c.268-2.468.361-5.496-.34-7.634-1.947-5.923-9.206-9.799-9.206-9.799s-2.654 6.886.13 12.234c2.518 4.85 5.98 7.64 7.692 8.81a92.46 92.46 0 0 1-6.156 10.347c.62-2.3 1.116-4.99.817-7.057-.899-6.292-7.505-11.473-7.505-11.473s-3.89 6.45-2.046 12.318c1.605 5.106 4.421 8.461 5.985 10.03a99.949 99.949 0 0 1-7.592 8.854c.956-2.106 1.815-4.52 1.879-6.511.208-6.482-5.511-12.856-5.511-12.856s-5.055 5.797-4.239 12.017c.69 5.31 2.851 9.137 4.153 11.03a101.93 101.93 0 0 1-8.769 7.338c1.294-1.913 2.53-4.117 2.935-6.055 1.365-6.475-3.253-13.892-3.253-13.892s-6.106 4.932-6.394 11.326c-.248 5.445 1.238 9.664 2.211 11.804a95.503 95.503 0 0 1-10.205 5.932c1.756-1.761 3.567-3.914 4.376-5.92 2.517-6.271-.803-14.54-.803-14.54s-7.018 3.877-8.439 10.252c-1.242 5.549-.437 10.124.166 12.397-3.595 1.539-7.166 2.765-10.653 3.67 1.977-1.419 4.008-3.163 5.11-4.933 3.648-5.855 1.775-14.752 1.775-14.752s-7.737 2.652-10.3 8.808c-2.087 5.007-2.227 9.47-2.072 11.984a92.724 92.724 0 0 0-13.767 3.713c-2.827 1-5.39 2.045-7.711 3.097a97.05 97.05 0 0 0-7.71-3.097 92.543 92.543 0 0 0-13.774-3.713c.157-2.516.015-6.98-2.07-11.984-2.564-6.156-10.3-8.808-10.3-8.808s-1.87 8.897 1.775 14.752c1.1 1.77 3.13 3.512 5.105 4.932-3.485-.907-7.053-2.132-10.644-3.67.6-2.273 1.404-6.85.164-12.396-1.425-6.375-8.439-10.252-8.439-10.252s-3.321 8.269-.803 14.54c.805 2.005 2.615 4.153 4.369 5.916a96.23 96.23 0 0 1-10.198-5.932c.973-2.14 2.459-6.357 2.213-11.8-.292-6.394-6.394-11.326-6.394-11.326s-4.624 7.417-3.257 13.892c.404 1.934 1.633 4.137 2.926 6.046a103.593 103.593 0 0 1-8.758-7.331c1.303-1.895 3.463-5.72 4.155-11.028.81-6.22-4.24-12.017-4.24-12.017s-5.722 6.374-5.514 12.856c.066 1.987.921 4.397 1.875 6.5a99.487 99.487 0 0 1-7.584-8.848c1.564-1.57 4.376-4.923 5.981-10.025 1.847-5.868-2.042-12.318-2.042-12.318s-6.612 5.181-7.512 11.473c-.296 2.062.197 4.743.814 7.04a92.627 92.627 0 0 1-6.145-10.335c1.717-1.171 5.169-3.958 7.687-8.805 2.784-5.348.132-12.234.132-12.234s-7.26 3.876-9.208 9.8c-.7 2.132-.608 5.147-.344 7.611a85.44 85.44 0 0 1-4.378-11.902c1.847-.83 5.678-2.935 8.953-7.207 3.594-4.687 2.208-11.785 2.208-11.785s-7.67 2.51-10.553 7.894c-1.023 1.908-1.454 4.773-1.63 7.172a85.789 85.789 0 0 1-2.374-12.43c1.856-.455 6.035-1.817 10.024-5.475 4.274-3.917 4.148-11.001 4.148-11.001s-7.828 1.119-11.533 5.828c-1.445 1.837-2.396 4.917-2.96 7.328a92.1 92.1 0 0 1-.029-13.797c1.86-.12 6.138-.72 10.625-3.583 4.795-3.052 5.881-9.912 5.881-9.912s-7.75-.249-12.122 3.665c-1.7 1.517-3.13 4.295-4.085 6.52a99.75 99.75 0 0 1 2.457-13.746c1.832.197 6.037.332 10.832-1.659 5.15-2.132 7.365-8.565 7.365-8.565s-7.435-1.555-12.325 1.477c-1.873 1.16-3.703 3.55-5.001 5.52a102.471 102.471 0 0 1 4.733-13.048c1.64.491 5.762 1.421 10.877.28 5.33-1.182 8.568-7.018 8.568-7.018s-6.911-2.763-12.15-.662c-2.173.868-4.55 3.143-6.157 4.896a97.155 97.155 0 0 1 7.12-12.584c1.213.653 5.23 2.533 10.765 2.282 5.35-.237 9.469-5.318 9.469-5.318s-6.196-3.84-11.613-2.705c-2.647.555-5.91 2.952-7.691 4.4 3.091-4.432 6.456-8.408 9.991-11.797.967.774 4.557 3.368 10.068 4.083 5.204.679 10.052-3.524 10.052-3.524s-5.33-4.762-10.752-4.583c-2.668.085-6.254 1.87-8.215 2.961.278-.25.547-.512.824-.757a106.304 106.304 0 0 1 11.078-9.022c.837.945 3.852 4.012 9 5.62 4.9 1.54 10.298-1.695 10.298-1.695s-4.334-5.497-9.593-6.244c-2.625-.375-6.449.768-8.51 1.488a99.81 99.81 0 0 1 13.18-7.66c.454.781 2.84 4.542 7.824 7.122 4.472 2.32 10.232.111 10.232.111s-3.25-6.036-8.19-7.656c-2.827-.922-7.5-.197-9.254.13a94.63 94.63 0 0 1 9.25-3.797c.711.371 4.494 2.201 7.894 1.036 4.711-1.615 7.043-4.784 7.043-4.784s-4.863-1.857-7.76-1.368c-3.42.585-6.248 3.752-7.065 4.743a83.073 83.073 0 0 0-6.801 2.43c1.8-1.268 4.607-3.472 5.741-5.62 2.437-4.592.57-11.183.57-11.183s-5.686 2.397-7.288 7.16c-1.688 4.998-.99 9.152-.725 10.357a95.997 95.997 0 0 0-12.84 6.745c1.573-1.618 3.75-4.144 4.463-6.352 1.631-5.047-1.417-11.341-1.417-11.341s-5.28 3.414-6.05 8.483c-.787 5.176.56 9.162 1.078 10.446a105.084 105.084 0 0 0-11.269 8.539c1.235-1.889 2.699-4.496 2.995-6.628.746-5.361-3.435-11.147-3.435-11.147s-4.708 4.365-4.578 9.597c.123 5.101 2.005 8.757 2.824 10.119-3.162 2.767-6.218 5.977-9.097 9.58.766-1.955 1.475-4.29 1.406-6.14-.205-5.518-5.438-10.595-5.438-10.595s-3.947 5.218-2.89 10.452c.983 4.875 3.35 8.148 4.49 9.499a95.975 95.975 0 0 0-7.271 11.746c.469-2.19.837-4.891.411-6.873-1.187-5.508-7.343-9.683-7.343-9.683s-3.04 5.942-1.053 11.013c1.914 4.875 4.998 7.77 6.322 8.851a103.94 103.94 0 0 0-5.137 12.89c.095-2.313 0-5.172-.796-7.132-2.174-5.327-9.106-8.432-9.106-8.432s-2 6.506.908 11.25c2.797 4.577 6.422 6.943 7.934 7.785a102.2 102.2 0 0 0-2.812 12.922c-.339-2.199-.934-4.711-1.977-6.37-3.125-4.967-10.635-6.866-10.635-6.866s-.861 6.896 2.896 11.15c3.49 3.95 7.393 5.707 9.171 6.352a95.037 95.037 0 0 0-.515 12.444c-.714-1.987-1.687-4.105-2.903-5.45-4.027-4.44-11.913-5.017-11.913-5.017s.36 7.077 4.895 10.69c4.103 3.27 8.223 4.371 10.189 4.733a88.23 88.23 0 0 0 1.77 12.002c-1.08-1.9-2.453-3.902-3.94-5.058-4.838-3.75-12.864-2.936-12.864-2.936s1.624 7.05 6.819 9.877c4.766 2.596 9.165 2.95 11.168 2.956a86.877 86.877 0 0 0 3.528 11.14c-1.378-1.637-3.026-3.281-4.646-4.137-5.523-2.913-13.445-.675-13.445-.675s2.881 6.797 8.604 8.721c5.126 1.72 9.51 1.364 11.593 1.02a93.036 93.036 0 0 0 5.749 10.531c-1.728-1.464-3.77-2.919-5.625-3.516-6.067-1.952-13.633 1.698-13.633 1.698s4.105 6.318 10.2 7.238c5.574.843 9.99-.361 11.96-1.068a101.667 101.667 0 0 0 7.662 9.522c-2.039-1.208-4.436-2.371-6.47-2.651-6.445-.89-13.398 4.117-13.398 4.117s5.244 5.625 11.537 5.472c5.8-.14 10.044-2.163 11.874-3.215a106.39 106.39 0 0 0 9.03 8.051c-2.249-.844-4.834-1.575-6.91-1.497-6.63.245-12.73 6.503-12.73 6.503s6.267 4.727 12.56 3.461c5.748-1.156 9.633-3.895 11.316-5.288a100.023 100.023 0 0 0 9.542 6.054c-2.212-.365-4.598-.547-6.456-.15-6.62 1.418-11.637 8.786-11.637 8.786s7.142 3.641 13.242 1.257c5.353-2.092 8.72-5.354 10.252-7.11 3.46 1.64 6.915 3.014 10.315 4.094-2.234.034-4.59.279-6.343.99-6.401 2.595-10.132 10.886-10.132 10.886s7.819 2.397 13.525-1.078c5.189-3.16 8.012-7.202 9.167-9.169 8.107 1.45 14.864 3.71 20.36 6.189-9.963 5.225-14.029 10.055-14.029 10.055l3.538 3.151s4.642-5.63 14.864-11.067C162.225 498.37 166.867 504 166.867 504l3.537-3.15s-4.069-4.83-14.029-10.056c5.496-2.477 12.251-4.74 20.357-6.189 1.153 1.97 3.978 6.01 9.165 9.169 5.706 3.475 13.53 1.078 13.53 1.078s-3.736-8.29-10.14-10.887c-1.747-.71-4.1-.955-6.334-.989 3.398-1.08 6.854-2.453 10.311-4.091 1.533 1.755 4.901 5.015 10.254 7.107 6.097 2.384 13.238-1.257 13.238-1.257s-5.017-7.368-11.637-8.786c-1.856-.397-4.238-.215-6.446.149a100.397 100.397 0 0 0 9.537-6.051c1.68 1.393 5.565 4.13 11.308 5.286 6.292 1.266 12.562-3.46 12.562-3.46s-6.095-6.26-12.729-6.504c-2.072-.078-4.657.65-6.902 1.495 3.113-2.47 6.136-5.16 9.026-8.047 1.832 1.052 6.078 3.072 11.875 3.213 6.287.153 11.534-5.472 11.534-5.472s-6.956-5.006-13.4-4.117c-2.03.28-4.422 1.438-6.457 2.646 2.71-2.99 5.279-6.163 7.654-9.516 1.973.707 6.387 1.91 11.955 1.067 6.095-.92 10.198-7.238 10.198-7.238s-7.562-3.65-13.631-1.698c-1.85.595-3.886 2.045-5.613 3.507a93.31 93.31 0 0 0 5.745-10.52c2.081.342 6.461.698 11.583-1.022 5.723-1.924 8.608-8.721 8.608-8.721s-7.925-2.238-13.45.675c-1.615.854-3.258 2.49-4.634 4.125a86.703 86.703 0 0 0 3.525-11.128c2.005-.007 6.4-.363 11.16-2.956" fill="#FDDE66"/><path d="M116 421.445c0-1.612.272-3.147.815-4.602a12.72 12.72 0 0 1 2.25-3.861 10.432 10.432 0 0 1 3.492-2.652c1.374-.65 2.913-.976 4.62-.976 1.864 0 3.428.338 4.696 1.013 1.269.677 2.29 1.523 3.066 2.536a9.73 9.73 0 0 1 1.67 3.315c.336 1.197.504 2.342.504 3.434 0 .987-.194 2.17-.583 3.547a11.067 11.067 0 0 1-1.9 3.783c.516.989 1.266 1.871 2.25 2.653.983.78 2.121 1.442 3.416 1.988a20.84 20.84 0 0 0 4.152 1.249 23.39 23.39 0 0 0 4.464.428c3.31 0 6.22-.531 8.733-1.599 2.51-1.064 4.603-2.547 6.287-4.446 1.679-1.896 2.95-4.135 3.802-6.708.854-2.573 1.28-5.368 1.28-8.384 0-2.809-.36-5.59-1.086-8.348a19.384 19.384 0 0 0-3.804-7.448c-1.81-2.21-4.23-4.003-7.257-5.383-3.026-1.376-6.818-2.066-11.37-2.066-.364 0-.908.013-1.63.04a93.51 93.51 0 0 0-2.33.115l-2.405.157c-.776.052-1.398.105-1.863.155v-11.464a8.264 8.264 0 0 0 1.474.155h1.243c7.863.155 13.855-1.59 17.968-5.238 4.114-3.646 6.17-8.855 6.17-15.63 0-2.605-.27-5.015-.813-7.23-.543-2.213-1.41-4.117-2.602-5.706-1.19-1.59-2.716-2.826-4.579-3.712-1.864-.884-4.114-1.33-6.753-1.33-1.45 0-2.834.199-4.153.59-1.32.39-2.521.9-3.608 1.526a15.272 15.272 0 0 0-2.873 2.11c-.828.784-1.474 1.594-1.94 2.426a10.07 10.07 0 0 1 2.018 4.07c.36 1.513.543 2.79.543 3.834 0 .991-.195 2.074-.582 3.246-.39 1.174-1.009 2.283-1.863 3.327-.854 1.043-1.967 1.916-3.338 2.621-1.372.705-3.04 1.055-5.006 1.055-1.658-.05-3.105-.389-4.347-1.014a9.56 9.56 0 0 1-3.144-2.496c-.854-1.04-1.5-2.262-1.941-3.665a14.816 14.816 0 0 1-.659-4.447c0-2.339.685-4.94 2.056-7.799 1.372-2.859 3.456-5.512 6.25-7.956 2.794-2.444 6.274-4.497 10.44-6.164 4.163-1.662 9.043-2.494 14.63-2.494 4.916 0 9.536.496 13.857 1.481 4.319.99 8.072 2.614 11.256 4.875 3.182 2.262 5.69 5.202 7.529 8.815 1.834 3.614 2.754 8.021 2.754 13.22 0 2.081-.428 4.383-1.28 6.903-.855 2.523-2.226 4.967-4.113 7.332-1.89 2.368-4.347 4.526-7.374 6.476-3.028 1.95-6.742 3.392-11.14 4.329v.155c5.072.884 9.469 2.289 13.196 4.213 3.725 1.924 6.803 4.2 9.237 6.823 2.432 2.627 4.24 5.528 5.433 8.697a27.792 27.792 0 0 1 1.785 9.83c0 5.46-1.05 10.296-3.145 14.507-2.095 4.213-5.033 7.749-8.809 10.608-3.777 2.86-8.265 5.032-13.466 6.513-5.201 1.483-10.907 2.223-17.116 2.223-6.003 0-11.176-.701-15.525-2.106-4.347-1.404-7.916-3.236-10.71-5.499-2.795-2.262-4.865-4.783-6.21-7.566-1.347-2.78-2.019-5.577-2.019-8.384" fill="#FEFEFE"/><path d="M111 423.445c0-1.612.272-3.147.813-4.602a12.764 12.764 0 0 1 2.252-3.861 10.432 10.432 0 0 1 3.492-2.652c1.374-.65 2.913-.976 4.62-.976 1.864 0 3.428.338 4.696 1.013 1.269.677 2.29 1.523 3.066 2.536a9.73 9.73 0 0 1 1.67 3.315c.336 1.197.504 2.342.504 3.434 0 .987-.194 2.17-.583 3.547a11.1 11.1 0 0 1-1.9 3.783c.516.989 1.266 1.871 2.25 2.653.983.78 2.121 1.442 3.416 1.988a20.84 20.84 0 0 0 4.152 1.249 23.39 23.39 0 0 0 4.464.428c3.31 0 6.22-.531 8.733-1.599 2.51-1.064 4.603-2.547 6.287-4.446 1.679-1.896 2.95-4.135 3.802-6.708.854-2.573 1.28-5.368 1.28-8.384 0-2.809-.36-5.59-1.086-8.348a19.384 19.384 0 0 0-3.804-7.448c-1.81-2.21-4.23-4.003-7.257-5.383-3.026-1.376-6.818-2.066-11.37-2.066-.364 0-.908.013-1.63.04a93.51 93.51 0 0 0-2.33.115l-2.405.157c-.776.052-1.398.105-1.863.155v-11.464a8.264 8.264 0 0 0 1.474.155h1.243c7.863.155 13.855-1.59 17.968-5.238 4.114-3.646 6.17-8.855 6.17-15.63 0-2.605-.27-5.015-.813-7.23-.543-2.213-1.41-4.117-2.602-5.706-1.19-1.59-2.716-2.826-4.579-3.712-1.864-.884-4.114-1.33-6.753-1.33-1.45 0-2.834.199-4.153.59-1.32.39-2.521.9-3.608 1.526a15.272 15.272 0 0 0-2.873 2.11c-.828.784-1.474 1.594-1.94 2.426a10.07 10.07 0 0 1 2.018 4.07c.36 1.513.543 2.79.543 3.834 0 .991-.195 2.074-.582 3.246-.39 1.174-1.009 2.283-1.863 3.327-.854 1.043-1.967 1.916-3.338 2.621-1.372.705-3.04 1.055-5.006 1.055-1.658-.05-3.105-.389-4.347-1.014a9.56 9.56 0 0 1-3.144-2.496c-.854-1.04-1.5-2.262-1.941-3.665a14.816 14.816 0 0 1-.659-4.447c0-2.339.685-4.94 2.056-7.799 1.372-2.859 3.456-5.512 6.25-7.956 2.794-2.444 6.274-4.497 10.44-6.164 4.163-1.662 9.043-2.494 14.63-2.494 4.916 0 9.536.496 13.857 1.481 4.319.99 8.072 2.614 11.256 4.875 3.182 2.262 5.69 5.202 7.529 8.815 1.834 3.614 2.754 8.021 2.754 13.22 0 2.081-.428 4.383-1.28 6.903-.855 2.523-2.226 4.967-4.113 7.332-1.89 2.368-4.347 4.526-7.374 6.476-3.028 1.95-6.742 3.392-11.14 4.329v.155c5.072.884 9.469 2.289 13.196 4.213 3.725 1.924 6.803 4.2 9.237 6.823 2.432 2.627 4.24 5.528 5.433 8.697a27.792 27.792 0 0 1 1.785 9.83c0 5.46-1.05 10.296-3.145 14.507-2.095 4.213-5.033 7.749-8.809 10.608-3.777 2.86-8.265 5.032-13.466 6.513-5.201 1.483-10.907 2.223-17.116 2.223-6.003 0-11.178-.701-15.525-2.106-4.347-1.404-7.916-3.236-10.71-5.499-2.795-2.262-4.865-4.783-6.21-7.566-1.347-2.78-2.019-5.577-2.019-8.384" fill="#995F04"/><path d="M113 421.445c0-1.612.272-3.147.815-4.602a12.72 12.72 0 0 1 2.25-3.861 10.432 10.432 0 0 1 3.492-2.652c1.374-.65 2.913-.976 4.62-.976 1.864 0 3.428.338 4.696 1.013 1.269.677 2.29 1.523 3.066 2.536a9.73 9.73 0 0 1 1.67 3.315c.336 1.197.504 2.342.504 3.434 0 .987-.194 2.17-.583 3.547a11.067 11.067 0 0 1-1.9 3.783c.516.989 1.266 1.871 2.25 2.653.983.78 2.121 1.442 3.416 1.988a20.84 20.84 0 0 0 4.152 1.249 23.39 23.39 0 0 0 4.464.428c3.31 0 6.22-.531 8.733-1.599 2.51-1.064 4.603-2.547 6.287-4.446 1.679-1.896 2.95-4.135 3.802-6.708.854-2.573 1.28-5.368 1.28-8.384 0-2.809-.36-5.59-1.086-8.348a19.384 19.384 0 0 0-3.804-7.448c-1.81-2.21-4.23-4.003-7.257-5.383-3.026-1.376-6.818-2.066-11.37-2.066-.364 0-.908.013-1.63.04a93.51 93.51 0 0 0-2.33.115l-2.405.157c-.776.052-1.398.105-1.863.155v-11.464a8.264 8.264 0 0 0 1.474.155h1.243c7.863.155 13.855-1.59 17.968-5.238 4.114-3.646 6.17-8.855 6.17-15.63 0-2.605-.27-5.015-.813-7.23-.543-2.213-1.41-4.117-2.602-5.706-1.19-1.59-2.716-2.826-4.579-3.712-1.864-.884-4.114-1.33-6.753-1.33-1.45 0-2.834.199-4.153.59-1.32.39-2.521.9-3.608 1.526a15.272 15.272 0 0 0-2.873 2.11c-.828.784-1.474 1.594-1.94 2.426a10.07 10.07 0 0 1 2.018 4.07c.36 1.513.543 2.79.543 3.834 0 .991-.195 2.074-.582 3.246-.39 1.174-1.009 2.283-1.863 3.327-.854 1.043-1.967 1.916-3.338 2.621-1.372.705-3.04 1.055-5.006 1.055-1.658-.05-3.105-.389-4.347-1.014a9.56 9.56 0 0 1-3.144-2.496c-.854-1.04-1.5-2.262-1.941-3.665a14.816 14.816 0 0 1-.659-4.447c0-2.339.685-4.94 2.056-7.799 1.372-2.859 3.456-5.512 6.25-7.956 2.794-2.444 6.274-4.497 10.44-6.164 4.163-1.662 9.043-2.494 14.63-2.494 4.916 0 9.536.496 13.857 1.481 4.319.99 8.072 2.614 11.256 4.875 3.182 2.262 5.69 5.202 7.529 8.815 1.834 3.614 2.754 8.021 2.754 13.22 0 2.081-.428 4.383-1.28 6.903-.855 2.523-2.226 4.967-4.113 7.332-1.89 2.368-4.347 4.526-7.374 6.476-3.028 1.95-6.742 3.392-11.14 4.329v.155c5.072.884 9.469 2.289 13.196 4.213 3.725 1.924 6.803 4.2 9.237 6.823 2.432 2.627 4.24 5.528 5.433 8.697a27.792 27.792 0 0 1 1.785 9.83c0 5.46-1.05 10.296-3.145 14.507-2.095 4.213-5.033 7.749-8.809 10.608-3.777 2.86-8.265 5.032-13.466 6.513-5.201 1.483-10.907 2.223-17.116 2.223-6.003 0-11.176-.701-15.525-2.106-4.347-1.404-7.916-3.236-10.71-5.499-2.795-2.262-4.865-4.783-6.21-7.566-1.347-2.78-2.019-5.577-2.019-8.384" fill="#FDDE66"/></g></svg>
