<svg viewBox="0 0 257.6 306.3" xmlns="http://www.w3.org/2000/svg"><path d="m13.9 13.9h229.7l-55.6 62.7h-118.4z" fill="#e9ecef"/><path d="m13.9 139.2 55.7-62.6h118.4l55.6 62.6z" fill="#b1b8bd"/><path d="m13.9 13.9 55.7 62.7-55.7 62.6z" fill="#bfcace"/><path d="m243.6 13.9v125.3l-55.6-62.6z" fill="#d3dadd"/><path d="m0 0 13.9 13.9h229.7l14-13.9z" fill="#8f959d"/><path d="m0 153.1 13.9-13.9h229.7l14 13.9z" fill="#bfcace"/><path d="m13.9 13.9v125.3l-13.9 13.9v-153.1z" fill="#b1b8bd"/><path d="m243.6 13.9 14-13.9v153.1l-14-13.9z" fill="#a1a6ac"/><path d="m257.6 229.7v-62.6h-114.9l55.7 62.6z" fill="#e9ecef"/><path d="m198.4 229.7-55.7 62.7h114.9v-62.7z" fill="#b1b8bd"/><path d="m142.7 167.1v125.3l55.7-62.7z" fill="#bfcace"/><path d="m257.6 167.1v-14h-128.8l13.9 14z" fill="#8f959d"/><path d="m142.7 292.4-13.9 13.9h128.8v-13.9z" fill="#bfcace"/><path d="m142.7 167.1-13.9-14v153.2l13.9-13.9z" fill="#b1b8bd"/><path d="m0 229.7h59.2l55.7-62.6h-114.9z" fill="#e9ecef"/><path d="m0 229.7v62.7h114.9l-55.7-62.7z" fill="#b1b8bd"/><path d="m114.9 292.4v-125.3l-55.7 62.6z" fill="#d3dadd"/><path d="m114.9 167.1 13.9-14h-128.8v14z" fill="#8f959d"/><path d="m0 292.4v13.9h128.8l-13.9-13.9z" fill="#bfcace"/><path d="m114.9 167.1v125.3l13.9 13.9v-153.2z" fill="#a1a6ac"/></svg>
