<svg viewBox="0 0 62.5 19.4" xmlns="http://www.w3.org/2000/svg"><path d="M-1.1 2h64.6v17.4H-1.1z" opacity=".2"/><path d="M-1.1 0h64.6v17.4H-1.1z" fill="#ef1100"/><g fill="#fff"><path d="M-1.1 14.8h64.6v1H-1.1zM0 1.6h62.5v1H0zm7.1 11.2H5.2c-.1 0-.3 0-.3-.1-.1-.1-.1-.2-.1-.3V6.7H3.1c-.1 0-.3 0-.3-.1 0 0-.1-.1-.1-.3V4.9c0-.1 0-.3.1-.3s.2-.1.3-.1h6.1c.1 0 .3 0 .3.1.1.1.1.2.1.3v1.4c0 .1 0 .3-.1.3 0 .1-.2.1-.3.1H7.5v5.6c0 .1 0 .3-.1.3 0 .2-.2.2-.3.2zm10.6-2.2c0 .4-.1.7-.2 1s-.3.5-.6.7-.6.4-1.1.5-1.1.2-1.8.2-1.3-.1-1.8-.2-.8-.3-1.1-.5-.4-.4-.6-.7c-.1-.3-.2-.6-.2-1V6.7c0-.4.1-.7.2-1 .3-.2.5-.5.8-.7s.6-.4 1.1-.5 1.1-.2 1.8-.2 1.3.1 1.8.2c.3.1.7.3 1 .5s.4.5.6.7c.1.3.2.6.2 1v3.9zm-4.5-.4c0 .2.1.3.2.4s.4.2.8.2.7-.1.8-.2.2-.2.2-.4V7.1c0-.1-.1-.3-.2-.4s-.4-.2-.8-.2-.7.1-.8.2-.2.3-.2.4zm12.9.4c0 .4-.1.7-.2 1s-.3.5-.6.7-.6.4-1.1.5-1.1.2-1.8.2-1.3-.1-1.8-.2-.8-.3-1.1-.5-.4-.4-.6-.7c-.1-.3-.2-.6-.2-1V6.7c0-.4.1-.7.2-1s.3-.5.6-.7.6-.4 1.1-.5 1.1-.2 1.8-.2 1.3.1 1.8.2.8.3 1.1.5.4.5.6.7c.1.3.2.6.2 1zm-4.5-.4c0 .2.1.3.2.4s.4.2.8.2.7-.1.8-.2.2-.2.2-.4V7.1c0-.1-.1-.3-.2-.4s-.4-.2-.8-.2-.7.1-.8.2-.2.3-.2.4zm14.8 2.6h-5.8c-.1 0-.3 0-.3-.1-.1-.1-.1-.2-.1-.3V4.9c0-.1 0-.3.1-.3.1-.1.2-.1.3-.1h1.8c.1 0 .3 0 .3.1.1.1.1.2.1.3v5.7h1.6V8.8c0-.1 0-.2.1-.3s.2-.1.3-.1h1.7c.1 0 .3 0 .3.1.1.1.1.2.1.3v3.6c0 .1 0 .3-.1.3-.1.1-.2.1-.4.1zm4.1-.4c0 .1 0 .3-.1.3-.1.1-.2.1-.3.1h-1.7c-.1 0-.3 0-.3-.1-.1-.1-.1-.2-.1-.3v-3c0-.2 0-.5.1-.8s.2-.6.3-1l1-2.6c0-.1.1-.2.2-.3s.2-.1.4-.1h3.1c.1 0 .3 0 .4.1s.2.2.2.3l1 2.6c.2.4.3.7.3 1s.1.6.1.8v3c0 .1 0 .3-.1.3-.1.1-.2.1-.3.1H43c-.2 0-.3 0-.3-.1-.1-.1-.1-.2-.1-.3v-1.6h-2v1.6zm.7-5.5l-.5 1.7h1.8L42 6.9c0-.1-.1-.1-.1-.1h-.5c-.2 0-.2.1-.2.1zm8.8 5.9h-1.9c-.1 0-.3 0-.3-.1-.1-.1-.1-.2-.1-.3V6.7H46c-.1 0-.3 0-.3-.1-.1-.1-.1-.2-.1-.3V4.9c0-.1 0-.3.1-.3.1-.1.2-.1.3-.1h6.1c.1 0 .3 0 .3.1.1.1.1.2.1.3v1.4c0 .1 0 .3-.1.3-.1.1-.2.1-.3.1h-1.7v5.6c0 .1 0 .3-.1.3-.1.2-.2.2-.3.2zm9.4 0H54c-.1 0-.3 0-.3-.1-.1-.1-.1-.2-.1-.3V4.9c0-.1 0-.3.1-.3.1-.1.2-.1.3-.1h5.3c.1 0 .3 0 .3.1.1.1.1.2.1.3v1.3c0 .1 0 .3-.1.3-.1.1-.2.1-.3.1h-3.2v.9h2.2c.1 0 .3 0 .3.1.1.1.1.2.1.3v1.2c0 .1 0 .3-.1.3-.1.1-.2.1-.3.1h-2.2v1h3.2c.1 0 .3 0 .3.1s.1.2.1.3v1.3c0 .1 0 .3-.1.3 0 .3-.1.3-.2.3z"/></g></svg>
