<svg viewBox="0 0 28 28" xmlns="http://www.w3.org/2000/svg"><path d="m0 0h28v28h-28z" fill="#f0ca95"/><path d="m14 14-14-14v4.8l9.2 9.2z" fill="#e29c2a"/><path d="m14 14-14 14v-4.8l9.2-9.2z" fill="#edc182"/><path d="m28 28-14-14v4.8l9.2 9.2z" fill="#e29c2a"/><path d="m0 28 14-14v4.8l-.2.2-9 9z" fill="#e6ab55"/><path d="m14 14-14-14h4.8l9.2 9.2z" fill="#eab770"/><path d="m28 0-14 14v-4.8l9.2-9.2z" fill="#edc182"/><path d="m14 14 14-14v4.8l-.2.2-9 9z" fill="#e6ab55"/><path d="m28 28-14-14h4.8l9.2 9.2z" fill="#eab770"/></svg>
