<svg height="496" width="497" xmlns="http://www.w3.org/2000/svg"><g fill="none" fill-rule="evenodd" transform="matrix(.97437006 .22495105 -.22495105 .97437006 61.006515 -40.44731)"><path d="m445 230.5c0 109.629-88.647 198.5-197.999 198.5-109.354 0-198.001-88.871-198.001-198.5s88.647-198.5 198.001-198.5c109.352 0 197.999 88.871 197.999 198.5" fill="#231f20"/><path d="m430 230.5c0 101.343-81.933 183.5-183 183.5s-183-82.157-183-183.5c0-101.345 81.933-183.5 183-183.5s183 82.155 183 183.5" fill="#ec1d24"/><path d="m430 230.5c0 101.343-81.933 183.5-183 183.5s-183-82.157-183-183.5c0-101.345 81.933-183.5 183-183.5s183 82.155 183 183.5z" stroke="#141215" stroke-linecap="round" stroke-linejoin="round" stroke-width=".737"/><path d="m216.518 486c-2.931 0-5.758-1.101-7.964-3.069l-7.374-6.59c-4.831-4.31-5.361-11.682-1.194-16.638.598-.715 4.15-4.798 11.465-10.411a178.447 178.447 0 0 0 -10.144-2.56 69.528 69.528 0 0 1 -18.228 16.106c-6.186 3.775-13.596 5.692-22.027 5.692-8.472 0-15.178-1.985-15.91-2.212a11.968 11.968 0 0 1 -7.393-6.509 11.958 11.958 0 0 1 -.013-9.845l.286-.624c-2.392.45-4.884.673-7.45.673-12.133 0-22.368-5.05-23.496-5.626a11.974 11.974 0 0 1 -6.147-7.693 11.989 11.989 0 0 1 1.695-9.705c.078-.117.2-.286.352-.51-.276.007-.556.011-.833.011-14.982 0-27.412-9.07-28.778-10.108a11.984 11.984 0 0 1 -1.365-17.905c.124-.125.32-.325.586-.584-15.134-2.126-26.13-13.508-27.448-14.921a11.986 11.986 0 0 1 -3.147-9.33 11.969 11.969 0 0 1 4.908-8.54c.114-.084.3-.216.553-.39-14.466-4.578-23.286-17.627-24.34-19.257a11.989 11.989 0 0 1 -1.487-9.737 11.976 11.976 0 0 1 6.32-7.555c.112-.055.308-.149.575-.272-13.262-6.922-19.584-21.101-20.326-22.863a11.994 11.994 0 0 1 .231-9.845 11.97 11.97 0 0 1 7.529-6.34c.076-.022.208-.06.394-.11-11.78-8.981-15.512-23.899-15.934-25.741a11.976 11.976 0 0 1 10.451-14.597c.09-.01.267-.03.535-.048-10.195-10.755-11.287-26.175-11.385-28.053a12 12 0 0 1 3.585-9.174 11.983 11.983 0 0 1 9.247-3.383c.21.017.59.049 1.107.102-8.971-12.369-7.298-28.453-7.058-30.35a11.955 11.955 0 0 1 5.122-8.411 11.961 11.961 0 0 1 9.692-1.723c.25.066.74.19 1.423.397-7.164-13.72-2.643-29.6-2.08-31.435a11.986 11.986 0 0 1 6.5-7.4 11.967 11.967 0 0 1 9.844-.017c.261.117.791.36 1.538.736-4.801-14.664 2.397-29.495 3.264-31.194a11.98 11.98 0 0 1 7.688-6.157 11.979 11.979 0 0 1 9.698 1.698c.253.17.796.547 1.544 1.116-2.352-15.216 7.304-28.565 8.443-30.078a11.963 11.963 0 0 1 17.893-1.375c.202.195.613.604 1.178 1.205.366-15.127 11.99-26.382 13.356-27.649a11.984 11.984 0 0 1 9.326-3.147 11.978 11.978 0 0 1 8.532 4.913c.148.212.456.643.863 1.267 2.95-14.637 16.145-23.576 17.685-24.576a11.97 11.97 0 0 1 9.735-1.483 11.972 11.972 0 0 1 7.55 6.32c.087.18.24.497.435.942 5.462-13.48 19.593-19.794 21.245-20.494a11.974 11.974 0 0 1 16.18 7.776c.262.936 1.495 5.577 1.798 11.66.136-.026.271-.052.407-.075a25.676 25.676 0 0 1 4.276-.344c7.821 0 16.531 3.184 18.2 3.822a11.974 11.974 0 0 1 7.203 7.806c1.056 3.58.38 7.453-1.828 10.465-.658.893-6.242 8.196-16.948 12.88 2.172 2.95 3.455 5.265 3.784 5.878a11.962 11.962 0 0 1 .674 9.835 11.963 11.963 0 0 1 -6.924 7.01c-.743.286-7.476 2.78-15.641 2.78a39.08 39.08 0 0 1 -4.416-.247 11.986 11.986 0 0 1 -5.448 7.386c-.98.59-9.402 5.484-19.713 6.07a11.994 11.994 0 0 1 -4.093 8.333c-.99.86-8.394 7.074-18.496 9.497a11.978 11.978 0 0 1 -2.574 8.946c-.9 1.114-7.148 8.546-16.736 12.729.959 3.109.62 6.483-.96 9.342-.69 1.25-5.502 9.573-14.12 15.437 1.499 2.897 1.753 6.29.686 9.393-.462 1.354-3.737 10.316-11.117 17.644 1.991 2.6 2.865 5.906 2.352 9.151-.223 1.407-1.854 10.59-7.643 19.07a11.983 11.983 0 0 1 3.654 8.398c.023 1.41.012 10.39-3.926 19.61a11.995 11.995 0 0 1 4.509 7.25c.27 1.383 1.803 10.146-.371 19.891a11.988 11.988 0 0 1 5.57 6.286c.508 1.333 3.566 9.765 3.132 19.843a11.95 11.95 0 0 1 6.417 5.172c.738 1.229 5.224 9.015 6.604 19.058 2.836.399 5.45 1.81 7.351 3.998.95 1.09 6.738 8.005 9.902 17.706 2.778-.051 5.529.887 7.728 2.667 1.124.909 7.921 6.635 12.778 15.525a11.973 11.973 0 0 1 8.021 1.288c1.275.706 8.954 5.148 15.346 13.039a11.962 11.962 0 0 1 7.845-.021c2.172.747 21.422 7.799 28.629 25.148a69.423 69.423 0 0 1 5.007 19.915 201.937 201.937 0 0 1 20.986 6.212 220.227 220.227 0 0 1 12.05 4.68 220.067 220.067 0 0 1 12.07-4.686 201.342 201.342 0 0 1 20.955-6.202 69.368 69.368 0 0 1 5.005-19.919c7.2-17.35 26.46-24.401 28.633-25.148 2.56-.881 5.326-.862 7.845.02 6.39-7.885 14.074-12.334 15.348-13.038a11.983 11.983 0 0 1 8.021-1.29c4.855-8.89 11.658-14.616 12.785-15.525a12.037 12.037 0 0 1 7.72-2.665c3.161-9.701 8.953-16.617 9.904-17.71a11.973 11.973 0 0 1 7.346-3.994c1.385-10.043 5.87-17.831 6.61-19.06a11.991 11.991 0 0 1 6.41-5.168c-.43-10.078 2.63-18.516 3.143-19.847a11.962 11.962 0 0 1 5.565-6.282c-2.18-9.745-.65-18.508-.378-19.891a11.967 11.967 0 0 1 4.513-7.254c-3.938-9.215-3.95-18.196-3.927-19.601a11.992 11.992 0 0 1 3.647-8.404c-5.79-8.479-7.414-17.664-7.639-19.07a11.998 11.998 0 0 1 2.354-9.152c-7.38-7.326-10.653-16.286-11.115-17.642a11.969 11.969 0 0 1 .685-9.393c-8.619-5.862-13.43-14.187-14.122-15.437a11.99 11.99 0 0 1 -.961-9.344c-9.582-4.183-15.832-11.615-16.729-12.725a11.984 11.984 0 0 1 -2.581-8.95c-10.093-2.423-17.499-8.637-18.485-9.495a11.983 11.983 0 0 1 -4.097-8.336c-10.316-.583-18.738-5.48-19.72-6.07a12.004 12.004 0 0 1 -5.454-7.385c-1.43.164-2.906.246-4.412.246-8.163 0-14.892-2.493-15.634-2.78a11.978 11.978 0 0 1 -6.254-16.842c.326-.613 1.613-2.93 3.785-5.878-10.708-4.684-16.29-11.989-16.947-12.882a11.977 11.977 0 0 1 5.376-18.27c1.667-.64 10.383-3.823 18.199-3.823 1.49 0 2.92.115 4.252.342.144.021.288.049.437.076.299-6.08 1.529-10.72 1.792-11.655a11.965 11.965 0 0 1 16.175-7.78c1.654.7 15.777 7.005 21.25 20.486.196-.44.346-.758.431-.934a11.967 11.967 0 0 1 17.287-4.837c1.54 1 14.742 9.939 17.69 24.576.409-.624.714-1.055.867-1.267a11.963 11.963 0 0 1 17.857-1.766c1.362 1.272 12.975 12.522 13.353 27.647.562-.599.97-1.008 1.168-1.202a11.993 11.993 0 0 1 9.26-3.355 11.96 11.96 0 0 1 8.636 4.729c1.14 1.51 10.801 14.862 8.445 30.078.75-.569 1.291-.946 1.544-1.116a11.975 11.975 0 0 1 9.698-1.698 11.98 11.98 0 0 1 7.688 6.154c.866 1.698 8.072 16.53 3.27 31.193.74-.371 1.273-.615 1.527-.732a11.967 11.967 0 0 1 16.346 7.415c.564 1.836 5.085 17.708-2.079 31.439.69-.206 1.181-.333 1.434-.4a11.976 11.976 0 0 1 14.816 10.138c.233 1.898 1.904 17.98-7.067 30.347.52-.053.895-.085 1.107-.102 3.43-.25 6.791.98 9.245 3.383a11.964 11.964 0 0 1 3.586 9.174c-.095 1.878-1.185 17.296-11.378 28.052.267.019.448.038.537.048a11.967 11.967 0 0 1 8.517 4.939c2 2.795 2.704 6.311 1.936 9.66-.426 1.842-4.163 16.758-15.942 25.739.187.049.322.087.397.11a11.95 11.95 0 0 1 7.528 6.344 11.963 11.963 0 0 1 .232 9.849c-.743 1.76-7.073 15.938-20.337 22.856.272.123.469.217.581.272a11.976 11.976 0 0 1 4.831 17.29c-1.054 1.63-9.87 14.681-24.334 19.26.25.173.437.305.552.385a11.982 11.982 0 0 1 1.76 17.876c-1.32 1.413-12.322 12.795-27.452 14.92.268.26.465.46.586.587a11.967 11.967 0 0 1 3.35 9.26 11.967 11.967 0 0 1 -4.718 8.643c-1.37 1.036-13.8 10.106-28.778 10.106-.277 0-.553-.004-.829-.01.155.223.272.392.35.51a11.97 11.97 0 0 1 1.697 9.702 11.973 11.973 0 0 1 -6.148 7.693c-1.129.577-11.362 5.628-23.493 5.628a40.5 40.5 0 0 1 -7.448-.67c.132.27.225.477.286.617a11.976 11.976 0 0 1 -7.401 16.358c-.736.227-7.44 2.212-15.917 2.212-8.432 0-15.844-1.917-22.029-5.688a69.57 69.57 0 0 1 -18.222-16.11 177.4 177.4 0 0 0 -10.14 2.56c7.315 5.613 10.868 9.696 11.466 10.411 4.163 4.956 3.635 12.326-1.19 16.639l-7.374 6.59a12.007 12.007 0 0 1 -8.888 3.006 11.972 11.972 0 0 1 -8.278-4.276c-.074-.091-7.047-8.245-21.791-17.056-14.74 8.811-21.707 16.963-21.785 17.054a11.865 11.865 0 0 1 -8.299 4.304c-.301.025-.6.036-.901.036" fill="#231f20"/><path d="m468.68 280.969c10.834-5.915 14.22-20.647 14.22-20.647s-16.737-1.704-26.81 6.135c-3.093 2.413-5.95 6.583-8.202 10.545 1.839-8.353 3.026-16.724 3.686-25.067 4.1-.757 12.678-3.062 21.222-9.891 9.447-7.55 10.204-22.348 10.204-22.348s-16.44 1.207-24.831 10.487c-2.528 2.806-4.547 7.211-6.035 11.356.218-8.746-.17-17.425-1.078-25.975 3.711-1.35 11.835-5.03 19.102-13.277 7.831-8.896 6.046-23.307 6.046-23.307s-15.665 3.968-22.175 14.35c-2.171 3.459-3.407 8.684-4.111 13.274a214.255 214.255 0 0 0 -5.86-26.975c3.158-1.768 10.703-6.712 16.528-16.268 6.052-9.917 1.885-23.52 1.885-23.52s-14.445 6.494-18.966 17.627c-1.656 4.085-1.855 10.035-1.664 14.863a217.92 217.92 0 0 0 -10.698-26.905c2.767-2.266 9.186-8.312 13.166-18.496 4.148-10.603-2.193-23.024-2.193-23.024s-12.831 8.729-15.301 20.244c-.891 4.134-.123 9.77.852 14.343-4.589-8.773-9.682-16.988-15.145-24.54 2.377-2.83 7.3-9.667 9.352-19.849 2.203-10.944-6.025-21.85-6.025-21.85s-10.908 10.611-11.336 22.147c-.14 3.856 1.323 8.72 2.918 12.805-5.988-7.527-12.358-14.227-18.943-20.003 1.716-2.854 5.628-10.492 5.885-21.147.267-10.936-9.534-20.061-9.534-20.061s-8.718 12.098-7.161 23.303c.61 4.446 3.65 9.885 6.221 13.83a219.239 219.239 0 0 0 -23.465-17.834c1.081-2.691 3.885-11.014 2.25-21.827-1.61-10.596-12.615-17.735-12.615-17.735s-6.36 13.158-2.956 23.707c1.484 4.612 6.013 9.877 9.288 13.261-9.83-6.152-18.924-10.712-26.747-14.09.556-2.524 2.009-11.204-1.501-21.64-3.346-9.962-15.194-14.97-15.194-14.97s-3.884 13.78 1.186 23.38c2.366 4.48 8.198 9.083 11.947 11.735a170.1 170.1 0 0 0 -14.167-5.074c-1.701-2.08-7.598-8.69-14.71-9.912-6.031-1.019-16.174 2.862-16.174 2.862s4.856 6.626 14.677 10c7.097 2.443 14.998-1.398 16.455-2.169a195.803 195.803 0 0 1 19.303 7.948c-3.635-.682-13.406-2.212-19.312-.278-10.303 3.385-17.068 16.005-17.068 16.005s12.002 4.614 21.314-.231c10.413-5.401 15.375-13.283 16.315-14.896 8.162 3.941 17.522 9.157 27.495 16.029-4.284-1.505-12.278-3.91-17.764-3.12-10.959 1.564-19.988 13.052-19.988 13.052s11.243 6.763 21.455 3.548c10.743-3.372 17.028-9.792 18.765-11.759a221.634 221.634 0 0 1 23.092 18.868c.581.516 1.154 1.07 1.735 1.598-4.076-2.281-11.567-6.025-17.15-6.205-11.299-.376-22.404 9.577-22.404 9.577s10.106 8.79 20.944 7.368c11.502-1.496 18.985-6.93 20.993-8.54 7.378 7.09 14.392 15.418 20.845 24.692-3.709-3.024-10.53-8.06-16.06-9.225-11.286-2.373-24.204 5.658-24.204 5.658s8.592 10.619 19.731 11.118c11.563.522 19.933-3.417 22.448-4.775 5.443 8.132 10.444 16.969 14.86 26.346-3.35-3.667-8.322-8.452-12.867-10.275-10.916-4.389-25.315 1.388-25.315 1.388s6.744 12.198 17.853 14.67c10.673 2.388 19.27.44 22.681-.592a215.095 215.095 0 0 1 9.876 27.317c-2.706-4.122-6.53-9.14-10.44-11.573-10.197-6.34-25.694-3.09-25.694-3.09s4.625 13.453 15.35 17.91c10.003 4.163 18.775 3.877 22.588 3.463a209.19 209.19 0 0 1 5.128 28.78c-1.99-4.653-4.98-10.49-8.527-13.67-9.116-8.186-25.268-7.661-25.268-7.661s2.26 14.337 12.254 20.718c9.37 5.991 18.294 7.243 22.158 7.494.687 9.524.69 19.175-.064 28.874-1.17-5.047-3.153-11.502-6.177-15.354-7.723-9.843-24.036-12.183-24.036-12.183s-.261 14.81 8.647 22.997c8.321 7.657 17.04 10.5 20.898 11.45a179.058 179.058 0 0 1 -4.962 26.017c-.358-5.025-1.249-11.03-3.389-15.027-6.018-11.258-22-16.504-22-16.504s-2.886 14.838 4.61 24.636c6.83 8.934 14.82 13.336 18.665 15.072-2.443 8.628-5.537 16.937-9.14 24.922.554-5.16.747-11.491-.712-15.96-4.059-12.381-19.189-20.486-19.189-20.486s-5.53 14.397.274 25.577c5.25 10.141 12.458 15.971 16.027 18.416-3.821 7.548-8.132 14.764-12.825 21.633 1.29-4.81 2.322-10.433 1.703-14.751-1.875-13.16-15.641-23.987-15.641-23.987s-8.111 13.484-4.267 25.75c3.348 10.677 9.214 17.69 12.473 20.972a208.622 208.622 0 0 1 -15.817 18.503c1.99-4.4 3.779-9.448 3.912-13.608.429-13.554-11.484-26.875-11.484-26.875s-10.537 12.116-8.834 25.12c1.437 11.101 5.941 19.1 8.656 23.058a213.547 213.547 0 0 1 -18.28 15.343c2.702-3.998 5.274-8.608 6.118-12.657 2.848-13.54-6.781-29.046-6.781-29.046s-12.725 10.312-13.323 23.68c-.518 11.383 2.58 20.2 4.605 24.674-7 4.675-14.124 8.824-21.266 12.402 3.66-3.685 7.436-8.181 9.12-12.377 5.246-13.108-1.67-30.393-1.67-30.393s-14.628 8.1-17.59 21.431c-2.588 11.596-.912 21.162.345 25.916-7.492 3.215-14.935 5.777-22.2 7.676 4.118-2.971 8.35-6.615 10.65-10.32 7.6-12.239 3.698-30.84 3.698-30.84s-16.129 5.548-21.468 18.419c-4.345 10.464-4.638 19.791-4.314 25.052-10.547 2.007-20.128 4.7-28.694 7.759a202.507 202.507 0 0 0 -16.07 6.474 201.47 201.47 0 0 0 -16.067-6.474c-8.567-3.059-18.152-5.756-28.706-7.761.325-5.261.032-14.588-4.313-25.05-5.346-12.871-21.466-18.418-21.466-18.418s-3.897 18.6 3.698 30.839c2.295 3.703 6.525 7.342 10.64 10.314-7.262-1.9-14.7-4.46-22.186-7.674 1.256-4.754 2.927-14.318.344-25.912-2.969-13.331-17.588-21.431-17.588-21.431s-6.923 17.285-1.673 30.393c1.677 4.193 5.452 8.682 9.106 12.368-7.136-3.582-14.255-7.727-21.254-12.4 2.027-4.475 5.12-13.29 4.612-24.668-.607-13.367-13.324-23.679-13.324-23.679s-9.637 15.507-6.787 29.046c.841 4.04 3.403 8.644 6.1 12.636a214.505 214.505 0 0 1 -18.255-15.329c2.712-3.96 7.214-11.954 8.656-23.05 1.694-13.005-8.839-25.12-8.839-25.12s-11.919 13.32-11.486 26.874c.135 4.153 1.919 9.19 3.906 13.586a208.295 208.295 0 0 1 -15.805-18.492c3.262-3.285 9.12-10.295 12.465-20.96 3.848-12.267-4.258-25.75-4.258-25.75s-13.777 10.826-15.65 23.986c-.619 4.308.407 9.913 1.692 14.715a194.195 194.195 0 0 1 -12.803-21.604c3.575-2.45 10.77-8.28 16.02-18.41 5.802-11.179.274-25.576.274-25.576s-15.132 8.105-19.189 20.486c-1.46 4.458-1.27 10.765-.72 15.912-3.597-7.97-6.685-16.265-9.121-24.876 3.849-1.743 11.83-6.142 18.656-15.07 7.492-9.798 4.602-24.636 4.602-24.636s-15.983 5.246-21.99 16.504c-2.138 3.985-3.035 9.974-3.395 14.991a178.862 178.862 0 0 1 -4.951-25.988c3.865-.949 12.576-3.794 20.889-11.443 8.908-8.187 8.645-22.997 8.645-22.997s-16.313 2.34-24.036 12.183c-3.013 3.841-4.994 10.28-6.164 15.32a192.877 192.877 0 0 1 -.066-28.84c3.878-.253 12.795-1.507 22.147-7.494 9.992-6.381 12.252-20.718 12.252-20.718s-16.15-.525-25.264 7.66c-3.543 3.171-6.52 8.98-8.512 13.627a210.121 210.121 0 0 1 5.121-28.734c3.822.412 12.586.696 22.578-3.465 10.727-4.457 15.348-17.91 15.348-17.91s-15.497-3.25-25.686 3.09c-3.904 2.426-7.719 7.42-10.424 11.539a215.803 215.803 0 0 1 9.86-27.279c3.427 1.032 12.015 2.976 22.673.588 11.111-2.472 17.855-14.67 17.855-14.67s-14.401-5.777-25.32-1.388c-4.531 1.819-9.483 6.574-12.833 10.237 4.415-9.363 9.405-18.185 14.84-26.304 2.53 1.36 10.897 5.293 22.437 4.77 11.145-.498 19.731-11.117 19.731-11.117s-12.914-8.03-24.203-5.658c-5.514 1.159-12.314 6.173-16.027 9.2 6.444-9.264 13.45-17.58 20.821-24.66 2.017 1.617 9.496 7.04 20.98 8.533 10.847 1.422 20.951-7.368 20.951-7.368s-11.107-9.953-22.405-9.577c-5.562.178-13.037 3.907-17.121 6.19.572-.526 1.138-1.071 1.715-1.583a221.064 221.064 0 0 1 23.088-18.862c1.744 1.974 8.027 8.387 18.757 11.753 10.214 3.215 21.457-3.548 21.457-3.548s-9.027-11.488-19.99-13.052c-5.467-.787-13.438 1.605-17.732 3.107 9.962-6.86 19.31-12.069 27.467-16.01.946 1.635 5.914 9.495 16.307 14.89 9.313 4.845 21.322.231 21.322.231s-6.769-12.62-17.068-16.005c-5.891-1.927-15.633-.412-19.286.271a196.44 196.44 0 0 1 19.275-7.934c1.482.774 9.367 4.598 16.453 2.162 9.823-3.374 14.679-10 14.679-10s-10.136-3.881-16.174-2.862c-7.12 1.226-13.024 7.845-14.718 9.919a171.44 171.44 0 0 0 -14.178 5.078c3.753-2.649 9.598-7.258 11.966-11.746 5.077-9.6 1.183-23.38 1.183-23.38s-11.845 5.008-15.187 14.97c-3.518 10.445-2.063 19.129-1.507 21.646-7.825 3.38-16.929 7.947-26.764 14.104 3.28-3.385 7.82-8.665 9.303-13.28 3.401-10.55-2.954-23.708-2.954-23.708s-11.003 7.14-12.61 17.735c-1.64 10.821 1.17 19.149 2.25 21.833a219.424 219.424 0 0 0 -23.485 17.856c2.576-3.95 5.627-9.403 6.245-13.858 1.55-11.205-7.166-23.303-7.166-23.303s-9.81 9.125-9.536 20.06c.257 10.667 4.176 18.308 5.887 21.154-6.59 5.785-12.963 12.496-18.96 20.03 1.597-4.09 3.073-8.97 2.927-12.838-.422-11.536-11.335-22.147-11.335-22.147s-8.223 10.906-6.02 21.85c2.053 10.19 6.981 17.035 9.356 19.86-5.465 7.554-10.56 15.771-15.151 24.555.975-4.58 1.747-10.227.857-14.37-2.475-11.514-15.304-20.243-15.304-20.243s-6.336 12.421-2.19 23.024c3.988 10.188 10.411 16.238 13.172 18.5a218.42 218.42 0 0 0 -10.709 26.946c.197-4.832.002-10.813-1.656-14.908-4.53-11.133-18.979-17.627-18.979-17.627s-4.164 13.603 1.892 23.52c5.831 9.569 13.385 14.513 16.536 16.275a215.147 215.147 0 0 0 -5.863 27.013c-.702-4.6-1.943-9.852-4.119-13.32-6.51-10.38-22.165-14.35-22.165-14.35s-1.792 14.412 6.037 23.308c7.277 8.256 15.407 11.931 19.11 13.28-.903 8.564-1.29 17.254-1.07 26.01-1.49-4.153-3.513-8.578-6.05-11.394-8.392-9.28-24.83-10.487-24.83-10.487s.755 14.797 10.208 22.348c8.546 6.835 17.134 9.138 21.229 9.896.661 8.35 1.851 16.733 3.692 25.092-2.25-3.973-5.113-8.158-8.215-10.575-10.081-7.839-26.806-6.135-26.806-6.135s3.382 14.732 14.21 20.647c9.934 5.426 19.1 6.164 23.275 6.18a181.49 181.49 0 0 0 7.356 23.286c-2.876-3.425-6.309-6.863-9.68-8.648-11.517-6.09-28.025-1.41-28.025-1.41s6.003 14.204 17.93 18.228c10.684 3.6 19.82 2.85 24.16 2.137 3.537 7.65 7.564 14.989 11.983 22.013-3.603-3.064-7.859-6.105-11.726-7.355-12.64-4.077-28.411 3.552-28.411 3.552s8.556 13.209 21.256 15.133c11.62 1.76 20.821-.755 24.925-2.232a212.438 212.438 0 0 0 15.971 19.906c-4.247-2.524-9.245-4.958-13.486-5.545-13.43-1.857-27.921 8.61-27.921 8.61s10.929 11.756 24.044 11.435c12.087-.29 20.932-4.522 24.747-6.723a220.643 220.643 0 0 0 18.822 16.835c-4.689-1.763-10.08-3.293-14.407-3.132-13.817.514-26.53 13.597-26.53 13.597s13.062 9.878 26.182 7.236c11.973-2.415 20.075-8.142 23.578-11.054 6.52 4.673 13.175 8.911 19.884 12.657-4.605-.766-9.58-1.146-13.45-.317-13.796 2.967-24.255 18.368-24.255 18.368s14.884 7.61 27.597 2.625c11.156-4.372 18.173-11.19 21.368-14.862 7.21 3.43 14.41 6.301 21.494 8.559-4.657.068-9.564.581-13.215 2.07-13.338 5.425-21.116 22.757-21.116 22.757s16.292 5.01 28.186-2.251c10.814-6.609 16.695-15.057 19.104-19.17 16.898 3.033 30.976 7.754 42.433 12.935-20.762 10.927-29.24 21.024-29.24 21.024l7.376 6.587s9.673-11.77 30.976-23.136c21.307 11.367 30.981 23.136 30.981 23.136l7.373-6.587s-8.478-10.097-29.238-21.024c11.453-5.178 25.531-9.902 42.426-12.935 2.406 4.117 8.289 12.563 19.1 19.17 11.893 7.262 28.196 2.251 28.196 2.251s-7.787-17.332-21.127-22.758c-3.647-1.488-8.55-1.997-13.207-2.069 7.085-2.256 14.286-5.127 21.49-8.55 3.195 3.667 10.212 10.481 21.37 14.853 12.704 4.985 27.59-2.625 27.59-2.625s-10.458-15.4-24.254-18.368c-3.868-.83-8.832-.45-13.431.312 6.705-3.741 13.35-7.979 19.873-12.65 3.503 2.912 11.6 8.637 23.57 11.052 13.11 2.642 26.178-7.236 26.178-7.236s-12.704-13.083-26.524-13.597c-4.322-.161-9.71 1.365-14.39 3.128a221.13 221.13 0 0 0 18.814-16.824c3.819 2.198 12.661 6.426 24.744 6.716 13.103.32 24.04-11.436 24.04-11.436s-14.498-10.466-27.925-8.61c-4.235.586-9.218 3.012-13.457 5.533 5.647-6.25 11.002-12.882 15.949-19.891 4.116 1.48 13.31 3.99 24.918 2.23 12.7-1.924 21.252-15.133 21.252-15.133s-15.76-7.629-28.407-3.552c-3.859 1.245-8.1 4.276-11.699 7.334a195.933 195.933 0 0 0 11.97-21.99c4.337.713 13.468 1.46 24.145-2.139 11.928-4.024 17.938-18.227 17.938-18.227s-16.515-4.682-28.03 1.409c-3.37 1.78-6.79 5.208-9.663 8.624a180.692 180.692 0 0 0 7.35-23.263c4.18-.017 13.336-.76 23.262-6.18" fill="#00a550"/><g fill="#20419a"><path d="m132 143h13.878l1.172 23.871h.294c.781-3.146 1.515-5.604 2.199-7.372l6.303-16.499h10.26l1.561 23.871h.294c.686-2.97 1.337-5.32 1.957-7.053l6.155-16.818h13.927l-18.812 40h-11.68l-1.024-21.752h-.44c-.618 2.939-1.14 4.953-1.563 6.047l-6.012 15.705h-11.38zm66.861 25.516h5.407l-.54-7.056c-.066-1.06-.1-2.776-.1-5.146h-.49zm-3.785 9.496-1.822 4.988h-14.254l18.731-40h14.895l7.374 40h-14.258l-.492-4.988zm26.924 4.988 5.848-40h12.922l8.848 22.176h.392c-.066-4.67.064-8.063.393-10.187l1.72-11.989h12.877l-5.848 40h-12.877l-8.746-21.008h-.396c.036 3.465-.081 6.137-.343 8.013l-1.915 12.995zm43 0 5.846-40h13.116l-2.801 17.347h.293a5.93 5.93 0 0 1 .296-.823c.132-.298.247-.548.344-.742a7.7 7.7 0 0 1 .468-.768c.211-.32.36-.557.44-.717.084-.16.245-.415.49-.77.249-.351.402-.582.47-.69l8.35-12.837h14.688l-14.444 19.47 9.826 20.53h-15.623l-4.616-12.096c-.098-.317-.293-.796-.589-1.43a15.556 15.556 0 0 1 -.69-1.727 6.468 6.468 0 0 1 -.295-1.51h-.293l-2.162 16.763z"/><path d="m305 183 5.892509-40h25.107491l-1.586775 10.928376h-11.437642l-.596113 3.820626h10.449125l-1.533167 10.396976h-10.449125l-.546794 3.925646h11.83648l-1.633948 10.928376z"/><path d="m353.57 153.928-.99 6.791h.94c.628 0 1.18-.034 1.66-.105a5.936 5.936 0 0 0 1.459-.426c.495-.21.891-.557 1.187-1.034.298-.477.512-1.069.643-1.777.197-1.413-.05-2.344-.741-2.787-.695-.441-1.732-.662-3.119-.662h-1.04zm-17.57 29.072 5.89-40h16.38c2.18 0 4.143.256 5.891.769 1.75.514 3.275 1.308 4.578 2.388 1.303 1.077 2.23 2.529 2.771 4.35.545 1.82.635 3.953.273 6.391-.43 2.939-1.312 5.174-2.647 6.711-1.338 1.54-3.376 2.77-6.113 3.686l-.049.322c.956.918 1.601 1.714 1.929 2.386l6.187 12.997h-15.638l-4.06-12.838h-.248l-1.88 12.838zm-170.68 31.417c-1.313-1.893-3.271-2.843-5.876-2.843-2.606 0-4.841.95-6.706 2.843-1.87 1.892-3.006 4.222-3.414 6.984-.412 2.853.049 5.18 1.383 6.984 1.332 1.806 3.28 2.707 5.844 2.707s4.79-.9 6.679-2.707c1.884-1.804 3.031-4.131 3.443-6.984.41-2.762-.042-5.092-1.353-6.984m-3.507-19.417c3.529 0 6.755.625 9.691 1.872 2.932 1.247 5.403 2.985 7.412 5.211 2.012 2.23 3.446 4.993 4.308 8.29.863 3.297 1.005 6.884.432 10.762-.74 5.258-2.564 9.869-5.477 13.834-2.912 3.966-6.441 6.963-10.584 8.99-4.142 2.028-8.593 3.041-13.351 3.041-3.529 0-6.766-.601-9.721-1.804-2.953-1.203-5.426-2.885-7.412-5.047-1.993-2.161-3.429-4.879-4.31-8.154-.884-3.274-1.035-6.895-.46-10.86.778-5.125 2.614-9.704 5.505-13.736 2.895-4.033 6.441-7.107 10.645-9.223 4.206-2.117 8.644-3.176 13.322-3.176"/><path d="m186 246 7.247607-51h30.752393l-2.071045 14.611388h-13.944337l-.731699 5.276156h12.241244l-1.888121 13.255516h-12.239141l-2.558845 17.85694z"/><path d="m248 211.57153 2.352696-16.57153h35.647304l-2.35056 16.57153-9.28471-.474021-5.072934 34.902491h-16.962493l5.077209-34.902491z"/><path d="m283 246 7.301419-51h16.199958l-2.454989 17.180071h10.305021l2.45287-17.180071h16.195721l-7.299301 51h-16.193603l2.573607-17.72242h-10.307138l-2.575726 17.72242z"/><path d="m333 246 7.222326-51h30.777674l-1.94286 13.93452h-14.019194l-.731454 4.870462h12.809883l-1.884176 13.255516h-12.805692l-.668579 5.007118h14.507529l-2.001544 13.932384z"/><path d="m131 257h25.537l4.365 17.767h.662c1.593-3.486 2.58-5.622 2.966-6.402l6.096-11.365h25.374l-26.857 38.69-4.203 29.31h-22.078l4.203-29.31z"/><path d="m191 325 9.887009-68h42.112991l-2.658691 18.578715h-19.186038l-.99914 6.492505h17.528616l-2.575607 17.6778h-17.526486l-.911795 6.672265h19.848581l-2.739646 18.578715z"/><path d="m270.425 300.38h9.099l-.908-11.995c-.11-1.802-.168-4.718-.168-8.749h-.825zm-6.372 16.142-3.061 8.478h-23.992l31.522-68h25.067l12.411 68h-23.994l-.827-8.478zm76.23-40.943-1.647 11.545h1.565c1.043 0 1.966-.06 2.763-.182a9.644 9.644 0 0 0 2.433-.721c.825-.362 1.485-.948 1.98-1.76s.852-1.817 1.07-3.022c.333-2.403-.082-3.98-1.235-4.733-1.155-.75-2.888-1.127-5.2-1.127h-1.728zm-29.283 49.421 9.818-68h27.3c3.63 0 6.902.438 9.817 1.31 2.915.87 5.456 2.224 7.628 4.057 2.175 1.834 3.713 4.298 4.62 7.394.908 3.098 1.058 6.72.455 10.868-.717 4.99-2.187 8.793-4.413 11.41-2.227 2.615-5.624 4.705-10.187 6.268l-.083.541c1.593 1.563 2.668 2.916 3.218 4.058l10.31 22.094h-26.066l-6.763-21.825h-.413l-3.135 21.825z"/></g><path d="m127 138h13.876l1.173 23.872h.294c.78-3.148 1.515-5.606 2.2-7.375l6.302-16.497h10.26l1.563 23.872h.292c.686-2.972 1.338-5.322 1.958-7.055l6.155-16.817h13.927l-18.81 40h-11.68l-1.027-21.75h-.44c-.618 2.936-1.138 4.952-1.564 6.047l-6.009 15.703h-11.384z" fill="#ffcb2e"/><path d="m127 138h13.876l1.173 23.872h.294c.78-3.148 1.515-5.606 2.2-7.375l6.302-16.497h10.26l1.563 23.872h.292c.686-2.972 1.338-5.322 1.958-7.055l6.155-16.817h13.927l-18.81 40h-11.68l-1.027-21.75h-.44c-.618 2.936-1.138 4.952-1.564 6.047l-6.009 15.703h-11.384z" stroke="#20419a" stroke-linecap="round" stroke-linejoin="round" stroke-width=".781"/><path d="m193.86 163.517h5.408l-.541-7.056c-.066-1.062-.1-2.776-.1-5.148h-.488zm-3.785 9.496-1.82 4.987h-14.255l18.73-40h14.896l7.374 40h-14.26l-.489-4.987z" fill="#ffcb2e"/><path d="m193.86 163.517h5.408l-.541-7.056c-.066-1.062-.1-2.776-.1-5.148h-.488zm-3.785 9.496-1.82 4.987h-14.255l18.73-40h14.896l7.374 40h-14.26l-.489-4.987z" stroke="#20419a" stroke-linecap="round" stroke-linejoin="round" stroke-width=".781"/><path d="m217 178 5.848-40h12.924l8.846 22.175h.392c-.064-4.67.064-8.064.396-10.187l1.72-11.988h12.874l-5.848 40h-12.875l-8.748-21.007h-.396c.036 3.464-.081 6.135-.343 8.011l-1.915 12.996z" fill="#ffcb2e"/><path d="m217 178 5.848-40h12.924l8.846 22.175h.392c-.064-4.67.064-8.064.396-10.187l1.72-11.988h12.874l-5.848 40h-12.875l-8.748-21.007h-.396c.036 3.464-.081 6.135-.343 8.011l-1.915 12.996z" stroke="#20419a" stroke-linecap="round" stroke-linejoin="round" stroke-width=".781"/><path d="m260 178 5.846-40h13.116l-2.801 17.348h.293c.066-.248.164-.52.296-.823.132-.299.247-.549.347-.742.095-.195.25-.451.465-.77.211-.318.36-.557.443-.715a7.63 7.63 0 0 1 .49-.773c.246-.35.401-.582.467-.689l8.352-12.836h14.686l-14.442 19.47 9.826 20.53h-15.625l-4.614-12.095c-.1-.319-.295-.798-.59-1.432a15.797 15.797 0 0 1 -.69-1.725 6.392 6.392 0 0 1 -.294-1.512h-.293l-2.162 16.764z" fill="#ffcb2e"/><path d="m260 178 5.846-40h13.116l-2.801 17.348h.293c.066-.248.164-.52.296-.823.132-.299.247-.549.347-.742.095-.195.25-.451.465-.77.211-.318.36-.557.443-.715a7.63 7.63 0 0 1 .49-.773c.246-.35.401-.582.467-.689l8.352-12.836h14.686l-14.442 19.47 9.826 20.53h-15.625l-4.614-12.095c-.1-.319-.295-.798-.59-1.432a15.797 15.797 0 0 1 -.69-1.725 6.392 6.392 0 0 1 -.294-1.512h-.293l-2.162 16.764z" stroke="#20419a" stroke-linecap="round" stroke-linejoin="round" stroke-width=".781"/><path d="m300 178 5.892509-40h25.107491l-1.58463 10.92685h-11.439787l-.593969 3.820826h10.446981l-1.533167 10.399622h-10.449125l-.54465 3.923752h11.834336l-1.631804 10.92895z" fill="#ffcb2e"/><path d="m300 178 5.892509-40h25.107491l-1.58463 10.92685h-11.439787l-.593969 3.820826h10.446981l-1.533167 10.399622h-10.449125l-.54465 3.923752h11.834336l-1.631804 10.92895z" stroke="#20419a" stroke-linecap="round" stroke-linejoin="round" stroke-width=".781"/><path d="m348.57 148.927-.988 6.79h.938c.628 0 1.18-.033 1.66-.104a5.977 5.977 0 0 0 1.46-.427c.494-.21.89-.554 1.186-1.033.298-.477.512-1.07.645-1.777.197-1.414-.05-2.344-.744-2.787-.694-.442-1.731-.662-3.118-.662h-1.04zm-17.57 29.073 5.89-40h16.382c2.177 0 4.14.256 5.89.767 1.748.514 3.274 1.31 4.577 2.39 1.305 1.076 2.229 2.527 2.773 4.348.543 1.821.633 3.953.27 6.394-.426 2.937-1.311 5.172-2.646 6.71-1.336 1.539-3.376 2.77-6.113 3.688l-.049.319c.956.92 1.6 1.714 1.929 2.386l6.187 12.998h-15.639l-4.059-12.838h-.248l-1.88 12.838z" fill="#ffcb2e"/><path d="m348.57 148.927-.988 6.79h.938c.628 0 1.18-.033 1.66-.104a5.977 5.977 0 0 0 1.46-.427c.494-.21.89-.554 1.186-1.033.298-.477.512-1.07.645-1.777.197-1.414-.05-2.344-.744-2.787-.694-.442-1.731-.662-3.118-.662h-1.04zm-17.57 29.073 5.89-40h16.382c2.177 0 4.14.256 5.89.767 1.748.514 3.274 1.31 4.577 2.39 1.305 1.076 2.229 2.527 2.773 4.348.543 1.821.633 3.953.27 6.394-.426 2.937-1.311 5.172-2.646 6.71-1.336 1.539-3.376 2.77-6.113 3.688l-.049.319c.956.92 1.6 1.714 1.929 2.386l6.187 12.998h-15.639l-4.059-12.838h-.248l-1.88 12.838z" stroke="#20419a" stroke-linecap="round" stroke-linejoin="round" stroke-width=".781"/><path d="m160.32 209.417c-1.313-1.893-3.272-2.843-5.876-2.843-2.607 0-4.842.95-6.707 2.843-1.867 1.892-3.006 4.222-3.414 6.986-.412 2.85.051 5.18 1.383 6.982 1.334 1.806 3.28 2.707 5.847 2.707 2.562 0 4.788-.9 6.677-2.707 1.884-1.802 3.031-4.131 3.443-6.982.41-2.764-.042-5.094-1.353-6.986m-3.505-19.417c3.526 0 6.755.625 9.689 1.874 2.932 1.245 5.404 2.983 7.412 5.21 2.012 2.23 3.446 4.992 4.31 8.29.86 3.296 1.003 6.885.43 10.761-.74 5.258-2.565 9.869-5.477 13.834-2.913 3.966-6.441 6.963-10.584 8.993-4.142 2.027-8.593 3.038-13.352 3.038-3.528 0-6.766-.601-9.719-1.804-2.955-1.2-5.427-2.885-7.414-5.047-1.992-2.159-3.426-4.877-4.31-8.154-.882-3.274-1.035-6.895-.459-10.86.78-5.123 2.615-9.702 5.504-13.736 2.896-4.033 6.442-7.107 10.646-9.223 4.206-2.117 8.646-3.176 13.324-3.176" fill="#ffcb2e"/><path d="m160.32 209.417c-1.313-1.893-3.272-2.843-5.876-2.843-2.607 0-4.842.95-6.707 2.843-1.867 1.892-3.006 4.222-3.414 6.986-.412 2.85.051 5.18 1.383 6.982 1.334 1.806 3.28 2.707 5.847 2.707 2.562 0 4.788-.9 6.677-2.707 1.884-1.802 3.031-4.131 3.443-6.982.41-2.764-.042-5.094-1.353-6.986zm-3.505-19.417c3.526 0 6.755.625 9.689 1.874 2.932 1.245 5.404 2.983 7.412 5.21 2.012 2.23 3.446 4.992 4.31 8.29.86 3.296 1.003 6.885.43 10.761-.74 5.258-2.565 9.869-5.477 13.834-2.913 3.966-6.441 6.963-10.584 8.993-4.142 2.027-8.593 3.038-13.352 3.038-3.528 0-6.766-.601-9.719-1.804-2.955-1.2-5.427-2.885-7.414-5.047-1.992-2.159-3.426-4.877-4.31-8.154-.882-3.274-1.035-6.895-.459-10.86.78-5.123 2.615-9.702 5.504-13.736 2.896-4.033 6.442-7.107 10.646-9.223 4.206-2.117 8.646-3.176 13.324-3.176z" stroke="#20419a" stroke-linecap="round" stroke-linejoin="round" stroke-width=".781"/><path d="m181 241 7.247206-51h30.752794l-2.073033 14.611388h-13.943565l-.731659 5.276156h12.240566l-1.888016 13.257652h-12.238464l-2.558703 17.854804z" fill="#ffcb2e"/><path d="m181 241 7.247206-51h30.752794l-2.073033 14.611388h-13.943565l-.731659 5.276156h12.240566l-1.888016 13.257652h-12.238464l-2.558703 17.854804z" stroke="#20419a" stroke-linecap="round" stroke-linejoin="round" stroke-width=".781"/><path d="m243 206.57153 2.350692-16.57153h35.649308l-2.350692 16.57153-9.285232-.474021-5.07322 34.902491h-16.961309l5.077494-34.902491z" fill="#ffcb2e"/><path d="m243 206.57153 2.350692-16.57153h35.649308l-2.350692 16.57153-9.285232-.474021-5.07322 34.902491h-16.961309l5.077494-34.902491z" stroke="#20419a" stroke-linecap="round" stroke-linejoin="round" stroke-width=".781"/><path d="m278 241 7.301419-51h16.19784l-2.454989 17.182206h10.30502l2.452871-17.182206h16.197839l-7.301419 51h-16.193603l2.575725-17.720285h-10.309256l-2.575726 17.720285z" fill="#ffcb2e"/><path d="m278 241 7.301419-51h16.19784l-2.454989 17.182206h10.30502l2.452871-17.182206h16.197839l-7.301419 51h-16.193603l2.575725-17.720285h-10.309256l-2.575726 17.720285z" stroke="#20419a" stroke-linecap="round" stroke-linejoin="round" stroke-width=".781"/><path d="m328 241 7.222326-51h30.777674l-1.944956 13.936655h-14.019194l-.729358 4.868327h12.807787l-1.884176 13.255516h-12.805692l-.668578 5.007118h14.507528l-2.001544 13.932384z" fill="#ffcb2e"/><path d="m328 241 7.222326-51h30.777674l-1.944956 13.936655h-14.019194l-.729358 4.868327h12.807787l-1.884176 13.255516h-12.805692l-.668578 5.007118h14.507528l-2.001544 13.932384z" stroke="#20419a" stroke-linecap="round" stroke-linejoin="round" stroke-width=".781"/><path d="m127 251h25.538l4.365 17.767h.66c1.593-3.486 2.581-5.62 2.966-6.402l6.096-11.365h25.375l-26.859 38.69-4.201 29.31h-22.077l4.202-29.31z" fill="#ffcb2e"/><path d="m127 251h25.538l4.365 17.767h.66c1.593-3.486 2.581-5.62 2.966-6.402l6.096-11.365h25.375l-26.859 38.69-4.201 29.31h-22.077l4.202-29.31z" stroke="#20419a" stroke-linecap="round" stroke-linejoin="round" stroke-width=".781"/><path d="m186 319 9.887009-68h42.112991l-2.656561 18.578715h-19.188168l-.99701 6.492505h17.526486l-2.575607 17.6778h-17.526486l-.911795 6.67438h19.850711l-2.739645 18.5766z" fill="#ffcb2e"/><path d="m186 319 9.887009-68h42.112991l-2.656561 18.578715h-19.188168l-.99701 6.492505h17.526486l-2.575607 17.6778h-17.526486l-.911795 6.67438h19.850711l-2.739645 18.5766z" stroke="#20419a" stroke-linecap="round" stroke-linejoin="round" stroke-width=".781"/><path d="m265.424 294.38h9.098l-.908-11.995c-.11-1.802-.167-4.718-.167-8.749h-.826zm-6.371 16.144-3.06 8.476h-23.993l31.523-68h25.067l12.41 68h-23.995l-.828-8.476z" fill="#ffcb2e"/><path d="m265.424 294.38h9.098l-.908-11.995c-.11-1.802-.167-4.718-.167-8.749h-.826zm-6.371 16.144-3.06 8.476h-23.993l31.523-68h25.067l12.41 68h-23.995l-.828-8.476z" stroke="#20419a" stroke-linecap="round" stroke-linejoin="round" stroke-width=".781"/><path d="m335.283 269.579-1.647 11.545h1.565c1.043 0 1.965-.06 2.763-.182a9.644 9.644 0 0 0 2.432-.721c.825-.36 1.487-.946 1.982-1.76.493-.81.85-1.817 1.07-3.02.33-2.402-.084-3.982-1.237-4.735-1.155-.75-2.887-1.127-5.197-1.127h-1.73zm-29.283 49.421 9.818-68h27.299c3.632 0 6.904.438 9.817 1.31 2.915.87 5.456 2.224 7.628 4.057 2.175 1.834 3.713 4.298 4.623 7.396.905 3.096 1.057 6.719.452 10.866-.717 4.99-2.187 8.793-4.412 11.41-2.228 2.615-5.625 4.705-10.188 6.268l-.083.541c1.593 1.563 2.668 2.916 3.218 4.058l10.31 22.094h-26.066l-6.763-21.823h-.412l-3.135 21.823z" fill="#ffcb2e"/><path d="m335.283 269.579-1.647 11.545h1.565c1.043 0 1.965-.06 2.763-.182a9.644 9.644 0 0 0 2.432-.721c.825-.36 1.487-.946 1.982-1.76.493-.81.85-1.817 1.07-3.02.33-2.402-.084-3.982-1.237-4.735-1.155-.75-2.887-1.127-5.197-1.127h-1.73zm-29.283 49.421 9.818-68h27.299c3.632 0 6.904.438 9.817 1.31 2.915.87 5.456 2.224 7.628 4.057 2.175 1.834 3.713 4.298 4.623 7.396.905 3.096 1.057 6.719.452 10.866-.717 4.99-2.187 8.793-4.412 11.41-2.228 2.615-5.625 4.705-10.188 6.268l-.083.541c1.593 1.563 2.668 2.916 3.218 4.058l10.31 22.094h-26.066l-6.763-21.823h-.412l-3.135 21.823z" stroke="#20419a" stroke-linecap="round" stroke-linejoin="round" stroke-width=".781"/></g></svg>
