
<svg id="Layer_1" xmlns="http://www.w3.org/2000/svg" viewBox="0 0 677.5 778.9"><style>.st0{fill:#0c4c9a}.st1{fill:#2fa8dc}.st2{fill:none}.st3{fill:#008dce}.st4{fill:#13bdea}.st5{fill:#fff}.st6{fill:#9cd8f2}</style><path class="st0" d="M0 181.3L234.4 189.4 315.9 262.8 302.4 311.5 219.3 438.9 178.1 456.4 0 359.3z"/><path class="st0" d="M225.9 589L352.1 507.8 620.8 548.7 645.1 580.8 622.1 658.2 527.2 768.9 516.1 778.9 234.4 778.9z"/><path class="st1" d="M528.1 778.9h149.4v-317l-39.8 29.9-6.5 72.8 19.7 47.3-50 85.1s-74 64.4-74 66.4 1.2 15.5 1.2 15.5zM195.7 453.4l65.4-54.5 45.3-96-8.8-52 24.8-88.7 101.7-29 79.9 14.9 55.8 58.5s24.1 36.9 25.5 99.6-94.3 46.1-94.3 46.1l-82.3 28.9-17.8 7.5-21.7 84-40.9 49.2-87.3 36.3-23.7-2.2-21.6-102.6z"/><path class="st1" d="M0 451.5l49.8-17.8 125 14.8 49.3 66.9 17.6 64.6s6.8 15.7 6.4 187.4l-179.3 5.7-33 5.7H0V451.5z"/><path class="st0" d="M576 286.2s13.5 26.8-2.6 26.8c8.2 5 82.4 126.2 34.6 7.3-4.9-12.1 28.6.1 42.2 2 10.5-9.7 15.2-32.3 27.4-40.4v-50.6c-22.8 12-53.9 15.8-73.4 32.9-10.4 9.3-19.5 11.9-28.2 22z"/><path class="st2" d="M638.9 584.5c-.9.3-1.7.6-2.6.8.9-.3 1.8-.5 2.6-.8zM300.3 278.4c-.9.3-1.7.6-2.6.8.9-.2 1.8-.5 2.6-.8zm-5.3 1.4v6.9c.2-2.4.4-4.7.4-6.8v-.1c-.2-.1-.3-.1-.4 0zM451 68.2c28 17.5 50.9 39 69.3 62.7-18.5-23.7-41.3-45.2-69.3-62.7-63.3-39.5-134.6-47-196.7-39.7 62.1-7.3 133.4.1 196.7 39.7z"/><path class="st1" d="M169.6 48.2c-4.4 1.6-8.8 3.3-12.9 4.9 4.1-1.6 8.4-3.3 12.9-4.9z"/><path class="st0" d="M2.9 335.3c18.5 2.6 37 7 55.3 13.4-18.3-6.4-36.8-10.7-55.3-13.4zm108.4 39c-1.3-.8-2.7-1.6-4-2.5 1.4.8 2.7 1.6 4 2.5 14.2 8.9 27.1 18.8 38.8 29.6-11.6-10.8-24.5-20.7-38.8-29.6z"/><path class="st3" d="M163.6 402.9c-1.7 0-3.3.1-5 .1 10.1 9.8 19.1 20.1 27.1 30.7 9.6-5.1 18.6-10.8 26.9-17-14.2-8.9-31.2-13.8-49-13.8zm-13.5.9c11.1 10.2 21.1 21.2 30.1 32.7-8.9-11.5-18.9-22.4-30.1-32.7zm95.7-17.6c10.3-11.6 18.8-23.7 25.8-35.6-31-20.8-68.6-32-108.1-32h-4.3c-6 10.1-16.2 17.3-28.2 20-10.9 2.5-22.2-1.2-31.9-9.6-10.2 3.5-20 7.8-29.3 12.8 15.5 7.6 30.8 16.5 45.8 26.7 15.1-5.2 31.3-7.9 47.9-7.9 30.3.1 59 9.1 82.3 25.6zM58.2 348.8c16.7 5.9 33.1 13.5 49.1 23-16-9.6-32.4-17.2-49.1-23zm233.5-68.6c-6.9.6-13.7-1.4-19.3-5.5-3.1 8.2-8.9 14.8-16.2 19.1 11.7 4.6 22.9 10.1 33.6 16.5 2.7-8.7 4.4-16.7 5.1-23.7v-6.9c-1 .3-2.1.4-3.2.5zm-210.9 9.9c-.2-1.7-.3-3.3-.5-5-4.5 2.2-9.3 3.7-14.3 4.4-13.1 2-26.2-3.9-36.4-15.8-1.8-2-3.3-4.1-4.7-6.3C16.3 271.9 8 276.8 0 282v34.1c6.6 1.7 13.2 3.5 19.8 5.6 18.5-13.4 39-24 61-31.6zm124.9-12.5c-.7.7-1.4 1.3-2.1 1.9 1.2.2 2.3.4 3.5.6-.5-.8-1-1.6-1.4-2.5zM2.9 335.3c-1-.1-1.9-.3-2.9-.4 1 .1 1.9.3 2.9.4zm13.4-118c-3.8-3.1-7.1-6.8-9.6-10.9-4.7-7.5-6.6-16.1-6.7-25v50.2c5.2-2.7 10.4-5.3 15.7-7.7.1-2.3.3-4.5.6-6.6z"/><path class="st1" d="M559.9 199.4c-2.8-6.7-5.8-13.3-9.1-19.9 3.2 6.5 6.3 13.2 9.1 19.9z"/><path class="st4" d="M550.8 179.5c-8.4-16.8-18.5-33.1-30.5-48.5 11.9 15.3 22 31.7 30.5 48.5zm21.9 56.6c.4 1.5.9 3 1.3 4.6-.4-1.5-.8-3-1.3-4.6z"/><path class="st0" d="M621.3 332.3c-9.6.4-19.1 1.1-28.4 2.2 9.3-1.1 18.8-1.8 28.4-2.2zM585 304.8c0 .5.1.9.1 1.4 0-.5 0-.9-.1-1.4z"/><path class="st3" d="M621.3 332.3c18.3-.7 37.2 0 56.1 2.5-18.9-2.5-37.8-3.2-56.1-2.5zm56.2-16.2V282c-12.2 8.1-23.6 17.5-34.1 27.2 11.2 1.7 22.6 4.1 34.1 6.9zm-99-71.7c-.4.3-.7.7-1.1 1 4.4 20.4 6.8 40.4 7.9 59.1 8.7-10.1 18.2-19.8 28.5-28.9 19.4-17.1 40.8-32.2 63.6-44.2v-49.8c-8.7 3.8-17.2 7.9-25.5 12.2-26.6 14.1-51.2 30.9-73.4 50.6zm-.8 11.3c0 .1 0 .2.1.3-.1-.1-.1-.2-.1-.3zm7.3 49.1c-.1-1.3-.2-2.6-.3-3.8.2 1.3.2 2.6.3 3.8z"/><path class="st1" d="M211.1 485.5c3.3 6.6 6.3 13.2 9.1 19.9-2.8-6.6-5.8-13.3-9.1-19.9zm354.4-271.7c-1.8-4.8-3.6-9.6-5.6-14.5 2 4.9 3.9 9.7 5.6 14.5zm4.5 13.4c-.4-1.4-.9-2.8-1.3-4.2.4 1.4.9 2.8 1.3 4.2zm-61.8 127.1c-4.4 1.6-8.8 3.3-12.9 4.9 4.1-1.6 8.5-3.3 12.9-4.9zm74.5-71.4c.2 1.7.5 3.3.7 5-.3-1.6-.5-3.3-.7-5zm-1.4-8.9c.3 1.8.6 3.7.9 5.5-.3-1.8-.6-3.6-.9-5.5zm3.4 27c-.2-2.6-.5-5.3-.8-7.9-.1-.6-.1-1.1-.2-1.7.1.6.1 1.1.2 1.7.4 2.7.6 5.3.8 7.9z"/><path class="st5" d="M96 268.2c6.3-6 5.4-18.7 0-19.4l-1.9-3.3c-9.9-1-16.9-9.6-24.3-19.1-2.9-3.8-18.8-.9-20.5-5.4v-.1l8.9-7c-4.9 1.9-17.6-1.9-22.8-2-6.5-.1-14.1 9.5-19.1 5.4-.2 2.2-.4 4.3-.6 6.5-1 15.5 1.1 30.9 9.2 43.7 1.4 2.2 3 4.3 4.7 6.3 10.3 11.8 23.3 17.8 36.4 15.8 4.9-.8 9.7-2.3 14.3-4.4-.3-5.5 11.8-13.3 15.7-17z"/><path class="st4" d="M180.3 436.5c12.1 15.6 22.4 32.1 30.9 49-8.6-16.9-18.8-33.4-30.9-49zm70.9 5.8c66-91 69.9-140.6 61.6-170.4l-.1-.2c-3.7 3-7.8 5.3-12.3 6.8-.9.3-1.7.6-2.6.8-.8.2-1.6.4-2.4.5v.1c0 2.1-.1 4.4-.4 6.8-.7 6.9-2.4 14.9-5.1 23.7-3.9 12.4-9.9 26.2-18.2 40.3-7 11.9-15.6 24-25.8 35.6-9.6 10.8-20.7 21.2-33.3 30.6-8.3 6.2-17.3 11.9-26.9 17 11.5 15.4 21 31.5 28.8 48 18.2-20.3 36.7-39.6 36.7-39.6zm69.1-242.7h-.2c-1.2 5.3-1.5 10.8-.8 16.2h.1s98.1-1.8 70.5 152.8c.8-.8 1.6-1.6 2.4-2.3 7.7-7.3 19.1-15.7 34.3-23.8 12.3-138.1-83.9-141-106.3-142.9z"/><path class="st4" d="M340 169.4h-.7c-4.9 4.3-9.2 9.3-12.7 14.9l.6.2c31 2.2 131.1 13.5 131.7 143.7 9.8-3.6 20.5-7 32.2-9.9-9.8-126.7-111.9-146.4-151.1-148.9z"/><path class="st4" d="M504.7 196c-34.7-33.5-87.5-47.1-121.9-48.6v-.1c-4 1-7.9 2.2-11.8 3.6-3.8 1.4-7.6 3-11.3 4.8 49.2 5.8 148.6 31.5 164.6 155.7 9-1.4 18.3-2.6 28.2-3.5-6.3-55.1-25.3-90-47.8-111.9z"/><path class="st6" d="M34.1 223.8c5.2 0 10.4-.9 15.2-2.8v-.1c-5.3-14.3 11-24.4 14.1-39.5C66 169 69.2 140.1 75 129c-5.5-1.7-11.7-4-14.6-5.6-8.4-4.7-28.1-3.5-29.4-14.5v-.1c-12.1 12.7-21.1 28-26.5 44.8C1.7 162.4-.1 172 0 181.4c.1 8.9 2 17.6 6.7 25 2.5 4.2 5.8 7.9 9.6 10.9 5 4.1 11.3 6.4 17.8 6.5z"/><path class="st5" d="M245.4.1h-.3c-2 0-4 .1-5.9.2-9.2.3-18 .9-26.6 1.7-9.8.9-19.2 2.1-28.2 3.6-11.8 1.9-22.8 4.2-33.1 6.9-11.7 3-22.4 6.4-32.2 10-12.1 4.5-22.8 9.4-32 14.4-14.8 8-25.8 16.1-33.3 23.3-1.1 1.1-2.3 2.2-3.4 3.4C39.2 75.2 30 90 30.8 105.9c0 1 .1 1.9.2 2.9v.1c1.3 11 6.3 19.9 14.7 24.6 2.9 1.6 9.1 4 14.6 5.6.1-.3 10.5 8.6 10.7 8.3 19.3-36.9 54.4-63.8 95.3-80.5l3.2-3.3c4.1-1.7 1.4-4.1 5.8-5.7 24.4-8.8 49.6-16 80.8-19.7C318.2 31 381 33.3 444.3 72.9c28 17.5 53.6 36.6 72 60.3 12 15.4 25.9 29.5 34.3 46.2 3.3 6.6 6.3 13.2 9.1 19.9 2 4.8 3.9 9.6 5.6 14.5 1.1 3 2.2 6.1 3.2 9.2.5 1.4.9 2.8 1.3 4.2l2.7 9c.4 1.5.9 3 1.3 4.6 1.4 5 2.6 10 3.7 15 0 .1 0 .2.1.3 1.4 6.1 2.5 12.1 3.5 18.1.3 1.8.6 3.7.9 5.5.2 1.1.3 2.3.5 3.4.2 1.7.5 3.3.7 5 .2 1.2.3 2.4.4 3.6.1.6.1 1.1.2 1.7.3 2.6.6 5.2.8 7.8.1 1.3.2 2.5.3 3.8 0 .5.1.9.1 1.4h.2c0-.5-.1-1.1-.1-1.6-1.1-18.8-3.5-38.7-7.9-59.1-1.7-8.1-3.8-16.2-6.1-24.3C566.7 206.2 561 191 554 176c-7.7-16.3-17.1-32.4-28.5-47.6-12.8-17.1-28.1-33.3-46.4-47.9C410.3 25.2 333.2 1 264.8 0c-6.5 0-12.9 0-19.2.1h-.2z"/><path class="st1" d="M581.5 280.7l-.5-3.5-1-4c.5 2.4 1 4.9 1.5 7.5z"/><path class="st1" d="M47.7 174.3c-3.1 15.2-3.8 32.1 1.5 46.5v.1c1.7 4.5 4 8.8 6.9 12.6 7.4 9.5 16.7 15.4 26.6 16.4l.5-.1v-.1c4.3-18.5 23.3-20 34.8-35.9 27 31.9 15.5-8.7 10.6-14.5-4.3-4.2-1.8-14.2-3.7-19.9-5.8-16.3-2.3-25.9 6.3-40.9 23.4-41 50.5-61.3 119.4-73.3 36-6.3 144.3-29.3 232 49.3 68.9 61.8 95.5 128.8 101.2 178.6-.1-.6-.1-1.1-.2-1.7-.1-1.2-.3-2.4-.4-3.6-.2-1.7-.4-3.3-.7-5-.2-1.1-.3-2.2-.5-3.4-.3-1.8-.6-3.7-.9-5.5-1-6-2.2-12-3.5-18.1 0-.1 0-.2-.1-.3-1.1-5-2.3-10-3.7-15-.4-1.5-.8-3-1.3-4.6l-2.7-9c-.4-1.4-.9-2.8-1.3-4.2-1-3.1-2.1-6.1-3.2-9.2-1.8-4.8-3.6-9.6-5.6-14.5-2.8-6.7-5.8-13.3-9.1-19.9-8.4-16.8-18.5-33.1-30.5-48.5-18.3-23.4-41.1-44.9-69.1-62.4-63.3-39.5-134.6-47-196.7-39.7-31.3 3.6-60.2 11-84.7 19.8-4.4 1.6-8.8 3.3-12.9 4.9-41 16.7-76.5 48.1-95.8 85.1-.1.3-.3.5-.4.8-5.9 11.1-10.2 23-12.8 35.2z"/><path class="st6" d="M99.1 329.1c9.7 8.4 21 12.1 31.9 9.6 12-2.8 22.2-10 28.2-20 5.2-8.8 7.2-19.6 4.5-31.6l-.1-1.4c-5.5-3 5-19.4 1.3-24.4-11.7-15.1-12.1-30.6-8.3-49.3 1.2-5.9 4.3-6.9 6.5-12.5.4-1-5-5.6-4.6-6.5-.4.9-16.5-4.4-16.8-3.5h-2.1c-7.7 3.5-6.7 3.7-14.9 1.8-4.8-1.1-13.5 10.2-17.1 6.8-11.5 15.9-20 33.3-24.3 51.8v.1c-1.5 6.3-2.4 12.7-2.9 19.1-.4 5.4-.4 10.8-.1 16.2.1 1.7.3 3.3.5 5 1.6 13.7 6.1 26.9 15.7 36.4.8.7 1.7 1.6 2.6 2.4z"/><path class="st4" d="M584.7 301c-.2-2.6-.5-5.2-.8-7.9-5.7-49.9-26.3-121.9-95.2-183.7-87.6-78.6-201.1-66.4-237-60.2-68.8 12-121.1 42.6-144.5 83.6-8.6 15-14.6 33.7-8.8 50 1.9 5.7 5.1 10.9 9.4 15.1 3.5 3.4 7.9 5.8 12.7 6.9 8.2 1.9 16.8 1 24.5-2.5l2.1-1.4c.4-1 .8-1.9 1.2-2.8 18.7-44.6 74.1-81.2 129.2-101.3 34-12.4 62.3-13.9 98-8.6 69.5 10.3 137.2 41.4 174 103.1 12.2 20.3 21.1 42.3 26.5 65.3 1.5 5.3 2.8 10.7 4 16.3v.1l1 4 .5 3.5v.1c1.5 8.4 2.6 16.9 3.4 25.5h.3c0-.5-.1-.9-.1-1.4-.2-1.1-.2-2.4-.4-3.7zM234.4 546.8c-.4-1.5-.8-3-1.3-4.6.4 1.5.9 3.1 1.3 4.6z"/><path class="st4" d="M313.3 498.8c13.2-31.2 19.6-51 19.6-51 24.8-58.4 30.6-104.4 30.7-135.3.2-51.6-23.9-70.8-38.8-76.4h-.3c1.7 9.1.5 17.2-2.8 24l.1.1c16.3 22.7 24 71.3-35.8 182.7l-54.4 84.7c2.3 8 4.3 15.9 6 23.8.7-.7 1.5-1.3 2.2-2 22.3-19.7 46.9-36.6 73.5-50.6z"/><path class="st3" d="M475.5 757.8c9.6-8.1 21.9-11.4 33.7-9.7l.2-1.1c16-6.9 30.3-15.4 43.1-25.1-14.3-9.1-31.3-14.1-49.3-14.1-22.5 0-43.7 7.8-59.6 21.8-15 13.3-23.6 30.6-24.6 49.2h45.2c1-8.1 5-15.6 11.3-21z"/><path class="st1" d="M509.2 748.1c-11.8-1.7-24.1 1.6-33.7 9.7-6.3 5.4-10.3 12.9-11.3 21h39.2c-.2-1.2-.4-1.9-.4-1.9l6.2-28.8z"/><path class="st3" d="M409.9 699.8c24.9-22 58-34.2 93.3-34.2 30.3 0 59 9 82.3 25.5 10.2-11.7 18.7-23.8 25.6-35.8-30.9-20.7-68.4-31.8-107.9-31.8-1.6 0-3.1 0-4.7.1-5.9 10.7-16.4 18.3-28.9 21.2-11.2 2.6-22.7-1.3-32.6-10.2-22.5 7.9-43.2 19.8-60.8 35.4-33 29.2-51.5 67.7-52.5 108.9h47.7c1-29.9 14.6-57.9 38.5-79.1zm186.5-100.9c11.3 4.5 22.1 9.8 32.5 15.9 3.4-11.2 5.1-21.1 5.1-29v-.1c-1.2.2-2.4.4-3.6.5-6.9.6-13.7-1.4-19.3-5.5-2.9 7.8-8.1 14-14.7 18.2zm-52.1-15.2c-.3.3-.6.5-.8.8.5.1.9.1 1.4.2-.2-.4-.4-.7-.6-1zm-125.4 7.5c-4.5 2.2-9.3 3.7-14.3 4.4-13.1 2-26.2-3.9-36.4-15.8-1.9-2.2-3.5-4.5-5-6.8-52.6 27.6-93.9 70.3-116.3 121.4l1.2 73c9.4 1.9 18.8 4.2 28.2 6.8 2.2-50.7 25.6-98 66.3-134.1 22.2-19.7 48.3-34.8 76.7-44.8-.2-1.3-.3-2.7-.4-4.1zM238.1 562c0-.1 0-.2-.1-.3.1.1.1.2.1.3zm37.1 18.6c23.8-20.9 50.5-38.2 79.1-51.4.1-1.9.3-3.9.5-5.8-3.8-3.1-7.1-6.8-9.6-10.9-4.8-7.7-6.7-16.6-6.7-25.7-8.6 3.8-17 7.8-25.3 12.1-26.7 14-51.3 30.9-73.5 50.5-.7.7-1.5 1.3-2.2 2 4.4 20.5 6.9 40.5 8 59.4 9.1-10.7 19-20.8 29.7-30.2z"/><path class="st3" d="M245.1 607.1l.3 3.9c-.1-1.4-.2-2.7-.3-3.9z"/><path class="st5" d="M141.9 218.1c-3.8 18.7-3.8 40.3 7.9 55.5 3.7 5 8.5 9.1 13.9 12 5.1 2.8 11 3.9 16.8 3.4 8.5-.8 16.5-4.1 23.1-9.5.7-.6 1.4-1.2 2.1-1.9-7-13.9 14.4-26.1 17.7-41.5.3-1.5-5.4-11.7-5-13.2l2-4.8s20.8-9.1 4-1c-4.2 2-6.6-.8-7.7-5.3-4.9-19.8 1.5-33.7 13.3-50.3 32.1-45.4 78-56.2 139.2-55 67 1.3 140.6 32.8 178.6 88.9 12.6 18.8 22 39.5 28 61.3-5.4-23-14.3-45.1-26.5-65.3C512.6 129.7 446.4 89.3 377 79c-35.7-5.3-72.2-1.7-106.2 10.7-55.1 20.1-103.9 63.8-122.6 108.5-.4.9-.8 1.9-1.2 2.8-2.2 5.5-3.9 11.3-5.1 17.1z"/><path class="st6" d="M202.6 230.8c-3.3 15.4-3.8 32.9 3.1 46.8.4.8.9 1.7 1.3 2.5.8 1.4 1.7 2.8 2.7 4.1 7.9 10.4 18.4 16 29.4 15.1 6.2-.5 12-2.4 17.1-5.4 7.3-4.3 13.1-10.8 16.2-19.1-3.3-2.4 5.7-13.6 3.2-16.9-5.7-7.4-20.4-8.1-21.1-17.6v-.2h.1c-10.3 4.7-15.1-10.1-25.7-13.7-7.7-2.5-20.7 7.4-25.1 0-.5 1.4-.9 2.9-1.2 4.4z"/><path class="st5" d="M245.7 234.2c.7 9.5 12.3 24.6 18 32 2.5 3.3 5.5 6.1 8.8 8.5 5.5 4.1 12.4 6.1 19.3 5.5 1.1-.1 2.2-.3 3.3-.5.1 0 .2 0 .4-.1.8-.1 1.6-.3 2.4-.5.9-.2 1.8-.5 2.6-.8 4.5-1.5 8.6-3.8 12.3-6.8.3-.3.6-.6 1-.8l.5-.5c.3-.3.6-.5.8-.8l.5-.5c.3-.3.5-.6.8-.8.2-.2.4-.4.5-.6.2-.3.5-.6.7-.9.2-.2.3-.4.5-.6.2-.3.5-.6.7-.9.1-.2.3-.4.4-.6.2-.3.4-.7.7-1 .1-.2.3-.4.4-.6.2-.4.4-.7.6-1.1l.3-.6.6-1.2c3.2-6.7 4.5-14.9 2.8-24-.5-2.9-1.3-5.8-2.4-8.6-1.4-3.7-2.3-7.6-2.8-11.6-.7-5.4-.4-10.9.8-16.2v-.1c1.3-5.3 3.4-10.5 6.3-15.1l.1-.1c3.5-5.6 7.8-10.6 12.7-14.9l.1-.1c6.1-5.4 12.9-9.9 20.2-13.5 3.7-1.8 7.4-3.4 11.3-4.8 3.8-1.4 7.8-2.6 11.8-3.6 1.6-.4 3.2-.8 4.8-1.1 36.9-7.5 94.3-7.4 143.1 35.6 3.4 3 6.6 6.3 9.6 9.7-51.6-67.1-128.8-76.5-141.7-77-53.5-2.1-130.9 29.3-134 78.3-1.3 20.6-.3 25.9-13.6 32.2 0 0-6.4-7.4-2.7 2.1l-2.5 7z"/><path class="st1" d="M581.5 280.7c-.5-2.6-1-5.1-1.5-7.6v-.1c-1.2-5.6-2.5-11-4-16.3-6-21.8-15.5-42.5-28-61.3-38-56-113.4-101.2-180.5-102.5-61.3-1.2-120.7 17.6-152.9 62.9-11.8 16.6-21 37.8-16.1 57.6 1.1 4.5 2.8 8.9 5.2 12.9 4.3 7.4 10.5 12.8 18.2 15.3 10.7 3.6 22.3 3 32.6-1.6 13.3-6.3 23.5-19.9 24.8-40.5 3.1-49 63.3-77.7 116.8-75.7 13 .5 92.4.6 144 67.7.4.6.9 1.2 1.3 1.7 1.1 1.5 2.2 3 3.3 4.6 15.3 21.9 19.4 50.5 27.7 87.3 1.5 6.8 4.1 13.8 6.7 21.2 1.9-.1 3.7-.1 5.6-.2-.6-8.4-1.7-16.9-3.2-25.4z"/><path class="st5" d="M373.3 519.9c-6.5-.1-13.4 7.5-18.4 3.4-.2 1.9-.4 3.9-.5 5.8-1.1 15.6.9 31 8.9 43.9 1.5 2.4 3.1 4.6 5 6.8 10.3 11.8 23.3 17.8 36.4 15.8 4.9-.8 9.7-2.3 14.3-4.4-.3-5.4 17.3-12.8 17.7-18.2.5-6.4-.5-8.6 1-14.8l4.8-8.1-10 4.4-3.2-4.4c-9.9-1-13.1-7.4-20.4-16.9-2.9-3.8-11.2-7.2-12.9-11.7l-3.8-5.9c-5 2-13.7 4.3-18.9 4.3z"/><path class="st4" d="M589.8 748.4c66-91 69.9-140.6 61.6-170.4l-.1-.2c-3.7 3-7.8 5.3-12.3 6.8-.9.3-1.7.6-2.6.8-.8.2-1.6.4-2.4.5v.1c0 7.9-1.7 17.8-5.1 29-3.8 12.4-9.7 26.3-17.9 40.5-6.9 12-15.4 24.1-25.6 35.8-9.5 10.9-20.5 21.3-33 30.8-12.7 9.6-27.1 18.2-43.1 25.1l-.2 1.1-6.1 28.9s.1.7.4 1.9h57.8c15.3-16.8 28.6-30.7 28.6-30.7zm68.9-242.7c-1.2 5.3-1.5 10.8-.8 16.2h.1s8.3.1 19.5 3.7v-18c-7.9-1.2-14.5-1.6-18.5-2l-.3.1zm6.5-15.4l.6.2c3.2.2 7.2.7 11.7 1.2v-16.6c-4.8 4.3-8.9 9.8-12.3 15.2z"/><path class="st6" d="M343.1 459.6c-2.7 8.6-4.5 18-4.5 27.1 0 9.2 1.9 18.1 6.7 25.7 2.5 4.2 5.8 7.9 9.6 10.9 5 4.1 11.3 6.4 17.8 6.5 5.2 0 10.4-.9 15.2-2.8v-.1c-5.3-14.3 18.6-26.4 21.7-41.6 2.6-12.3.5-31.3 6.3-42.4-5.5-1.7-20.4-18.4-23.3-20-8.4-4.7-21.7 3-22.9-7.9v-.1c-12.2 12.7-21.2 28-26.6 44.7z"/><path class="st5" d="M603.4 306.1c-6.2-.1-12.2-.1-18.1.1h-.5c-1.9 0-3.8.1-5.6.2-9.3.3-18.2.9-26.8 1.6-9.8.9-19.2 2.1-28.2 3.5-11.8 1.9-22.9 4.2-33.2 6.8-11.7 3-22.4 6.3-32.2 9.9-12.2 4.5-22.9 9.3-32.2 14.3-15.2 8.1-26.7 16.5-34.3 23.8-.8.8-1.6 1.5-2.4 2.3-11.6 11.8-21.4 27-20.5 43.3 0 1 .1 1.9.2 2.9v.1c1.3 11 6.3 19.9 14.7 24.6 2.9 1.6 9.1 4 14.6 5.6.1-.3 8.8 10.2 8.9 9.9 19.3-36.9 46.4-67.1 87.4-83.8 0 0 13.6 9.6 10-1.7-1.4-4.3 2.7-2.9 7.2-4.5 24.5-8.8 51.9-18.9 83.2-22.5 9.3-1.1 13.4-1.1 23-1.5 18.3-.7 39.9-8.6 58.9-6.1v-18.8c-11.5-2.9-22.9-5.3-34.1-6.9-13.6-1.9-27-2.9-40-3.1z"/><path class="st1" d="M621.3 332.3c-9.6.4-19.1 1.1-28.4 2.2-31.3 3.6-60.2 11-84.7 19.8-4.4 1.6-8.8 3.3-12.9 4.9-41 16.7-76.5 48.1-95.8 85.1-.1.3-.3.5-.4.8-5.8 11.1-10.1 23-12.7 35.3-3.1 15.2-3.8 32.1 1.5 46.5v.1c1.7 4.5 4 8.8 6.9 12.6 7.4 9.5 16.7 15.4 26.6 16.4l.5-.1v-.1c4.3-18.5 37.9-34.2 49.5-50.2 32.7 6 72.7-33.3-4-10.2-4.3-4.2 3.3-8 1.4-13.7-5.8-16.3-2.6-21.6 6-36.7 23.4-41 49.5-59.9 118.3-71.9 16.3-2.8 45.8-24.7 84.4-20.9v-17.4c-19-2.4-37.9-3.2-56.2-2.5z"/><path class="st6" d="M419 575c-.4 5.4-.4 10.8-.1 16.2.1 1.4.2 2.8.4 4.2 1.5 14 6 27.5 15.7 37.2.7.7 1.4 1.3 2.1 2 9.8 8.9 21.4 12.7 32.6 10.2 12.5-2.9 23-10.5 28.9-21.2 4.7-8.5 6.5-19 3.9-30.5l-.1-1.4c-5.5-3 10.6-19.8 6.9-24.8-11.7-15.1-14.3-31.4-10.4-50.2 1.2-5.9-1.5-15.7.7-21.2.4-1 8-14.5-8.3-8.8 1-.3-10 7.9-10.3 8.8l-4.7 2.1c-7.7 3.5-5.5 1.9-13.7 0-4.8-1.1-12.6 9.9-16.1 6.4-11.5 15.9-20 33.3-24.3 51.8v.1c-1.7 6.3-2.7 12.7-3.2 19.1z"/><path class="st4" d="M590.3 355.3c-68.8 12-121.1 42.6-144.5 83.6-8.6 15-14.6 33.7-8.8 50 1.9 5.7 5.1 10.9 9.4 15.1 3.5 3.4 7.9 5.8 12.7 6.9 8.2 1.9 16.8 1 24.5-2.5l2.1-1.4c.4-1 19.1 6.6 19.5 5.6 18.7-44.6 53.5-87.4 108.7-107.5 21.9-8 40.5-21.8 63.7-22.5v-30.5c-38.7-3.6-71 .4-87.3 3.2zm72.8 186.8c1.7 9.1.5 17.2-2.8 24l.1.1c16.3 22.7 24 71.3-35.8 182.7l-19.2 29.9H662.5c6.1-15.8 9.1-25 9.1-25 2.1-5 4.1-11.9 5.9-16.7v-186c-4.9-4.2-9.8-7.5-14-9.1l-.4.1z"/><path class="st5" d="M609.4 395.7c-55.1 20.1-103.9 63.8-122.6 108.5-.4.9-.8 1.9-1.2 2.8-2.2 5.6-3.9 11.3-5.1 17.2-3.8 18.7-3.8 40.3 7.9 55.5 3.7 5 8.5 9.1 13.9 12 5.1 2.8 11 3.9 16.8 3.4 9.1-.8 17.6-4.6 24.4-10.6.3-.3.6-.5.8-.8-7-13.9 25.9-37 29.2-52.4.3-1.5-13.5-11.3-13.1-12.7l14.2 8.3-16.9-6.3c-2.3-4 4.4-.4 3.3-4.9-4.9-19.8 4.5-26.7 16.3-43.3 27.1-38.2 49.5-68 100.1-72.4v-17.1c-23.1.5-46.1 4.9-68 12.8z"/><path class="st6" d="M548.4 590.2c7.9 10.4 18.4 16 29.4 15.1 6.8-.6 13.2-2.8 18.7-6.4 6.6-4.3 11.8-10.4 14.6-18.1l12.9-9.5c-3.3-2.4-6.3-5.3-8.8-8.5-5.7-7.4-21.4-7-22.1-16.5l5-16.5 4-5.3-9 4.5c-10.3 4.7-6.5 2.1-17.1-1.5-7.7-2.5-29.3 12.3-33.7 4.9-.4 1.5-.7 3-1.1 4.5-3.3 15.4-3.8 32.9 3.1 46.8.2.3.3.7.5 1 1.1 1.9 2.2 3.8 3.6 5.5z"/><path class="st5" d="M611 501.2c-1.3 20.6-4.6 38.6-17.9 44.9v.2c.7 9.5 3.4 18.6 9.1 26 2.5 3.3 5.5 6.1 8.8 8.5 5.5 4.1 12.4 6.1 19.3 5.5 1.2-.1 2.4-.3 3.6-.5.8-.1 1.6-.3 2.4-.5.9-.2 1.8-.5 2.6-.8 4.5-1.5 8.6-3.8 12.3-6.8.3-.3.6-.6 1-.8l.5-.5c.3-.3.6-.5.8-.8l.5-.5c.3-.3.5-.6.8-.8.2-.2.3-.4.5-.6.2-.3.5-.6.7-.9.2-.2.3-.4.5-.6.2-.3.5-.6.7-.9.2-.2.3-.4.4-.6.2-.3.4-.7.7-1 .1-.2.3-.4.4-.6.2-.4.4-.7.6-1.1l.3-.6.6-1.2c3.2-6.7 4.5-14.9 2.8-24-.5-2.9-1.3-5.8-2.4-8.6-1.4-3.7-2.3-7.6-2.8-11.6-.7-5.4-.4-10.9.8-16.2v-.1c1.3-5.3 3.4-10.5 6.3-15.1l.1-.1c3.4-5.4 7.5-11 12.3-15.2v-36.2c-31.9 11.8-64.3 30.7-66.3 62.1z"/><path class="st1" d="M229 529.1c.5 1.4.9 2.8 1.3 4.2-.4-1.5-.8-2.9-1.3-4.2zm-8.8-23.6c2 4.8 3.9 9.6 5.6 14.5-1.7-4.9-3.6-9.7-5.6-14.5zm23.5 88.5c-.2-1.7-.4-3.3-.7-5 .3 1.7.5 3.3.7 5zm.6 5.2c-.1-.6-.1-1.1-.2-1.7.1.6.2 1.2.2 1.7.3 2.6.6 5.2.8 7.9-.2-2.6-.5-5.3-.8-7.9zm-1.8-13.6c-.3-1.8-.6-3.7-.9-5.5.4 1.8.7 3.7.9 5.5z"/><path class="st4" d="M68.1 769.1l.4-31.1C125.7 547.6 43.4 514.8 0 507.8v17.8c32.6 11 87.7 54.4 30 225.7l-9.4 27.6h15.1c6.4-2 12.8-3.9 19.3-5.7l13.1-4.1z"/><path class="st4" d="M107 724.5l-9.9 39.6c15.3-2.5 30.8-4.1 46.2-4.8l2.2-48.2C183.8 506 47.2 478.5.3 475.4H0v16.3c47.9 6.1 155.3 36.9 107 232.8z"/><path class="st4" d="M214.8 666.1c2.3-86.4-20.8-136-49.7-164-34.7-33.5-87.5-47.1-121.9-48.6v-.1c-4 1-7.9 2.2-11.8 3.6s-7.6 3-11.3 4.8c58.4 6.9 187.3 41.8 164 235.9l-4.2 61.4c13.2.5 26.4 1.6 39.5 3.4l-4.6-96.4z"/><path class="st5" d="M57.9 358c16.7 5.9 24.5 10.9 40.4 20.5 1.3.8 2.7 1.6 4 2.5 14.2 8.9 28.1 17.9 39.8 28.6 11.1 10.2 24.9 21.8 33.8 33.3 12.1 15.6 22.4 28 30.9 44.9 3.3 6.6 5.7 13.3 8.5 20 2 4.8 5 8.4 6.8 13.3 1.1 3-.1 7.1.9 10.1.5 1.4 3 2.3 3.4 3.7.9 3 5.8 4.4 6.6 7.3.4 1.5.9 3 1.3 4.6 1.4 5 2.6 10 3.7 15 0 .1 0 .2.1.3 1.4 6.1 2.5 12.1 3.5 18.1.3 1.8.6 3.7.9 5.5.2 1.1.3 2.3.5 3.4.2 1.7.5 3.3.7 5 .1 1.2.3 2.4.4 3.6.1.6.1 1.1.2 1.7.3 2.6.6 5.2.8 7.8l.3 3.9c.5 7 .9 14.1.9 21.1v-2.4c-.1-6.2-.3-12.5-.7-19-1.1-18.8-3.5-38.9-8-59.4-1.7-7.9-3.7-15.8-6-23.8-4.5-15.3-10.1-30.6-17.2-45.7-7.8-16.5-17.3-32.7-28.8-48-8-10.7-17-21-27.1-30.7-6-5.8-12.3-11.4-19-16.7-7.9-6.3-15.9-12.1-23.9-17.6-15-10.3-30.4-19.1-45.8-26.7-16.6-8.2-33.3-14.8-50-20.1-6.6-2.1-13.2-4-19.8-5.6v29.6c1 .1 8.7 7.6 9.7 7.7 18.5 2.2 29.9-2.2 48.2 4.2z"/><path class="st1" d="M240.4 579.2c.5 2.5 1 5 1.5 7.6l-.5-3.5-1-4.1z"/><path class="st1" d="M145.7 420.2c68.9 61.8 93 129.2 98.7 179.1-.1-.6-.1-1.1-.2-1.7-.1-1.2-.3-2.4-.4-3.6-.2-1.7-.4-3.3-.7-5-.2-1.1-.3-2.2-.5-3.4-.3-1.8-.6-3.7-.9-5.5-1-6-2.2-12-3.5-18.1 0-.1 0-.2-.1-.3-1.1-5-2.3-10-3.7-15-.4-1.5-.8-3-1.3-4.6l-2.7-9c-.4-1.4-.9-2.8-1.3-4.2-1-3.1-2.1-6.1-3.2-9.2-1.8-4.8-3.6-9.6-5.6-14.5-2.8-6.7-5.8-13.3-9.1-19.9-8.5-16.9-18.7-33.4-30.9-49-9-11.5-19-22.4-30.1-32.7-11.7-10.7-24.6-20.7-38.8-29.6-1.3-.8-2.7-1.6-4-2.5-16-9.6-32.4-17.2-49.1-23C40 342.1 21.4 337.7 3 335.1c-1-.1-1.9-.3-2.9-.4v29.6c46.2 4.9 97.9 13.1 145.6 55.9z"/><path class="st4" d="M37.3 391.8c69.5 10.3 135.6 43.9 172.5 105.7 12.2 20.3 21.1 42.3 26.5 65.3 1.5 5.3 2.8 10.7 4 16.3v.1l1 4 .5 3.5v.1c2.8 15.6 4.3 31.4 4.4 47.2v-2c-.1-7-.4-14.1-.9-21.1-.1-1.3-.2-2.5-.3-3.8-.2-2.6-.5-5.2-.8-7.9-5.7-49.9-26.3-121.9-95.2-183.7-47.5-42.6-102.7-58.6-149-63.2V389c12.4-.3 24.9.9 37.3 2.8zm209 242.7zM0 551.2v186c19.2-50.5 23.9-90.7 24-118.7.1-36.3-11.8-56.5-24-67.3z"/><path class="st3" d="M248.1 767.5c-9.6-2-19.1-3.6-28.8-4.9-13.1-1.8-26.3-2.9-39.5-3.4-12.2-.5-24.3-.4-36.5.2-15.5.8-30.9 2.4-46.2 4.8-14.1 2.3-28.2 5.3-42 9-6.5 1.7-12.9 3.6-19.3 5.7h255.7c-5-1.6-10.1-3.1-15.2-4.6-9.4-2.6-18.8-4.9-28.2-6.8z"/><path class="st5" d="M27.8 412.5c67 1.3 142.4 32.9 180.5 88.9 12.6 18.8 22 39.5 28 61.3-5.4-23-14.3-45.1-26.5-65.3-36.8-61.7-103-102-172.5-112.4-12.4-1.9-24.9-2.6-37.3-2.3v30.5c9.2-.7 18.5-.8 27.8-.7z"/><path class="st1" d="M54.2 436.5c13 .5 94.8-6 146.4 61.1.4.6.9 1.2 1.3 1.7 1.1 1.5 2.2 3 3.3 4.6 15.3 21.9 19.4 50.5 27.7 87.3 3 13.1 9.8 27.2 13.2 42.5.1.2.1.5.2.7v-.5c-.2-15.8-1.7-31.6-4.4-47.2v-.1c-.5-2.6-1-5.1-1.5-7.6v-.1c-1.2-5.6-2.5-11-4-16.3-6-21.8-15.5-42.5-28-61.3-38-56-113.4-101.2-180.5-102.5-9.3-.2-18.6.1-27.8.9V449c17.7-6.5 35.1-13.2 54.1-12.5z"/><path class="st5" d="M20 461.9c3.7-1.8 7.4-3.4 11.3-4.8 3.8-1.4 7.8-2.6 11.8-3.6 1.6-.4 3.2-.8 4.8-1.1 36.9-7.5 94.3-7.4 143.1 35.6 3.4 3 6.6 6.3 9.6 9.7-51.6-67.1-131-67.2-144-67.7-19-.7-38.7 2.4-56.6 8.9v36.2c6.1-5.2 12.8-9.7 20-13.2z"/><path class="st1" d="M553.2 461.9c-11.8 16.6-21 37.8-16.1 57.6 1.1 4.5 2.8 8.9 5.2 12.9 4.3 7.4 10.5 12.8 18.2 15.3 10.7 3.6 22.3 3 32.6-1.6 13.3-6.3 23.5-19.9 24.8-40.5 2-31.4 27.4-54.7 59.5-66.7v-39c-50.6 4.4-97.1 23.8-124.2 62z"/></svg>
