<svg viewBox="0 0 121.2 273.8" xmlns="http://www.w3.org/2000/svg"><path d="m111.2 84.1c-19.9 0-36.1-15.3-36.1-34.1.1-18.2 15.4-33.2 34.4-34.1-9.2-7.1-20.6-10.9-32.5-10.9-13.3 0-25.9 4.9-35.5 13.7-9.5 8.7-15 20.4-15.5 32.8-.9 15-11.6 27.2-26 31.2v191.1h121.2v-191.1c-3.2.9-6.6 1.4-10 1.4z" fill="#9cd5f6"/><path d="m23.5 51.4c1-27 24.6-48.9 53.5-48.9 13.6 0 26 4.8 35.5 12.6 1.4 1.1.5 3.2-1.2 3.2-18.6 0-34.2 14.2-34.3 31.6 0 17.5 15.6 32.1 34.1 32.1 3.5 0 6.9-1 10.1-2v-2.6c-3.1 1-6.5 1.6-10 1.6-17.2.1-31.1-13-31.1-29 .1-16.1 14.1-29.1 31.2-29.1 1.9 0 3.5-1.1 4.1-2.9.6-1.7.1-3.6-1.3-4.7-10.2-8.6-23.4-13.3-37.1-13.3-14.6 0-28.4 5.3-38.9 15-10.5 9.6-16.6 22.5-17.1 36.3-.7 12.3-9.3 22.5-21 26.2v2.6c13.1-3.9 22.7-15.3 23.5-28.7zm87.7 30.2c-18.6 0-33.6-14.2-33.6-31.6.1-17.5 15.2-31.6 33.7-31.6 1.7 0 3.2-2.4 1.8-3.5-9.4-7.9-22.5-12.6-36.1-12.6-29 0-53.1 22-54.1 49-.8 13.4-9.8 24.9-22.9 28.8v2.6c4.8-1.3 9.2-3.6 13-6.6 7.5-5.9 12.4-14.7 13-24.6.5-12.4 6-24.1 15.5-32.8 9.6-8.8 22.2-13.7 35.5-13.7 11.8 0 23.3 3.8 32.4 10.9-19 .9-34.2 15.9-34.4 34.1 0 18.8 16.2 34.1 36.1 34.1 3.5 0 6.9-.5 10.1-1.4v-2.7c-3.1 1-6.6 1.6-10 1.6z" fill="#231f20"/></svg>
