
<svg height="1251" width="1500" xmlns="http://www.w3.org/2000/svg"><path d="m-60.609 1294.955c28.322 0 51.283-22.96 51.283-51.28 0-28.341-22.96-51.282-51.283-51.282-28.322 0-51.283 22.94-51.283 51.281 0 28.322 22.96 51.281 51.283 51.281m-168.5-51.272c0-30.338-24.745-54.953-55.265-54.953-16.817 0-31.671 7.617-41.807 19.38v71.127c10.136 11.764 24.99 19.381 41.807 19.381 30.52 0 55.264-24.596 55.264-54.935m56.778 53.104c29.337 0 53.114-23.787 53.114-53.113 0-29.344-23.777-53.113-53.114-53.113s-53.115 23.769-53.115 53.113c0 29.326 23.778 53.113 53.115 53.113m-106.229-164.833c0 27.292 22.14 49.45 49.451 49.45 27.312 0 49.452-22.158 49.452-49.45 0-27.311-22.14-49.45-49.452-49.45s-49.45 22.139-49.45 49.45m322.348-.906c0-25.786-20.912-46.712-46.704-46.712s-46.704 20.926-46.704 46.712 20.912 46.693 46.704 46.693 46.704-20.907 46.704-46.693m-113.555-.916c0-26.295-21.319-47.628-47.62-47.628-26.3 0-47.62 21.333-47.62 47.628 0 26.294 21.32 47.609 47.62 47.609 26.301 0 47.62-21.315 47.62-47.61m120.881 161.161c27.308 0 49.452-22.124 49.452-49.45 0-27.325-22.144-49.45-49.452-49.45-27.307 0-49.45 22.125-49.45 49.45 0 27.326 22.143 49.45 49.45 49.45m170.333-117.214c24.283 0 43.956-19.673 43.956-43.955 0-24.283-19.673-43.956-43.956-43.956s-43.957 19.673-43.957 43.956c0 24.282 19.674 43.955 43.957 43.955m315.023-155.675c0-19.232-15.586-34.799-34.8-34.799-19.213 0-34.799 15.567-34.799 34.799 0 19.212 15.586 34.798 34.8 34.798 19.213 0 34.799-15.586 34.799-34.798m-382.79 112.635c0-24.798-20.092-44.87-44.872-44.87s-44.873 20.072-44.873 44.87c0 24.78 20.092 44.871 44.873 44.871 24.78 0 44.872-20.091 44.872-44.87m58.609 111.72c0-26.81-21.715-48.535-48.536-48.535-26.82 0-48.535 21.725-48.535 48.534 0 26.791 21.715 48.534 48.535 48.534 26.821 0 48.536-21.743 48.536-48.534m-428.578-223.44c0 23.75 19.271 43.04 43.041 43.04s43.041-19.29 43.041-43.04c0-23.788-19.271-43.04-43.041-43.04s-43.04 19.252-43.04 43.04m-11.906-74.175c21.759 0 39.378-17.618 39.378-39.376s-17.62-39.377-39.378-39.377-39.378 17.619-39.378 39.377 17.62 39.376 39.378 39.376m74.177-38.451c0 21.258 17.194 38.451 38.453 38.451s38.471-17.193 38.471-38.451c0-21.259-17.212-38.47-38.471-38.47-21.26 0-38.453 17.211-38.453 38.47m711.55 263.723c21.726 0 39.377-17.622 39.377-39.377s-17.651-39.376-39.378-39.376c-21.726 0-39.378 17.621-39.378 39.376s17.652 39.377 39.378 39.377m-848.914-39.377c0-22.023-14.682-40.434-34.799-46.702v93.405c20.117-6.287 34.8-24.699 34.8-46.703m118.133-370.874c-18.708 0-33.883 15.171-33.883 33.892 0 18.702 15.175 33.873 33.883 33.873s33.883-15.17 33.883-33.873c0-18.72-15.175-33.892-33.883-33.892m-111.428 304.025c24.603 0 44.577-20.106 44.577-44.87 0-24.803-19.974-44.872-44.577-44.872-18.982 0-35.059 11.977-41.505 28.783v32.14c6.446 16.824 22.523 28.82 41.505 28.82m393.484-194.137c-19.734 0-35.715 15.995-35.715 35.723s15.98 35.705 35.715 35.705c19.733 0 35.714-15.977 35.714-35.705s-15.98-35.723-35.714-35.723m94.323 148.35c0-21.257-17.224-38.462-38.462-38.462s-38.462 17.205-38.462 38.462c0 21.237 17.224 38.46 38.462 38.46s38.462-17.223 38.462-38.46m-263.74-42.124c-23.264 0-42.125 18.856-42.125 42.133 0 23.258 18.86 42.114 42.125 42.114 23.264 0 42.125-18.856 42.125-42.114 0-23.277-18.86-42.133-42.125-42.133m20.147-69.578c0 20.239 16.4 36.611 36.63 36.611 20.232 0 36.631-16.372 36.631-36.611s-16.4-36.648-36.63-36.648c-20.232 0-36.631 16.41-36.631 36.648m93.408 71.409c-22.269 0-40.294 18.04-40.294 40.302 0 22.244 18.025 40.283 40.294 40.283 22.268 0 40.294-18.04 40.294-40.283 0-22.263-18.026-40.302-40.294-40.302m269.235 264.648c0-25.795-20.898-46.702-46.704-46.702-25.807 0-46.704 20.907-46.704 46.702 0 25.796 20.897 46.703 46.704 46.703 25.806 0 46.704-20.907 46.704-46.703m572.352-76.006c19.742 0 35.715-15.984 35.715-35.695 0-19.73-15.973-35.732-35.715-35.732-19.74 0-35.714 16.002-35.714 35.732 0 19.711 15.973 35.695 35.714 35.695m-15.568 76.931c0-22.262-18.025-40.301-40.293-40.301-22.269 0-40.294 18.039-40.294 40.301 0 22.244 18.025 40.284 40.294 40.284 22.268 0 40.293-18.04 40.293-40.284m-97.07-76.93c20.23 0 36.63-16.373 36.63-36.612s-16.4-36.648-36.63-36.648c-20.232 0-36.631 16.41-36.631 36.648 0 20.239 16.4 36.611 36.63 36.611m.916 142.855c-25.792 0-46.704 20.926-46.704 46.712s20.912 46.694 46.704 46.694 46.704-20.908 46.704-46.694-20.912-46.712-46.704-46.712m-15.568-66.849c0-22.773-18.454-41.208-41.21-41.208-22.755 0-41.209 18.435-41.209 41.208 0 22.755 18.454 41.209 41.21 41.209 22.755 0 41.21-18.454 41.21-41.209m127.29 68.68c-24.765 0-44.872 20.07-44.872 44.872 0 24.765 20.107 44.871 44.872 44.871 24.766 0 44.873-20.106 44.873-44.871 0-24.803-20.107-44.871-44.873-44.871m224.363 1.831c-23.257 0-42.125 18.85-42.125 42.124 0 23.256 18.868 42.124 42.125 42.124s42.125-18.868 42.125-42.124c0-23.275-18.868-42.124-42.125-42.124m91.576-70.502c0-19.74-16.007-35.723-35.715-35.723-19.707 0-35.714 15.983-35.714 35.723 0 19.72 16.007 35.704 35.714 35.704 19.708 0 35.715-15.984 35.715-35.704m-204.225 68.67c-23.767 0-43.031 19.282-43.031 43.05 0 23.767 19.264 43.03 43.031 43.03 23.768 0 43.05-19.263 43.05-43.03 0-23.768-19.282-43.05-43.05-43.05m94.334-68.68c0-20.747-16.799-37.545-37.547-37.545s-37.546 16.798-37.546 37.545c0 20.73 16.798 37.546 37.546 37.546s37.547-16.817 37.547-37.546m-111.724.925c0-21.258-17.212-38.47-38.471-38.47-21.26 0-38.453 17.212-38.453 38.47 0 21.259 17.194 38.452 38.453 38.452s38.471-17.193 38.471-38.452m-656.603 60.43c-28.824 0-52.199 23.355-52.199 52.197 0 28.823 23.375 52.197 52.2 52.197 28.823 0 52.198-23.374 52.198-52.197 0-28.842-23.375-52.197-52.199-52.197m-17.4-284.795c0-20.74-16.824-37.545-37.546-37.545s-37.546 16.805-37.546 37.545 16.824 37.546 37.546 37.546 37.547-16.805 37.547-37.546m-599.826-260.985c-19.741 0-35.715 16.002-35.715 35.732 0 19.712 15.974 35.695 35.715 35.695 19.74 0 35.715-15.983 35.715-35.695 0-19.73-15.974-35.732-35.715-35.732m730.78 413.914c22.74 0 41.21-18.45 41.21-41.209s-18.47-41.208-41.21-41.208-41.21 18.45-41.21 41.208c0 22.76 18.47 41.209 41.21 41.209m-112.64 0c23.258 0 42.126-18.868 42.126-42.124 0-23.276-18.868-42.124-42.125-42.124s-42.125 18.848-42.125 42.124c0 23.256 18.868 42.124 42.125 42.124m91.576-154.751c0-19.74-16.007-35.723-35.715-35.723-19.707 0-35.714 15.984-35.714 35.723 0 19.72 16.007 35.705 35.714 35.705 19.708 0 35.715-15.984 35.715-35.705m244.51 151.088c20.743 0 37.546-16.802 37.546-37.546 0-20.743-16.803-37.545-37.547-37.545s-37.546 16.802-37.546 37.545c0 20.744 16.802 37.546 37.546 37.546m-11.905 74.174c0-23.788-19.27-43.04-43.04-43.04s-43.041 19.252-43.041 43.04c0 23.75 19.27 43.04 43.04 43.04s43.041-19.29 43.041-43.04m12.821 65.018c-26.289 0-47.62 21.321-47.62 47.618 0 26.278 21.331 47.619 47.62 47.619 26.29 0 47.62-21.34 47.62-47.619 0-26.297-21.33-47.618-47.62-47.618m-234.436-64.102c0-25.297-20.51-45.787-45.788-45.787s-45.788 20.49-45.788 45.787 20.51 45.787 45.788 45.787c25.279 0 45.788-20.49 45.788-45.787m8.242 60.439c-27.802 0-50.367 22.545-50.367 50.365s22.565 50.366 50.367 50.366c27.803 0 50.367-22.546 50.367-50.366s-22.565-50.365-50.367-50.365m101.65-60.439c0-24.285-19.67-43.955-43.956-43.955s-43.957 19.67-43.957 43.955 19.67 43.956 43.957 43.956c24.285 0 43.956-19.67 43.956-43.956m11.905 62.27c-26.795 0-48.535 21.722-48.535 48.534 0 26.795 21.74 48.535 48.535 48.535s48.536-21.74 48.536-48.535c0-26.812-21.741-48.534-48.536-48.534m-858.071-399.262c0-16.65-10.628-30.811-25.642-36.63v73.26c15.014-5.837 25.642-19.998 25.642-36.63m240.846-772.882c6.581 0 11.905-5.318 11.905-11.894 0-6.577-5.324-11.915-11.905-11.915-6.582 0-11.905 5.338-11.905 11.915 0 6.576 5.323 11.894 11.905 11.894m-112.64 228.935c10.131 0 18.316-8.203 18.316-18.315 0-10.13-8.185-18.315-18.315-18.315s-18.315 8.185-18.315 18.315c0 10.112 8.184 18.315 18.315 18.315m0-228.935c7.075 0 12.82-5.74 12.82-12.81 0-7.09-5.745-12.83-12.82-12.83-7.076 0-12.82 5.74-12.82 12.83 0 7.07 5.744 12.81 12.82 12.81m-56.778 518.308c-17.184 0-31.136 13.951-31.136 31.154 0 17.184 13.952 31.116 31.136 31.116 17.185 0 31.136-13.932 31.136-31.116 0-17.203-13.951-31.154-31.136-31.154m56.778-56.776c14.167 0 25.641-11.474 25.641-25.64 0-14.167-11.474-25.64-25.641-25.64s-25.642 11.473-25.642 25.64c0 14.166 11.475 25.64 25.642 25.64m55.861-576.915c5.564 0 10.074-4.513 10.074-10.063 0-5.569-4.51-10.083-10.074-10.083-5.563 0-10.073 4.514-10.073 10.083 0 5.55 4.51 10.063 10.073 10.063m1347.09 1296.686c-22.242 0-40.294 18.032-40.294 40.292 0 22.242 18.052 40.293 40.294 40.293 22.243 0 40.294-18.05 40.294-40.293 0-22.26-18.051-40.292-40.294-40.292m-1347.089-602.557c16.69 0 30.22-13.525 30.22-30.21 0-16.703-13.53-30.229-30.22-30.229s-30.22 13.526-30.22 30.23c0 16.684 13.53 30.209 30.22 30.209m0-463.364c8.589 0 15.568-6.979 15.568-15.567 0-8.607-6.979-15.568-15.568-15.568-8.588 0-15.568 6.96-15.568 15.568 0 8.588 6.98 15.567 15.568 15.567m.605-460.323a5.19 5.19 0 0 0 5.183-5.183 5.19 5.19 0 0 0 -5.183-5.183 5.19 5.19 0 0 0 -5.183 5.183 5.19 5.19 0 0 0 5.183 5.183m-112.328 691.09c12.647 0 22.894-10.23 22.894-22.875 0-12.665-10.247-22.912-22.894-22.912-12.646 0-22.894 10.247-22.894 22.912 0 12.646 10.248 22.874 22.894 22.874m55.843-576.933a7.293 7.293 0 0 0 7.308-7.307c0-4.048-3.26-7.326-7.308-7.326-4.047 0-7.307 3.278-7.307 7.326a7.293 7.293 0 0 0 7.307 7.307m1627.332 1413.918c-20.722 0-37.546 16.805-37.546 37.545s16.824 37.546 37.546 37.546c20.723 0 37.547-16.805 37.547-37.546 0-20.74-16.824-37.545-37.547-37.545m-1781.162-877.277v34.798c4.89-4.235 8.169-10.325 8.169-17.39 0-7.083-3.278-13.173-8.169-17.408m15.788 242.68c0-11.512-6.429-21.4-15.788-26.566v53.113c9.36-5.166 15.788-15.054 15.788-26.547m1990.652 638.26c-19.74 0-35.714 16.003-35.714 35.733 0 19.711 15.973 35.695 35.714 35.695 19.742 0 35.715-15.984 35.715-35.695 0-19.73-15.973-35.733-35.715-35.733m-112.639-1.831c-20.235 0-36.63 16.409-36.63 36.639s16.395 36.62 36.63 36.62c20.236 0 36.631-16.39 36.631-36.62s-16.395-36.64-36.63-36.64m-1794.902-1298.515c6.07 0 10.99-4.927 10.99-10.98 0-6.07-4.92-10.998-10.99-10.998-6.087 0-10.988 4.927-10.988 10.999 0 6.052 4.901 10.979 10.989 10.979m-1.832 228.934c9.11 0 16.484-7.393 16.484-16.483 0-9.128-7.375-16.483-16.484-16.483s-16.483 7.355-16.483 16.483c0 9.09 7.374 16.483 16.483 16.483m.293-459.096a5.776 5.776 0 0 0 5.788-5.787c0-3.205-2.582-5.806-5.788-5.806-3.205 0-5.787 2.6-5.787 5.806a5.776 5.776 0 0 0 5.787 5.787m-56.154 345.545c7.597 0 13.736-6.163 13.736-13.727 0-7.602-6.139-13.745-13.736-13.745-7.598 0-13.737 6.143-13.737 13.745 0 7.564 6.14 13.727 13.737 13.727m-.312-231.407c4.378 0 7.93-3.553 7.93-7.912a7.934 7.934 0 0 0 -7.93-7.93 7.934 7.934 0 0 0 -7.93 7.93c0 4.359 3.553 7.912 7.93 7.912m.312 460.341c10.625 0 19.23-8.601 19.23-19.22 0-10.62-8.605-19.24-19.23-19.24s-19.231 8.62-19.231 19.24c0 10.619 8.606 19.22 19.23 19.22m.917 232.598c15.188 0 27.472-12.284 27.472-27.472 0-15.189-12.284-27.472-27.472-27.472-15.19 0-27.473 12.283-27.473 27.472 0 15.188 12.284 27.472 27.473 27.472m168.5-117.215c12.134 0 21.979-9.84 21.979-21.968s-9.845-21.987-21.979-21.987c-12.133 0-21.978 9.859-21.978 21.987s9.845 21.968 21.978 21.968m223.447-1.831c11.134 0 20.147-9.004 20.147-20.127s-9.013-20.165-20.147-20.165-20.147 9.042-20.147 20.165 9.013 20.127 20.147 20.127m0 230.766c15.181 0 27.473-12.306 27.473-27.463 0-15.176-12.292-27.481-27.473-27.481-15.182 0-27.473 12.305-27.473 27.481 0 15.157 12.291 27.463 27.473 27.463m.916-461.532c7.591 0 13.736-6.136 13.736-13.717s-6.145-13.755-13.736-13.755c-7.592 0-13.737 6.174-13.737 13.755 0 7.58 6.145 13.717 13.737 13.717m-.019-230.803a8.223 8.223 0 0 0 8.224-8.223 8.223 8.223 0 0 0 -8.224-8.223 8.223 8.223 0 0 0 -8.223 8.223 8.223 8.223 0 0 0 8.223 8.223m-.604-228.275c2.18 0 3.956-1.795 3.956-3.974 0-2.198-1.777-3.974-3.956-3.974-2.18 0-3.956 1.776-3.956 3.974 0 2.18 1.776 3.974 3.956 3.974m55.568 343.695a10.069 10.069 0 0 0 10.074-10.073 10.069 10.069 0 0 0 -10.074-10.073 10.069 10.069 0 0 0 -10.073 10.073 10.069 10.069 0 0 0 10.073 10.073m.916 459.7c12.127 0 21.978-9.837 21.978-21.968 0-12.15-9.851-21.987-21.978-21.987-12.126 0-21.978 9.837-21.978 21.987 0 12.131 9.852 21.969 21.978 21.969m-112.638 170.326c-17.716 0-32.052 14.335-32.052 32.05 0 17.698 14.336 32.051 32.052 32.051 17.698 0 32.052-14.353 32.052-32.05 0-17.716-14.354-32.051-32.052-32.051m111.723 1.831c-16.712 0-30.22 13.523-30.22 30.229 0 16.688 13.508 30.21 30.22 30.21s30.22-13.522 30.22-30.21c0-16.706-13.508-30.229-30.22-30.229m0-402.924c8.6 0 15.568-6.968 15.568-15.568s-6.968-15.568-15.568-15.568-15.568 6.968-15.568 15.568 6.968 15.568 15.568 15.568m.605-458.492a5.19 5.19 0 0 0 5.183-5.183 5.19 5.19 0 0 0 -5.183-5.183 5.19 5.19 0 0 0 -5.183 5.183 5.19 5.19 0 0 0 5.183 5.183m-224.968 859.585c-18.21 0-32.967 14.756-32.967 32.966s14.757 32.968 32.967 32.968 32.968-14.757 32.968-32.967-14.757-32.966-32.968-32.966m.916-858.98c3.535 0 6.41-2.876 6.41-6.393a6.417 6.417 0 0 0 -6.41-6.41 6.417 6.417 0 0 0 -6.41 6.41c0 3.517 2.875 6.392 6.41 6.392m55.532 114.76a8.82 8.82 0 0 0 8.828-8.827c.001-4.891-3.937-8.847-8.827-8.847s-8.828 3.956-8.828 8.846a8.82 8.82 0 0 0 8.828 8.827m-55.532 575.725c13.654 0 24.725-11.071 24.725-24.725 0-13.653-11.071-24.725-24.725-24.725s-24.726 11.072-24.726 24.725c0 13.654 11.072 24.725 24.726 24.725m54.927-804.018a4.565 4.565 0 0 0 4.56-4.579 4.565 4.565 0 0 0 -4.56-4.578 4.565 4.565 0 0 0 -4.56 4.578 4.565 4.565 0 0 0 4.56 4.579m-54.927 573.252c9.599 0 17.4-7.8 17.4-17.399 0-9.636-7.801-17.4-17.4-17.4-9.6 0-17.4 7.764-17.4 17.4 0 9.599 7.8 17.399 17.4 17.399m54.946 347.98c15.675 0 28.388-12.708 28.388-28.378 0-15.689-12.713-28.397-28.388-28.397-15.676 0-28.389 12.708-28.389 28.397 0 15.67 12.713 28.378 28.389 28.378m56.466-808.322c3.37 0 6.099-2.728 6.099-6.08a6.097 6.097 0 0 0 -6.1-6.099 6.097 6.097 0 0 0 -6.098 6.099c0 3.352 2.729 6.08 6.099 6.08m-.605 458.51c9.105 0 16.484-7.374 16.484-16.474 0-9.099-7.379-16.492-16.484-16.492-9.104 0-16.483 7.393-16.483 16.492 0 9.1 7.379 16.475 16.483 16.475m1.832-228.935c6.06 0 10.989-4.924 10.989-10.98 0-6.074-4.928-10.998-10.99-10.998-6.06 0-10.988 4.924-10.988 10.999 0 6.055 4.928 10.979 10.989 10.979m-57.693 346.149c11.64 0 21.062-9.419 21.062-21.053s-9.423-21.071-21.062-21.071c-11.64 0-21.063 9.437-21.063 21.071s9.423 21.053 21.063 21.053m57.693 115.383c13.138 0 23.81-10.672 23.81-23.81 0-13.137-10.672-23.808-23.81-23.808s-23.81 10.671-23.81 23.809c0 13.137 10.672 23.809 23.81 23.809m-56.778-346.149c8.095 0 14.653-6.543 14.653-14.642 0-8.118-6.558-14.662-14.653-14.662-8.094 0-14.652 6.544-14.652 14.662 0 8.099 6.558 14.642 14.652 14.642m2358.387 443.803c4.707 0 8.535-3.827 8.535-8.534a8.532 8.532 0 0 0 -8.535-8.535 8.532 8.532 0 0 0 -8.535 8.535c0 4.707 3.828 8.534 8.535 8.534m336.709-2.436a6.398 6.398 0 0 0 6.392-6.391c0-3.535-2.858-6.41-6.392-6.41a6.406 6.406 0 0 0 -6.41 6.41c0 3.516 2.856 6.391 6.41 6.391m.009 459.72c9.594 0 17.39-7.8 17.39-17.4 0-9.635-7.796-17.399-17.39-17.399-9.613 0-17.409 7.764-17.409 17.4 0 9.598 7.796 17.398 17.409 17.398m55.862 75.09c-11.129 0-20.157 9.043-20.157 20.166s9.028 20.127 20.157 20.127c11.11 0 20.137-9.004 20.137-20.127s-9.028-20.165-20.137-20.165m-55.871-763.707c1.52 0 2.729-1.246 2.729-2.748 0-1.52-1.21-2.765-2.73-2.765s-2.747 1.245-2.747 2.765a2.755 2.755 0 0 0 2.748 2.748m.31-226.517a.598.598 0 0 0 -.604-.605c-.347 0-.622.257-.622.605a.614.614 0 0 0 1.227 0m54.634 568.948a8.223 8.223 0 0 0 8.224-8.224 8.223 8.223 0 0 0 -8.224-8.223c-4.56 0-8.241 3.681-8.241 8.223s3.68 8.224 8.241 8.224m-111.713 419.444c-11.642 0-21.072 9.43-21.072 21.072 0 11.622 9.43 21.052 21.072 21.052 11.622 0 21.053-9.43 21.053-21.052 0-11.641-9.43-21.072-21.053-21.072m56.777 109.889c-13.663 0-24.735 11.067-24.735 24.725s11.072 24.725 24.735 24.725c13.644 0 24.716-11.067 24.716-24.725s-11.072-24.725-24.716-24.725m54.946-298.53c7.586 0 13.727-6.137 13.727-13.718s-6.14-13.755-13.727-13.755c-7.606 0-13.746 6.174-13.746 13.755s6.14 13.717 13.746 13.717m1.51-687.408c0-.677-.53-1.227-1.208-1.227-.696 0-1.227.55-1.227 1.227 0 .66.53 1.21 1.227 1.21.677 0 1.209-.55 1.209-1.21m-.312 228.33c2.18 0 3.938-1.794 3.938-3.974 0-2.198-1.758-3.974-3.938-3.974a3.955 3.955 0 0 0 -3.956 3.974c0 2.18 1.758 3.974 3.956 3.974m-56.145 345.527c6.557 0 11.895-5.32 11.895-11.895 0-6.576-5.338-11.914-11.895-11.914-6.576 0-11.914 5.338-11.914 11.914s5.338 11.895 11.914 11.895m-111.421-686.2a.598.598 0 0 0 -.605-.604c-.348 0-.623.257-.623.605a.614.614 0 0 0 1.228 0m-1.539 454.81c3.846 0 6.997-3.15 6.997-7.014 0-3.883-3.15-7.015-6.997-7.015a7.015 7.015 0 0 0 -7.015 7.015c0 3.864 3.15 7.014 7.015 7.014m0-227.085c1.832 0 3.334-1.52 3.334-3.351 0-1.868-1.502-3.37-3.334-3.37a3.357 3.357 0 0 0 -3.352 3.37 3.365 3.365 0 0 0 3.352 3.351m-56.456 760.667c-12.145 0-21.988 9.833-21.988 21.988 0 12.116 9.843 21.968 21.988 21.968 12.125 0 21.968-9.852 21.968-21.968 0-12.155-9.843-21.988-21.968-21.988m.915-186.81c8.591 0 15.559-6.968 15.559-15.558s-6.968-15.577-15.559-15.577c-8.61 0-15.577 6.986-15.577 15.577 0 8.59 6.968 15.558 15.577 15.558m111.714-459.7c2.51 0 4.56-2.052 4.56-4.58 0-2.527-2.05-4.578-4.56-4.578a4.58 4.58 0 0 0 -4.579 4.579 4.58 4.58 0 0 0 4.58 4.578m.604 228.294c4.871 0 8.828-3.956 8.828-8.828 0-4.89-3.957-8.846-8.828-8.846a8.84 8.84 0 0 0 -8.847 8.846c0 4.872 3.956 8.828 8.847 8.828m-56.457 116.024c7.07 0 12.811-5.74 12.811-12.81 0-7.09-5.74-12.83-12.81-12.83-7.09 0-12.831 5.74-12.831 12.83 0 7.07 5.74 12.81 12.83 12.81m57.977-573.564c0-.842-.696-1.52-1.52-1.52-.843 0-1.52.678-1.52 1.52 0 .843.677 1.52 1.52 1.52.824 0 1.52-.677 1.52-1.52m-57.977 802.498c10.107 0 18.306-8.203 18.306-18.314 0-10.13-8.2-18.315-18.306-18.315-10.126 0-18.325 8.185-18.325 18.315 0 10.111 8.2 18.314 18.325 18.314m56.777-115.383c8.078 0 14.643-6.546 14.643-14.642s-6.565-14.661-14.643-14.661c-8.096 0-14.661 6.565-14.661 14.661s6.565 14.642 14.661 14.642m-56.777 296.7c-14.172 0-25.65 11.474-25.65 25.64 0 14.167 11.478 25.64 25.65 25.64 14.153 0 25.632-11.473 25.632-25.64 0-14.166-11.479-25.64-25.632-25.64m281.14-106.226c-10.635 0-19.24 8.616-19.24 19.24 0 10.605 8.605 19.22 19.24 19.22 10.615 0 19.221-8.615 19.221-19.22 0-10.624-8.606-19.24-19.221-19.24m54.945-108.057c-8.605 0-15.577 6.968-15.577 15.567 0 8.6 6.972 15.568 15.577 15.568 8.587 0 15.56-6.968 15.56-15.568s-6.973-15.567-15.56-15.567m57.08-543.326c1.667 0 3.04-1.374 3.04-3.059s-1.373-3.058-3.04-3.058a3.064 3.064 0 0 0 -3.059 3.058 3.064 3.064 0 0 0 3.059 3.059m-12.216 446.672c0 4.716 2.82 8.732 6.831 10.574l3.535-21.977c-5.788.626-10.366 5.416-10.366 11.403m-43.353-785.806a.305.305 0 0 0 -.293-.312.309.309 0 0 0 -.311.312c0 .164.146.293.311.293a.301.301 0 0 0 .293-.293m-1.51 682.829c5.542 0 10.063-4.507 10.063-10.073 0-5.567-4.52-10.073-10.063-10.073-5.562 0-10.083 4.506-10.083 10.073 0 5.566 4.52 10.073 10.083 10.073m.613-229.557a5.19 5.19 0 0 0 5.183-5.183 5.19 5.19 0 0 0 -5.183-5.184c-2.876 0-5.202 2.326-5.202 5.184 0 2.857 2.326 5.183 5.202 5.183m-2695.736-897.515c2.014 0 3.644-1.649 3.644-3.663 0-.99-.402-1.905-1.044-2.564l-4.322-.385c-1.08.623-1.923 1.593-1.923 2.949 0 2.014 1.63 3.663 3.645 3.663m2807.44 667.371c-.842 0-1.52.678-1.52 1.52 0 .843.678 1.52 1.52 1.52.825 0 1.52-.677 1.52-1.52 0-.842-.695-1.52-1.52-1.52m-55.237 331.497c-3.718 0-6.722 3.004-6.722 6.704s3.004 6.703 6.722 6.703c3.7 0 6.703-3.004 6.703-6.703 0-3.7-3.003-6.704-6.703-6.704m0-442.612a.598.598 0 0 0 -.605-.605c-.348 0-.622.257-.622.605a.614.614 0 0 0 1.227 0m50.2 337.466.165-1.08c-.037.293-.311.458-.311.77 0 .127.128.2.146.31m-499.227 121.63c5.569 0 10.063-4.53 10.063-10.073 0-5.564-4.494-10.073-10.063-10.073a10.065 10.065 0 0 0 -10.084 10.073c0 5.544 4.495 10.073 10.084 10.073m281.139 342.486c9.107 0 16.474-7.382 16.474-16.483 0-9.102-7.367-16.484-16.474-16.484-9.126 0-16.493 7.382-16.493 16.484 0 9.1 7.367 16.483 16.493 16.483m0-228.935c6.063 0 10.98-4.927 10.98-10.979 0-6.071-4.917-10.998-10.98-10.998-6.082 0-10.999 4.927-10.999 10.998 0 6.052 4.917 10.98 11 10.98m-1.238-684.661a.305.305 0 0 0 -.293-.312.309.309 0 0 0 -.311.312c0 .164.147.293.311.293a.301.301 0 0 0 .293-.293m1.237 1098.574c-13.159 0-23.82 10.236-23.82 22.893 0 12.621 10.661 22.894 23.82 22.894 13.14 0 23.8-10.273 23.8-22.894 0-12.657-10.66-22.893-23.8-22.893m-1.53-644.075a5.788 5.788 0 0 0 5.788-5.788c0-3.205-2.6-5.806-5.788-5.806a5.808 5.808 0 0 0 -5.806 5.806c0 3.205 2.601 5.788 5.806 5.788m91.265 668.39c0 10.68 7.381 19.182 17.01 21.472l6.8-43.524c-.707-.075-1.323-.432-2.067-.432-12.005 0-21.742 10.06-21.742 22.485m22.29-895.513a2.126 2.126 0 0 0 2.124-2.124c0-1.19-.953-2.125-2.125-2.125-1.19 0-2.143.934-2.143 2.125a2.13 2.13 0 0 0 2.143 2.124m-113.262-1.172c1.337 0 2.418-1.117 2.418-2.454 0-1.355-1.08-2.454-2.418-2.454a2.439 2.439 0 0 0 -2.435 2.454c0 1.337 1.08 2.454 2.435 2.454m55.862 113.533c1.832 0 3.333-1.52 3.333-3.351 0-1.868-1.501-3.37-3.333-3.37a3.357 3.357 0 0 0 -3.352 3.37 3.365 3.365 0 0 0 3.352 3.351m2.125-227.414c0-.495-.403-.916-.898-.916a.918.918 0 0 0 -.916.916c0 .494.403.916.916.916.495 0 .898-.422.898-.916m-1.814 456.935c4.03 0 7.308-3.26 7.308-7.308 0-4.047-3.278-7.326-7.308-7.326a7.324 7.324 0 0 0 -7.326 7.326c0 4.048 3.279 7.308 7.326 7.308m.01 228.953c7.063 0 12.811-5.73 12.811-12.811 0-7.082-5.748-12.83-12.811-12.83-7.082 0-12.83 5.748-12.83 12.83s5.748 12.81 12.83 12.81m-672.18 186.811c-14.153 0-25.642 11.49-25.642 25.641 0 14.152 11.489 25.64 25.641 25.64s25.642-11.488 25.642-25.64-11.49-25.64-25.642-25.64m-1.831-181.317c10.119 0 18.315-8.191 18.315-18.305s-8.196-18.324-18.315-18.324c-10.12 0-18.316 8.21-18.316 18.324s8.197 18.305 18.316 18.305m1.209-915.134a.587.587 0 0 0 -.605-.604.587.587 0 0 0 -.604.604c0 .33.256.605.604.605a.598.598 0 0 0 .605-.605m-.293 684.368c6.577 0 11.904-5.32 11.904-11.886 0-6.585-5.327-11.923-11.905-11.923-6.577 0-11.904 5.338-11.904 11.923 0 6.567 5.327 11.886 11.905 11.886m55.257-343.713c2.692 0 4.89-2.198 4.89-4.872a4.89 4.89 0 0 0 -4.89-4.89 4.89 4.89 0 0 0 -4.89 4.89c0 2.674 2.197 4.872 4.89 4.872m-56.485 114.156c3.865 0 7.015-3.15 7.015-7.015a7.015 7.015 0 0 0 -14.03 0c0 3.865 3.15 7.015 7.015 7.015m-862.338 667.28c0-19.236-15.582-34.798-34.8-34.798-19.217 0-34.799 15.562-34.799 34.798 0 19.198 15.582 34.798 34.8 34.798 19.217 0 34.799-15.6 34.799-34.798m919.427 82.417c-16.18 0-29.304 13.134-29.304 29.322 0 16.17 13.124 29.285 29.304 29.285s29.305-13.116 29.305-29.285c0-16.188-13.125-29.322-29.305-29.322m-.916-173.99c11.643 0 21.063-9.413 21.063-21.044 0-11.65-9.42-21.08-21.063-21.08-11.642 0-21.062 9.43-21.062 21.08 0 11.631 9.42 21.043 21.062 21.043m2.125-919.712c0-.843-.678-1.52-1.52-1.52-.843 0-1.52.677-1.52 1.52 0 .842.677 1.52 1.52 1.52.842 0 1.52-.678 1.52-1.52m-1.227 458.144c5.037 0 9.14-4.103 9.14-9.14 0-5.054-4.103-9.139-9.14-9.139s-9.14 4.085-9.14 9.14c0 5.036 4.103 9.139 9.14 9.139m.018 230.802c8.087 0 14.652-6.565 14.652-14.652 0-8.105-6.565-14.651-14.652-14.651s-14.652 6.546-14.652 14.651c0 8.087 6.565 14.652 14.652 14.652m-1593.43 97.994c0-18.721-15.176-33.892-33.883-33.892-18.708 0-33.884 15.17-33.884 33.892 0 18.702 15.176 33.873 33.884 33.873 18.707 0 33.883-15.171 33.883-33.873m1649.273-671.228c1.52 0 2.73-1.245 2.73-2.747 0-1.52-1.21-2.765-2.73-2.765s-2.729 1.245-2.729 2.765c0 1.502 1.21 2.747 2.73 2.747m-2076.021 593.38c19.217 0 34.799-15.6 34.799-34.798 0-19.236-15.582-34.798-34.8-34.798-19.217 0-34.799 15.562-34.799 34.798 0 19.199 15.582 34.798 34.8 34.798m2300.4-593.416a1.806 1.806 0 0 0 1.813-1.813 1.81 1.81 0 0 0 -1.813-1.832 1.814 1.814 0 0 0 -1.831 1.832 1.81 1.81 0 0 0 1.831 1.813m-1515.59 816.857c18.719 0 33.883-15.164 33.883-33.883 0-18.718-15.164-33.882-33.883-33.882-18.72 0-33.884 15.164-33.884 33.882 0 18.719 15.165 33.883 33.884 33.883m-785.726-456.038c14.668 0 26.557-11.888 26.557-26.556s-11.889-26.557-26.557-26.557c-14.669 0-26.557 11.889-26.557 26.557s11.888 26.556 26.557 26.556m.916-463.364c7.076 0 12.82-5.729 12.82-12.81 0-7.082-5.744-12.83-12.82-12.83-7.077 0-12.821 5.748-12.821 12.83 0 7.081 5.744 12.81 12.82 12.81m-.915 230.767c10.613 0 19.23-8.614 19.23-19.222 0-10.626-8.617-19.24-19.23-19.24-10.614 0-19.231 8.614-19.231 19.24 0 10.608 8.617 19.222 19.23 19.222m0 825.995c-29.83 0-54.03 23.917-54.03 53.42 0 27.386 20.97 49.726 47.854 52.806h12.353c26.884-3.08 47.854-25.42 47.854-52.807 0-29.502-24.2-53.419-54.03-53.419m-112.64-1.831c-30.346 0-54.945 24.593-54.945 54.952 0 25.676 17.674 47.04 41.47 53.105h26.95c23.797-6.064 41.472-27.43 41.472-53.105 0-30.359-24.6-54.952-54.946-54.952m2078.163-951.745a3.048 3.048 0 0 0 3.04-3.059 3.048 3.048 0 0 0 -3.04-3.058 3.048 3.048 0 0 0 -3.04 3.058 3.048 3.048 0 0 0 3.04 3.059m-1966.146-331.535c4.194 0 7.62-3.425 7.62-7.619a7.613 7.613 0 0 0 -7.62-7.619 7.613 7.613 0 0 0 -7.62 7.62c0 4.193 3.426 7.618 7.62 7.618m-546.088 210.035v12.985c.916-1.978 1.466-4.158 1.466-6.484 0-2.344-.55-4.505-1.466-6.501m1669.44 1089.728c-21.727 0-39.379 17.622-39.379 39.377s17.652 39.377 39.378 39.377 39.378-17.622 39.378-39.377-17.652-39.377-39.378-39.377m1123.643-855.3c2.015 0 3.645-1.648 3.645-3.662 0-2.015-1.63-3.663-3.645-3.663a3.662 3.662 0 0 0 -3.663 3.663 3.662 3.662 0 0 0 3.663 3.663m-57.693 758.23c-12.647 0-22.894 10.248-22.894 22.913 0 12.646 10.247 22.875 22.894 22.875 12.628 0 22.894-10.229 22.894-22.875 0-12.665-10.266-22.912-22.894-22.912m57.675-986.25c0-.495-.403-.916-.898-.916a.918.918 0 0 0 -.915.916c0 .494.403.916.915.916.495 0 .898-.422.898-.916m-56.75 572.336c6.064 0 10.98-4.927 10.98-10.979 0-6.071-4.916-10.998-10.98-10.998-6.082 0-10.998 4.927-10.998 10.998 0 6.052 4.916 10.98 10.999 10.98m-.01 228.934c9.09 0 16.484-7.394 16.484-16.483 0-9.128-7.394-16.484-16.484-16.484-9.11 0-16.484 7.356-16.484 16.484 0 9.09 7.375 16.483 16.484 16.483m55.87 115.383c10.61 0 19.223-8.613 19.223-19.221 0-10.627-8.614-19.24-19.222-19.24-10.627 0-19.24 8.613-19.24 19.24 0 10.608 8.613 19.22 19.24 19.22m55.56-575.705a5.19 5.19 0 0 0 5.182-5.184 5.19 5.19 0 0 0 -5.183-5.183c-2.875 0-5.202 2.326-5.202 5.183 0 2.858 2.327 5.184 5.202 5.184m-55.56 753.359c-14.684 0-26.566 11.877-26.566 26.556 0 14.661 11.882 26.557 26.567 26.557 14.666 0 26.548-11.896 26.548-26.557 0-14.679-11.882-26.556-26.548-26.556m-55.56-752.132a5.788 5.788 0 0 0 5.788-5.788c0-3.205-2.601-5.806-5.788-5.806a5.808 5.808 0 0 0 -5.806 5.806c0 3.205 2.601 5.788 5.806 5.788m54.946 113.533c4.194 0 7.62-3.425 7.62-7.62a7.613 7.613 0 0 0 -7.62-7.618c-4.212 0-7.637 3.388-7.637 7.619 0 4.194 3.425 7.619 7.637 7.619m-.302 230.18c7.066 0 12.811-5.727 12.811-12.811 0-7.085-5.745-12.83-12.811-12.83-7.085 0-12.83 5.745-12.83 12.83 0 7.084 5.745 12.81 12.83 12.81m-167.594 117.215c9.603 0 17.4-7.796 17.4-17.399 0-9.622-7.797-17.399-17.4-17.399s-17.4 7.777-17.4 17.4c0 9.602 7.797 17.398 17.4 17.398m56.466-575.688a4.26 4.26 0 0 0 4.267-4.267c0-2.363-1.905-4.286-4.267-4.286-2.363 0-4.268 1.923-4.268 4.286a4.26 4.26 0 0 0 4.268 4.267m-56.76-339.739a.309.309 0 0 0 -.31-.31.309.309 0 0 0 -.312.31c0 .165.147.293.311.293.165 0 .312-.128.312-.293m1.209 1098.575c-13.141 0-23.81 10.65-23.81 23.81 0 13.14 10.669 23.808 23.81 23.808 13.14 0 23.81-10.668 23.81-23.809 0-13.16-10.67-23.81-23.81-23.81m0-415.744c6.072 0 10.989-4.931 10.989-10.98 0-6.067-4.917-10.998-10.99-10.998-6.072 0-10.989 4.93-10.989 10.998 0 6.049 4.917 10.98 10.99 10.98m-1.228-227.744c3.37 0 6.1-2.73 6.1-6.08a6.097 6.097 0 0 0 -6.1-6.1 6.097 6.097 0 0 0 -6.099 6.1c0 3.35 2.73 6.08 6.1 6.08m57.088 751.546c-15.683 0-28.389 12.72-28.389 28.397 0 15.678 12.706 28.379 28.39 28.379 15.682 0 28.388-12.701 28.388-28.379 0-15.677-12.706-28.397-28.389-28.397m56.466-1206.632a.305.305 0 0 0 -.293-.31.309.309 0 0 0 -.311.31c0 .165.146.293.311.293a.301.301 0 0 0 .293-.293m-.293 225.547a2.126 2.126 0 0 0 2.125-2.125c0-1.19-.953-2.124-2.125-2.124-1.19 0-2.143.934-2.143 2.124a2.13 2.13 0 0 0 2.143 2.125m-57.089 803.432c11.12 0 20.147-9.023 20.147-20.137 0-11.133-9.027-20.156-20.147-20.156-11.119 0-20.146 9.023-20.146 20.156 0 11.114 9.027 20.137 20.146 20.137m-224.362 173.99c-16.712 0-30.22 13.522-30.22 30.229 0 16.687 13.508 30.21 30.22 30.21s30.22-13.523 30.22-30.21c0-16.707-13.508-30.229-30.22-30.229m226.78-1090.333c0-.677-.531-1.227-1.209-1.227-.677 0-1.209.55-1.209 1.227a1.208 1.208 0 1 0 2.418 0m-1.502 685.577c7.574 0 13.737-6.148 13.737-13.727 0-7.598-6.163-13.745-13.737-13.745s-13.736 6.147-13.736 13.745c0 7.579 6.162 13.727 13.736 13.727m-1066.867-1022.88a.93.93 0 0 0 -.915-.915.93.93 0 0 0 -.916.915.93.93 0 0 0 .916.916.93.93 0 0 0 .915-.916m-336.085 458.785a10.069 10.069 0 0 0 10.073-10.073 10.069 10.069 0 0 0 -10.073-10.073 10.069 10.069 0 0 0 -10.074 10.073 10.069 10.069 0 0 0 10.074 10.073m-57.693 346.15c11.133 0 20.147-9.005 20.147-20.128s-9.014-20.165-20.147-20.165c-11.134 0-20.147 9.042-20.147 20.165s9.013 20.127 20.147 20.127m1.831 232.598c15.19 0 27.473-12.284 27.473-27.473 0-15.188-12.284-27.472-27.473-27.472s-27.473 12.284-27.473 27.472c0 15.189 12.284 27.473 27.473 27.473m54.03-349.812c8.6 0 15.568-6.968 15.568-15.568s-6.968-15.567-15.568-15.567-15.568 6.967-15.568 15.567 6.968 15.568 15.568 15.568m.605-458.492a5.19 5.19 0 0 0 5.183-5.183 5.19 5.19 0 0 0 -5.183-5.183 5.19 5.19 0 0 0 -5.183 5.183 5.19 5.19 0 0 0 5.183 5.183m.604-227.726a2.126 2.126 0 0 0 2.125-2.124c0-1.19-.953-2.125-2.125-2.125a2.114 2.114 0 0 0 -2.124 2.125c0 1.172.952 2.124 2.124 2.124m56.173 114.193c1.85 0 3.352-1.52 3.352-3.352a3.357 3.357 0 0 0 -3.352-3.37 3.357 3.357 0 0 0 -3.352 3.37 3.365 3.365 0 0 0 3.352 3.352m.312 458.473c7.076 0 12.82-5.73 12.82-12.81 0-7.083-5.744-12.83-12.82-12.83-7.077 0-12.821 5.747-12.821 12.83 0 7.08 5.744 12.81 12.82 12.81m-.018-230.784a7.293 7.293 0 0 0 7.308-7.308c0-4.047-3.26-7.326-7.308-7.326-4.047 0-7.308 3.279-7.308 7.326a7.293 7.293 0 0 0 7.308 7.308m-25.623 779.32c0-16.706-13.508-30.228-30.22-30.228s-30.22 13.522-30.22 30.229c0 16.687 13.508 30.21 30.22 30.21s30.22-13.523 30.22-30.21m-31.136-204.22c12.127 0 21.978-9.837 21.978-21.968 0-12.15-9.851-21.987-21.978-21.987-12.126 0-21.978 9.837-21.978 21.987 0 12.131 9.852 21.969 21.978 21.969m-111.723 1.831c13.145 0 23.81-10.273 23.81-22.893 0-12.658-10.665-22.894-23.81-22.894s-23.81 10.236-23.81 22.894c0 12.62 10.665 22.893 23.81 22.893m0-459.7c6.088 0 10.989-4.927 10.989-10.98 0-6.071-4.901-10.998-10.99-10.998-6.068 0-10.988 4.927-10.988 10.998 0 6.053 4.92 10.98 10.989 10.98m-1.539-230.162a5.776 5.776 0 0 0 5.788-5.788c0-3.205-2.582-5.805-5.788-5.805-3.205 0-5.787 2.6-5.787 5.805a5.776 5.776 0 0 0 5.787 5.788m.312-228.294c1.337 0 2.436-1.117 2.436-2.454a2.45 2.45 0 0 0 -2.436-2.454 2.45 2.45 0 0 0 -2.436 2.454c0 1.337 1.099 2.454 2.436 2.454m-54.635 1035.37c15.676 0 28.389-12.708 28.389-28.378 0-15.689-12.713-28.397-28.389-28.397-15.675 0-28.388 12.708-28.388 28.397 0 15.67 12.713 28.379 28.388 28.379m0-230.766c11.628 0 21.063-9.43 21.063-21.053 0-11.641-9.435-21.071-21.063-21.071s-21.062 9.43-21.062 21.071c0 11.622 9.434 21.053 21.062 21.053m223.447-1.832c10.629 0 19.23-8.616 19.23-19.22 0-10.625-8.601-19.24-19.23-19.24-10.63 0-19.231 8.615-19.231 19.24 0 10.604 8.602 19.22 19.23 19.22m-112.344-688.012c2.18 0 3.956-1.795 3.956-3.975 0-2.197-1.777-3.974-3.956-3.974-2.18 0-3.956 1.777-3.956 3.974 0 2.18 1.776 3.975 3.956 3.975m1234.156 1138.555c12.127 0 21.979-9.837 21.979-21.968 0-12.15-9.852-21.987-21.979-21.987-12.126 0-21.978 9.837-21.978 21.987 0 12.131 9.852 21.968 21.978 21.968m-1233.535-681.309c7.592 0 13.737-6.136 13.737-13.717s-6.145-13.755-13.737-13.755c-7.591 0-13.736 6.174-13.736 13.755 0 7.58 6.145 13.717 13.736 13.717m-24.725 547.612c0-17.207-13.947-31.136-31.136-31.136s-31.136 13.929-31.136 31.136c0 17.188 13.947 31.135 31.136 31.135s31.136-13.947 31.136-31.135m-31.136-432.229c9.101 0 16.484-7.382 16.484-16.483 0-9.102-7.383-16.483-16.484-16.483-9.102 0-16.484 7.381-16.484 16.483 0 9.101 7.382 16.483 16.484 16.483m337.001 228.935c11.127 0 20.147-9.016 20.147-20.137 0-11.14-9.02-20.156-20.147-20.156-11.126 0-20.147 9.016-20.147 20.156 0 11.12 9.02 20.137 20.147 20.137m-1.831 230.766c15.165 0 27.473-12.299 27.473-27.454 0-15.174-12.308-27.49-27.473-27.49-15.166 0-27.473 12.316-27.473 27.49 0 15.155 12.307 27.454 27.473 27.454m-391.948-573.252c8.092 0 14.653-6.546 14.653-14.643 0-8.096-6.561-14.661-14.653-14.661-8.09 0-14.652 6.565-14.652 14.661 0 8.097 6.561 14.643 14.652 14.643m392.552-346.754a4.26 4.26 0 0 0 4.268-4.267c0-2.363-1.905-4.286-4.268-4.286s-4.267 1.923-4.267 4.286a4.26 4.26 0 0 0 4.267 4.267m.293 227.671a8.223 8.223 0 0 0 8.224-8.223 8.223 8.223 0 0 0 -8.224-8.224 8.223 8.223 0 0 0 -8.223 8.224 8.223 8.223 0 0 0 8.223 8.223m1.52-456.605c0-.678-.53-1.227-1.209-1.227-.677 0-1.208.549-1.208 1.227a1.208 1.208 0 1 0 2.417 0m-1.502 685.576c7.575 0 13.737-6.148 13.737-13.727 0-7.597-6.162-13.745-13.737-13.745-7.574 0-13.736 6.148-13.736 13.745 0 7.58 6.162 13.727 13.736 13.727m55.862 115.383c9.105 0 16.484-7.375 16.484-16.474 0-9.1-7.38-16.492-16.484-16.492-9.105 0-16.484 7.393-16.484 16.492 0 9.1 7.38 16.474 16.484 16.474m0 232.598c13.138 0 23.81-10.672 23.81-23.81 0-13.137-10.672-23.809-23.81-23.809s-23.81 10.672-23.81 23.81c0 13.137 10.672 23.809 23.81 23.809m.604-691.108c3.37 0 6.1-2.729 6.1-6.08a6.097 6.097 0 0 0 -6.1-6.1 6.097 6.097 0 0 0 -6.099 6.1c0 3.351 2.73 6.08 6.1 6.08m-.605 229.576c6.061 0 10.99-4.924 10.99-10.98 0-6.074-4.929-10.998-10.99-10.998s-10.99 4.924-10.99 10.998c0 6.056 4.929 10.98 10.99 10.98m.898-457.851c1.52 0 2.729-1.246 2.729-2.747 0-1.52-1.21-2.766-2.73-2.766s-2.728 1.246-2.728 2.766c0 1.501 1.208 2.747 2.729 2.747m.018 1087.878c-17.698 0-32.052 14.336-32.052 32.051 0 17.697 14.354 32.051 32.052 32.051 17.716 0 32.052-14.354 32.052-32.05 0-17.716-14.336-32.052-32.052-32.052m-169.746-744.22a8.82 8.82 0 0 0 8.828-8.828c0-4.89-3.938-8.846-8.828-8.846s-8.828 3.956-8.828 8.846a8.82 8.82 0 0 0 8.828 8.828m.33 229.576c8.094 0 14.652-6.544 14.652-14.643 0-8.118-6.558-14.661-14.653-14.661-8.094 0-14.652 6.543-14.652 14.661 0 8.1 6.558 14.643 14.652 14.643m1.21-687.115c0-.843-.678-1.52-1.521-1.52-.842 0-1.52.677-1.52 1.52 0 .842.678 1.52 1.52 1.52.843 0 1.52-.678 1.52-1.52m-.311 227.414a4.565 4.565 0 0 0 4.56-4.579 4.565 4.565 0 0 0 -4.56-4.578 4.565 4.565 0 0 0 -4.56 4.578 4.565 4.565 0 0 0 4.56 4.58m-56.76 809.512c14.658 0 26.558-11.896 26.558-26.547 0-14.69-11.9-26.566-26.557-26.566s-26.557 11.877-26.557 26.566c0 14.65 11.9 26.547 26.557 26.547m112.016-922.442a3.048 3.048 0 0 0 3.04-3.058 3.048 3.048 0 0 0 -3.04-3.059 3.048 3.048 0 0 0 -3.04 3.059 3.048 3.048 0 0 0 3.04 3.058m.623 688.013c10.116 0 18.315-8.2 18.315-18.315 0-10.116-8.2-18.315-18.315-18.315-10.116 0-18.315 8.199-18.315 18.315s8.199 18.315 18.315 18.315m0 232.597c14.152 0 25.641-11.489 25.641-25.64 0-14.152-11.489-25.641-25.641-25.641s-25.642 11.489-25.642 25.64c0 14.152 11.49 25.641 25.642 25.641m-.916-463.363c6.574 0 11.905-5.327 11.905-11.896 0-6.587-5.33-11.914-11.905-11.914-6.574 0-11.905 5.327-11.905 11.914 0 6.57 5.331 11.896 11.905 11.896m-55.862 578.746c16.178 0 29.305-13.123 29.305-29.294 0-16.19-13.127-29.313-29.305-29.313-16.177 0-29.304 13.123-29.304 29.313 0 16.171 13.127 29.294 29.304 29.294m56.155-807.095c3.7 0 6.703-3.003 6.703-6.703s-3.003-6.703-6.703-6.703a6.706 6.706 0 0 0 -6.703 6.703c0 3.7 3.003 6.703 6.703 6.703m.623 856.545c-18.203 0-32.968 14.745-32.968 32.967 0 18.202 14.765 32.966 32.968 32.966s32.967-14.764 32.967-32.966c0-18.222-14.764-32.967-32.967-32.967m-55.862-282.047c11.64 0 21.063-9.42 21.063-21.053 0-11.634-9.423-21.071-21.063-21.071s-21.062 9.437-21.062 21.071 9.423 21.053 21.062 21.053m-674.918 5.494c15.166 0 27.473-12.298 27.473-27.454 0-15.173-12.308-27.49-27.473-27.49-15.166 0-27.473 12.317-27.473 27.49 0 15.156 12.307 27.454 27.473 27.454m56.777-576.915c6.073 0 10.99-4.93 10.99-10.98 0-6.067-4.917-10.998-10.99-10.998-6.072 0-10.99 4.931-10.99 10.998 0 6.05 4.918 10.98 10.99 10.98m-55.862 115.383c7.575 0 13.737-6.148 13.737-13.727 0-7.597-6.162-13.745-13.737-13.745-7.574 0-13.736 6.148-13.736 13.745 0 7.58 6.162 13.727 13.736 13.727m-.915 230.766c11.119 0 20.147-9.023 20.147-20.137 0-11.132-9.028-20.155-20.147-20.155-11.12 0-20.147 9.023-20.147 20.155 0 11.114 9.027 20.137 20.147 20.137m.604-689.24a4.26 4.26 0 0 0 4.268-4.267c0-2.362-1.905-4.285-4.268-4.285s-4.267 1.923-4.267 4.285a4.26 4.26 0 0 0 4.267 4.268m56.778 113.514c3.37 0 6.098-2.728 6.098-6.08a6.097 6.097 0 0 0 -6.098-6.099 6.097 6.097 0 0 0 -6.1 6.099c0 3.352 2.73 6.08 6.1 6.08m56.154-114.742c2.015 0 3.645-1.648 3.645-3.662 0-2.015-1.63-3.663-3.645-3.663-2.014 0-3.645 1.648-3.645 3.663 0 2.014 1.63 3.662 3.645 3.662m.312 229.521c4.194 0 7.619-3.425 7.619-7.619a7.613 7.613 0 0 0 -7.62-7.619 7.613 7.613 0 0 0 -7.619 7.62c0 4.193 3.425 7.618 7.62 7.618m-56.155 345.563c9.603 0 17.4-7.796 17.4-17.399 0-9.622-7.797-17.399-17.4-17.399s-17.4 7.777-17.4 17.399c0 9.603 7.797 17.399 17.4 17.399m-.916 230.766c13.141 0 23.81-10.669 23.81-23.81 0-13.158-10.669-23.808-23.81-23.808-13.14 0-23.81 10.65-23.81 23.809 0 13.14 10.67 23.81 23.81 23.81m56.778-347.981c7.09 0 12.82-5.727 12.82-12.812 0-7.084-5.73-12.83-12.82-12.83s-12.821 5.746-12.821 12.83c0 7.085 5.73 12.812 12.82 12.812m-55.86 580.578c17.69 0 32.052-14.362 32.052-32.051 0-17.69-14.362-32.051-32.052-32.051s-32.052 14.361-32.052 32.05c0 17.69 14.362 32.052 32.052 32.052m-170.022-1036.012c2.692 0 4.89-2.197 4.89-4.871a4.89 4.89 0 0 0 -4.89-4.89 4.89 4.89 0 0 0 -4.89 4.89c0 2.674 2.198 4.871 4.89 4.871m-.311 688.031c11.642 0 21.062-9.412 21.062-21.044 0-11.65-9.42-21.08-21.062-21.08-11.643 0-21.063 9.43-21.063 21.08 0 11.632 9.42 21.044 21.063 21.044m.915-230.766c8.088 0 14.653-6.565 14.653-14.652 0-8.105-6.565-14.652-14.653-14.652-8.087 0-14.652 6.547-14.652 14.652 0 8.087 6.565 14.652 14.652 14.652m-.018-228.971c5.037 0 9.14-4.103 9.14-9.14 0-5.054-4.103-9.138-9.14-9.138s-9.14 4.084-9.14 9.139c0 5.036 4.103 9.139 9.14 9.139m-279.868 1168.277c-27.292 0-50.029 19.42-55.296 45.233-5.267-26.828-28.848-47.094-57.17-47.094-26.15 0-48.024 17.37-55.428 41.172-7.442-24.685-30.03-42.733-57.04-42.733-26.055 0-48.023 16.808-56.234 40.1-6.616-18.743-22.174-33.087-41.519-38.088v111.54h12.372c13.515-6.994 24.011-19.007 29.147-33.577 5.136 14.57 15.633 26.583 29.148 33.577h54.022a60.49 60.49 0 0 0 30.104-36.19c5.06 16.28 17.02 29.403 32.39 36.19h46.187c17.282-7.576 30.29-23.124 34.02-42.13 4.03 19.758 18.333 35.7 37.04 42.13h35.952c22.456-7.501 38.745-28.482 38.745-53.505 0-31.264-25.268-56.625-56.44-56.625m392.819-1169.486c4.707 0 8.534-3.828 8.534-8.535a8.532 8.532 0 0 0 -8.534-8.534 8.532 8.532 0 0 0 -8.535 8.534c0 4.707 3.827 8.535 8.535 8.535m-56.155 579.992c14.152 0 25.641-11.489 25.641-25.64 0-14.152-11.489-25.641-25.641-25.641s-25.642 11.489-25.642 25.64c0 14.152 11.49 25.641 25.642 25.641m-56.778 115.383c16.18 0 29.305-13.115 29.305-29.285 0-16.188-13.124-29.322-29.305-29.322-16.18 0-29.304 13.134-29.304 29.322 0 16.17 13.124 29.285 29.304 29.285m56.778 115.383c18.203 0 32.967-14.764 32.967-32.967 0-18.22-14.764-32.966-32.967-32.966s-32.968 14.745-32.968 32.966c0 18.203 14.765 32.967 32.968 32.967m0-463.363c10.116 0 18.315-8.2 18.315-18.315 0-10.116-8.2-18.315-18.315-18.315-10.116 0-18.315 8.199-18.315 18.315s8.199 18.315 18.315 18.315m-.916-230.767c6.574 0 11.905-5.326 11.905-11.895 0-6.587-5.33-11.914-11.905-11.914-6.574 0-11.905 5.327-11.905 11.914 0 6.569 5.331 11.895 11.905 11.895m.604-229.557c3.865 0 7.015-3.15 7.015-7.014a7.015 7.015 0 0 0 -14.03 0c0 3.864 3.15 7.014 7.015 7.014m167.897 804.641c14.66 0 26.557-11.896 26.557-26.556 0-14.68-11.896-26.557-26.557-26.557s-26.557 11.877-26.557 26.557c0 14.66 11.896 26.556 26.557 26.556m168.812-807.077c2.692 0 4.89-2.197 4.89-4.871a4.89 4.89 0 0 0 -4.89-4.89 4.89 4.89 0 0 0 -4.89 4.89c0 2.674 2.197 4.871 4.89 4.871m56.447-114.137c1.52 0 2.73-1.246 2.73-2.747 0-1.52-1.21-2.766-2.73-2.766s-2.728 1.245-2.728 2.766c0 1.501 1.208 2.747 2.728 2.747m.019 227.066c3.535 0 6.41-2.875 6.41-6.392a6.417 6.417 0 0 0 -6.41-6.41 6.417 6.417 0 0 0 -6.41 6.41c0 3.517 2.875 6.392 6.41 6.392m-55.863 576.935c12.15 0 21.979-9.852 21.979-21.969 0-12.154-9.83-21.987-21.979-21.987-12.15 0-21.978 9.833-21.978 21.987 0 12.117 9.829 21.969 21.978 21.969m-.916-230.766c8.596 0 15.568-6.968 15.568-15.558s-6.972-15.578-15.568-15.578c-8.595 0-15.568 6.987-15.568 15.578 0 8.59 6.973 15.558 15.568 15.558m.916 463.363c16.192 0 29.305-13.108 29.305-29.294s-13.113-29.313-29.305-29.313c-16.191 0-29.304 13.127-29.304 29.313s13.113 29.294 29.304 29.294m55.862-578.746c6.581 0 11.905-5.32 11.905-11.895 0-6.576-5.324-11.915-11.905-11.915-6.582 0-11.905 5.339-11.905 11.915s5.323 11.895 11.905 11.895m55.532-116.024a8.82 8.82 0 0 0 8.828-8.828c0-4.89-3.938-8.846-8.828-8.846s-8.828 3.956-8.828 8.846a8.82 8.82 0 0 0 8.828 8.828m-23.48 776.28c0-17.706-14.359-32.06-32.052-32.06s-32.052 14.354-32.052 32.06c0 17.688 14.359 32.042 32.052 32.042s32.052-14.354 32.052-32.042m-32.052-198.724c13.658 0 24.725-11.068 24.725-24.725 0-13.658-11.067-24.725-24.725-24.725s-24.726 11.067-24.726 24.725c0 13.657 11.068 24.725 24.726 24.725m0-230.766c9.614 0 17.4-7.785 17.4-17.4 0-9.614-7.786-17.398-17.4-17.398-9.615 0-17.4 7.784-17.4 17.399 0 9.614 7.785 17.399 17.4 17.399m-167.584-342.488c6.088 0 10.99-4.927 10.99-10.979 0-6.071-4.902-10.998-10.99-10.998-6.068 0-10.99 4.927-10.99 10.998 0 6.052 4.922 10.98 10.99 10.98m0 228.934c9.109 0 16.484-7.394 16.484-16.483 0-9.128-7.375-16.484-16.484-16.484s-16.484 7.356-16.484 16.484c0 9.09 7.375 16.483 16.484 16.483m-.916 230.766c12.647 0 22.894-10.229 22.894-22.875 0-12.665-10.247-22.912-22.894-22.912-12.646 0-22.894 10.247-22.894 22.912 0 12.646 10.248 22.875 22.894 22.875m-.623-689.862a5.776 5.776 0 0 0 5.788-5.788c0-3.205-2.582-5.805-5.788-5.805-3.205 0-5.787 2.6-5.787 5.805a5.776 5.776 0 0 0 5.787 5.788m224.051-2.436a4.565 4.565 0 0 0 4.56-4.579 4.565 4.565 0 0 0 -4.56-4.578 4.565 4.565 0 0 0 -4.56 4.578 4.565 4.565 0 0 0 4.56 4.579m-280.205 576.915c10.613 0 19.23-8.613 19.23-19.221 0-10.627-8.617-19.24-19.23-19.24-10.614 0-19.231 8.613-19.231 19.24 0 10.608 8.617 19.221 19.23 19.221m112.64 230.766c14.167 0 25.641-11.474 25.641-25.64 0-14.167-11.474-25.641-25.641-25.641s-25.642 11.474-25.642 25.64c0 14.167 11.475 25.641 25.642 25.641m0-232.597c10.13 0 18.315-8.204 18.315-18.315 0-10.13-8.185-18.315-18.315-18.315s-18.316 8.185-18.316 18.315c0 10.111 8.185 18.315 18.316 18.315m55.861-344.318c5.564 0 10.074-4.529 10.074-10.073 0-5.564-4.51-10.073-10.074-10.073-5.563 0-10.073 4.51-10.073 10.073 0 5.544 4.51 10.073 10.073 10.073m-56.173-343.09c1.85 0 3.352-1.52 3.352-3.352a3.357 3.357 0 0 0 -3.352-3.37 3.357 3.357 0 0 0 -3.351 3.37 3.365 3.365 0 0 0 3.351 3.352m0 227.084c3.865 0 7.015-3.15 7.015-7.014a7.015 7.015 0 0 0 -14.03 0c0 3.864 3.15 7.014 7.015 7.014m.312 231.389c7.075 0 12.82-5.74 12.82-12.81 0-7.09-5.745-12.83-12.82-12.83-7.076 0-12.82 5.74-12.82 12.83 0 7.07 5.744 12.81 12.82 12.81m-23.81 547.63c0-17.202-13.952-31.154-31.136-31.154s-31.136 13.952-31.136 31.154c0 17.184 13.952 31.117 31.136 31.117s31.136-13.933 31.136-31.117m304.931-664.881a8.223 8.223 0 0 0 8.224-8.223 8.223 8.223 0 0 0 -8.224-8.224 8.223 8.223 0 0 0 -8.223 8.224 8.223 8.223 0 0 0 8.223 8.223m954.245 798.56c11.64 0 21.063-9.419 21.063-21.052 0-11.634-9.423-21.072-21.063-21.072s-21.062 9.438-21.062 21.072c0 11.633 9.423 21.052 21.062 21.052m.916 173.99c-16.177 0-29.305 13.123-29.305 29.314 0 16.171 13.128 29.294 29.305 29.294s29.304-13.123 29.304-29.294c0-16.19-13.127-29.314-29.304-29.314m55.843-977.99c1.52 0 2.73-1.245 2.73-2.747 0-1.52-1.21-2.765-2.73-2.765s-2.729 1.245-2.729 2.765c0 1.502 1.21 2.747 2.73 2.747m-54.635-115.712c0-.843-.678-1.52-1.52-1.52-.843 0-1.52.677-1.52 1.52 0 .842.677 1.52 1.52 1.52.842 0 1.52-.678 1.52-1.52m-3.04 688.946c8.094 0 14.652-6.543 14.652-14.642 0-8.118-6.558-14.661-14.653-14.661-8.094 0-14.652 6.543-14.652 14.66 0 8.1 6.558 14.643 14.652 14.643m1.502-231.407a8.82 8.82 0 0 0 8.828-8.828c0-4.89-3.938-8.846-8.828-8.846s-8.828 3.956-8.828 8.846a8.82 8.82 0 0 0 8.828 8.828m54.36 577.556c13.654 0 24.726-11.071 24.726-24.725 0-13.653-11.072-24.725-24.726-24.725s-24.726 11.072-24.726 24.725c0 13.654 11.072 24.725 24.726 24.725m0-232.597c9.6 0 17.4-7.8 17.4-17.4 0-9.635-7.8-17.398-17.4-17.398s-17.4 7.763-17.4 17.399c0 9.599 7.8 17.399 17.4 17.399m1.832-459.72c3.534 0 6.41-2.875 6.41-6.391a6.417 6.417 0 0 0 -6.41-6.41 6.417 6.417 0 0 0 -6.41 6.41c0 3.516 2.875 6.392 6.41 6.392m.293-455.415a.587.587 0 0 0 -.605-.604.587.587 0 0 0 -.604.604c0 .33.256.604.604.604a.598.598 0 0 0 .605-.604m-.293 686.2c6.581 0 11.904-5.32 11.904-11.896s-5.323-11.914-11.904-11.914c-6.582 0-11.905 5.338-11.905 11.914s5.323 11.895 11.905 11.895m-113.555 232.599c10.629 0 19.23-8.617 19.23-19.221 0-10.624-8.601-19.24-19.23-19.24-10.63 0-19.231 8.616-19.231 19.24 0 10.604 8.602 19.22 19.23 19.22m-54.945 285.711c-16.69 0-30.22 13.525-30.22 30.229 0 16.684 13.53 30.21 30.22 30.21s30.22-13.526 30.22-30.21c0-16.704-13.53-30.229-30.22-30.229m-.916-172.159c12.134 0 21.978-9.84 21.978-21.968s-9.844-21.987-21.978-21.987-21.978 9.859-21.978 21.987 9.844 21.968 21.978 21.968m56.466-804.622c1.85 0 3.352-1.52 3.352-3.352a3.357 3.357 0 0 0 -3.352-3.37 3.357 3.357 0 0 0 -3.352 3.37 3.365 3.365 0 0 0 3.352 3.352m-56.466-112.966a1.81 1.81 0 0 0 1.832-1.813 1.814 1.814 0 0 0 -1.832-1.831 1.814 1.814 0 0 0 -1.831 1.831 1.81 1.81 0 0 0 1.831 1.813m.916 686.822c8.588 0 15.568-6.979 15.568-15.567 0-8.607-6.98-15.568-15.568-15.568-8.589 0-15.568 6.96-15.568 15.568 0 8.588 6.98 15.567 15.568 15.567m55.862-115.383c7.076 0 12.82-5.729 12.82-12.81 0-7.082-5.744-12.83-12.82-12.83-7.077 0-12.821 5.748-12.821 12.83 0 7.081 5.744 12.81 12.82 12.81m0 461.532c14.167 0 25.642-11.474 25.642-25.64 0-14.167-11.475-25.641-25.641-25.641-14.167 0-25.642 11.474-25.642 25.64 0 14.167 11.475 25.641 25.642 25.641m-.916 164.833c-18.708 0-33.884 15.171-33.884 33.892 0 18.702 15.176 33.873 33.884 33.873s33.883-15.171 33.883-33.873c0-18.721-15.175-33.892-33.883-33.892m.916-1312.253a.93.93 0 0 0 -.916-.915.93.93 0 0 0 -.916.915.93.93 0 0 0 .916.916.93.93 0 0 0 .916-.916m-.019 456.935a7.293 7.293 0 0 0 7.308-7.307c0-4.048-3.26-7.326-7.308-7.326-4.047 0-7.308 3.278-7.308 7.326a7.293 7.293 0 0 0 7.308 7.307m111.742 857.15c-18.21 0-32.968 14.756-32.968 32.966s14.757 32.967 32.968 32.967c18.21 0 32.967-14.757 32.967-32.967s-14.757-32.966-32.967-32.966m-55.88-972.514a4.565 4.565 0 0 0 4.56-4.579 4.565 4.565 0 0 0 -4.56-4.579 4.565 4.565 0 0 0 -4.56 4.579 4.565 4.565 0 0 0 4.56 4.579m-111.705 230.765c5.564 0 10.073-4.53 10.073-10.073 0-5.564-4.51-10.074-10.073-10.074-5.564 0-10.074 4.51-10.074 10.074 0 5.544 4.51 10.073 10.074 10.073m336.085 227.103c7.077 0 12.821-5.73 12.821-12.811 0-7.082-5.744-12.83-12.82-12.83-7.077 0-12.821 5.748-12.821 12.83 0 7.081 5.744 12.81 12.82 12.81m.916 230.767c10.614 0 19.231-8.613 19.231-19.221 0-10.627-8.617-19.24-19.23-19.24-10.614 0-19.232 8.613-19.232 19.24 0 10.608 8.618 19.22 19.231 19.22m.916-916.653a.93.93 0 0 0 -.916-.916.93.93 0 0 0 -.916.916.93.93 0 0 0 .916.916.93.93 0 0 0 .916-.916m-.916 1094.307c-14.668 0-26.557 11.888-26.557 26.556s11.889 26.557 26.557 26.557c14.669 0 26.557-11.889 26.557-26.557s-11.888-26.556-26.557-26.556m-.622-638.6c4.194 0 7.619-3.424 7.619-7.618a7.613 7.613 0 0 0 -7.62-7.62 7.613 7.613 0 0 0 -7.619 7.62c0 4.194 3.425 7.619 7.62 7.619m55.568 343.731c8.6 0 15.568-6.968 15.568-15.567 0-8.6-6.968-15.568-15.568-15.568s-15.568 6.968-15.568 15.568 6.968 15.567 15.568 15.567m0-228.934a10.069 10.069 0 0 0 10.074-10.073 10.069 10.069 0 0 0 -10.074-10.074 10.069 10.069 0 0 0 -10.073 10.074 10.069 10.069 0 0 0 10.073 10.073m-167.292-343.695c2.18 0 3.956-1.795 3.956-3.974 0-2.198-1.776-3.975-3.956-3.975s-3.956 1.777-3.956 3.975c0 2.179 1.777 3.974 3.956 3.974m111.412 1.209c2.015 0 3.645-1.649 3.645-3.663 0-2.015-1.63-3.663-3.645-3.663s-3.645 1.648-3.645 3.663c0 2.014 1.63 3.663 3.645 3.663m56.796 113.551c3.022 0 5.494-2.472 5.494-5.494a5.499 5.499 0 0 0 -5.494-5.495 5.499 5.499 0 0 0 -5.495 5.495c0 3.022 2.473 5.494 5.495 5.494m.623-453.895a.309.309 0 0 0 -.312-.31.309.309 0 0 0 -.311.31c0 .165.146.293.311.293s.312-.128.312-.293m-.33 225.547a2.126 2.126 0 0 0 2.124-2.125c0-1.19-.952-2.124-2.124-2.124a2.114 2.114 0 0 0 -2.125 2.124c0 1.172.953 2.125 2.125 2.125m-168.794 803.432c11.134 0 20.147-9.005 20.147-20.128s-9.013-20.165-20.147-20.165-20.147 9.042-20.147 20.165 9.013 20.128 20.147 20.128m-.916-230.766c7.592 0 13.737-6.136 13.737-13.718 0-7.58-6.145-13.754-13.737-13.754-7.591 0-13.736 6.173-13.736 13.754 0 7.582 6.145 13.718 13.736 13.718m-.018-228.971a8.223 8.223 0 0 0 8.224-8.224 8.223 8.223 0 0 0 -8.224-8.223 8.223 8.223 0 0 0 -8.223 8.223 8.223 8.223 0 0 0 8.223 8.224m.934 637.39c-15.181 0-27.473 12.306-27.473 27.481 0 15.158 12.292 27.463 27.473 27.463 15.182 0 27.473-12.305 27.473-27.463 0-15.175-12.291-27.481-27.473-27.481m.586-1095.827c0-.678-.53-1.227-1.209-1.227-.677 0-1.208.55-1.208 1.227a1.208 1.208 0 1 0 2.417 0m54.983-110.805a.309.309 0 0 0 -.312-.31.309.309 0 0 0 -.31.31c0 .165.146.293.31.293.165 0 .312-.128.312-.293m-.623 913.596c9.105 0 16.484-7.375 16.484-16.474 0-9.1-7.38-16.493-16.484-16.493-9.105 0-16.484 7.393-16.484 16.493 0 9.099 7.38 16.474 16.484 16.474m0 230.766c13.138 0 23.81-10.672 23.81-23.81 0-13.137-10.672-23.809-23.81-23.809s-23.81 10.672-23.81 23.81c0 13.137 10.672 23.809 23.81 23.809m-728.967-1029.29c2.015 0 3.645-1.648 3.645-3.663s-1.63-3.663-3.645-3.663-3.645 1.648-3.645 3.663 1.63 3.663 3.645 3.663m729.883 1199.617c-17.698 0-32.052 14.335-32.052 32.05 0 17.698 14.354 32.052 32.052 32.052 17.716 0 32.052-14.354 32.052-32.051 0-17.716-14.336-32.051-32.052-32.051m-.916-631.86c6.061 0 10.99-4.923 10.99-10.979 0-6.074-4.929-10.998-10.99-10.998s-10.99 4.924-10.99 10.998c0 6.056 4.929 10.98 10.99 10.98m.604-456.624c1.337 0 2.436-1.117 2.436-2.454a2.45 2.45 0 0 0 -2.436-2.454 2.45 2.45 0 0 0 -2.435 2.454c0 1.337 1.098 2.454 2.435 2.454m0 227.048c3.37 0 6.1-2.729 6.1-6.08a6.097 6.097 0 0 0 -6.1-6.1 6.097 6.097 0 0 0 -6.099 6.1c0 3.351 2.73 6.08 6.1 6.08m-617.83 350.453c10.119 0 18.315-8.192 18.315-18.305 0-10.114-8.196-18.324-18.315-18.324-10.12 0-18.316 8.21-18.316 18.324 0 10.113 8.197 18.305 18.316 18.305m336.69-462.155a5.19 5.19 0 0 0 5.183-5.183 5.19 5.19 0 0 0 -5.183-5.183 5.19 5.19 0 0 0 -5.183 5.183 5.19 5.19 0 0 0 5.183 5.183m-335.774 229.558c6.577 0 11.904-5.32 11.904-11.887 0-6.585-5.327-11.923-11.904-11.923-6.578 0-11.905 5.338-11.905 11.923 0 6.567 5.327 11.887 11.905 11.887m-1.228-227.726c3.865 0 7.015-3.15 7.015-7.015a7.015 7.015 0 0 0 -14.03 0c0 3.865 3.15 7.015 7.015 7.015m35.11 889.804c0-18.723-15.178-33.882-33.882-33.882-18.705 0-33.884 15.16-33.884 33.882 0 18.704 15.179 33.883 33.884 33.883 18.704 0 33.883-15.179 33.883-33.883m21.978-314.098c12.15 0 21.979-9.852 21.979-21.968 0-12.154-9.83-21.987-21.979-21.987-12.15 0-21.978 9.833-21.978 21.987 0 12.116 9.829 21.968 21.978 21.968m.916-230.766c8.596 0 15.568-6.968 15.568-15.558s-6.972-15.577-15.568-15.577-15.568 6.987-15.568 15.577 6.972 15.558 15.568 15.558m-56.484-801.582a.587.587 0 0 0 -.605-.604.587.587 0 0 0 -.604.604c0 .33.256.604.604.604a.598.598 0 0 0 .605-.604m56.484 572.648c5.564 0 10.073-4.53 10.073-10.074 0-5.563-4.51-10.073-10.073-10.073-5.564 0-10.073 4.51-10.073 10.073 0 5.545 4.51 10.074 10.073 10.074m-.916-457.888a1.81 1.81 0 0 0 1.832-1.813 1.814 1.814 0 0 0 -1.832-1.831 1.814 1.814 0 0 0 -1.831 1.831 1.81 1.81 0 0 0 1.831 1.813m-.604 227.726c2.692 0 4.89-2.198 4.89-4.872a4.89 4.89 0 0 0 -4.89-4.89 4.89 4.89 0 0 0 -4.89 4.89c0 2.674 2.197 4.872 4.89 4.872m-111.12-.604c3.023 0 5.495-2.473 5.495-5.495a5.499 5.499 0 0 0 -5.494-5.494 5.499 5.499 0 0 0 -5.495 5.494c0 3.022 2.473 5.495 5.495 5.495m-57.693 807.68c14.668 0 26.557-11.888 26.557-26.556s-11.889-26.556-26.557-26.556c-14.669 0-26.557 11.888-26.557 26.556s11.888 26.557 26.557 26.557m0-232.598c10.613 0 19.23-8.613 19.23-19.221 0-10.627-8.617-19.24-19.23-19.24-10.614 0-19.231 8.613-19.231 19.24 0 10.608 8.617 19.221 19.23 19.221m169.417 346.15c16.192 0 29.305-13.11 29.305-29.295 0-16.186-13.113-29.313-29.305-29.313-16.191 0-29.304 13.127-29.304 29.313s13.113 29.294 29.304 29.294m-168.5-576.915c7.09 0 12.82-5.726 12.82-12.811s-5.73-12.83-12.82-12.83-12.821 5.745-12.821 12.83 5.73 12.811 12.82 12.811m.294-230.18c4.194 0 7.619-3.425 7.619-7.619a7.613 7.613 0 0 0 -7.62-7.619 7.613 7.613 0 0 0 -7.619 7.62c0 4.193 3.425 7.618 7.62 7.618m55.568 114.797a10.066 10.066 0 0 0 10.074-10.073 10.055 10.055 0 0 0 -10.074-10.073 10.055 10.055 0 0 0 -10.073 10.073c0 5.56 4.495 10.073 10.073 10.073m-.623-455.451a2.126 2.126 0 0 0 2.125-2.125c0-1.19-.952-2.124-2.125-2.124a2.114 2.114 0 0 0 -2.124 2.124c0 1.172.952 2.125 2.124 2.125m.623 916.983c12.644 0 22.894-10.235 22.894-22.884 0-12.648-10.25-22.903-22.894-22.903-12.643 0-22.894 10.255-22.894 22.903 0 12.649 10.25 22.884 22.894 22.884m0 172.159c-16.686 0-30.22 13.53-30.22 30.229 0 16.68 13.534 30.21 30.22 30.21s30.22-13.53 30.22-30.21c0-16.7-13.534-30.23-30.22-30.23m57.07-977.385a3.048 3.048 0 0 0 3.04-3.058 3.048 3.048 0 0 0 -3.04-3.059 3.048 3.048 0 0 0 -3.04 3.059 3.048 3.048 0 0 0 3.04 3.058m-57.07 574.461c8.6 0 15.568-6.968 15.568-15.567 0-8.6-6.968-15.568-15.568-15.568s-15.568 6.968-15.568 15.568 6.968 15.567 15.568 15.567m55.862 346.15c14.155 0 25.641-11.468 25.641-25.641 0-14.174-11.486-25.641-25.641-25.641-14.156 0-25.642 11.467-25.642 25.64 0 14.174 11.486 25.641 25.642 25.641m280.517-807.058c2.18 0 3.956-1.795 3.956-3.974 0-2.198-1.777-3.975-3.956-3.975-2.18 0-3.956 1.777-3.956 3.975 0 2.179 1.776 3.974 3.956 3.974m-56.155 805.227c12.647 0 22.894-10.229 22.894-22.875 0-12.665-10.247-22.912-22.894-22.912s-22.894 10.247-22.894 22.912c0 12.646 10.247 22.875 22.894 22.875m32.052 201.481c0-17.203-13.952-31.154-31.136-31.154-17.185 0-31.136 13.951-31.136 31.154 0 17.184 13.951 31.116 31.136 31.116 17.184 0 31.136-13.932 31.136-31.116m-31.136-432.247c9.109 0 16.484-7.394 16.484-16.484 0-9.127-7.375-16.483-16.484-16.483-9.11 0-16.484 7.356-16.484 16.483 0 9.09 7.375 16.484 16.484 16.484m0-230.766c6.088 0 10.989-4.927 10.989-10.98 0-6.071-4.901-10.998-10.99-10.998-6.068 0-10.988 4.927-10.988 10.999 0 6.052 4.92 10.979 10.989 10.979m-1.227-456.624c1.337 0 2.436-1.117 2.436-2.454a2.45 2.45 0 0 0 -2.436-2.454 2.45 2.45 0 0 0 -2.436 2.454c0 1.337 1.099 2.454 2.436 2.454m57.088 800.941c10.625 0 19.232-8.602 19.232-19.221 0-10.62-8.607-19.24-19.232-19.24-10.624 0-19.23 8.62-19.23 19.24s8.606 19.221 19.23 19.221m.916 234.43c15.19 0 27.473-12.284 27.473-27.473 0-15.188-12.284-27.472-27.473-27.472s-27.473 12.284-27.473 27.472c0 15.189 12.284 27.472 27.473 27.472m-1.227-694.77c4.377 0 7.93-3.553 7.93-7.912a7.934 7.934 0 0 0 -7.93-7.93 7.934 7.934 0 0 0 -7.93 7.93c0 4.359 3.553 7.912 7.93 7.912m.311 231.407c7.598 0 13.737-6.163 13.737-13.727 0-7.602-6.14-13.745-13.737-13.745s-13.736 6.143-13.736 13.745c0 7.564 6.14 13.727 13.736 13.727m1.502-687.408c0-.678-.53-1.227-1.208-1.227s-1.21.549-1.21 1.227a1.208 1.208 0 1 0 2.418 0m-137.95 1234.113c0-17.707-14.359-32.06-32.052-32.06-17.694 0-32.052 14.353-32.052 32.06 0 17.687 14.358 32.041 32.052 32.041 17.693 0 32.052-14.354 32.052-32.041m-32.052-431.322c9.614 0 17.4-7.785 17.4-17.4 0-9.614-7.786-17.398-17.4-17.398-9.615 0-17.4 7.784-17.4 17.399 0 9.614 7.785 17.399 17.4 17.399m0 232.597c13.658 0 24.725-11.067 24.725-24.725s-11.067-24.725-24.725-24.725-24.726 11.067-24.726 24.725 11.068 24.725 24.726 24.725m0-692.316c3.535 0 6.41-2.876 6.41-6.392a6.417 6.417 0 0 0 -6.41-6.41 6.417 6.417 0 0 0 -6.41 6.41c0 3.516 2.875 6.392 6.41 6.392m112.932-1.209a5.776 5.776 0 0 0 5.788-5.787c0-3.206-2.583-5.806-5.788-5.806s-5.788 2.6-5.788 5.806a5.776 5.776 0 0 0 5.788 5.787m-112.95-227.69c1.52 0 2.728-1.245 2.728-2.746 0-1.52-1.208-2.766-2.729-2.766-1.52 0-2.728 1.246-2.728 2.766 0 1.501 1.208 2.747 2.728 2.747m.019 459.682c6.581 0 11.905-5.319 11.905-11.895s-5.324-11.914-11.905-11.914c-6.582 0-11.905 5.338-11.905 11.914s5.323 11.895 11.905 11.895m55.861 344.318c11.12 0 20.147-9.023 20.147-20.137 0-11.133-9.027-20.156-20.147-20.156-11.119 0-20.146 9.023-20.146 20.156 0 11.114 9.027 20.137 20.146 20.137m.916 232.597c15.683 0 28.389-12.7 28.389-28.378s-12.706-28.398-28.389-28.398-28.389 12.72-28.389 28.398c0 15.677 12.706 28.378 28.39 28.378m-1.54-693.543c4.708 0 8.536-3.828 8.536-8.535a8.532 8.532 0 0 0 -8.535-8.535 8.532 8.532 0 0 0 -8.535 8.535c0 4.707 3.828 8.535 8.535 8.535m3.04-457.228c0-.678-.531-1.227-1.209-1.227-.677 0-1.209.549-1.209 1.227a1.208 1.208 0 1 0 2.418 0m-1.502 687.408c7.575 0 13.737-6.148 13.737-13.727 0-7.598-6.162-13.745-13.737-13.745-7.574 0-13.736 6.147-13.736 13.745 0 7.579 6.162 13.727 13.736 13.727m-.311-458.474a4.26 4.26 0 0 0 4.267-4.267c0-2.363-1.904-4.286-4.267-4.286s-4.268 1.923-4.268 4.286a4.26 4.26 0 0 0 4.268 4.267" fill="#f6de8b" fill-rule="evenodd"/></svg>
