<svg width="404" height="547" xmlns="http://www.w3.org/2000/svg" xmlns:xlink="http://www.w3.org/1999/xlink"><defs><path id="a" d="M0 .009h346.77v550.99H0z"/></defs><g transform="rotate(-15 171.308 174.755)" fill="none" fill-rule="evenodd"><mask id="b" fill="#fff"><use xlink:href="#a"/></mask><path d="M97.765 494.39c.878 0 1.733.41 2.282 1.156l37.91 51.739c2.053 2.803 5.69 4.218 9.072 3.55a9.137 9.137 0 0 0 7.078-6.71l16.818-66.51a2.826 2.826 0 0 1 5.48 0l16.261 64.316a9.142 9.142 0 0 0 7.076 6.711c3.438.672 7-.72 9.073-3.552l37.913-51.737a2.82 2.82 0 0 1 3.484-.884l57.915 27.383a9.119 9.119 0 0 0 9.666-1.21 9.172 9.172 0 0 0 3.036-9.28l-49.64-196.338a2.836 2.836 0 0 1 .49-2.409 2.829 2.829 0 0 1 2.187-1.12l4.587-.105c4.848-.114 8.898-3.523 9.85-8.29l1.633-8.197a2.835 2.835 0 0 1 2.217-2.223l8.173-1.638c4.758-.953 8.158-5.016 8.274-9.884l.19-8.354a2.837 2.837 0 0 1 1.798-2.575l7.766-3.039c4.519-1.765 7.163-6.36 6.433-11.172l-1.26-8.26a2.837 2.837 0 0 1 1.326-2.849l7.118-4.34c4.148-2.525 5.958-7.512 4.405-12.126l-2.67-7.915a2.836 2.836 0 0 1 .811-3.037l6.258-5.515c3.65-3.21 4.569-8.435 2.24-12.705l-4.003-7.334a2.84 2.84 0 0 1 .271-3.131l5.207-6.518c3.03-3.789 3.042-9.073.032-12.87l-.091-.116-5.148-6.441a2.84 2.84 0 0 1-.27-3.131l4.002-7.336c2.329-4.267 1.412-9.489-2.236-12.7l-6.262-5.518a2.835 2.835 0 0 1-.811-3.037l2.688-7.967c.084-.252.163-.528.225-.812.106-.43.174-.8.22-1.174l.005-.046c.032-.263.052-.525.06-.795.014-.314.016-.596.004-.874l-.024-.384c-.02-.25-.05-.498-.091-.746a9.443 9.443 0 0 0-.5-1.951 8.599 8.599 0 0 0-.338-.83 10.977 10.977 0 0 0-1.089-1.825 10.257 10.257 0 0 0-.634-.762 9.49 9.49 0 0 0-1.583-1.417 8.769 8.769 0 0 0-.56-.384l-7.236-4.413a2.841 2.841 0 0 1-1.326-2.85l1.262-8.274c.728-4.803-1.918-9.393-6.435-11.158l-7.766-3.037a2.838 2.838 0 0 1-1.8-2.578l-.188-8.38a11.34 11.34 0 0 0-.195-1.747l-.046-.23a10.98 10.98 0 0 0-.264-.94 9.707 9.707 0 0 0-.822-1.881 9.454 9.454 0 0 0-1.093-1.581 9.766 9.766 0 0 0-.68-.74l-.023-.023a8.756 8.756 0 0 0-.68-.6 9.887 9.887 0 0 0-.676-.512c-.5-.336-.858-.532-1.129-.67a10.395 10.395 0 0 0-.692-.326 10.353 10.353 0 0 0-1.964-.606l-8.183-1.639a2.835 2.835 0 0 1-2.217-2.223l-1.622-8.13a9.679 9.679 0 0 0-.227-.925 10.812 10.812 0 0 0-.38-1.092 9.816 9.816 0 0 0-.364-.77 10.49 10.49 0 0 0-.58-.991 10.999 10.999 0 0 0-1.195-1.474 9.308 9.308 0 0 0-.602-.568 10.037 10.037 0 0 0-1.558-1.121c-.396-.234-.77-.422-1.154-.588a10.994 10.994 0 0 0-1.89-.602 9.78 9.78 0 0 0-.964-.154 9.11 9.11 0 0 0-.947-.072l-8.342-.192a2.828 2.828 0 0 1-2.569-1.801l-3.003-7.724a10.6 10.6 0 0 0-.385-.873 10.188 10.188 0 0 0-.525-.94c-.012-.018-.021-.036-.033-.056a10.11 10.11 0 0 0-.533-.754 9.318 9.318 0 0 0-.704-.823 9.277 9.277 0 0 0-.674-.64 9.044 9.044 0 0 0-.81-.644 8.892 8.892 0 0 0-.726-.468 9.938 9.938 0 0 0-1.705-.808 10.503 10.503 0 0 0-1.206-.362 10.72 10.72 0 0 0-.696-.131c-.323-.052-.74-.106-1.266-.126-.304-.01-.609-.004-.924.014-.35.02-.684.052-.987.098l-8.236 1.261a2.815 2.815 0 0 1-2.842-1.327l-4.3-7.086 2.286-1.686-2.391 1.512a10.262 10.262 0 0 0-.381-.558 9.463 9.463 0 0 0-.744-.92 9.16 9.16 0 0 0-.698-.693c-.221-.2-.473-.41-.694-.58a10.937 10.937 0 0 0-1.755-1.072 10.464 10.464 0 0 0-3.795-.993 10.578 10.578 0 0 0-1.185-.002 9.632 9.632 0 0 0-2.052.313c-.22.058-.429.118-.626.182l-7.987 2.71a2.823 2.823 0 0 1-3.027-.814l-5.496-6.274c-3.205-3.657-8.418-4.583-12.678-2.245l-7.313 4.012a2.824 2.824 0 0 1-3.125-.274l-6.511-5.228c-3.783-3.035-9.072-3.037-12.863.004l-6.505 5.224a2.824 2.824 0 0 1-3.125.274l-7.317-4.014a10.206 10.206 0 0 0-12.664 2.239l-5.506 6.282a2.83 2.83 0 0 1-3.029.813l-7.875-2.673a9.6 9.6 0 0 0-.77-.224 9.427 9.427 0 0 0-1.246-.241 10.948 10.948 0 0 0-2.026-.058c-.25.016-.51.046-.772.088a9.313 9.313 0 0 0-1.93.477 9.08 9.08 0 0 0-.958.392 9.459 9.459 0 0 0-.86.46c-.2.118-.492.298-.823.54-.373.282-.605.472-.83.68a9.651 9.651 0 0 0-1.464 1.643l-.424.634-4.342 7.156a2.816 2.816 0 0 1-2.842 1.327l-8.202-1.255a9.28 9.28 0 0 0-1.12-.108 8.377 8.377 0 0 0-.832-.008 9.29 9.29 0 0 0-1.183.114 9.311 9.311 0 0 0-1.87.467c-.268.094-.531.196-.754.294l-.186.086a9.757 9.757 0 0 0-.676.352 9.573 9.573 0 0 0-1.528 1.048 10.8 10.8 0 0 0-.88.818 8.712 8.712 0 0 0-.58.665c-.167.212-.432.556-.717 1.006-.16.258-.315.536-.459.83-.158.31-.29.603-.395.881l-3.031 7.786a2.825 2.825 0 0 1-2.569 1.801l-8.386.194c-.293.008-.592.03-.893.068-.383.044-.716.1-1.047.172a9.99 9.99 0 0 0-.997.28c-.283.094-.568.2-.812.304a10.956 10.956 0 0 0-1.759.964c-.387.263-.684.51-.887.685a9.618 9.618 0 0 0-1.334 1.38 9.767 9.767 0 0 0-.545.738c-.33.51-.5.84-.554.94-.148.283-.283.571-.397.845-.185.448-.307.852-.377 1.098-.064.222-.114.41-.155.595l-1.682 8.416a2.833 2.833 0 0 1-2.217 2.223l-8.103 1.625a9.972 9.972 0 0 0-2.74.95 9.733 9.733 0 0 0-1.813 1.188 9.92 9.92 0 0 0-.726.646 11.097 11.097 0 0 0-1.26 1.509c-.18.264-.345.534-.503.822a9.647 9.647 0 0 0-.795 1.827 9.134 9.134 0 0 0-.252.908l-.063.294c-.066.338-.102.64-.122.82a10.1 10.1 0 0 0-.07.94l-.19 8.346a2.83 2.83 0 0 1-1.798 2.576l-7.768 3.039c-4.517 1.765-7.161 6.36-6.431 11.17l1.26 8.261a2.841 2.841 0 0 1-1.326 2.851l-7.271 4.435a9.407 9.407 0 0 0-.499.342 9.805 9.805 0 0 0-1.633 1.461 9.837 9.837 0 0 0-1.196 1.618 9.94 9.94 0 0 0-.844 1.777c-.114.31-.201.594-.28.88-.103.412-.159.697-.209.995a10.095 10.095 0 0 0-.121 2.086 10.15 10.15 0 0 0 .29 2.035c.075.306.152.582.24.838l2.67 7.913a2.836 2.836 0 0 1-.811 3.037l-6.26 5.516c-3.648 3.211-4.567 8.435-2.238 12.706l4.003 7.33a2.84 2.84 0 0 1-.273 3.133l-5.205 6.517c-3.042 3.801-3.044 9.107-.008 12.902l5.213 6.526c.714.894.821 2.127.273 3.131l-4.003 7.336c-2.329 4.268-1.41 9.49 2.236 12.7l6.262 5.518a2.836 2.836 0 0 1 .812 3.037l-2.669 7.909c-1.56 4.614.248 9.6 4.398 12.128l7.123 4.344a2.837 2.837 0 0 1 1.326 2.85l-1.262 8.273c-.728 4.802 1.916 9.393 6.435 11.16l7.766 3.037a2.829 2.829 0 0 1 1.799 2.575l.191 8.365c.116 4.859 3.516 8.92 8.268 9.873l8.177 1.638a2.833 2.833 0 0 1 2.217 2.223l1.634 8.193c.949 4.769 5.005 8.18 9.857 8.296l5.132.115a2.835 2.835 0 0 1 2.676 3.529l-50.192 198.52a9.177 9.177 0 0 0 3.036 9.282 9.124 9.124 0 0 0 9.666 1.21l57.915-27.386c.389-.184.8-.272 1.204-.272" fill="#231F20" mask="url(#b)"/><path fill="#20419A" d="M201.423 537l42.956-58.402L310 509.51 239.579 232 131 259.49z"/><path stroke="#231F20" stroke-width="1.196" d="M201.423 537l42.956-58.402L310 509.51 239.579 232 131 259.49z"/><path fill="#FFCB2E" d="M209.616 525L220 510.766 155.123 253 142 256.35zM299 504l-16.11-7.543L217 238.355 230.328 235z"/><path stroke="#231F20" stroke-width="1.196" d="M201.423 537l42.956-58.402L310 509.51 239.579 232 131 259.49z"/><path fill="#20419A" d="M145.577 540l-42.956-58.402L37 512.51 107.423 235 216 262.49z"/><path stroke="#231F20" stroke-width="1.196" d="M145.577 540l-42.956-58.402L37 512.51 107.423 235 216 262.49z"/><path fill="#FDDE66" d="M137.384 528L127 513.766 191.877 256 205 259.35zM48 506l16.11-7.543L130 240.355 116.672 237z"/><path stroke="#231F20" stroke-width="1.196" d="M145.577 540l-42.956-58.402L37 512.51 107.423 235 216 262.49z"/><path fill="#005BAA" d="M174 174L160.345 21.22 145 13z"/><path fill="#193483" d="M173 175L160 21.74 173 11z"/><path fill="#005BAA" d="M174 174L134.247 25.501 118 20z"/><path fill="#193483" d="M173 174L134 25.863 145.106 13z"/><path fill="#005BAA" d="M173 174L107.98 35.576 91 33z"/><path fill="#193483" d="M174 174L109 34.666 117.926 20z"/><path fill="#005BAA" d="M174 174L86.105 48 69 48.393z"/><path fill="#193483" d="M173 174L86 48.888 92.155 33z"/><path fill="#005BAA" d="M173 174L64.762 65 48 68.376z"/><path fill="#193483" d="M173 174L65 65.76 68.345 49z"/><path fill="#005BAA" d="M173 174L47.888 86 32 92.226z"/><path fill="#193483" d="M173 174L48 86.105 48.388 69z"/><path fill="#005BAA" d="M173 175L34.57 110 20 118.924z"/><path fill="#193483" d="M173 174L34.576 108.983 32 92z"/><path fill="#005BAA" d="M174 174L25.863 134 13 145.391z"/><path fill="#193483" d="M173 175L25.464 135.247 20 119z"/><path fill="#005BAA" d="M174 174L21.674 161 11 174z"/><path fill="#193483" d="M174 175L21.223 161.345 13 146z"/><path fill="#005BAA" d="M174 174L21.223 187.655 13 203z"/><path fill="#193483" d="M174 174L21.674 187 11 174z"/><path fill="#005BAA" d="M173 174L25.464 213.753 20 230z"/><path fill="#193483" d="M174 174L25.863 214 13 202.609z"/><path fill="#005BAA" d="M173 174L34.576 239.017 32 256z"/><path fill="#193483" d="M173 174L34.57 239 20 230.076z"/><path fill="#005BAA" d="M173 174L48 261.895 48.388 279z"/><path fill="#193483" d="M173 174L47.888 262 32 255.774z"/><path fill="#005BAA" d="M173 174L65 282.24 68.345 299z"/><path fill="#193483" d="M173 174L64.762 283 48 279.624z"/><path fill="#005BAA" d="M173 174L86 299.112 92.155 315z"/><path fill="#193483" d="M174 174L86.105 300 69 299.607z"/><path fill="#005BAA" d="M174 174l-65 139.334L117.926 328z"/><path fill="#193483" d="M173 174l-65.02 138.424L91 315z"/><path fill="#005BAA" d="M173 174l-39 148.137L145.106 335z"/><path fill="#193483" d="M174 174l-39.753 148.499L118 328z"/><path fill="#005BAA" d="M173 174l-13 153.262L173 338z"/><path fill="#193483" d="M174 174l-13.655 152.78L145 335z"/><path fill="#005BAA" d="M173 174l13.655 152.78L202 335z"/><path fill="#193483" d="M173 174l13 153.262L173 338z"/><path fill="#005BAA" d="M173 174l39.753 148.499L229 328z"/><path fill="#193483" d="M173 174l39 148.137L200.894 335z"/><path fill="#005BAA" d="M173 174l65.017 138.424L255 315z"/><path fill="#193483" d="M173 174l65 139.334L229.076 328z"/><path fill="#005BAA" d="M173 174l87.895 126 17.105-.393z"/><path fill="#193483" d="M173 174l87 125.112L253.845 315z"/><path fill="#005BAA" d="M173 174l108.24 109 16.76-3.376z"/><path fill="#193483" d="M173 174l108 108.24-3.345 16.76z"/><path fill="#005BAA" d="M173 174l125.112 88L314 255.774z"/><path fill="#193483" d="M173 174l125 87.895-.39 17.105z"/><path fill="#005BAA" d="M173 174l138.427 65L326 230.076z"/><path fill="#193483" d="M173 174l138.422 65.017L314 256z"/><path fill="#005BAA" d="M173 174l148.137 40L334 202.609z"/><path fill="#193483" d="M173 174l147.534 39.753L326 230z"/><path fill="#005BAA" d="M173 174l152.328 13L336 174z"/><path fill="#193483" d="M173 174l152.78 13.655L334 203z"/><path fill="#005BAA" d="M173 175l152.78-13.655L334 146z"/><path fill="#193483" d="M173 174l152.328-13L336 174z"/><path fill="#005BAA" d="M173 175l147.534-39.753L326 119z"/><path fill="#193483" d="M173 174l148.137-40L334 145.391z"/><path fill="#005BAA" d="M173 174l138.422-65.017L314 92z"/><path fill="#193483" d="M173 175l138.427-65L326 118.924z"/><path fill="#005BAA" d="M173 174l125-87.895L297.61 69z"/><path fill="#193483" d="M173 174l125.112-88L314 92.226z"/><path fill="#005BAA" d="M173 174L281 65.76 277.655 49z"/><path fill="#193483" d="M173 174L281.24 65 298 68.376z"/><path fill="#005BAA" d="M173 174l87-125.112L253.845 33z"/><path fill="#193483" d="M173 174l87.895-126 17.105.393z"/><path fill="#005BAA" d="M173 174l65-139.334L229.076 20z"/><path fill="#193483" d="M173 174l65.017-138.424L255 33z"/><path fill="#005BAA" d="M173 174l39-148.137L200.894 13z"/><path fill="#193483" d="M173 174l39.753-148.499L229 20z"/><path fill="#005BAA" d="M173 175l13-153.26L173 11z"/><path fill="#193483" d="M173 174l13.655-152.78L202 13z"/><path stroke="#231F20" stroke-width="1.196" stroke-linecap="round" stroke-linejoin="round" d="M65 283l3.28 16.612L85 300m32-280l-8.96 15L91 32.348m139-11.069L213.753 27l-11.32-13.41-15.046 8.57L174 11l-13.387 11.16-15.045-8.57L134.247 27 118 21.279"/><path stroke="#231F20" stroke-width="1.196" stroke-linecap="round" stroke-linejoin="round" d="M255 32.348L237.96 35 229 20m50 29l-17.601-.384L255 33m43 36l-16.666-3.334L278 49m49 69l-14.945-8.868 2.642-16.868L298.4 86.06 298 69m23 146l13.411-11.35-8.571-15.084L337 175.144l-11.16-13.422 8.571-15.084L321 135.288 326.722 119"/><path stroke="#231F20" stroke-width="1.196" stroke-linecap="round" stroke-linejoin="round" d="M312 238l15-8.856L321.376 213M261 300l16.72-.388L281 283m-147 39.595l11.245 12.912 14.945-8.252L173.488 338l13.298-10.745 14.944 8.252 11.246-12.912 16.138 5.51 8.854-14.687 16.84 2.597L261 300m-152 13l8.858 15L134 322.373M34.576 239L32 255.683l15.888 6.134.388 16.875L65 282"/><path stroke="#231F20" stroke-width="1.196" stroke-linecap="round" stroke-linejoin="round" d="M20.663 119l5.378 16.258-12.606 11.331 8.056 15.054L11 175.04l10.491 13.397-8.056 15.055 12.606 11.33-5.378 16.26L35 240M49 69l-.4 17.06-16.297 6.202 2.644 16.87L20 118m48-69l-3.334 16.666L48 69m45-36l-6.399 15.614L69 49m213 233l16.722-3.31.39-16.873L315 255.683 312.424 239M86 300l6.183 16L109 313.406"/><path d="M173 174c-.55 0-1-.448-1-1s.444-1 .994-1h.007a1 1 0 0 1 0 2" fill="#231F20"/><path d="M173.002 174c-.551 0-1.002-.448-1.002-1s.444-1 .995-1h.007c.552 0 .998.448.998 1s-.446 1-.998 1" fill="#231F20"/><path d="M173.002 174c-.551 0-1.002-.448-1.002-1s.444-1 .995-1h.007c.552 0 .998.448.998 1s-.446 1-.998 1" fill="#231F20"/><path d="M173.002 174c-.551 0-1.002-.448-1.002-1s.444-1 .995-1h.007c.552 0 .998.448.998 1s-.446 1-.998 1" fill="#231F20"/><path d="M173.002 174c-.551 0-1.002-.448-1.002-1s.444-1 .995-1h.007c.552 0 .998.448.998 1s-.446 1-.998 1" fill="#231F20"/><path d="M173 174c-.55 0-1-.448-1-1s.444-1 .994-1h.007a1 1 0 0 1 0 2" fill="#231F20"/><path d="M279 179c0 58.542-47.235 106-105.499 106C115.233 285 68 237.542 68 179S115.233 73 173.501 73C231.765 73 279 120.458 279 179" fill="#FFCB2E"/><path d="M266 178.501C266 229.587 224.587 271 173.501 271 122.413 271 81 229.587 81 178.501S122.413 86 173.501 86C224.587 86 266 127.415 266 178.501" fill="#00A550"/><path d="M180.043 116.89H187L148.097 179h-6.957l15.971-25.569a90.723 90.723 0 0 1-3.938 4.051 44.879 44.879 0 0 1-4.047 3.492c-1.348 1.026-2.662 1.842-3.94 2.446-1.278.607-2.46.91-3.55.91-.898 0-1.632-.247-2.2-.735a3.757 3.757 0 0 1-1.172-1.815c-.212-.722-.246-1.504-.105-2.341.142-.84.449-1.63.922-2.377 4.45-6.892 8.448-13.179 11.999-18.863 2.08-3.4 3.738-6.137 4.967-8.209a270 270 0 0 0 3.408-5.903 86.515 86.515 0 0 0 2.557-4.89c.663-1.398.994-2.352.994-2.866 0-.604-.168-1.105-.497-1.501-.332-.396-.924-.595-1.776-.595-3.03 0-6.059.804-9.086 2.41-3.03 1.608-5.882 3.6-8.555 5.975a55.263 55.263 0 0 0-7.24 7.79c-2.155 2.818-3.895 5.415-5.218 7.79-1.326 2.374-2.154 4.367-2.486 5.974-.331 1.604 0 2.41.995 2.41.852 0 1.798-.233 2.839-.7a21.931 21.931 0 0 0 3.23-1.816 43.189 43.189 0 0 0 3.408-2.55 50.533 50.533 0 0 0 3.302-2.969c2.459-2.376 4.99-5.053 7.596-8.036h2.2c-2.651 3.262-5.324 6.173-8.022 8.734-1.562 1.585-2.924 2.83-4.082 3.737a34.169 34.169 0 0 1-3.621 2.482 24.164 24.164 0 0 1-3.833 1.85c-1.302.489-2.567.734-3.797.734-2.84 0-4.71-.883-5.61-2.655-.897-1.768-.994-3.994-.283-6.67.71-2.68 2.189-5.579 4.436-8.701 2.247-3.119 5.1-6.018 8.555-8.697 3.454-2.679 7.477-4.902 12.068-6.672 4.591-1.77 9.582-2.655 14.98-2.655 2.413 0 4.033.5 4.862 1.501.826 1.003 1.218 2.202 1.172 3.598 0 .56-.346 1.573-1.03 3.04a130.632 130.632 0 0 1-2.664 5.31 164.29 164.29 0 0 1-3.76 6.742 1445.607 1445.607 0 0 1-4.331 7.335 979.203 979.203 0 0 1-11.783 19.143c-.426.698-.536 1.188-.321 1.468.214.28.46.42.745.42.427 0 1.09-.372 1.987-1.118.899-.746 1.964-1.712 3.196-2.9a116.418 116.418 0 0 0 3.94-4.017 248.145 248.145 0 0 0 4.083-4.472 356.59 356.59 0 0 0 3.76-4.296c1.182-1.374 2.179-2.526 2.983-3.458l14.695-23.406zm12.827 32.052c1.916-.465 3.95-1.23 6.099-2.302 2.15-1.068 4.161-2.672 6.031-4.809v2.788c-1.403 1.534-2.84 2.812-4.313 3.834-1.47 1.024-2.873 1.848-4.205 2.475-1.333.627-2.572 1.094-3.718 1.395a34.04 34.04 0 0 1-2.977.663 53.27 53.27 0 0 1-4.103 4.181 36.856 36.856 0 0 1-4.453 3.52c-1.496 1.001-2.943 1.803-4.346 2.408-1.401.603-2.665.905-3.786.905-.607 0-1.261-.105-1.964-.314a5.758 5.758 0 0 1-1.964-1.045c-.604-.489-1.121-1.173-1.54-2.056-.421-.883-.631-1.975-.631-3.277 0-1.627.42-3.381 1.261-5.265.842-1.88 1.952-3.752 3.331-5.612a45.946 45.946 0 0 1 4.732-5.402 47.206 47.206 0 0 1 5.47-4.635c1.868-1.348 3.726-2.417 5.572-3.21 1.846-.79 3.516-1.184 5.013-1.184.655 0 1.04.187 1.158.558.115.373.036.557-.248.557-1.026 0-2.219.395-3.574 1.187-1.355.79-2.734 1.848-4.137 3.171-1.401 1.324-2.768 2.848-4.101 4.567a50.189 50.189 0 0 0-3.575 5.262 33.716 33.716 0 0 0-2.56 5.335c-.653 1.766-.98 3.371-.98 4.81 0 .929.128 1.534.383 1.812.26.28.597.419 1.018.419.373 0 .864-.22 1.473-.663.607-.44 1.285-1.034 2.034-1.776a34.53 34.53 0 0 0 2.346-2.616 60.02 60.02 0 0 0 2.421-3.173 2.779 2.779 0 0 1-.211-.522 2.201 2.201 0 0 1-.07-.593c0-.742.257-1.37.77-1.882.515-.512 1.146-.79 1.894-.837.934-1.578 1.682-3.102 2.245-4.564.559-1.467.838-2.8.838-4.009 0-.419-.07-.71-.21-.873-.139-.163-.279-.244-.418-.244-.282 0-.537.129-.773.385-.233.254-.467.38-.7.38-.281 0-.34-.172-.176-.521.164-.35.455-.72.876-1.115.422-.395.958-.767 1.613-1.116a4.398 4.398 0 0 1 2.103-.522c.982 0 1.882.417 2.7 1.255.817.837 1.226 2.371 1.226 4.602 0 1.115-.255 2.333-.77 3.659-.515 1.324-1.218 2.661-2.104 4.009" fill="#FFCB2E"/><path d="M211.571 160.238c.513 0 1.222-.267 2.128-.8.908-.534 1.91-1.23 3.004-2.09a80.433 80.433 0 0 0 3.488-2.928 123.053 123.053 0 0 0 3.664-3.379c2.84-2.693 5.887-5.758 9.145-9.195v2.786c-3.306 3.623-6.493 6.851-9.562 9.683-1.816 1.72-3.352 3.078-4.607 4.077a47.206 47.206 0 0 1-3.839 2.753 26.959 26.959 0 0 1-3.804 2.054c-1.234.533-2.339.801-3.316.801-1.071 0-1.874-.246-2.408-.732a3.614 3.614 0 0 1-1.081-1.81 5.1 5.1 0 0 1-.07-2.23c.14-.766.348-1.429.628-1.986.65-1.067 1.327-2.16 2.023-3.274.7-1.114 1.373-2.205 2.026-3.274a163.117 163.117 0 0 1-4.363 4.738 68.122 68.122 0 0 1-4.468 4.283c-1.464 1.279-2.849 2.31-4.152 3.1-1.301.79-2.444 1.185-3.421 1.185-.93 0-1.673-.232-2.233-.698a3.52 3.52 0 0 1-1.15-1.741 5.111 5.111 0 0 1-.142-2.229c.117-.79.362-1.485.733-2.09 1.675-2.693 3.364-5.41 5.06-8.15 1.7-2.74 3.247-5.249 4.644-7.526 1.394-2.274 2.58-4.19 3.558-5.744.977-1.557 1.56-2.497 1.744-2.822h6.771c-.232.325-.733 1.126-1.5 2.403a273.411 273.411 0 0 1-3.002 4.84 627.001 627.001 0 0 0-4.222 6.793c-1.581 2.58-3.306 5.375-5.165 8.396a2.883 2.883 0 0 1-.21.347 3.39 3.39 0 0 0-.14.906c0 .28.072.452.21.521.14.072.303.105.49.105.744 0 1.626-.347 2.652-1.043 1.02-.698 2.116-1.614 3.28-2.752a62.241 62.241 0 0 0 3.63-3.9 98.1 98.1 0 0 0 3.63-4.496c2.79-3.528 5.697-7.57 8.723-12.12h6.84c-.234.325-.85 1.287-1.85 2.89-1 1.603-2.232 3.588-3.699 5.956a15988.842 15988.842 0 0 0-10.367 16.79c-.37.65-.417 1.079-.136 1.287.278.21.558.315.836.315M141 173c-.14.236-.48.777-1.016 1.627-.538.848-1.193 1.91-1.963 3.182a402.235 402.235 0 0 1-2.7 4.388 311.849 311.849 0 0 0-3.222 5.305h6.798a89.628 89.628 0 0 0-1.052 1.911 38.651 38.651 0 0 1-1.051 1.839h-7.01a929.093 929.093 0 0 1-4.907 8.065 1026.18 1026.18 0 0 0-4.803 7.888 665.513 665.513 0 0 1-4.204 6.9 227.377 227.377 0 0 0-3.12 5.164c-.422.708-.525 1.202-.316 1.486.21.284.457.425.736.425.515 0 1.226-.27 2.14-.814.91-.544 1.925-1.248 3.046-2.123a58.963 58.963 0 0 0 3.542-3.006 169.669 169.669 0 0 0 3.68-3.468c2.897-2.735 5.982-5.846 9.252-9.338v2.831c-3.318 3.677-6.543 6.956-9.673 9.832-1.868 1.794-3.434 3.196-4.697 4.21a50.64 50.64 0 0 1-3.82 2.794 24.354 24.354 0 0 1-3.82 2.088c-1.262.544-2.383.814-3.365.814-.934 0-1.67-.248-2.209-.743a3.676 3.676 0 0 1-1.085-1.84c-.186-.732-.212-1.533-.072-2.405a6.649 6.649 0 0 1 .912-2.441 417.525 417.525 0 0 1 3.47-5.766 1347.24 1347.24 0 0 0 4.03-6.615 1432.27 1432.27 0 0 1 4.278-7.005 719.593 719.593 0 0 0 4.205-6.933h-6.59c.374-.613.737-1.225 1.086-1.839.352-.612.713-1.249 1.088-1.911h6.728a760.714 760.714 0 0 1 3.297-5.411 856.99 856.99 0 0 0 2.697-4.423 282.614 282.614 0 0 1 1.93-3.148c.51-.823.838-1.333.98-1.52h6.8z" fill="#FFCB2E"/><path d="M137.29 221.212c.512 0 1.19-.27 2.032-.806.84-.537 1.74-1.238 2.697-2.105a68.309 68.309 0 0 0 3.049-2.947 87.07 87.07 0 0 0 3.154-3.402c2.43-2.663 5.023-5.726 7.778-9.186v2.805c-2.755 3.646-5.49 6.872-8.197 9.68-1.59 1.729-2.945 3.098-4.068 4.103a41.233 41.233 0 0 1-3.433 2.77 21.143 21.143 0 0 1-3.503 2.07c-1.17.536-2.243.806-3.224.806-.327 0-.69-.058-1.087-.176a3.29 3.29 0 0 1-1.155-.63c-.373-.304-.69-.76-.946-1.368-.257-.61-.387-1.404-.387-2.386 0-.653.245-1.518.736-2.594a37.759 37.759 0 0 1 1.857-3.508c.749-1.264 1.54-2.548 2.382-3.857.842-1.308 1.636-2.56 2.384-3.752a57.507 57.507 0 0 0 1.858-3.157c.488-.912.736-1.58.736-1.998 0-.563-.188-1.077-.56-1.544a62.454 62.454 0 0 0-1.543 1.893 94.248 94.248 0 0 0-1.402 1.823l-1.542 1.825v-2.805c.327-.328.654-.703.981-1.122.325-.376.666-.785 1.015-1.23.352-.444.737-.92 1.158-1.438-.7-.421-1.415-.876-2.139-1.368-.724-.489-1.085-1.32-1.085-2.49 0-.84.211-1.762.63-2.77a12.268 12.268 0 0 1 1.718-2.876 11.114 11.114 0 0 1 2.557-2.348 6.63 6.63 0 0 1 3.156-1.124h.14c.558 0 1.073.236 1.54.7.469.47.469.94 0 1.404-.606.657-1.179 1.498-1.716 2.526-.538 1.028-.806 2.268-.806 3.718.046.094.07.28.07.56.186 1.17.864 2.163 2.033 2.982 1.167.818 2.428 1.228 3.784 1.228-2.338 4.115-4.347 7.785-6.026 11.013-1.078 1.963-1.893 3.518-2.454 4.662a55.442 55.442 0 0 0-1.436 3.159c-.4.958-.679 1.741-.842 2.348-.164.609-.13.912.105.912" fill="#FFCB2E"/><path d="M168.92 187.518c-.855 0-1.425-.314-1.712-.943-.284-.631-.332-1.4-.142-2.307.19-.91.57-1.913 1.14-3.01a14.866 14.866 0 0 1 2.067-3.005 12.621 12.621 0 0 1 2.709-2.308c1-.629 2.02-.945 3.066-.945.951 0 1.544.316 1.783.945.238.63.224 1.398-.036 2.308-.262.91-.737 1.912-1.427 3.005a20.903 20.903 0 0 1-2.28 3.01 15.209 15.209 0 0 1-2.636 2.307c-.928.629-1.772.943-2.533.943m-16.396 33.706c.524 0 1.248-.267 2.173-.804.928-.536 1.95-1.234 3.067-2.098a80.5 80.5 0 0 0 3.565-2.936 127.737 127.737 0 0 0 3.742-3.394c2.9-2.701 6.01-5.779 9.34-9.228v2.797c-3.376 3.634-6.656 6.877-9.84 9.72-1.852 1.723-3.42 3.089-4.703 4.09a51.937 51.937 0 0 1-3.886 2.763 25.818 25.818 0 0 1-3.85 2.062c-1.26.535-2.388.804-3.386.804-1.092 0-1.926-.245-2.494-.735a3.306 3.306 0 0 1-1.106-1.817 5.905 5.905 0 0 1-.071-2.237c.12-.77.32-1.435.605-1.995 1.712-2.703 3.435-5.43 5.168-8.18a3039.913 3039.913 0 0 1 8.448-13.32c1-1.564 1.592-2.507 1.783-2.834h6.914c-.238.327-.855 1.294-1.853 2.902-.998 1.609-2.246 3.601-3.742 5.98a2358.27 2358.27 0 0 1-5.026 7.936 619.763 619.763 0 0 0-5.562 8.916c-.426.655-.485 1.084-.177 1.293.309.21.607.315.891.315" fill="#FFCB2E"/><path d="M189.783 196.786c-.698 0-1.579.407-2.648 1.218-1.069.813-2.195 1.881-3.379 3.204a53.873 53.873 0 0 0-3.554 4.46 56.084 56.084 0 0 0-3.169 4.912c1.579-.048 3.157-.5 4.738-1.36a19.093 19.093 0 0 0 4.284-3.17 17.478 17.478 0 0 0 3.135-4.11c.813-1.485 1.22-2.856 1.22-4.109 0-.698-.21-1.045-.627-1.045m-13.377 24.173c1.16 0 2.392-.254 3.693-.766 1.299-.511 2.636-1.195 4.006-2.056a45.156 45.156 0 0 0 4.11-2.925 92.79 92.79 0 0 0 3.936-3.31c2.925-2.647 5.876-5.665 8.849-9.056v2.786c-3.112 3.623-6.25 6.851-9.406 9.683-1.811 1.72-3.38 3.078-4.702 4.075a43.167 43.167 0 0 1-4.112 2.753 25.795 25.795 0 0 1-4.32 2.054c-1.46.535-2.845.803-4.144.803-2.09 0-3.832-.617-5.226-1.848-1.394-1.23-2.09-3.19-2.09-5.886 0-2.229.696-4.69 2.09-7.384 1.394-2.693 3.205-5.214 5.434-7.56a33.09 33.09 0 0 1 7.527-5.92c2.786-1.603 5.572-2.402 8.359-2.402 1.533 0 2.66.464 3.38 1.392.719.93 1.078 1.81 1.078 2.647 0 2.463-.72 4.587-2.16 6.374a18.21 18.21 0 0 1-5.118 4.39 25.072 25.072 0 0 1-6.132 2.542c-2.115.557-3.868.837-5.262.837-.65 1.208-1.15 2.356-1.497 3.446-.35 1.093-.522 2.033-.522 2.822 0 .791.173 1.406.522 1.846.347.443.916.663 1.707.663" fill="#FFCB2E"/><path d="M202.05 218.908c.698 0 1.578-.436 2.646-1.31 1.069-.874 2.218-1.985 3.45-3.33a58.965 58.965 0 0 0 3.688-4.5 78.404 78.404 0 0 0 3.344-4.853c.995-1.581 1.81-3.045 2.438-4.392.624-1.346.94-2.374.94-3.082 0-.518-.06-.98-.177-1.381-.115-.402-.359-.601-.731-.601-.79 0-1.891.579-3.307 1.734-1.417 1.158-2.901 2.612-4.457 4.358a73.502 73.502 0 0 0-4.525 5.632c-1.463 2.007-2.647 3.884-3.552 5.633-.904 1.746-1.394 3.2-1.461 4.356-.072 1.157.5 1.736 1.704 1.736m11.142 2.267c.511 0 1.219-.27 2.125-.815.904-.543 1.903-1.25 2.993-2.126a78.078 78.078 0 0 0 3.482-2.976 123.063 123.063 0 0 0 3.655-3.436c2.83-2.739 5.873-5.855 9.122-9.35v2.834c-3.296 3.682-6.474 6.965-9.54 9.847-1.81 1.746-3.342 3.13-4.594 4.144a46.47 46.47 0 0 1-3.832 2.8 26.612 26.612 0 0 1-3.794 2.088c-1.229.543-2.333.815-3.308.815a3.75 3.75 0 0 1-1.078-.177 3.244 3.244 0 0 1-1.15-.638c-.372-.306-.684-.768-.94-1.381-.255-.615-.382-1.418-.382-2.41 0-.377.115-.92.349-1.627-1.627 1.746-3.25 3.222-4.874 4.426-1.625 1.204-3.066 1.807-4.319 1.807-.278 0-.65-.07-1.114-.212-.464-.14-.918-.45-1.358-.921-.44-.472-.824-1.122-1.15-1.948-.322-.827-.485-1.924-.485-3.295 0-1.37.394-2.929 1.183-4.675.79-1.748 1.834-3.555 3.132-5.42a48.362 48.362 0 0 1 4.492-5.492 46.104 46.104 0 0 1 5.292-4.817c1.833-1.416 3.657-2.562 5.466-3.435 1.81-.873 3.505-1.31 5.083-1.31.652 0 1.161.19 1.534.566.37.377.648.85.834 1.418L233.178 173H240c-.51.849-1.322 2.184-2.436 4.003a412.088 412.088 0 0 0-3.796 6.34 1527.833 1527.833 0 0 0-9.401 16.26c-1.6 2.811-3.12 5.513-4.559 8.11a385.78 385.78 0 0 0-3.726 6.871c-1.045 1.985-1.834 3.58-2.367 4.784-.535 1.204-.71 1.807-.523 1.807" fill="#FFCB2E"/></g></svg>
