
<?xml version="1.0" encoding="UTF-8"?>
<svg xmlns="http://www.w3.org/2000/svg" viewBox="0 0 95.29 30.24">
  <path d="M67.56,11.07h-.3A4.19,4.19,0,0,0,63,15.23v.2a4.23,4.23,0,1,0,8.45.41,2.81,2.81,0,0,0,0-.41A4.15,4.15,0,0,0,67.56,11.07Z"></path>
  <path d="M28.38,10.82h-.26a4.12,4.12,0,0,0-4.22,4v.28a4.23,4.23,0,0,0,8.45.41,2.81,2.81,0,0,0,0-.41A4.15,4.15,0,0,0,28.38,10.82Z"></path>
  <path d="M47.65,0C21.34,0,0,6.77,0,15.12S21.33,30.24,47.65,30.24,95.3,23.47,95.3,15.12,74,0,47.65,0ZM28.12,23.15c-4.95,0-8.54-3.33-8.54-7.92s3.51-7.84,8.54-7.84,8.55,3.22,8.55,7.84S33.08,23.15,28.12,23.15Zm27.63-3-3,3-5-4.95-5.05,5-3-3,5-5-5.08-5.07,3-3,5.09,5.07,5-5,3,3-5,5Zm20.06-4.81c0,4.64-3.51,7.86-8.55,7.86S58.72,20,58.72,15.34s3.59-7.93,8.55-7.93,8.46,3.26,8.54,7.77Z"></path>
</svg>
