	<svg id="defs" xmlns="http://www.w3.org/2000/svg" xmlns:xlink="http://www.w3.org/1999/xlink" class="a11y">

		<!-- Logos -->
		<symbol id="basic-logo" viewBox="0 0 173.38 26.97">
			<path d="M0,26.54V.43H11.2c5.28,0,8.68,2.66,8.68,6.79A6.41,6.41,0,0,1,16.69,13c3,1.23,4.58,3.31,4.58,6.17,0,4.57-3.69,7.41-9.62,7.41ZM11.73,23c3.53,0,5.63-1.49,5.63-4,0-3.15-3.34-3.8-6.13-3.8H3.84V23Zm-1-11.36c1.58,0,5.24-.39,5.24-4,0-2.29-1.83-3.6-5-3.6H3.84v7.57Z" />
			<rect x="123.5" y="0.43" width="3.87" height="26.11" />
			<polygon points="58.23 26.54 51.24 5.42 44.26 26.54 40.17 26.54 48.81 0.43 53.68 0.43 62.31 26.54 58.23 26.54" />
			<path d="M92.24,26.89a15.08,15.08,0,0,1-10.59-4.14l-.38-.34,2.43-2.88.4.36a11.37,11.37,0,0,0,8.23,3.41c3,0,5.07-1.52,5.07-3.77,0-2-.94-3.2-6.1-4.28s-8.83-2.92-8.83-7.78c0-4.29,3.68-7.4,8.76-7.4a13.52,13.52,0,0,1,9.14,3.2l.4.32-2.29,3-.42-.34a10.46,10.46,0,0,0-6.9-2.61c-2.84,0-4.81,1.46-4.81,3.56s1,3.23,6.39,4.39c6,1.31,8.58,3.6,8.58,7.64C101.32,23.75,97.59,26.89,92.24,26.89Z" />
			<path d="M162.61,27c-7.46,0-13.08-5.78-13.08-13.45S155.2,0,162.72,0a13.5,13.5,0,0,1,10.13,4.12l.38.36-2.65,2.84L170.19,7a10.23,10.23,0,0,0-7.52-3.3c-5.23,0-9.17,4.21-9.17,9.79s3.94,9.86,9.17,9.86c3.4,0,5.55-1.38,7.73-3.47l.37-.35L173.38,22l-.37.37A13.6,13.6,0,0,1,162.61,27Z" />
		</symbol>

		<symbol id="basic-logo-mark" viewBox="0 0 150 150">
			<path d="M75,148.07A73.07,73.07,0,1,1,148.07,75,73.15,73.15,0,0,1,75,148.07ZM75,11.7A63.3,63.3,0,1,0,138.3,75,63.37,63.37,0,0,0,75,11.7Z" />
  			<path d="M95.3,72.88c6.23-4.67,6.92-11.69,6.92-14.61,0-2.14-.87-18.6-22.11-18.6H50.61v69.57l-5,9.52h10.8l5-9.35H81.76c19.48,0,24.16-12.28,24.16-19.58C105.92,82.23,102.12,76.48,95.3,72.88Zm-2.63-14c0,3.72-3,9.51-10.14,10.55l8.57-16.17A10,10,0,0,1,92.67,58.85ZM60.15,48.73H80.5a21.38,21.38,0,0,1,2.15.1l-11,20.74H60.15Zm0,29.81h6.74L60.15,91.24Zm23.56,21.82H66.12L77.69,78.53h6.89c3.9,0,11.6,3.41,11.6,11.29C96.18,94.79,91.7,100.35,83.71,100.35Z" />
		</symbol>

		<!-- Icons -->
		<symbol id="icon-arrow" viewbox="0 0 18 7">
			<path d="M14,3.09H0" fill="none" />
			<polyline points="11.34 5.83 13.97 3.09 11.34 0.35" fill="none" />
		</symbol>

		<symbol id="icon-pause" viewBox="0 0 60.75 83.75">
			<rect width="20" height="83.75"/>
			<rect x="40.75" width="20" height="83.75"/>
		</symbol>

		<symbol id="icon-play" viewBox="0 0 15 18">
			<polygon points="0 0 0 18 15 9 0 0" />
		</symbol>

		<symbol id="icon-caret-left" viewBox="0 0 9.53 17.55">
			<polygon points="9.53 0.84 8.68 0 0.01 8.78 8.68 17.55 9.53 16.71 1.69 8.78 9.53 0.84"/>
		</symbol>

		<symbol id="icon-share" viewBox="0 0 40.35 40.5">
			<polygon points="28.05 22.21 28.05 37.5 3 37.5 3 12.45 17.75 12.45 20.75 9.45 0 9.45 0 40.5 31.05 40.5 31.05 19.21 28.05 22.21"/>
			<polygon points="40.23 0 37.35 0 19.9 0 19.9 3 35.11 3 14.33 23.78 16.45 25.9 37.35 5 37.35 20.97 40.35 20.97 40.35 0 40.23 0 40.23 0"/>
		</symbol>

		<symbol id="icon-close" viewBox="0 0 17.36 17.55">
			<polygon points="9.53 8.78 9.52 8.78 17.36 0.84 16.51 0 8.68 7.92 0.85 0 0 0.84 7.84 8.78 7.84 8.78 7.84 8.78 0 16.71 0.85 17.55 8.68 9.63 16.51 17.55 17.36 16.71 9.53 8.78 9.53 8.78"/>
		</symbol>

		<symbol id="icon-caret-down" viewBox="0 0 18.68 10.66">
			<polygon points="18.5 1.41 17.08 0 9.25 7.83 1.41 0 0 1.41 7.83 9.25 9.25 10.66 10.66 9.25 10.66 9.25 18.5 1.41" />
		</symbol>

		<symbol id="icon-caret-down-large" viewBox="0 0 40.03 14.97">
		  <polygon points="38.07 0 20.02 10.28 1.96 0 0 3.35 20.02 14.96 40.03 3.35 38.07 0" fill-rule="evenodd" />
		</symbol>

		<symbol id="icon-plus" viewBox="0 0 37.13 37.13">
			<line x1="37.13" y1="18.56" y2="18.56" fill="none" stroke-miterlimit="10" stroke-width="2"/>
			<line x1="18.56" y1="37.13" x2="18.56" fill="none" stroke-miterlimit="10" stroke-width="2"/>
		</symbol>

		<symbol id="icon-fullscreen" viewBox="0 0 161.5 161.5">
			<path d="M23.81,14.41,62.51,52,51.76,62.13l-36.93-38v34H.16V0H58.27V14.41Z" />
			<path d="M98.48,110l11-11,37.14,38.27v-34h14.68V161.5H103.23V147.09h33.08Z" />
			<path d="M147.09,23.81l-37.59,38.7L99.37,51.76l38-36.93h-34V.16H161.5V58.27H147.09Z" />
			<path d="M51.47,98.48l11,11L24.16,146.66h34v14.68H0V103.23H14.41v33.08Z" />
		</symbol>

		<symbol id="icon-fullscreen-close" viewBox="0 0 161.5 161.5">
			<path d="M38.86,47.72.16,10.12,10.91,0,47.84,38V4H62.51V62.13H4.4V47.72Z"/>
			<path d="M161.34,150.53l-11,11-37.14-38.27v34H98.48V99.07H156.6v14.41H123.51Z"/>
			<path d="M113.79,38.86,151.38.16,161.5,10.91l-38,36.93h34V62.51H99.37V4.4h14.41Z"/>
			<path d="M11,161.34l-11-11,38.27-37.14h-34V98.48H62.44V156.6H48V123.51Z"/>
		</symbol>


		<symbol id="squiggle" viewBox="0 0 1310.8 252.79">
			<path d="M873,164.19c-2.7,0-5.41,0-8.11-2.7L654.06,31.76,443.24,161.49c-5.4,2.7-10.81,2.7-13.52,0L224.33,31.76,0,171.6V137.16L216.22,4.73c5.4-2.7,10.81-2.7,13.5,0l208.11,127L648.64,2c5.41-2.7,10.81-2.7,13.5,0L873,134.46,1081.08,4.73c5.4-2.7,10.81-2.7,13.5,0L1310.8,137.16V171.6L1089.19,31.76,881.08,161.49c-2.7,0-5.43,2.7-8.13,2.7Z" />
  			<path d="M873,245.27c-2.7,0-5.41,0-8.11-2.7L654.06,112.84,443.24,242.59c-5.4,2.7-10.81,2.7-13.52,0L224.33,112.84,0,250.88V218.24L216.22,85.81c5.4-2.7,10.81-2.7,13.5,0L435.13,215.54,645.95,85.81c5.41-2.7,10.81-2.7,13.5,0l210.81,129.7L1078.37,85.78c5.4-2.7,10.81-2.7,13.5,0L1310.8,218.24v32.64L1089.16,112.81,881.08,242.59c-2.7,0-5.43,2.7-8.13,2.68Z" />
		</symbol>
	</svg>